<mxfile host="app.diagrams.net" modified="2020-08-27T21:28:48.439Z" agent="5.0 (Windows NT 10.0; Win64; x64) AppleWebKit/537.36 (KHTML, like Gecko) Chrome/84.0.4147.135 Safari/537.36" etag="Fbbh4UVMY6KNFPAR5sFV" version="13.6.5" type="github">
  <diagram id="gk7jj-0xAMRKk1yXUmY_" name="Page-1">
    <mxGraphModel dx="2249" dy="745" grid="1" gridSize="10" guides="1" tooltips="1" connect="1" arrows="1" fold="1" page="1" pageScale="1" pageWidth="827" pageHeight="1169" math="0" shadow="0">
      <root>
        <mxCell id="0" />
        <mxCell id="1" parent="0" />
        <mxCell id="Tr4Ijnzuf_Oq11rNW6Xd-3" style="edgeStyle=orthogonalEdgeStyle;rounded=0;orthogonalLoop=1;jettySize=auto;html=1;" parent="1" source="YS14sISvhILDECjVXfzp-1" target="Tr4Ijnzuf_Oq11rNW6Xd-4" edge="1">
          <mxGeometry relative="1" as="geometry">
            <mxPoint x="580" y="350.0999999999999" as="targetPoint" />
          </mxGeometry>
        </mxCell>
        <mxCell id="Tr4Ijnzuf_Oq11rNW6Xd-4" value="" style="shape=image;html=1;verticalAlign=top;verticalLabelPosition=bottom;labelBackgroundColor=#ffffff;imageAspect=0;aspect=fixed;image=https://cdn4.iconfinder.com/data/icons/logos-3/504/my_sql-128.png" parent="1" vertex="1">
          <mxGeometry x="570" y="308.45" width="84.9" height="84.9" as="geometry" />
        </mxCell>
        <mxCell id="Tr4Ijnzuf_Oq11rNW6Xd-6" value="" style="aspect=fixed;html=1;points=[];align=center;image;fontSize=12;image=img/lib/mscae/dep/SQL_Server_Stretch_DB.svg;" parent="1" vertex="1">
          <mxGeometry x="587.45" y="210" width="50" height="50" as="geometry" />
        </mxCell>
        <mxCell id="Tr4Ijnzuf_Oq11rNW6Xd-8" value="" style="points=[];aspect=fixed;html=1;align=center;shadow=0;dashed=0;image;image=img/lib/allied_telesis/computer_and_terminals/Personal_Computer.svg;" parent="1" vertex="1">
          <mxGeometry x="10" y="320" width="45.6" height="61.800000000000004" as="geometry" />
        </mxCell>
        <mxCell id="YS14sISvhILDECjVXfzp-6" value="" style="edgeStyle=orthogonalEdgeStyle;rounded=0;orthogonalLoop=1;jettySize=auto;html=1;" edge="1" parent="1" source="YS14sISvhILDECjVXfzp-7" target="Tr4Ijnzuf_Oq11rNW6Xd-8">
          <mxGeometry relative="1" as="geometry" />
        </mxCell>
        <mxCell id="Tr4Ijnzuf_Oq11rNW6Xd-10" value="" style="shape=image;verticalLabelPosition=bottom;labelBackgroundColor=#ffffff;verticalAlign=top;aspect=fixed;imageAspect=0;image=data:image/png,iVBORw0KGgoAAAANSUhEUgAAAggAAAIICAYAAAAL/BZjAAAgAElEQVR4Xuy9B3hkR5X2/3ZUS2rFVo4zmpyzJ4/HExxwwAYTPkw0LEtaFvh2P5bFeGGBBf7sLmCCd1mTw4IxxiTnMLbHk7MmazSjUc5Z6iz9n3NHeaS5t9Utqfvetx547MeqW1Xnd6r7vl116pQp0NffDxYSIAESIAESIAESGEHARIHA+UACJEACJEACJDCWAAUC5wQJkAAJkAAJkMB1BCgQOClIgARIgARIgAQoEDgHSIAESIAESIAE1AlwBUGdEWuQAAmQAAmQgOEIUCAYzuU0mARIgARIgATUCVAgqDNiDRIgARIgARIwHAEKBMO5nAaTAAmQAAmQgDoBCgR1RqxBAiRAAiRAAoYjQIFgOJfTYBIgARIgARJQJ0CBoM6INUiABEiABEjAcAQoEAznchpMAiRAAiRAAuoEKBDUGbEGCZAACZAACRiOAAWC4VxOg0mABEiABEhAnQAFgjoj1iABEiABEiABwxGgQDCcy2kwCZAACZAACagToEBQZ8QaJEACJEACJGA4AhQIhnM5DSYBEiABEiABdQIUCOqMWIMESIAESIAEDEeAAsFwLqfBJEACJEACJKBOgAJBnRFrkAAJkAAJkIDhCFAgGM7lNJgESIAESIAE1AlQIKgzYg0SIAESIAESMBwBCgTDuZwGkwAJkAAJkIA6AQoEdUasQQIkQAIkQAKGI0CBYDiX02ASIAESIAESUCdAgaDOiDVIgARIgARIwHAEKBAM53IaTAIkQAIkQALqBCgQ1BmxBgmQAAmQAAkYjgAFguFcToNJgARIgARIQJ0ABYI6I9YgARIgARIgAcMRoEAwnMtpMAmQAAmQAAmoE6BAUGfEGiRAAiRAAiRgOAIUCIZzOQ0mARIgARIgAXUCFAjqjFiDBEiABEiABAxHgALBcC6nwSRAAiRAAiSgToACQZ0Ra5AACZAACZCA4QhQIBjO5TSYBEiABEiABNQJUCCoM2INEiABEiABEjAcAQoEw7mcBpMACZAACZCAOgEKBHVGrEECJEACJEAChiNAgWA4l9NgEiABEiABElAnQIGgzog1SIAESIAESMBwBCgQDOdyGkwCJEACJEAC6gQoENQZsQYJkAAJkAAJGI4ABYLhXE6DSYAESIAESECdAAWCOiPWIAESIAESIAHDEaBAMJzLaTAJkAAJkAAJqBOgQFBnxBokQAIkQAIkYDgCFAiGczkNJgESIAESIAF1AhQI6oxYgwRIgARIgAQMR4ACwXAup8EkQAIkQAIkoE6AAkGdEWuQAAmQAAmQgOEIUCAYzuU0mARIgARIgATUCVAgqDNiDRIgARIgARIwHAEKBMO5nAaTAAmQAAmQgDoBCgR1RqxBAiRAAiRAAoYjQIFgOJfTYBIgARIgARJQJ0CBoM6INUiABEiABEjAcAQoEAznchpMAiRAAiRAAuoEKBDUGbEGCZAACZAACRiOAAWC4VxOg0mABEiABEhAnQAFgjoj1iABEiABEiABwxGgQDCcy2kwCZAACZAACagToEBQZ8QaJEACJEACJGA4AhQIhnM5DSYBEiABEiABdQIUCOqMWIMESIAESIAEDEeAAsFwLqfBJEACJEACJKBOgAJBnRFrkAAJkAAJkIDhCFAgGM7lNJgESIAESIAE1AlQIKgzYg0SIAESIAESMBwBCgTDuZwGkwAJkAAJkIA6AQoEdUasQQIkQAIkQAKGI0CBYDiX02ASIAESIAESUCdAgaDOiDVIgARIgARIwHAEKBAM53IaTAIkQAIkQALqBCgQ1BmxBgmQAAmQAAkYjgAFguFcToNJgARIgARIQJ0ABYI6I9YgARIgARIgAcMRoEAwnMtpMAmQAAmQAAmoE6BAUGfEGiRAAiRAAiRgOAIUCIZzOQ0mARIgARIgAXUCFAjqjFiDBEiABEiABAxHgALBcC6nwSRAAiRAAiSgToACQZ0Ra5AACZAACZCA4QhQIBjO5TSYBEiABEiABNQJUCCoM2INEiABEiABEjAcAQoEw7mcBpMACZAACZCAOgEKBHVGrEECJEACJEAChiNAgWA4l9NgEiABEiABElAnQIGgzog1SIAESIAESMBwBCgQDOdyGkwCJEACJEAC6gQoENQZsQYJkAAJkAAJGI4ABYLhXE6DSYAESIAESECdAAWCOiPWIAESIAESIAHDEaBAMJzLaTAJkAAJkAAJqBOgQFBnxBokQAIkQAIkYDgCFAiGczkNJgESIAESIAF1AhQI6oxYgwRIgARIgAQMR4ACwXAup8EkQAIkQAIkoE6AAkGdEWuQAAmQAAmQgOEIUCAYzuU0mARIgARIgATUCVAgqDNiDRIgARIgARIwHAEKBMO5nAaTAAmQAAmQgDoBCgR1RqxBAiRAAiRAAoYjQIFgOJfTYBIgARIgARJQJ0CBoM6INUiABEiABEjAcAQoEAznchpMAiRAAiRAAuoEKBDUGbEGCZAACZAACRiOAAWC4VxOg0mABEiABEhAnQAFgjoj1iABEiABEiABwxGgQDCcy2kwCZAACZAACagToEBQZ8QaJEACJEACJGA4AhQIhnM5DSYBEiABEiABdQIUCOqMWIMESIAESIAEDEeAAsFwLqfBJEACJEACJKBOgAJBnRFrkAAJkAAJkIDhCFAgGM7lNJgESIAESIAE1AlQIKgzYg0SIAESIAESMBwBCgTDuZwGG5FAQ28QMAEpNjPirCb5VxYSIAESuCEBCgROEBLQOQFfsB/fLO1Amz+IVWlxWJRqQ3GiFekOC0xUCjr3Ps0jgckToECYPDs+SQIxQeBAgxffudiBYL+yiIB0mxmznVbMS7ZhRaodBU4r7BYqhZhwJgdJAtNIgAJhGmGzKxKYbgK9gX48dLwN1e7AdV3HmU3IiDNjjtOGTa44LHXZKRSm20HsjwSimAAFQhQ7h0MjgXAJvFzlwQ8rOtHXP3FLZgBxFhNSrWbclRuPm7IdSImT/8pCAiRgZAIUCEb2Pm3XNYF2bx++fqYDl7v9IdmZZjNji8uBDdkO5CaYEW81gzsQISFkZRLQBQEKBF24kUaQwGgCsmLwYo0bv6nsRnfgBssHNwDnMJuwIsWO5S475iXZkB1vQbyVsQqcayRgFAIUCEbxNO00FIFGdxA/KuvCiXYfJicPhnHJZkNJ4rWgxkXJdixItSGNWxCGmk801pgEKBCM6XdarWMCclrhtXoPfn65Gz3BvohZKtsMqTYzsh1WrEq1YU2GA3mJFpi5qBAxxmyIBKKJAAVCNHmDYyGBCBBo8/bhsYtdONzmHWrNYupHsD9yb3K72YQEiwlLkmy4NS8e81JtsFIpRMB7bIIEoocABUL0+IIjIYGIEDjS7MUj5ztgNvUh29qHbLsPEjpwsseBruDUnE5YlGjDrlwHlrrikGgzwWZmtsaIOJONkMAMEqBAmEH47JoEIkWgvx/wBIPo9gXw16udqHd7kGoNwGa+FoEgQYu1XhsuuuPgDzco4QaDzrJbsCkjDkvS7ShIsCqxClxYiJSX2Q4JTC8BCoTp5c3eSCCiBHzBPrR6fGh2e9Hi9qLJ7UWHb/xjje4+My70xqHRZwk7cPFGRshGhsQqzE+yYX6yDUtSbMh3WpVcCywkQAKxQ4ACIXZ8xZGSgEIg2N+PVrcPNd29aOj1otvvR5cvoPz3GxX5a6PXivPuOHj6pudlLUclcxwWFDutuCk9DovT7MoWBAsJkED0E6BAiH4fcYQkoPzi7/EFcKWjB1c6u9HtD8Af7ENARRSMRScnHM71OFDrs07pKsLYfmWbIcFihstuxvYMBzblOJDmmJp4CE4XEiCByBCgQIgMR7ZCAhElIIKgr78fsoVQ0+XGxbZO1PV6lD5EE4RzC2NvwIQDXQnwR/BUQyjGW0wmiDTYkenA9tx4FDgtSlAjYxVCoci6JDD1BCgQpp4xeyABTQTkxe8NBtHjD6DN40d1Vy+qunvh64tcLoPBgVR67LjQa0fkW9Zk6lAluTBqaZINN2XFKfEK6XEWOKw8AREaRdYmgakhQIEwNVzZKgloJuANBNHm9aHFLcGGPjT2etDhvxZoqKwWyL9MsG0/2d18yYlwstuBJr9F8zinouLg+GXFpCTBisWpdixMtmFOspyAYBKmqWDONklAKwEKBK2kWI8ENBII9klSov5rb/fxismk/KnD60N9jxuNbh86vT50+gMhxxTIC1bpahIRBe1+K870OuCboa2G8VSP2dSPNJtFOSK5ONmGVS47chIskDWFCW00mSDnMkzh7Lto9C2rkYCRCFAgGMnbtHXKCfgCfVj7u1cAv29igTDwspMAQ4kxCPT1TeL1Hr4p/f0m5TTDjGwzmExwpWZhZe6siRZHICcgkmxm2FWOR/r7gqjrqMUTu1eED4UtkAAJDBGgQOBkIIEIEvjJ8TL8zZ5j8rs+gq3qrym7zYEtC1cj1e4Iyzih/HrNFTQ3XMVTd2zEXQsKw2qPD5MACQwToEDgbCCBCBFo7vXipt+9gsrW9gi1qNNmzBbkzFqMTWmZYRkopzxOdbbgcuVFwOdBQXoq9r1lG/KSEsJqlw+TAAlcI0CBwJlAAhEgIC+r7xwtwxcPnFJOIbBMQMBkQm52ETYXzFWOcYZT2j29OFZ1Ee2drUoz8VYLPrVyAT6/cQkc1pkNvgzHLj5LAtFCgAIhWjzBccQ0gSttXfjAC0ewt6aR2ws38mSKC7uLFyHJZg/L355gAIfrKtDUVA2MOAZakJaMb+9Yi3uLssJqnw+TAAlwBYFzgATCJiAXIX3vZDkeeuMEeie4ByHsTvTQQFwClhctQElympIoabJFEi2dbG3ExavngeCYeyfMJrx/UQm+sWU5XAlxk+2Cz5EACXCLgXOABMIncLW9G5986Sj+WlkXfmN6bcFswfzcWViUXQiLafLyQMRBj9+PZ84eRL+cFBknGNRss+PxOzbgzSV5YWWc1KsraBcJaCXALQatpFiPBMYhIPkOfnO+Cu974RAQZOzBuJPEZEJKSgZWFy1AWphbC+6+IJ69dBr9XS03nI/b87Lw67s2ISsxvFMSnPQkYGQCFAhG9j5tD5uA3Kr49j+/gT01DWG3pdcGrHEJWFK8CHOSUsIy0d/Xh9cbKtFee0VTnMc/b1mFf123IKw++TAJGJkABYKRvU/bwybw+3OVeMfzB4G+YNht6bIBkwnzCudjaWb+hAmRtNp9pb0JZ6rK4PNdu7RKtcTH4+R927AkO021KiuQAAlcT4ACgbOCBCZJQLIgLv7l86ho7dD0i3aS3cTwYybAlYu7iubBbg7v2GGduwfHq8rg6WoLifXW4nw8d88m2HnsMYbnEYc+UwQoEGaKPPuNeQK/OHEJH3jlaEgvrJg3OhQD4pNwx/yViLfaQnnqurruYBDH6ypQ31h5g/TV43eRaLPh29tW4QPLS8IaAx8mASMSoEAwotdpc9gEOjx+LP71C2jo6Ay7LV02YLVh7ezFKEx2hb21cLW9CUcrzk06CHRdjgu/vH0j5qQ5dYmaRpHAVBGgQJgqsmxXtwQkA+AjRy/iC/tL4Q7w5MJ1jjZbkJJVgHU5xUi2WMOaB9VeNw5dOgV4eibfjtWKT6xZiK+tW4h4W3jjmfwg+CQJxB4BCoTY8xlHPMMEKtq78cBzh3CwtonbC2N9YTIhOSkdqwrnweUI704Ed9CPZ66cAzqaw/b4gvQU/NeuddiSnxH2ikbYg2EDJBAjBCgQYsRRHGZ0EJCsiY+cKMMX95Wi2yeJeliGCZhgs9uxuHiRki3RFMarWG5pOFxzGdX1VyMjwkwmPLioBP++fSWS48KLiaDHScAoBCgQjOJp2hkRAlfauvHJl4/iGWZNHJdnUm4JduQWQzIehlNOtjXjctUF9Pu94TQz6tk4iwVP37MVN8/KiVibbIgE9EyAAkHP3qVtESUgsQe/OFeJD754eNIBcxEdUJQ1Znem4c75K2EKUxw0enpx4uoFdHfLkcYIl/Q0dD+wi7c9Rhgrm9MnAQoEffqVVk0BgcZeD9779AG8WFU/Ba3HeJNx8dg+byXS4+LDMkRuaSytq0BVYzXQ3xdWW+M/bMLDNy3BQxuXwGwOb5VjCgbHJkkgqghQIESVOziYaCbw5PkqvP25A8yaONZJVhuKC+ZhtSsnjKgDQFZoTrQ1oqLqEhCI3NbC2OEmOBx4/u4t2FCQEc3TjWMjgRknQIEw4y7gAGKBgGRNXPPrF3GuuTUWhjt9YzSZkJ+ZjxV5JXCEeaSx1duLPeWlgDuMI40aLDebTLhvTgF+uGsdUuLtGp5gFRIwJgEKBGP6nVaHSODXp8rx3pePTtGyd4iDiabqzhSsLFqAkvjwkhDJ6sGzZSfh6ZoeARbniMM/bV6BLzDDYjTNJo4lyghQIESZQzic6CPQ6w+i4KfPoLO7O/oGN4MjMlnjMKdgDpa7wjsVIOLghbqr6Km7PK3W7C7Ixvd2rsWc9KRp7ZedkUCsEKBAiBVPcZwzQqC/H/je0Yv47L4TkG0GlgECJhNyMvKxvnAuLCbzpLH0ox+XOlpxruIcAoFpzithseDLG5bh06vn8VTDpD3IB/VMgAJBz96lbWETqOzowf1PH8CxesnmJ+l7WISAKTEF20qWwmWPCwtIs7sHJ6ouorOrfUb4zk9Nxq/v2IiVObwSOixH8mFdEqBA0KVbaVQkCEjWxG8fL8OX95eii1kTh5Ha4rBmznIUJ4a3NN8R8ONofQXam2pn9GTI9gWz8eKb1kdiyrANEtAVAQoEXbmTxkSSwOW2Lvzdy0fxXCXzHgxxNZmxuGg+FmbkhYVa4g7K25tQWnkBCPjDaivshy1WPHPHRuyelx92U2yABPREgAJBT96kLREjIC+wH5+9io+8dIRZE4fVAUzp2dhZOA/J1vDuM+jxefHchWOAzx0xn4XTkC0hAU3vvwNO3tMQDkY+qzMCFAg6cyjNiQyB2i43PvTcQTzPrIlDQO3xTqwpXojcxOSwILuDQTxTcQ5obwyrnUg+LLkR/mHVQnxpyzLYLJMPuozkmNgWCcw0AQqEmfYA+49KAo+fq8S7XjgIBINROb5pH5TVhtl5s7E8Iy+sUwuyMnOkoRLVNeXTboJah/nJifjB7vW4syhLrSr/TgKGIECBYAg308hQCPgCfdj425dwsrEllMf0W9dkgjM9B2sL5iI9zK2FsvZmnK08j6B/mo80avGO2Yz75hfh0W0rkZHo0PIE65CArglQIOjavTRuMgT+t/QK3vPSIUCSILDAEhePbfNWIi3Mi5guu3twpvIC/N1ypDE6S7LDge/cshoPLCiEbDuwkICRCVAgGNn7tP06Ah5/EK4f/xXe3l7SEQImExbOX43FzpSweHiDAZyqLUeVHGmMcuG1Iz8bj92+HkXJCWHZzIdJINYJUCDEugc5/ogRkPfW949exGf2HlduFjR8ka2FrGLcWlASEgoh5wkG4Q/60eN1Y39bE9DRDPg8IbUzk5W/uW01PrV6vugjFhIwLAEKBMO6noaPJVDd0YM7/7IPZxrlwiAKhJQUFzbNWoR4q7YbD/19QdR53Ah6e1HZ3YEWyY7olvsrYpBlYiLO378dc3lPA78oDEyAAsHAzqfpwwRkxeA/j17EVw+eRpdvhhP3RINjHAlYVTgfs5LTYMLEP6OD/X2o9vSio6cTvp5OVMpVzZ4eXeSOuL2kEE/euQF2qyUaPMIxkMC0E6BAmHbk7DAaCZS3duFjLx/FS8x7AFisKMopxrKsQsSZx88J0BPw4WhbC/q7WtHt6YFXTiVM92VLUz2RzGb8eMc6vHfZ7Knuie2TQFQSoECISrdwUNNJQFYPfnj6Cv5+z3EEZzrt73QaPkFfrpQM3KRsLVyfLbHD78XhmnL0tjchIJdVKLEaMbiFoJHzYlcKnr/3ZuQwYFEjMVbTEwEKBD15k7ZMikBVZy8+9sIhPMM7F2Cyx6F4zjKsTUjG2MutPQE/jlVfQn1rfdSfRJjURBjvIYsF71w5Hz/ZzAyLEWPKhmKGAAVCzLiKA50KAvLbV7ImPsCsiYDZgqL8uVibdf2lRd5gEKWNVahsqNRFfEEoc2lRegq+e8sa3FyYxVMNoYBj3ZgnQIEQ8y6kAeEQcPuD2PHEHhyubwqnGR08a4IrIw9biuZdl0pZtmCOtdajsuYy4PfqwNYQTTCZ8b7Fs/H1LcuRmRAX4sOsTgKxS4ACIXZ9x5FHgMDjpyvwLsma2Dd2QT0CjcdSE4mpuHn2Yrjirk8xfL6rDWevngO8sZPHINLo0+Ls+PHum3Dn3HxmWIw0XLYXtQQoEKLWNRzYVBPwBoLI+cnT6Orumequort9qx1rZi1CUYpr1IFGSTXc5HVj7/mjCBpx5WCM11IzXbj8jluQbLNGtz85OhKIEAEKhAiBZDOxRUBiD/776EV84rVjsTXwSI/WbMbs7CIszSmGzTz6vH+v34dXy0vh7umIdK8x2p4J/7FpBT5500LGIsSoBzns0AhQIITGi7V1QqCuy40dT72Gsma5OEi/x/Ru7C4THMnpWF44DwWO0fcOdPt9OFpTjpbWBqDf4NsvIyHa7Dj+9h1YlpWqk08CzSCBiQlQIHB2GI6ABN196+hFfMXgWROttjgsL16IWSmuUXOgNxjAsYYqNDZWGe7EgpYPwz2zC/CzO9YjKe76PBFanmcdEogVAhQIseIpjjNiBCRr4t++dAR7qhsi1mYsNpSQPwe7s4tgGXEjUbC/H6Wt9bhcUw5IdkSW6wikxtnxgx3r8PaFhaRDAromQIGga/fSuLEEZPXgB6cu47Ovn4DXb9Q7F0xAsgt3zFmC+DFxB7U9HThcXoogxcGEH57shHj88a4tWJs/euWFnzYS0BsBCgS9eZT23JBAZUcPPvHiYTxt4KyJZrsDuxeuQaJt9Jn+Hr8Xz50/NnAts1HjMtQ+QCYsmVuEk3dvVKvIv5NAzBOgQIh5F9IArQRk9eA35yvx3hcOAcGg1sf0Vc9iw/zC+VicnjXqPH+nz4PXrpyFr1uCNlkmJGCz4vQ7dmFhJoMUOUv0T4ACQf8+poUDBDq9ftz91Ot4o7bRmExMZmRm5GF13mwkjriIqcXnxbHay+gy0h0Lk5wBb146F7/fvXaST/MxEogtAhQIseUvjjYMAr87cxX/58WDhs2amOxMwaqiBXDFO4codgcDOMETC9pmVUICzr/9FsxNS9JWn7VIIMYJUCDEuAM5fG0EJGtiyc+fQ0NHp7YH9FbLakdh0TysSR29tXC+pR7nq8vQx2uuVT3+2bWL8cVNS2GzmFXrsgIJ6IEABYIevEgbVAk8dqwMH3n1qGo9vVZIceVh56yFo8xr6e3Cq5dO8jijBqebnYl48Z4t2JadpqE2q5CAPghQIOjDj7TiBgSaejy46Yk9qGqVlMEGjM6Pd+JNC1bDYRm+Q6DV68YeEQeeXs4dNQJmMz6zaj4eXr8ETiZHUqPFv+uIAAWCjpxJU8Yn8K1jZfjivlPoMWLeA7sDJXOWYmVCsgLHBKDO68bBq+cR7GrjlNFAoCA1Gd/duRZ3F2VpqM0qJKAfAhQI+vElLZmAwONl1fj4K8fQ1uM21gqC2YK5BXOwIrNgaN2kze/DkZpynljQ+mkxm3H/khL8aNtKJNp5i6NWbKynDwIUCPrwI624AQFfMIjnLtfhvmcPAoGAYURChisXawrmINFqV+h4g0Gcqb+KysYq9PUZNA9EiJ+UPGcCfn77Bmwv5OpBiOhYXQcEKBB04ESaoE5AIg/eqGzA9j/uNYZIiHcqRxpnO1MUOP39/bjc1ohTlRfRHzRqimn1eTK6xrWsiSfu3qhszbCQgNEIUCAYzeMGtlcyKf6xrBofffUEmrslOE+fAYtmiw3z8mZjcVbB0IutprsdB6+cHUijbOBJEIrpVgtOvX0XFvPkQijUWFdHBCgQdORMmqJOQPIhPH6xCl84cAbVHd06FAkmJLtysKVw3tCphUp3D46IOHB3qQNijSECuxeX4JnbbiIREjAsAQoEw7reuIa7/QE8UVaNf3yjVHcrCSZHItbOWYZCR4Li4AavG/uunkc/TyyENuHj41H+zp0oTh3OOhlaA6xNArFPgAIh9n1ICyZBQFYSnr5ci7c9d0g/MQlmM9bNW4lC57WLhLoDfhytuoiWVrl7Qp/bKZNwvaZHPr1mEb6xdfmoC600PchKJKAjAhQIOnImTQmNgMQk7Ktq1E/gYn4J7suZpcQdBPv6cLKuAlcbq9DPEwuhTQxnIvbeuxUbeGNjaNxYW3cEKBB051IaFAoB+V39l7JqPPjyMbT1xmqeBBPiktNx86xFcNrsCPb342JrPc5VlwMBXyg4WNdkwmfXLMQ/r1+MRLuNPEjA0AQoEAztfhovBCRPwuMXqvD5A2dQE4OBi3ZHAlYXLUBeUpqyenC+sxVnKi8CXqZRDnWG56Ym49Fda3EX8x6Eio71dUiAAkGHTqVJoRNw+6+dbvjn/afR0NUTO3v2FisKcoqxMqsQdrMZNZ4eHKw4B/QY9NbK0F0//ITZjHctLcEPtq6Ak6sH4ZDkszohQIGgE0fSjPAJeAJB/Lm8Bu9+4QiCyr0N0R7YZ0JySgZuKl6AFJsdbX4v9l0+DU+3XErFEiqBwqRE/PDWm7C7KDvUR1mfBHRJgAJBl26lUZMlEOzrx97KBuz88xtRf7rBYrFh84LVyIhPhL8viL0V59DW1hQDwmay3pnK50xYO78Ye+9YD6uZeROnkjTbjh0CFAix4yuOdBoJPFNei3e9cBhdbk90vnBNZjiLF+BWVy4CfX04WleBmsZKoK9vGinppyur1YKjb9+JJdnp+jGKlpBAmAQoEMIEyMf1ScAf7MPvLlbhc/tOo6YzyjIumkxId+XhluIF8Pb14UxLPa7UXQH8Xn06Yxqs2rxwNl69Y/009MQuSCB2CFAgxI6vONJpJuDxB/Hbi1V46MBp1HVGUeCiMxU7ZipHWksAACAASURBVC9Gqt2Bcx0tOFddBnh4YmHS08PhuJY1MS1p0k3wQRLQIwEKBD16lTZFjIAELj51qQYfevkYPF75hT7DgYt2B+YVzMPStEw0e3px8MoZ+Hp5x0I4Dv/Y6kV45OYV4TTBZ0lAlwQoEHTpVhoVSQKyx7/nagNu/+s+wB+YOZFgtqA4qxDLcovR39ePF8uOw0txEJ6rnQk4dN/NWJ1x7VpsFhIggWECFAicDSSgkcCLV+pw7zMHZ2wlISkpDatnLUKazY4Xys+gp0NOLLBMmoDJhM+vWYTPbliMBJt10s3wQRLQKwEKBL16lnZFnICsJDxxUW6BPDXtMQlmWxzmFi9EiTMFR+or0cwTC2H7NzM1GY/tXoc7CzLDbosNkIAeCVAg6NGrtGnKCEhMwm8vVOFhScs8XacbTCbMyivB4qwCnG6pR2VdBU8shOthsxnvXzYH39q8HElxvHMhXJx8Xp8EKBD06VdaNYUE5HTDk5eq8fFXT0xPnoS0LNxRvBD13R04XV0GP08shO3dohQnvr9zHe4oZtbEsGGyAd0SoEDQrWtp2FQSkDwJL1bU4+6n909txkVHIrbOXQ4HTHitvBRed5TlZJhKyFPVtsmMLQuK8fyt62C3mKeqF7ZLAjFPgAIh5l1IA2aSwKsV9bj1L/um5u4GswWrZy9CQXIG/nThKMATCxFxdaLNir3378CyHGZNjAhQNqJbAhQIunUtDZsOAnJ3w5NlVfjU66ciewukyYz4jFwszi5EaU0FfG3102GOIfpYN38W9t+5wRC20kgSCIcABUI49PgsCQAYClw8eAY1HZHZAkhwpmJu3mxUdbWhrYF3LERsosU5cPEdO1DiSo5Yk2yIBPRKgAJBr56lXdNKwO0P4vdlVfj066fQ1usOK5mSxWrDnIJ56OsL4EpdBYJ+37TaoufOPrhqIf57+0o9m0jbSCBiBCgQIoaSDRmdgC8YxHOX63DfswfDClyMzyrEAmcqztZcgs8rYoMlIgQSE3D8rduxjKsHEcHJRvRPgAJB/z6mhdNIQG5qeKOyAdv/uHdyIsHhxK1zl+CFS6fR75ELolgiReDhdYvxj+uXIN5miVSTbIcEdE2AAkHX7qVxM0Ggr78ffyyrxkdfPYHmbrllUeMFT1Y7VpYswYm6q0BX60wMXbd9pqYk45e33YTb8zN0ayMNI4FIE6BAiDRRtkcCALyBIB6/WIUvHDiDai2BixYr7Fn58MmNka08sRDRSWQ242+Xz8XXNy1j1sSIgmVjeidAgaB3D9O+GSPg9gfwRJnc3VB645UEkwnOlAyYrFZ0tzSgv79vxsasx46LU5PwyI61uJNZE/XoXto0hQQoEKYQLpsmAVlJePpyLd723KGJYxLiE2GLT0KwsxV9AZ5YiOisMZuxa8EsPLVrDRxWxh5ElC0b0z0BCgTdu5gGzjQBiUnYV9U4fuCixQo4UwFJoezzzPRQddd/epwdz9y7DWvyGHugO+fSoCknQIEw5YjZAQlcC1P8S1k1Hnz52Ig8CSYgPvEaHuWOBZZIE1gxrxhH79oY6WbZHgkYggAFgiHcTCOjgYDkSXj8QhU+L1dFS+Ci1QpY4wAPxcGU+Mceh3Pv2IF5GSlT0jwbJQG9E6BA0LuHaV9UEZCMi7+7WIXPHTiDBrcPULIkajwGGVWWTNdgTJPm864V8/HzHauna6DshwR0R4ACQXcupUHRTkACF/9UXot3v3gYQZ9/0i/AaLczEuOzJCfhF5uXTepa5g25LuQ44yMxDLZBAoYkQIFgSLfT6JkmILdAvlHViB1/mmTGxZk2YMr7NwFJTpy7/2bMSUmECbKSEFoxhf5IaB2wNgnonAAFgs4dTPOim8DTl2rxwIuH0OX2ciVh0FUmE1LSUvDCmzZidSbjB6J7BnN0eiZAgaBn79K2qCfgC/bhdxeq8Ln9pajtlLsXDB6PYDKjKCsd39+2ArflZ8DMZYCon8McoH4JUCDo17e0LEYISMbF35yvwsMHz6Cuy8AiwWRCYZYL396yDHcXZlEcxMj85TD1S4ACQb++pWUxREBON/z+YhU+sucYPAYNXIxPT8Ufdq/Djtx0ioMYmrscqn4JUCDo17e0LMYI+IN9eKG8Fvc8ux8IBmNs9OEM1wSkpaD03i1YmOIEdxXCYclnSSByBCgQIseSLZFARAj89WIV3vH8IXj8cgRS58VkQkJ6Kg7dsxkLU506N5bmkUBsEaBAiC1/cbQGICArCb85V4HP7T+N+u5e/VpsNisxB49tX4UdOelcOdCvp2lZjBKgQIhRx3HY+ibQ6wvgV+cq8K+HzqJOjyLBZEJxTga+vWUF7srPoDjQ93SmdTFKgAIhRh3HYeufQI8vgMfPX8Wn955Et1dP10CbkJvlwo92rMauHAlI1L8vaSEJxCIBCoRY9BrHbBgCkpb5zxer8c4XDgF9eghcNCHJlYo37t6MRWnOSeRHNIzraSgJzDgBCoQZdwEHQALqBP50vhJve/4ggjF9usGEnIw0HHrLVuQl8o4Eda+zBgnMLAEKhJnlz95JQBMBCVz81RkJXCxFU69b0zPRVMliNmNpTgb+e8carGX65GhyDcdCAhMSoEDg5CCBGCEgMQm/OHMFXz18DnU9sXO6QdIlr87Lwte3LMfNuS4GJMbIfOMwSYACgXOABGKIQLfXj1+dvYp/3n8KHTERuGjCstxMfO/mldjEo4wxNNM4VBIAKBA4C0ggxgjI3Q2/O1eJB18+DPRH9+VOi7Nc+O0dG7AwPYkBiTE2zzhcEqBA4BwggRgkILrgD+eu4u3PH4hSkWDCosx07Ll/G1yOuBgkzCGTAAlQIHAOkECMEgj29eOnp8rxT/tL0eaRPAnRsZpgNZuxLi8TP9y5FovSk2KULodNAiRAgcA5QAIxTEACF39aWo6vHTmP+ig43SDiYEtBNr66eRnW56THMFkOnQRIgAKBc4AEYpxAp8eHn5++gi8dPos2j3dGrdlakINvbluONdnpjDmYUU+wcxIInwAFQvgM2QIJzDiBbp8fvzp9FR9/7egMxSSYsCEvE4/tXouF6ckzzoMDIAESCJ8ABUL4DNkCCUQFgUBfPx4/XYH3vnxomkWCiIMs/PW+LUix26KCBQdBAiQQPgEKhPAZsgUSiBoC/f39+OGxMnzuQCk6ff4pH5fEHGwryMEPd6/BrOTEKe+PHZAACUwfAQqE6WPNnkhgWghI4OJjJy/hG8fOo7HXM2V92i1m7CzMxVe3LMPyzNQp64cNkwAJzAwBCoSZ4c5eSWBKCbS7ffhRaTm+cfQ8WqcgcFFuaL6tOA9f2bIMK7PSptQWNk4CJDAzBCgQZoY7eyWBKSfQ4fHhp6WX8Y/7TqKvL7I5EnYV5uKRnasxP415DqbckeyABGaIAAXCDIFntyQwHQS8wSB+caIcH3n9eIQCF03YXZSL/71rA1Lj7NNhAvsgARKYIQIUCDMEnt2SwHQS+O7B8/j84dPo9Qcm3a0EJN5WlIv/vnUdchIdk26HD5IACcQGAQqE2PATR0kCYRGQwMUfHLuI/zh+Ac2TiElwWCy4fSDmYKGLeQ7CcgYfJoEYIUCBECOO4jBJIFwCrW4vfniiDN86cREtyt0N2orFZMabS/LxLxuXYklmiraHWIsESCDmCVAgxLwLaQAJaCfQpoiES/jSoTPw9fVpevDe2QX4+s0rMTfNqak+K5EACeiDAAWCPvxIK0hAMwGJQ/jh0Yv4h/2nVJ95a0khHr11HdLjGZCoCosVSEBnBCgQdOZQmkMCWgn8x74z+MLh8VcSZFvhvtn5ePS2dUhzUBxoZcp6JKAnAhQIevImbSGBEAjISsJ3Dp3Dt06WodU7HJMQb7EoMQdf3rIcs1O5rRACUlYlAV0RoEDQlTtpDAmERqCl14sfHL+A7526pAQu2sxm3D+3EA9tWIIFPK0QGkzWJgGdEaBA0JlDaQ4JhEqgudejHIH85vELyrbCFzcvRwkDEkPFyPokoDsCFAi6cykNIoHQCXR5/XjpSh22FGUjIyEu9Ab4BAmQgO4IUCDozqU0iARIgARIgATCJ0CBED5DtkACJEACJEACuiNAgaA7l9IgEiABEiABEgifAAVC+AzZAgmQAAmQAAnojgAFgu5cSoNIgARIgARIIHwCFAjhM2QLJEACJEACJKA7AhQIunMpDSIBEiABEiCB8AlQIITPkC2QAAmQAAmQgO4IUCDozqU0iARIgARIgATCJ0CBED5DtkACJEACJEACuiNAgaA7l9IgEiABEiABEgifAAVC+AzZAgmQAAmQAAnojgAFgu5cSoNIgARIgARIIHwCFAjhM2QLJEACJEACJKA7AhQIunMpDSIBEiABEiCB8AlQIITPkC2QAAmQAAmQgO4IUCDozqU0iARIgARIgATCJ0CBED5DtkACJKBjAn39/fAH+9A/wkabxQyLyRSzVgf6+hHo6xsav8lkgs1sgjmGbYpZZ0TxwCkQotg5HBoJkMDME2jz+HChtRO+gReq1WTCvLQkZCY4Zn5wkxxBdVcvrnb2INh/TfYkWq2KTclxtkm2yMf0SIACQY9epU0kQAIRIyAv0701zegJBJQ24yxmbM7NwOxUZ8T6mO6GSps6cLypDf4B0ZPusGNLXkZMi57pZmiE/igQjOBl2kgCJDBpAhQIk0bHB2OcAAVCjDuQwycBEphaAhQIU8uXrUcvAQqE6PUNR0YCJBAFBCgQosAJHMKMEKBAmBHs7JQESCBWCFAgxIqnOM5IE6BAiDRRtkcCJDAuAV+wDx1eP+RwYHq8PWaO1FEgcEIblQAFglE9T7tJYBoJtHq8ONrQhhaPTxEIrjg7NuVnIMFmncZRTK4rCoTJceNTsU+AAiH2fRiTFgwcv57SsTPny5Ti1dy4rBzsr23GpY7uoWdEJMxNcWJrYSZMimSI3kKBEL2+4cimlgAFwtTyZevjEKjpcuO5y7XwB4JTxiclIR5vW1AAizm6Xz5TBiCKGu72B/DHSzXwBEf7OzM+DrcUZiPJHt2rCBQIUTSZOJRpJUCBMK242ZkQeKa6CXf/+Q3A45kaICYTPrd5Jb68bsHUtM9WQyLQ4w/gz+W1Q4mGBh/OSojDLQXZcFIg3JCnZDv0BSTV82CyZxPsFjOsYYhfJkoKaQobtjIFgmFdP3OGT7VAuLUwF7+7ZzMSo/zFM3MemN6eJVvfkfpWnGvtHHrFyT0GyzJSsCorLeqDFWd6BaHV7cXZ1k70+q+twMidCfPTkpCflDBpR1IgTBqdoR6kQDCUu6PD2CkVCHFxOPiWm7EmJz06jOUoFAJdPj8utnaisssNuRhoTooT89KdcFgsUU9opgVCbbcbb9Q2o9PnV1hJqud12elYkJ48aXYUCJNGZ6gHKRAM5e7oMLa6sxd/PF+Fbp9/1A15oY7uT00dOHK1GnLb3mD5yvpl+PRNixBnNYfaHOtPMQHFS4qvTIP/m+IeI9M8BUJkOLKV2CNAgRB7PuOIATT1enDP0wdxuKpugIcJq3Nc+NHudcrSNQsJRIoABUKkSLKdWCNAgRBrHuN44QkE8cjRi/j6kbNDy65pjjh8ZdNyfHBZSVjBW8RLAmMJUCBwThiVAAWCUT0fo3bLCvWe6iZ87OUjKGvtuGaFyYSdJQX42Y7VyHHGx6hlHHa0EqBAiFbPcFxTTYACYaoJs/2IEmh2e/HJl4/h8bLKof3sjHg7fnnHJuwqzo5oX2yMBIQABQLngVEJUCAY1fMxavfvzlbgPS8cQqCvb8iCjy+fj2/tWBX1x+ViFLnhh02BYPgpYFgAFAgz6Hp/sA8tXr9ygU1zd6/ygstwJiAlzqrkqp+KLIC+QBAdvgC6gkH0en1o7/UpgeVJDitS4h2It1qQFmdTjlJFW6nrcqPwV88DbvfQ0DKSnCh7z21IirNpGq4k7ZH7AC63dOJkfSvKO3rQHQgqx+2Kk+KxIjsN87PSkOmwwWmzye7FpIvE6zd5fOgZkTEy0WpBRpxN8bWkIK7t8eBCUwcO1TTharckjupHkTMeq3LSsTQ7DTmJ13wS6SICyx0Ior7Hg/oeN9o8fiXTYV8/4LCYkRpnU/rOdcYjwWqFLQLzoX9Mfm057hhuEcZii7+vH8G+PgTEAABW87VEQraBf4bTz40EgvQmfuz1+9HY40W7z49AsE9JZJQcZ4esbjntNtjN5pDnktgkttV3u3G4oRVd/oBihrS1MjMVc9OShsyS+RTKZ/ZGxxzFTd5gUInvaer1KqeNAv39ymckNc4OV0IcEm0WhW24RfhJX+0eHxp6PJDPp9VkRlq8HVkJDiTarIwpChdyGM9TIIQBL5xH5Wzz7y/V4CcXKnGqsRVQXiL9gM2GTXkZeO/CYtxfko9Uh7YXn9pY3P4A9jd34ERVI5652oBXmtsBj/dan4O58OPsWJ6RinfNysHWgiyszUmDJQJfAmpj0/L3Lq8fH3jmAJ66UjNc3WbDn2/fgDvm5qs2IWLsjboWPFNeg99eqkZ1V8/AFsXYR02Aw4GPzc3HvQuKsD4nfdIJl+TF8eBrJ/GbK4MnLYD7i7Lx6KalaPP68VRZNf799GU0dnSOGMTwS7MgKRHvWzwbH1oyG4Upk0+KM9JCORLaKgKpvRvlHd3oDQRHzgDIS3zkizvObEbJQM4ClyNu0qs03b4Aant6r51yBJR2CpISJi1+pBmZ0429XshnqaHXgw6fH5J1UIq8vETkZCc4kJfoQGaCA45JCq2JBEJhcoIisC62daGyq1fpe8SnaUioFDjjsSAtSRFbkiBKa7nQ0oVzrR3w9fUpInPwOK+0IKJNhNxgEfs252dobRoTCQQRNWJvWWsnans91x1DFrwiWGclJ2JBehIy4uM09zm2osy1mm43zrZ0oqbHjWCfzL1rH0v5p9NmVRJCyf9FKLBMPwEKhOlnjqZuN/7utZN4orwGCFxLfnJdsdvx4OLZ+M/Ny8JORSu/QH51tgLfOleB+rbOCV6MI0dgwtL0FLx50Sx8elkJUuPtM0BpuEv5Yvz60TJ8ce/xUTkP3rJkDn62czXiVZLtiLh4pPQyfnyqHFdHvYxvYJbJhFnJTnxq+Vy8e+lspDpCZyCnLR587iAev1g51NG9Jfn48LK5eKy0HH+4UqO8kG9YzGbcNzsf39+xBllOR1h+kC/gq109ysuhxeMNKQeFy2FXfrUWJieG9JIbHPDVzh68XNU45D/5tXtrcS4k3fJkivzaPNvSobxYvMHh7abrXkLyMrVYUJScgEXpyUiPjwv5aqjxBML67HQE+4GTze2QuybUSordpiQ3Kk5JVKs69PcTDW042tSmqX5eYjzumJ2rqa5UGk8grMlKQ5PbhzMtHZDslzcqMm3Fd5tyM5AxSR9eautUbviUFbyJiggqESOb8lywx0BSLc0OiJGKFAjT7ChZAr39L/uw53L1iBe1/CYY50VhtuD+lfPxvzcvn/SNd829Xnx+7yn8/lIV2r2+G70RR6wmDCzT2qx4cFEJ/m3T0hkVCQdrmvGeFw7jctvAqQUAS9JT8NitN2FtruuGX/i9vgC+fOQCvnviAjzj2j/4i278F7VcKPRPqxfh42vnK8vWoZTxBMLqzHRlmXZvbaPyy3D8MmY+mEy4Z/Ec/H73mlG/7kMZi3yhV3X14FB9q/JLe2QRy2WlIMlmVX659Qb60BsY/dKTEclLbn2uS0nxq/138LWeIikQJNHWwYZWdHh9mkWOrFiIyJHVuVB/9Y4VCLLEX5QUj3pZfh8QB4O/em/kk2SbDXeW5Gq+4no6BYL4VrYWZctLBNfYhY6x9g2ulGQ44hRhIlsqoRT5Xnq5qmFo2+RGz8pcW+JKxvpc7SskoYyFdScmQIEwzbPjqXOVeMfzB5T90qHiTMTbczNwqrMX5xubR/3CdyU48NpbtmNBZuqkRvrQnhP4j5Nl8PeNUek2G1Znu7DTlaIsGZ5q78ZTNU0DFygNvyxtNhs+tXYR/nXdwojsQ4dqhOxNfnrPcfz6fMXQ8jEsFvzLhqX47JoFN/xikl/n3z5TgYdePwnv2IuhnIn43KJZuGtWLjITHUoq4GN1zfhS6RVUN7eOGqYsbz5/73asLwjtC2o8gTAoMpQgS0c8Hlo8CxvzMpHssKHL68PJxjZ87mwF0DV8NbIMRn75Pnv3NqzOd4WKUKkvL7KXrjagWdlWGi4iCpZnpCgv/Wu/0GQvvx8tbh9ONbWjwT16mTk30YHtBVmaX3KDPUVKIMi4nqmovW7VQLYU5iQnIs1hV1YpmtxeXB1Y9h9pb6rdhrvn5IX0a3SsQJD25JetbCnIVdUlyQkoTHbCaTND/ouwrursweXOnut8tcyVjJs0vuimUyCIIBBbxPcSuzE/xYm8pAQk2CzKf5M4qYqObtT0jr5gTV7em3NdWOAKLTnZ3uomXGjvGuKTYLVgUVoycpwOZe6VNrePit1ZmOrExvzMSW9xTepDw4dAgTCNk0BU+KY/7sXhK9UDvZpwV3EuvrtzDQpTEpWApF+er8In956Exe9HXm4Wntq2AvMyJpdz/dXKRux88pVRgkPEwMKSIjy1ZRnyx+xrt7t9+LdjZfhBaRk87uEvgrkpSXh01zpsL8oK+ZdjOHjli+n7ZyvwmVePA77h1Y+dhTn44c61KE5z3rD5Cy2d+NiLh/FqbdNQPZvVgnfMLcK/bV6GvOTr9/Xl5fKdg+fxxcNnB24fHBBLKcnoed9tiAthmXM8gaAMxGTGruI8/P7ODePGN7R6vPjY80fxxOWqId+JsPjQqgX43rYVk0J6vKENx8YsV+cmOLC1IBNJ9vHjXGQ+7q9tRll7txK8OLg/vCXPhYUhvhAiIRBk2fvFqw2o7RkOUpUX9bxUJ9blpF/30u/x+ZU7DGSfe+RazfyURGwpyNK8GjOeQBAniLjakOtCYVLiuAGIcq35S1UNQ8v1wlC2Vh5YVKxpm0bmj/yab+hx43jT8FaGrGAszUhByYjtCglolqBarWXsFsPgc664OGwvylRWucYWGf+5lk4cbmgZFusARDTePitX88tb4lFeqW5Q4kekiD2rs9Kw2JU85BM5zvxGTTMc1mt/kxgLluknQIEwjcw7PD7sfOIVnGhqv7acb7Xh37evwqeWlQyNQr4UfnKpBllWC95ckhvysvZgQz2+ADJ+/SL8bdLXtZJot+GhdUvwD+sWTPjlKC+Ffyu9gm/uK4V7xK/u/7t6Ib6wcWnY8RCh4D7b1IEPv3AIBxpahh5LcsThi9tW4e+XzLphU7KV89PTl/GRV44CA6s18jL5Pwtn41vbViBNZd/0kcPn8ZkDp4ERS+0/3r0B7116435HDmoigTAnJwNP3r4eS0ZEoY815qXaZrz3uUNoaB8OYNw9Ow9P3bUZcSEG28lL5vcXK+EesVefHmfHbbNyVFcChOPLlQ2o6u4dGqIrzoZ75hZofiHIg5EQCBJYub+uRTltIUVWDWTpeVlG6oQrSSIqDtW1KCJnMIBRfiG/SVaONL50xhMIgy+1Ra7kCTmI2DzR2I7jI4SZiKy7ZueHFHsxHZc1Kd8PVqsiGPOc8RP+EHD7gzhQ1zxqdUSCQXcX5SBZ40kiORnxek0T2ga2/GR7Y3NehhLEOViEndxeKYIqEidoQvneYd1hAhQI0zgb6rt6cccfXkVpy8BeutWKf9uyAv93xdyIH2n808VqvO3pN4aVvsmEv12xAP+5bZnqr2CJvv+7PSfwo1NlQ7ERs1KS8exbtmFu6o1/tUcKp3yZv++lY/hN6aUR8RkmPLCgGI/uWosElauc5ZTA3X/ehwNV9UPPO5OTcPwtN2O2ysqD2FDT48EDLxzG3hGnJtYV5OD1t96s+djVuALBYsHXNi3Hp1bNu+EXX2uvF//w6nH8/HzFEFIJCPvNmzaNu/JxI+4Skf5abfNQFavJhN3FOcqLQEtpdfvw14pa5Tjf4N7zPSX5yAwhOC1cgSBC5WBdCy60DV8ZLacD5MUixwhvVGSbSlYS6geWx82mazEsN+Vq264ZTyBkJ8Rha34WUlReinU9HrxwtX5oFUGW5LfmZWJe+vARRTUfTJdAmJ+apKzE3Oi0h2zbnVFWEVqHAk7ltMG2/MxRL/gb2TRWIMhpDFklkNspJVaEJXoIUCBMoy96vH5sf+JlHG8cWEEAsCgnA/918ypskmC7CH423vr0AfzpQsVQENf81GT84o6NWJOTpsniqo4ezP7ZM0BwIFjNZMJf7t6K2+fkaXo+3Ep/PF+Jt754GPCPCKhzxOPs22/BfJf6lsvVjh7M+cWzo57/x5uW4mubl2oammxv/M+ZK/iErEAM/GLNdybitftvUd3aGOxgPIGQ60xUtmvump1zw3FI/w/tK8U3D58bEjirMlLxs9s2YHFWaPEoz12pQ/WIZfm8BAd2z8rRvDolY3mlqkHZ0x8sMpbVIVypHa5A6PIF8EZNk3JqQcrgL/glGi7mkl+jp5o6cKKpbUgwS9T/7uJsTQzGCgT5mIpQ3qJhT7zN41PYiWCVIs/KaYEVWdo+h/LMdAgEEY1rstMhPNW+hq509GB/XbOSR0OKbFtuzHFhtsYfDxLv80pVoxInMljS4q6dkpFTHqEcBdX0YWalSROgQJg0utAflF9f9zx3GM+cvTz8q9hkQlZiAv5pxXx8eNUcOCJw3ldiCXY9uQcnJL/CQPnwkjn46tYVSgISLUXGetNvX8Hx2oah6g+vXYSHt05uD1xLn4N16jvdWP7r59E6IiGS/O3HO9fjPctnq36BSd3nL9XiTX9+bUS3Jhx++y7MusGy/tgxvlLThE+9egy1kjMBUKLgf7ZrPW6fp553QeqPJxA2ZruUFZClGl4QXzh4Dl+TbY6BAFM5evrYrnVYG8J5d3k5/uJcxVACIRlXcVIi5qQ6YVI5YTnEwwQlQK18RNBdbkIc3lSijYO0E65AUPaka5sh/5Qi0N6qkQAAIABJREFUgaO3FGQhO1Hb3rSM/0Bdy1Dgm5xk2FWUrel8/ViBIC9TCexclZ2uOq07vX68Vt2IhoFxy8t3qUv76sV0CQQJEtyYm4FZGo5h1nT1Ym9t89AJDlkBuCknHfPS1IW72COxWPtrm3Cu7VqQ4uCqlGwn5CQ4sDIrLeSTJqqOYIVJEaBAmBS2yT90pbULa37zIjq98kU3+jhbSkIC/nXNQty/qAiu+DjNS9ljR3OmoQ1ve3ofLo6IEs5JSUZJshM2tZ8Hg431A69KzoTu4Wj6O2YV4M/3bZm88RqelBiI1X/Zj7PlVaNe7hsLcvDKW7dpZvKtA2fxj/tPaehRexV5KX1p43J8as18TQ+NJxBuLczGozvXaVqF+MLh8/ja/tKhFYzFacn44a512FCQqal/qSSBeo+XVY/KH6H54RtUlGDNdy8q1txUuAKhsdejBK21Duxbiy9uK85RTi1oKfJS21fbjM6BY4mS9GlnUTaSVLaqpO2xAkFiH9bnuJREQWpFcnDsrWlSkg5JUY7spSdjfZ72EzHTsYIgcQByBFTLtpOMR1gOHpeVF7vkeJAtAq2lx+/Hs1fqlZWV8Y5UFjoTsCIrBRnxDs2fea19s552AhQI2llFrObeigZ89LXjOCcv4FFn4a8JhlnJSfjw0hLcNScfC11JIe/L7blSjw++eAhXRwSWXRv8BPkWNFqWnuFC43t2a6wdejVZyv7NmQp8Zu9xJR3yYMlMiMfv7tyELSG8GD/zwlE8clpiKCJXrBYrHly7CD/YtERTo+MJhLtn5eEHu9YhN0l9/z8SAkFORDx1qeb6jHjD+TM12TK2kuwVv3/JLM35OcIVCC0DKwiDy9KyrH1zfhbyNXCUsZe3dykxDIOBmrKCIIF1coxPrVyXB8FiVrYE56ROTiAsTk/GhigTCHJqYWteBrI0rMjUdbuV1ZxBgSDbPeuy00I+2SKrK3JKpsnjHTfZlWw1FDkTsDAjWcmIya0HtZka+b9TIESeqaYW5djZt06VY09FnZKCdigH7dDTJqzLSse7V87Dg/MLEa/hi2zw0b9crMbH9hwddRxM06DUKqWkIPDgHWq1Jv33A03t+NhLR3GqbvhYouQ8+PTK+Xh4/WLN9y3IAP7m6YP4yYUrI8ZigrQVTrFYzHjPyvl4TGMcw3gC4c2z85UthiwNAYKREAgSEPanyyPSUwNItlthgSlk4TmSnfzqu3tOvuY2whUIkqN/b00zqgdErwiUpa5krM5OV31xSHDl0YZWnGsdDnDMd8YrAkHLfSfhXNY03gpCNAoEiQHYkp+h3H+gVsYTCLLFEMoKwmAf3kBQSfktcQ2yfSR3PowtSo6E9GQscqWEdN+Emh38uzoBCgR1RlNWo83tU/byfnv+Kp4or0ZgIBhuZIeO+Hj809qF+H+r5mpO7iInGCS4rrZ34Ly4xYKtuZlYGcL++3hGJyQ48FWNv55DhSZHQB8+cBbfl5MTIzisyXYpv7jXhBiY9/HnDuO/z5YPD8PpxE8mmUNgsBGLCUpO/TUak1ZNlGr50Z1rkTlNAqHV7cVTlyWl8zCKDTmukI7ZjedLWYvK0PAyGXw2XIEgp1oO17Uqq26DdxLI8TpZFs9NnHg1RsyWF7wsiQ9mPRRxsSozVdnr1lKMIhC25mdoOvoZSYEg/MWfsppQ3e1GWVuXso009k4LWT1Y5kpRfKZF1GnxK+uoE6BAUGc0pTUk+Uibx4vTTR34l/2nsVd+PY9R0YXJSfjO9lW4R+MJgpev1OFDLx5G5eAWg9WGr25ZgY8u1r5nPJ7R8iFN1LBnGyowMfe5ino88Ox+dIzI9Jdit+PhDUvx8VVzNUWbj+z3y6+dwpeOnh3+TwmJCPzt3aEOLaz6EwuEdcjUcK9CJFYQ5EKj31ysGhWDIEfS5CZAreEoYUEYeDhcgSDNSOKh12ublBv/pMgqhiR7EpGQMk5iH6kjpwj2VDUOxS7If5Ml8Xvn5k+YIGqsvUYQCOkOO7bkzYxAGOQtW4xyMuJSe5dylHIw38Xg3yUxlRxrlayfLNNDgAJhejhr6kVuHPyfC1X49L5S9HV1j9o3/sTK+fja1hWabr87Uz8QpNgxnMr0a1tW4DNrFkal+u70BbDity+jalSKYxPW5mfjpXu3TEqU/P7MVbzj+f2juNd9+D5kJk7uciBNDhxTKRoEggzpl+euKlfqDhZZrpU7FaZzTzcSAkHuStxX04wLbV2jPhsSYCdHDmWfekj19PejoqNXERQjLx4SMboxJx1LNK4CCTMKhNETO9IrCON9tmRrRo5SVnUPZ80UQSuJqTbkZkyruJ3MZ18vz1AgRKEn91Q24qMvH0GZBDEOlDuLcvGdnWswS8NZ406PHzuefAUnGoaPOb5tbhH+85ZVmpOZSLeSnEbOvhcmOmAPMXufVqzSx5f3luKrI3/tS657ux0v37UFm4uztDY1qt7F1i4s/uWzo7YrvrR+GT4fwhaJnKg409QBs+SmT08Oef8zWgTCG9WNON8+fBpFMubJalRCCEdqO31+1Hd7lJv7JDlQqOIiEgJBHCx71nKGvq7Xc93JjOx4B+RyLdmOkOufB088DE6Ma/c1JGBTQabm4EoKhOs/ftMhEKRXCbCVuJOR+RJmpyQqqwihpDyf1BcIH1IIUCBE4USQPbl7nj2EZy9UDG03bMnJUPbiF2dquxTlgecO4/Gz5UO/tFLiHfjVbetx26xczQmZ/nipFl87cg4PzC/EHSV5Su73SGc6+2N5Ld76130DL/LhjfJ3rlqEX26ffM4FOQWx/anXcW4o4NEEZ1Iijr31ZpRoiMWQX5qHG9rwyVeOQuIj3rekBHfPysGizBTNDKJFIMiL/a9Xaod/XctZ/PQUrMtN12SL/AI/UteCs61dkKXoeWlO5f4BtSyCIz9akRII0qYnEMCxhnZUdPUMJetR+xjLsUi5s0HuMAj15cIVhKlZQZBPu2yBTSRURaC/Vt2EKyPybxQnJypbITfK9qg2F/h37QQoELSzikhNefkfq23Bk7XN+NCcfJRMcJb67ucO4ZlzIhCuXTOzKz8L39u1FnM1njV+9WoDbv3DnlGXqmwpzsOTd6xXbgZUK8frWvHOZ/ajvKNLucNBzn1/dMkc3LewUO1RzX+vaOvGW5/ej5ONw3ctyMNrs1x45i3bkKZhnBN1Jts1/3WiDJ/ee3LUXQzvXThL2arJUDnOdaXLjQ/sOY69ci23HEU1mbEzLxMPb1yKzYXa8hBEi0CQOff05TrUuz1DS7Pya/ra2fUbH6OVfeGTTW043dwBf3+/Eh4jdxnIWf51GlMVi48iKRDEnoutnTjR3DEUj6A26WQbYmVmGmanhp6pjwIhsgJB/CexIVc7e5Ur6Ndmp497j4PEI7xe3TTqHpA5KZLBMiPkmCS1+cG/j0+AAmGaZkYg2IdDtc34xqlynK9vQZXHiw8uKcE3Ni277l6BqvYevOvZA9g/4rifvNj+/eZVSNeY/16Odu188jXsr5a7CAaK2YwVswvwyq3rlOuFJypHa1vw8VeO4siITIzy8/ORLSvxsXULIkJMloo/8/op/Lj0EvwjT29YbXjqTRtxl8aAzBsNRrYHPvLiYeyvH76HQH6tvHvBLDy0fvGEdxrUdvTi9peO4Gx1w6gtioL0VOy9bysKkhM1MYgWgSCDrersVVL+ykt+sMRbLFiYloTFGSnj/iKT9MbHG9tQ0dkNv0TTDhTJJPim2dovO4qkQHAHAkocgmQmFL5ak0HK/E2wmjE7OVG5gyGUlTAKhMgJBAkwFbEpl3/J/JIiL32JiZGES4NF/CrZLw/WtQ7cqgooGSwzU7FK4+kTTR9SVrohAQqEaZogdZ29+PhLR/DnitqhLzWz1YrPrFqAh9YthHPg0peWXg/+395S/PzcFfQPJlGyWvG5jcvw5bWhvZyrO3sx62dPj7qRUMzNS0vFL29ehS2zsiEX1wwWuQHyf05fwf935BwaJTfDiLIpJxO/umsjCiMUQXy6oQ0feuEwjig33Q1/zX986Rz869YVSNGYIe9G7pOLZb56qhxflFUE3/CdDhL9bklKwtdXzMO7FhYhy+lQLiIqb+nAT89cxXdPX4JvxC2OSh8mMw7cvwNrC7RnwIsmgSArKsca23B68KKwAXDifrlspyQ5EdmJ8coFUvIlXtvlVk7BjIwkV46e9UO58W++hm2akb6JxAqCbC28XNWEuhH3Skgf8uJYlJ6E2SlJyraHXCnV5vYrMTxlHd2QeWAaSNcn9hYnJWBHUfakr3uWF9nm3AxNdw/ESh6E6TrFIHNrX20Lrnb1DK1myXdQgTMBqzLT4Iq3K1eLX2rrVm7B7BnxOUy227C9ICukS8Km6etdt91QIEyja7906jK+ue8UPO5raVeHSpITb8lywdvXh7/Kr/aea7n/lfcSgM15mUoO/rkaLikaa84vT13Gp/YeR/vAZTFD2RRNZmQmOXGTKxlpVgsqer3YKy8Pj0QND2dclC/WjPRUPHrLary5UIK7IlNkmfGTb5zGY8cuIDBwIVRWajL+Z/c63BlCxkS10fT6A/i/+07jp7JSMXA8bpis/Fu/8vK/drR0vN+jJuQkOvDozatx94LQtleiSSCIpd2+AI40tKKis2do62nQYi1+lb375RmpWOxKDjn9bbgCQQIPj9a34mxr59DYJVBSbnSUJerUCQRlc68XB+pblEC3wfwJsnogmf+WuFI0iQSuIIz+lIUbpCgXqR2sb0HXiM+j8unrhxL8KqdVxpbBxFhrc1wR+w5S++7g3xmkOK1zQO5S/8LBs3jk+AX0jf2FOsFInElOfH/rCjwQ4stpsDlZFfjRyUv4z5NlynGt8V+C43cuH9bN+Vn4xNpFuFdZbdDyGtGOtLazF2/5yxs40tCiXJrzD6sX4h9vWhTxACQ51fHQkfP43dkraBqzMnKj0VqtFqzIcuHhNQtx+5zckCP3o00giK2yrHumuQOXO7rhHicx13g8xOuSYU+SRMllPhK/EGoJVyA09HiUpGKyZy1F5qKsBEy0fz1yfJJnRJaqa3vcQ6+e9Dg7binMmlBYjHyeAiGyAkHEnpwyOtXcPpS86oafQ5MJJQPbEPYR2xChzkHWD50AVxBCZxbWE7Lk+IPTFfjRqTJcbh8+xjheo5tzMvCuNQvxobn5YeUvkD6frajHo6Xl2FvTiL5R9z+Mb05WchL+ZkEh3rGgCIsyU6dMtf/pUi3e8vQbWJmVjsdvW4+SNGdYfCd62BcM4g/ldfjDxUr8qaoBvhEJmUaF9ysrCibMdaXhnXPzcM/cQqxwJU+Kv8RZPPjKMfz20nCq47fOysUPbl4Bl4YshF89fglfOXIe/gExuSw1CT/evhKrQggOHI+HbKfIhTtVXb2o6/Gg2+8fd+0kzmxWbtXLTXQoW0tyMdLgUn2oTgpHIMgv/zPNnUpMzOAqgGyLyAteS2pg+WVa2dWj3MUw+KtVkiWtyU7DYpf6qaD6HrfybO/A9cbX7h5IR5GGmw9l1eZQfYty7FKKiC0RWlpughxkLOLo8Ihf3LLFsSIzTbmRc7LlfGunkpzNPxAELXcxSLpkuSROrVwbTyu6Bq5it5stWJmVGtJ4RCTUdvWirL0bNd1u+Cb4TpIU0HL6RIJp7WGmSlezi3+/ngAFwgzMCjn7L8FfL1yuw88uVaO8rWP40iaLBUvSU/HBRUXKkcT56UmT/lIeaZpEo1d09uJEfQt+f6kGj9c2A71j7oCw25UvnveX5GFtQSZWupIRH8JZ+cmglCN0D+05iTV5GXjbgkLNRzAn05csXNZ3u3G2vRtn6lpwqL4Vxzp7cdEfQJrFjLUJDqxxJWN9YSaKUpMwLzkhpFwBY8ckL7MLHT1odI+4eMphw/yURE1R2FU9HlR0uZU9dfmf02rBwpTESSWOGo+XrHDInrCkIJZkVR5/UOlLXoBOu1XJNCgrO4k2S9irR60en5JGd3DxWOIG5Etf+lArMk7xVdmI20nnpyZhc36G5nGJKJJrlyWvx2BZmJ6knM6xqqyIyLPCaFCcKHEbdpumvBjyIhSRMDJZk1w0JVy1FnlW2pC2BkWGPB/OUT85ISDbbyP9ITbJCRW1IvEswmN4PCZljkxmPL3+INq8PojokAu5JAjVbDIjyW5BdkK8khJc4pFCzbuhZgP/ro0ABYI2TlNSSz743mAf5Bd+Y5dbEQJZSQ7lS1P2e7V8WEMdmHzJyReexDt0ewNo6fEoX15ypNCVGAeryax88U1F3xONVbL8Sb/TlWNdvhRFMMk5a7kcRnIMyqK5vLSU/5vNUypUQvXZVNe/tv87et9X5qL6q0L7yMLpQ16Or1c3Dl2ZLL3uLMxWtjtCKZI47GRzx9CFQLOSErExzxWWCAylf9admIB8L8kUvBZ/YFI+f+aBf5LbzBGgQJg59uyZBEhAAwHJ4vhKZSOaR2wL3TUrD9ka7rMY2bzkTjhY3zq0nC2R85KVT1ZLWEiABK4nQIHAWUECJBDVBLp8frxa3YiGXu/QOG8tykFhcmiX9pxuasfRxrahFQSJq9iUS4EQ1c7n4GaUAAXCjOJn5yRAAmoEZK9crmseGT+w3CWpol1qjw79XfbL36hpHhXHIAl6ZIsh1NTLmjtlRRKIcQIUCDHuQA6fBPROQGJkjje0oXREkic5prirKBtJAwnG1Bg09nrwek2zkuJX2d82mbDMlaKcZJjsyQy1Pvl3Eoh1AhQIse5Bjp8EDEDgUnu3sooweBpAQigXpydhbU666ikEOQUhCaIujjhFkWi1YGNuBopDDHQ0AGqaSAJDBCgQOBlIgASinkCH168IBEl2NFjkOOayzFQlzfJ42wQSDy+5KEqbOlDa0j4q14PkdthZlM3thaj3PAc4kwQoEGaSPvsmARLQREBe9hdaO3GkoU25pGkwqadsFcgFTHIFtdNmg2Tak+NykhhLTj9IQqCq7mFRIZ2JmNiWn4EijZduaRogK5GADglQIOjQqTSJBPRIQPJ3nGhqx+nm0asBYqusJrgcdiWngQiEHr8fLR7f0ImFQR6SJnplZiqWZqRoTrKkR5a0iQS0EKBA0EKJdUiABKKCgKwenGvpxMnm9qFMfloHliB3a2SmKjdRqmVP1Nom65GAnglQIOjZu7SNBHRIQLJgyv0IktOg0e1VzfgoGSFzE+OxKisVmQkOpu3V4ZygSVNDgAJhariyVRIggSkmIKmya7p6cbGtG/Vuz4hUvUqyXkU4FCTGY356MnKdDm4pTLE/2Lz+CFAg6M+ntIgEDEdALkCTuANfoE+5MlHuE0m027haYLiZQIMjSYACIZI02RYJkAAJkAAJ6IQABYJOHEkzSIAESIAESCCSBCgQIkmTbZEACZAACZCATghQIOjEkTSDBEiABEiABCJJgAIhkjTZFgmQAAmQAAnohAAFgk4cSTNIgARIgARIIJIEKBAiSZNtkQAJkAAJkIBOCFAg6MSRNIMESIAESIAEIkmAAiGSNNkWCZAACZAACeiEAAWCThxJM0iABEiABEggkgQoECJJk22RAAmQAAmQgE4IUCDoxJE0gwRIgARIgAQiSYACIZI02RYJkAAJkAAJ6IQABYJOHEkzSIAESIAESCCSBCgQIkmTbZEACZAACZCATghQIOjEkTSDBEiABEiABCJJgAIhkjTZFgmQAAmQAAnohAAFgk4cSTNIgARIgARIIJIEKBAiSZNtkQAJkAAJkIBOCFAgxKgjfR4PWpsakerKgCMhIUat4LBJYGYI+H1etDY2Iik1DQlO58wMgr2SQJQToECIcgdNNLwLZ07j0a9/Be//+CexcsOmGLWCwyaBmSFQeakM3/nKF3Hvez6ArTt3zcwg2CsJRDkBCoQodxAFQow6iMOOagIUCFHtHg4uSghQIESJI0IdBlcQQiXG+iQwTIACgbOBBNQJUCCoM4rKGhQIUekWDipGCFAgxIijOMwZJUCBMKP4J9+5VoEQDAYR8PthtdlgsVgm3yGfJAEdEdAqEPr6+uD3+WC1WmGxWnVEgKaQgDoBCgR1RlFZQ6tA2POXp/DaC89h511vxvrtOxWhwEICRiegVSCUHj6Ap375c6zZvAU77rqXJ4aMPnEMZj8FQow6XKtA+NZDn8WRY8dx25134v73PYgEZ1KMWsxhk0DkCGgVCE/86L/w5BNPYu26NXj/J/4e6Vk5kRsEWyKBKCdAgRDlDppoeFoFwrnjR3CutBRLV6/B3EVLYOY2Q4x6nMOOJAGtAqGqvAxH9r2B2fPmY8nqNbDZ4yI5DLZFAlFNgAIhqt0z8eC0CoR+2UP1+2C12WE2m2PUWg6bBCJLQKtA6O/vhyRVslgZwxNZD7C1WCBAgRALXhpnjFoFQoyax2GTwJQS0CoQpnQQbJwEopwABUKUOyjcLQY5wdDb1Yl4ZxJsdrsma4OBALo72tHb04NAMAiTCbDb4+BMSkJCUrKmNqRSMOBHZ1sb3L29kNMUZosZ8fEJSEpN1bRU2xcMoqerE/a4OMTFJ8Dn9aC9pQU+rxcwAXFxDqSkp8Me59A0Jvk1KHZ1dXagL9gHR3w80jIytUen9/fD63Gjs6MdXo8Xsjoj0e2JTicSk1O0t6NptONXCgT86OnsRG/3/9/efUdFcfVvAH+ssYsi2LvSpNqwG8GaGGNHY+8FFU1MfDUmxhaDLYIlQcQau8byGsUaSywRKRbAEo0dBRuCJWrkd77XlxyVXXZl1pL5PfNPco7c2bmfO7vzzNw79ybjyd9PkClTZmTPnh158uZDzjx5kEkay8wt+W6i8n386LEqkS1bNjXtsNTFnKdNMsL/QXKyaleZ7luOKykxUZ0z2bNnQ/4CBZEjV261b7F/eO8e7ibexqNHj5E5UybkzJ0b+awKmBw4++xzklT3mOxP6vjXw4dIunNb/fdpSgqyZsmijj2Pme1gbkCQc1CccuTMhew5zDvP5PyU8+zhgwf4++nfyJw5C3LmzKmmdZbvoJw39+8lq3rkzG28zeTtiQf3ktW4IXmDIvnOHSQl3cXffz9BlizPzjvZpzltlXpKSDv89eABku8+O4fFNktWOb5cyJM/v1nfy9T2vJ+cpGykPWWTNpfzUM4fbvoQYED4l7ajuU8Q4i5ewOZVy+H90ccoY++Ybm3lhys+7ipORIQjOvIIrl+9oi6kQIq6AJQub4dK7h5wcvcw+SMQd/E8osLCEB1xRK0ZIT9Ecu2StSMqeVSBe/UaKFaqdLpjIhJv3cTmlUth5+qOosVL4NC+fYiJDMP95Ht4+vRv5M6TF85Vq6N+oyYoWNj04LGY8DDs27EdF8/9Afnhl6BSte77qFn/ffVDmz5OCk4fP4qoI2E4E30cyXfvKhf5cS5aqjRcq1SHa7XqsCpoDVVRC2/yw54QdxXHjhxGbFTks7Z5+jdSUoCcuXKhVAU7OLu7w6VqdRWm0tvkwhpzNBLHw4/g8rmzKnClIEVdqEuUKQfnKlXh6OqGgoVs062LhItfN61H7jz5YG1ri0N79+DSuT/w5MkTvJcjBxxcPfB+k2awLVFSfc6+HduUnYQsSXhSxrNeA/WGQHqDZ+UitHPDWhS0KYzq9RvgwpnTOBoRgTMnjqoLlNhIUCpasiScpR2qVIW1beF0j93cgHD7RgLWLQqBZwNvVKpcLV1XuXBfvXAeUYd/R+zRCBVmU4/NytoaDm4ecKtSBTZFimH35v+q0FG7UVO8lzOnwf3+eTIae0K3oF7jpkhOvocDu7bj6sXzKtBlypIZRYqXRI169VGtXgNkMqP7UM75mMhwnIiKxLnYaNxLTlLfSzmHxdbexRWuVauhRNny6YYOCS2nT5xA5O8HcPZkLJ48evQsIOTIgVLlK6h9uFSp9k84tPBXgbt7gwIMCG8Q25IfZW5AOBNzArMmTUSPgb5wr1nH6CFIODh7MgYbli/FtSuX4eReGRUcnZAjRw51Mb118yZiIo/g3B9/oLZ3I7Tt0g3Zcxj+YYsJP4wNq1YiPi4OVWvVRunyFdQF49HjR7h07hyifj+IfAUKok3nrqjo7Gr0xyj+6mXMmjgeZezskHj7NlKe/g2PGrXVkwy5CF08dxY7Q7egqqcnuvn6Gf2hlUpfOB2L2f7fIW/+/KjbsDFy5s6FC2fPYseWX+DVpBnadO1u9O5JbHb/shHbN29Sd9keNWqhcNFiyJYtq/rhPnk0CmdOxsDOqRJ8evSGVSEbSza12te52BNYu3QpEuKuwNHVHeUcHJE7d251N3kz4YYKdFcvXUaVGjXReeBgo58vwW3LurWIPHwITi6usHNxR968eeUWH0lJyTh1PBJ/nDyJio5OaN6+g7pYGHsqcefmDSyaNQO3b93GXw/uo4KDo7oIitHNhHjs2bYVBQoWRLuu3bF68UJ1TFVq1kb+AgXw6NEjREdG4FTMCbTv1gPV6tQ3GhZvJ8QjZMZUFClRCtaFrLF72zZVd4+atWFTuLCa3+P+/fs4feIYYo8dRXl7B7Tq1FUFUGNhzdyAEHf5EiaP/BytOndFvSYfGHWVsBYTGYF1y35SwcDDswbK2tnjvfeyqzts2U/Ewf3Iki076nt5qYHDcsfevkdvo0/lIg/sw5K5QXB1c8WlixdRsZKL+i7JU6vkpCSEH/gNl86fR09fX7jVrJvuOSdPWuRG4eDePer74+5ZA7ZFiqp9PXjwAJf+PKcCozyh6TFoMEqVr2hwfxIKd23agL07d6BIkaJwqeYJKysr5Xzn1i0cC/sdf579Q33HmrfzQZ78Vhb/LnCHb06AAeHNWVv0kywdEG7GX8OMcd+oH9uWHTupH6PccuH43ybdDndv31J3nvLDP2jkaHWRf3m7cPokFv4wG08fPUS3IZ+iaImSyCmPmf93V/3wwX38eTIW65b/pO5c/UaPRQEbwxdUFRC+HY/r8QnwqOyB9j37ooCN7T8XLNnXro0/Y+Mk4nXtAAAcyklEQVTP6zFg6FC4pROAFkz3x4GDhzDGfyqKlSmrQomU37dlk+rCqNu0udEL1KGdW7E4OBju7u5o0bkbrG1ske29Z6PZU7stIvbvw8Y1q2Fnb4d+//nKom2dcOUypo79Wt3ht+/aDRWcnNUdd+qFW7pyJEBFHdqPTatXYfri5QY//+b1a1i9MARnYmPQqe8AVHByQt58Vv/cfUoQSkq8g9ijUdiwYinyW1mh/xdfqm4cQ1tqQAgPC4dXQ2+06dEbef93QZCureNHfkegvz9sbG3Uo+du/QeiRLny6hwTtxvXrmJ5SDBSnjxG789GILeR7qvUgBAfH4/kpGR41qyBD9p/ggKFCqnBt6mbPNY/evgQ1q9YhhIlS6Lv56NUN4ahzdIBQZ68TRszWnX3tOncBfYubqr7IHWT1VdvJlzHmgXBOBl7SoUo96pVTQaEAP/vYJUvL1p90hme9Rv8c1cud/634q9j2jdfIVvWrBgbOMfoUwRp1zUL52HLxo1o4OWFJm19VNdaapfjs26H+7h68SLWL1uC9xs1RuW676dhkxuFX3/ZiE1r16BB02ao7eWNAjaF/wn4Elbv3rqFw3t2Ye3KlWja4mO06NDJZBeSRb8s3JlFBRgQLMr55nZm6YAwe9yXOPvnRfQc6Avnqp5G77zkxyTxRoLq7375UbaM9l4REoxjhw/hq+mBBgNEqpC8fjl/9ixU96yOdn0GGoT7JyBcu46R3/qjjJ19mr+T4DKgQxs0avYB2vXqZ7QBxg4dhMd/PcSEH+a98DdSH9mM3SXfkuA0cQLyvpcNn02aajREyH62rlmB1cuWY8jnw+FWq55FTgbZ73dfDMOfFy5hxJgxKO/kkm7bXD57BiUr2KX5bLlg79y0AeuXL8WA4SPUnZ+xOstnRvy2B4vnBqFW3drw6Tso3YAQcyIaoyZNRukKL951yn5G9euJa/EJaOvjgw87dkmzn9B1a7B9/c/4cuoMFLSxNfg5qQEhIiIKVSu7wW/sJKPjPVJSnmLnxnVYtWQJuvXujdpNm7+RgBA08RtEnzyFbn37oUqd+kbbSNrB/4thiD55Go2bNTUZEKaMH4/a9eqic98ByG9dKE1dNiwMxoaNmzApIBCFS5Y2WNfI/XsRMmcOnCvZo99/xqTbHSGhWcaSWBvosku6cwejBvZBHa+GaJ3eE7eUFKxfNA8HfvsNPX0Hw9GjqkW+C9zJmxdgQHjz5hb5REsGhMvn/sDoYX5o2rw5OvTun+E+9LOxJ7Bw1kw0adkKtbwbp9uPKRePFcE/YP+vv2L6giUGB4ClBoT8VgXQ0+9T9fTA0Daqb3eUtndEv89GGLWd6z8BYWFH8NV3U1C8TFmzBxTu+u86/HfNanzpPw2FihRNt+3kLnHiiM+QLTPw5bSZZvULmzoZjv9+AAGTJ+OjFh/i4259TP250X+/cT0OgePGwM7ZFW26dFcBL71NgtdPP87G/t2/YmrwfINhL/UJwoN799DnsxEGLypBE8cg8ngMho0cCXu3ymk+8rdtW7By4Xx8/f1M2BgZR5IaEE6dPIXPx02AXSWXdI9dniTMmfwdbl2Pw7dB8w2GOks+QZDAPLRXd9SqVx89h35mckpzGQcwdewY1PPyMhkQZnw3CR2690SzVm0Mfi8j9u5C4LTpGP7lKDhXT7vsu4z3WDxnFmKPReHbOcGaZoJcvzAYYUfCMXjESBQxEkZSG+bG9WsIGPuVCkvS1cAZXDP81X2rBRkQ3ip/xj/ckgFhzbw52L59J0ZPnGTw7tOco5QL/qHdu7Bx2RJ0GTBIXYRNbSejwhHyw4/qjtvQj1tqQLB3dkFruag998j2+X2PG9IfVkVKYMio0UY/8s/YE/hx+jTVneDV7EOUt7NXgwtTuwoMFXz8119YGvwjEi5dQI9hw80a4b1tzXJs3boDU34IQgEZKKdxW/rDTOzZuRNT54YgnwyAzOAm/eNB0yejS78BqCp3uGZssRFhCPD3R7sOPvBu1S5NidSAkCtXHnTs299gf/OSgCn4PSwCYyZPgU2xEmn2cXDnNiwJnotvZsxUfeKGttSAkPI0Bb0+Ha4G1JnaNi1bgjUrV2JS4EwULZ32XLRkQNi3eQMWhsyH77BhqFwn7aP5l49VBpv+OPlblCxbzmRAmDczEF379oNng4YGqxwbfhj+48bBd6gfqjVolOZvLp09jZDAALi4u6N1915qMGdGNwniEgy6+Q4xuQt5U2LzmpW4m5iIrgMHv5ZxOSYPgn+gWYABQTPh29mBJQPC1JHDERefgMlBIWbfWb9ca+kH37phPTauXI5yFe3UK4Smtgf37yE2Ogbt2rfFh526p/nz1IBQuWYdfNjOx+hrmuP9BiCvbTEM/TL9vn/p1pABbjJwU/rKyzs4ws3DA87Vahis950bCVg4Z5YaDFmqXPoju1MPXt7YuHDhIr746is4VqluiiDdf5e+4+/Hf4M7169i3JwXu0Zedcehq1dg/9496D3YD6XtHMwqLq+x/cd3AJwdKqLvyDFGA0IB60Jo272XwTcRlgZOxaEjkZjwfYDBR+QqIMwNwjcBs0wGBLk4qacfRsYVPH+AJw4fxAx/f/QZ0B+eDZumOXZLBoQVcwKwe+9vmBgQCOvC6T9lkgORt0iWBc1Rg2pNDVJcPPdH9BjgC1fPtE8HZF+noo7g2zFjMGDIENTwbpKmnieOHEbIzAD0GOwH16oZPx+la6RXm49hY2ODUmXLmTx/5IbhetxVZM+SGf0+H6nCOLd/nwADwr+vzdQRWzIgjPPzxaPHjzFhztwMa8jd9i9rVuLX0M1wr1wZucz4EU/9sEruleFcvabRgFC9vjeatWptNLyMHzIAeQubDgjyoyU/zpcvnMeJ8DAc3rcPj58+Ra169dCyU9c0YypuxF3FgtkzkXznFhxdXMyeY0DeUa/l3QjFypj+IU0PXH6Up37zNbI8foDPJ8/IcNtIwZ8XzEV0dCz6+A01+Xg49YPE69Ne3VGqqC2GTZxiNCDI65CyzoehbovUgDAxYKbBbopXCQgy/kIeV5szn8f5UzH4dvRo+HT0gXdrn9caEBZ9749Dh8MxLTjErLVO7t1NxIp5c9X8A6YCwtJ5wejpOwhORsLm6ahwTBzztdGAEHVwP0JmBWLo12PV2x0Z3eTVxj7t2sDeriLsnNJ/Xfr5zyhQ0Bo1vBunOx4po8fEcq9fgAHh9Ru/lk+wZECYNmo4Ll69hhnzF2e431z6rLdtXI+wPbvQe9hw9e67uZtMJGNospfUJwjyeLVpy1ZqchhDm7kB4fkLn4zIlle/1ob8gH2/HUD7Tp3RsGWbF3Z/52YCFs6eBat8edChn6/Z/agyC0LmLFnNDhRGnVJSMH3cGNy6ehkTguaby2nw70JXL8eBvXvRe4gfSlU070IhF4URA/ubfILwpgJCGTtHtOjQ0ayJsU5FhWPqhAno1rMH6nzQ4rUGhNXBs7Fjx6/qKYlNseIm2ynx1g0smh2IfPmtTAeEkHnPAoKRORhMBYToI4cxb2YAuvsOhlv1GiaPzdgfyNOsHi2bo9mHH6BNOoOBXy6fCZnUGJBXmcArwwfJghYXYECwOOmb2aElA8L6BXOxeXMoRo4bj7KOlTJcgd/37sbahfPRf8QolDPjbkV+dNKb4OV1BYTnKyhBYfwwX9gUL42eg/1eGMQld/BLg4MQd+4MPp3gb9ZMeqkTz2QY8aWCK+bOwbbNm/H9/IXIXzDtKHZzP0cmV/pxqj869+2HavIKmxmTOcXIa4pTpqBj509Q/6PWaT4qdQzCmwoIMjFWp/6+Zt2Nbl+7EsuX/ISvJn1n8Jy2ZBdD+J6dmBMQiL6DfOHp1dhkk8RduoDA8d9AxtaYfIKgMSDIAGTpYnBwdED73gMyfAMglRrdvydsipfE4FFfm7Xom6nvt0ko/sFbF2BAeOtNkLEDsGRAuHLuD4z9YvizUdU9+5q8EMqjZ7mwyvSvz2/nT8Vi/qwA9RpUwxat0v0RkR+PU8ePqdkIZXIdQ5slAoI82ZDJhZACFDHQDyoX9PnTJiHx3kPVP//yq2R7tmzCuuVLMXT0GJQx0XcvU+PKZDjFS5ZEiXIVMtawL5WSgYIykr2Btxfa9epvcoyItItsL6/aKWMjZk4Yq15FbNe9p9E5B1I//uH9e1ge/CMiDh/GhJmzDYaTNx0QLl+6jMEjR6O8o1O6tvIWQ9C0KWrWwcnzFhk0s2RAkKnMv+jXC5Vc3dBjyLB0ZxCU786BndsQNGMGvBo3eu0BQd5iWB4cpLrURn43FdYm3sQRWHld2dCqlb8sW4w9u/dg4PDPTX4XZCrwk8ei1MyKhcyY5dQiXxbuxOICDAgWJ30zO7RkQJAjXhQ4HZEREfikRy9Url0HWbNmM1gRubAfPbQfRUuWSvPetbxDvf6nxTgecQS9/YahrIORpxEpKTh/+iQW/TgHxYsWRu8vDL99YImAIBPArJwfrKYp9hsz/oWJdaSCEiAmfDoYtiVKocegIWl+3G9ej1MXG5nrv+/wL2BlbXhSJ5kkJmzvbiwKCkL7jh3Q4OMXuysyelZI6Jg33R/Hoo6il+8gVK5dV83tb2h78vgR9m75BVXr1EvzxoPsR8KODCT9oHUb1G9mfGIoGU8ib6T8vHwpGjRsiBad0w4glc9/0wEhMvIo6jV4H90HyayZhqeTlvU69m7dgvUrlqNFm7Zo3Ka9QStLBgT5gA1LFmDn9u3o0LW7mg7a2Gt98VcuIfDb8Tj/5wU0bNrktQcEObaYiDAEBwagQsWK6o2CvAYmOEtFkuWtb8RdgYeBtzFkoq3p34xWM4a26tzN+JMcmRPk51XYHboF7Xv0gket9Gd5zOh3g+VevwADwus3fi2fYOmAoAbkzZqBhPgbaN66NWp6N04zGOzmtTj16tLZP86gS59+KF/JNU3dZO2HkIDpePDwL7T28YFH7Xov3M3KHfuZE8fw80+L1YQsPf2GoZyRbg1LBAT5POl/X7d6NT5o/iFadO7xzx2lmtxo1TJsXLcOLX180Khl27R9pSkpakbAOVOnwN7JCS07dIT0hT//iF5e6fp99041k2LxYkXVrIAm13Z4hbNCZhyc8+14JN1/gOZt2sKzvlea99mvX76IrevX4eC+vZgQMBPWRYql+QRZ22Lt4gWIPnoU73t7q4vnyxdaeXIgU+nuCN0KOwd7dOzV1+DbB28jINy9m4TEO7fhUMkZbTp3SzPORSbC2hv6CzatX4+y5cqi+6ChRi9ilg4I8sbLgsDvERd3DR+3a6fWbnh+lkfxOnM8CisXLYLMEZA3Xz6Ut7d/IwFB1kqQGRCXLlyAqtU98bFPB5SUqZSf62aSWU2PHz6ILRvWw65iebTvl3a6bplOev/2rSp8uVepgo86fAIrWa/juU0W7wpdswK7d+yAR7VqaNO91z+za77CKc8/fUcEGBDekYZ41cN4FhDGo7uvH9xrGH4FSv0ombsWQ0oKZJ7+lfPnIfpENEoUL4Yq1arApmgxPJR57mNicDw6BveSktC6fTs0bdsRWQ2sDikX3WuXLmLOpAm4lpCAsmXKwM3DXT1mlBXsoqOicDwmFjaFrNG5T3/Yu7ob7ReNvyJTLY+Dp1ejdAcpTvAbgDzpvOYoTzbmTZmEI+GRcHJ0QNUanmoOenl8fvTYcbi5uaHv5/8xOgJdHtufOhap1nJAlixwdLCHg7OzGmSWcD0OEWHhOH/hIjw83NCx30Cz3tN/1faWcLZw1veIiTmFMqVLqjdFChcrplbcPBUTg5iYWPX/7Tp2QMPWPkYnqUpOTFR3u7t27oK1TSFUqeyBkmXKqkV7Lp8/h/DwSCQm3kWN2rXQslMXNZWuqbUYzBqDMCPQ4DwO8haDzNg41szXHCtUKI+FQUHI9l4OuLo4oYKDk1qsKuHaVRw5HIYrV+Pg4uICn159ULhEKaPHbumAoM77i+exPGQuYqJjVRtVrlYN1jY2amGv6GPHEHvyNHLlyI7uAwdh99ZQtfJk+569jXb3ROzfi2XzQ0wPUvz6awzwG4wa3mlf50w9z+TpUtjuncruvRw5UamSowpasiaJLPx1NDIK5y9eQrnSpdD70y9gWzztnBWyL5kMTJ5EbVy9CpmzZkUVD3e15kTWbFlx5cIFNZHStbg4eHk1QNte/V+Yrv1Vz3n+/dsXYEB4+22QoSO4cPYM1s4PRvMOnWDn4mZ0H5fOncWq+XPRwqcjKrq4m/wseSR/+Ncd2BEaqtZAeLYKYybkypUTLs5O+KhDF9gY+fF4fueyvPOOn1di765fcfP2nX/2ky9vHtSpWwf1P/zY5OQp0m++OiRITf1cs4G30TEN86dOQs78BdCxT3+j9ZOukW0/r8CO0O24m5Sk/k4WoqpfvzY+6tzTrEmQEm/ewH+XL0FEeCTu3b+v1hOQdQWKFrFFw2YfoErdBukuGGUS38QfSFA7sncXdoaG4tr1eLWEtrRN7ly54OrqjA/ad4RtcfPeHpG7WXkadObss9UBZflsqUv5MqXRsPlHcPGsZXIgmvT1b1qxFPkKFID3Ry0NPvYPXbkEx4+dwMARowyuAHo87BB+WbNKrZtQsJDhQZipEyUVL1NOLcL05NFfWL9kAWTq5dR2kLdgbAtZw6tJE/VaXeoy08ZIr12+iJVzf0C9D1vAwzPtK7ap5eRuf3HgdDSQv6tlfLGz1L+XNz8Obg/Fzm3bcPPW7f+d95lR0CqfmjK5aftOat2DzauWIUfuPGj0cWujx3rqaCRkKmpZz6Csg+FxF2rtk9mBaNu5CypVM16P1OOT8Ti/rFyGY0ePv3AOFylsC6/GjVHtfW+TdrKvczHHsXntasTEnlbLussm3SrlSpdUc5Y4cHplrV/3d6I8A8I70Qzv5kFIH3PyndtqtsEChWxNDl40VAvp40+8mQAZtCRLRhe0LWLywvM6NeRxqyxMJU8FZFIbWaL2VTfpUrh9I15dqKQrIV/BQm/2Na6UFMgj7eS7d9Qrf/KYNyP1kBUcZZrkOzfiZQynmsra2GyVr2pkyb9/OSDIeSTb44cPVTvIypB58uV7Nj7EjLczLHlsxhNpCm4lXMf9pCR1wZUVPt+l6YblHJZ2l7EpsuKiLMOeEbu/7t9X3yfZZB85n1tE7I0480NeqwADwmvl5c4pQAGtAsYCgtb9sjwFKJC+AAMCzxAKUOCdFmBAeKebhwenYwEGBB03LqtGAT0IMCDooRVZh3+jAAPCv7HVeMwU+H8kwIDw/6ixWdV3SoAB4Z1qDh4MBSjwsgADAs8JCrwdAQaEt+POT6UABcwUYEAwE4p/RgELCzAgWBiUu6MABSwrwIBgWU/ujQLmCjAgmCvFv6MABd6KgMylcfvmDTX1t8xemd4KoG/lAPmhFNCpAAOCThuW1aIABShAAQpoEWBA0KLHshSgAAUoQAGdCjAg6LRhWS0KUIACFKCAFgEGBC16LEsBClCAAhTQqQADgk4bltWiAAUoQAEKaBFgQNCix7IUoAAFKEABnQowIOi0YVktClCAAhSggBYBBgQteixLAQpQgAIU0KkAA4JOG5bVogAFKEABCmgRYEDQoseyFKAABShAAZ0KMCDotGFZLQpQgAIUoIAWAQYELXosSwEKUIACFNCpAAOCThuW1aIABShAAQpoEWBA0KLHshSgAAUoQAGdCjAg6LRhWS0KUIACFKCAFgEGBC16LEsBClCAAhTQqQADgk4bltWiAAUoQAEKaBFgQNCix7IUoAAFKEABnQowIOi0YVktClCAAhSggBYBBgQteixLAQpQgAIU0KkAA4JOG5bVogAFKEABCmgRYEDQoseyFKAABShAAZ0KMCDotGFZLQpQgAIUoIAWAQYELXosSwEKUIACFNCpAAOCThuW1aIABShAAQpoEWBA0KLHshSgAAUoQAGdCjAg6LRhWS0KUIACFKCAFgEGBC16LEsBClCAAhTQqQADgk4bltWiAAUoQAEKaBFgQNCix7IUoAAFKEABnQowIOi0YVktClCAAhSggBYBBgQteixLAQpQgAIU0KkAA4JOG5bVogAFKEABCmgRYEDQoseyFKAABShAAZ0KMCDotGFZLQpQgAIUoIAWAQYELXosSwEKUIACFNCpAAOCThuW1aIABShAAQpoEWBA0KLHshSgAAUoQAGdCjAg6LRhWS0KUIACFKCAFgEGBC16LEsBClCAAhTQqQADgk4bltWiAAUoQAEKaBFgQNCix7IUoAAFKEABnQowIOi0YVktClCAAhSggBYBBgQteixLAQpQgAIU0KkAA4JOG5bVogAFKEABCmgRYEDQoseyFKAABShAAZ0KMCDotGFZLQpQgAIUoIAWAQYELXosSwEKUIACFNCpAAOCThuW1aIABShAAQpoEWBA0KLHshSgAAUoQAGdCjAg6LRhWS0KUIACFKCAFgEGBC16LEsBClCAAhTQqQADgk4bltWiAAUoQAEKaBFgQNCix7IUoAAFKEABnQowIOi0YVktClCAAhSggBYBBgQteixLAQpQgAIU0KkAA4JOG5bVogAFKEABCmgRYEDQoseyFKAABShAAZ0KMCDotGFZLQpQgAIUoIAWAQYELXosSwEKUIACFNCpAAOCThuW1aIABShAAQpoEWBA0KLHshSgAAUoQAGdCjAg6LRhWS0KUIACFKCAFgEGBC16LEsBClCAAhTQqQADgk4bltWiAAUoQAEKaBFgQNCix7IUoAAFKEABnQowIOi0YVktClCAAhSggBYBBgQteixLAQpQgAIU0KkAA4JOG5bVogAFKEABCmgRYEDQoseyFKAABShAAZ0KMCDotGFZLQpQgAIUoIAWAQYELXosSwEKUIACFNCpAAOCThuW1aIABShAAQpoEWBA0KLHshSgAAUoQAGdCjAg6LRhWS0KUIACFKCAFgEGBC16LEsBClCAAhTQqQADgk4bltWiAAUoQAEKaBFgQNCix7IUoAAFKEABnQowIOi0YVktClCAAhSggBYBBgQteixLAQpQgAIU0KkAA4JOG5bVogAFKEABCmgRYEDQoseyFKAABShAAZ0KMCDotGFZLQpQgAIUoIAWAQYELXosSwEKUIACFNCpAAOCThuW1aIABShAAQpoEWBA0KLHshSgAAUoQAGdCjAg6LRhWS0KUIACFKCAFgEGBC16LEsBClCAAhTQqQADgk4bltWiAAUoQAEKaBFgQNCix7IUoAAFKEABnQowIOi0YVktClCAAhSggBYBBgQteixLAQpQgAIU0KkAA4JOG5bVogAFKEABCmgRYEDQoseyFKAABShAAZ0KMCDotGFZLQpQgAIUoIAWAQYELXosSwEKUIACFNCpAAOCThuW1aIABShAAQpoEWBA0KLHshSgAAUoQAGdCjAg6LRhWS0KUIACFKCAFgEGBC16LEsBClCAAhTQqQADgk4bltWiAAUoQAEKaBFgQNCix7IUoAAFKEABnQowIOi0YVktClCAAhSggBYBBgQteixLAQpQgAIU0KkAA4JOG5bVogAFKEABCmgRYEDQoseyFKAABShAAZ0KMCDotGFZLQpQgAIUoIAWAQYELXosSwEKUIACFNCpAAOCThuW1aIABShAAQpoEWBA0KLHshSgAAUoQAGdCjAg6LRhWS0KUIACFKCAFgEGBC16LEsBClCAAhTQqQADgk4bltWiAAUoQAEKaBFgQNCix7IUoAAFKEABnQowIOi0YVktClCAAhSggBYBBgQteixLAQpQgAIU0KkAA4JOG5bVogAFKEABCmgRYEDQoseyFKAABShAAZ0KMCDotGFZLQpQgAIUoIAWAQYELXosSwEKUIACFNCpwP8B3E025C0W7rUAAAAASUVORK5CYII=;" parent="1" vertex="1">
          <mxGeometry x="-295.75" y="393.34999999999997" width="170" height="170" as="geometry" />
        </mxCell>
        <mxCell id="Tr4Ijnzuf_Oq11rNW6Xd-12" value="AZURE" style="shape=umlFrame;whiteSpace=wrap;html=1;fillColor=#dae8fc;strokeColor=#6c8ebf;gradientColor=#7ea6e0;width=110;height=30;" parent="1" vertex="1">
          <mxGeometry x="544.5" y="70" width="180" height="410" as="geometry" />
        </mxCell>
        <mxCell id="Tr4Ijnzuf_Oq11rNW6Xd-13" value="" style="verticalLabelPosition=bottom;html=1;verticalAlign=top;align=center;strokeColor=none;fillColor=#00BEF2;shape=mxgraph.azure.azure_instance;" parent="1" vertex="1">
          <mxGeometry x="660" y="90" width="50" height="50" as="geometry" />
        </mxCell>
        <mxCell id="YS14sISvhILDECjVXfzp-14" style="edgeStyle=orthogonalEdgeStyle;rounded=0;orthogonalLoop=1;jettySize=auto;html=1;fontSize=15;fontColor=#0066CC;" edge="1" parent="1" source="YS14sISvhILDECjVXfzp-1" target="Tr4Ijnzuf_Oq11rNW6Xd-6">
          <mxGeometry relative="1" as="geometry">
            <Array as="points">
              <mxPoint x="444" y="235" />
            </Array>
          </mxGeometry>
        </mxCell>
        <mxCell id="YS14sISvhILDECjVXfzp-1" value="Active Directory Seven Eighths" style="verticalLabelPosition=bottom;html=1;verticalAlign=top;align=center;strokeColor=none;fillColor=#00BEF2;shape=mxgraph.azure.azure_active_directory;" vertex="1" parent="1">
          <mxGeometry x="420" y="325.9" width="47.5" height="50" as="geometry" />
        </mxCell>
        <mxCell id="YS14sISvhILDECjVXfzp-2" style="edgeStyle=orthogonalEdgeStyle;rounded=0;orthogonalLoop=1;jettySize=auto;html=1;" edge="1" parent="1" source="YS14sISvhILDECjVXfzp-20" target="YS14sISvhILDECjVXfzp-1">
          <mxGeometry relative="1" as="geometry">
            <mxPoint x="562.5500000000002" y="350.0999999999999" as="targetPoint" />
            <mxPoint x="309" y="350.9000000000001" as="sourcePoint" />
            <Array as="points" />
          </mxGeometry>
        </mxCell>
        <mxCell id="YS14sISvhILDECjVXfzp-5" value="&lt;font style=&quot;font-size: 38px&quot;&gt;Appian Migration Database Cloud&lt;br&gt;Project&lt;br&gt;&lt;/font&gt;" style="text;html=1;align=center;verticalAlign=middle;resizable=0;points=[];autosize=1;" vertex="1" parent="1">
          <mxGeometry x="-35.5" y="500" width="580" height="50" as="geometry" />
        </mxCell>
        <mxCell id="YS14sISvhILDECjVXfzp-7" value="PREAUDIT &lt;br&gt;CONSULTANT" style="aspect=fixed;perimeter=ellipsePerimeter;html=1;align=center;shadow=0;dashed=0;spacingTop=3;image;image=img/lib/active_directory/user.svg;" vertex="1" parent="1">
          <mxGeometry x="-220" y="325.9" width="18.5" height="50" as="geometry" />
        </mxCell>
        <mxCell id="YS14sISvhILDECjVXfzp-11" value="BUSINESS" style="shape=umlFrame;whiteSpace=wrap;html=1;fillColor=#dae8fc;strokeColor=#6c8ebf;gradientColor=#7ea6e0;fontSize=15;fontColor=#0066CC;width=260;height=30;" vertex="1" parent="1">
          <mxGeometry x="-320" y="210" width="240" height="340" as="geometry" />
        </mxCell>
        <mxCell id="YS14sISvhILDECjVXfzp-12" value="PRESENTATION" style="shape=umlFrame;whiteSpace=wrap;html=1;fillColor=#dae8fc;strokeColor=#6c8ebf;gradientColor=#7ea6e0;fontSize=15;fontColor=#0066CC;width=260;height=30;" vertex="1" parent="1">
          <mxGeometry x="-80" y="210" width="220" height="260" as="geometry" />
        </mxCell>
        <mxCell id="YS14sISvhILDECjVXfzp-13" style="edgeStyle=orthogonalEdgeStyle;rounded=0;orthogonalLoop=1;jettySize=auto;html=1;" edge="1" parent="1" source="Tr4Ijnzuf_Oq11rNW6Xd-8" target="YS14sISvhILDECjVXfzp-20">
          <mxGeometry relative="1" as="geometry">
            <mxPoint x="200" y="350.9000000000001" as="targetPoint" />
            <mxPoint x="55.59999999999991" y="350.9000000000001" as="sourcePoint" />
            <Array as="points" />
          </mxGeometry>
        </mxCell>
        <mxCell id="YS14sISvhILDECjVXfzp-15" value="DATA" style="shape=umlFrame;whiteSpace=wrap;html=1;fillColor=#dae8fc;strokeColor=#6c8ebf;gradientColor=#7ea6e0;fontSize=15;fontColor=#0066CC;width=260;height=30;" vertex="1" parent="1">
          <mxGeometry x="140" y="210" width="200" height="220" as="geometry" />
        </mxCell>
        <mxCell id="YS14sISvhILDECjVXfzp-16" value="" style="shape=image;verticalLabelPosition=bottom;labelBackgroundColor=#ffffff;verticalAlign=top;aspect=fixed;imageAspect=0;image=data:image/png,iVBORw0KGgoAAAANSUhEUgAAAVEAAACWCAMAAABQMkvIAAAAkFBMVEX////hIS3hHCngFCPjO0TgABjkQ0rhHivgCx7vmZ3re4Dzt7nocnfiKjX98fLfAA/lTlb2ycvfAADpbnP429zgBRvtiI3wqaz76uv1v8H74+TfABLyrrHpaG//+vv40NLlSVHjNkDsg4jnWmH2xsjwoqbuj5TjLzrzsrXuk5f63+DoYmn41dfmVFz0ur3lTFVFxE1jAAANj0lEQVR4nO2daXuqPBCGJTEm2iotihsVl7pW2/P//93rTmaSQLBQ4Xp5zqcDhiY32Wcy1GqVKlWqVKlSpUoXteZ1s76fnbsSKnSJWXT+7OyVUC/MMYvUn529kwbO+NlZSKM9LTrRLaPtEiEdEl5wotuAO8QZPjsb1vqIa/RFIPrjnTNSnoYf2+gLQHTELm2oNLV0GMQBfT7RkXvrlMpSSwd+oYkug6iXJ+UYnhqkyETfhTxsEl6Chj92Y4E+mei7B+chhBe/ljZFgYnCGlqShj+Lb/RPJToVauYKX0t7sZPRJxOd6+Z1Yv+8DNkoqdE/lehW08dz9/15GbJRPaHRP7cfHShzZR4sn5gfC/U80KCCk2Ctfe5YPwD5OwIVBQdaW8v4xOowPWolikO0tgJIuTd9am4s1JZnJ+xy7T0oENHaSsoN8Qvehx6nJ/JIT6+DaLGI1pr34YkXH2htIU9P2PZysWBE70i5V3yg4UYe6f3O5WrRiNaawWVQKj5QyI7sdVeLQLS2dkswDz2rBRr94Hq1eERr64AEZQBaAytQelsvF5Borc9KAXQEGv3sdrmIRGudZ2fAShO50fur2+VCEi2FOlye3ntft+sV0Uf1I3ejZHO/XhF9VKDRi+b9ekX0QXWADdQ93G+kJRoets1+q7VYr0aHlAPI4eea8mX6a5Nc57D8aPYXp8c1t8veA0PZeDo45ab5Mn1sHASuJKQe3m8YiW4Hsq5r1uWEMCYEpVT4jNHGSme0GIGU1zFw2nJ8KeV819OkPAw+ZA2+NL85vtTRYkN95p+fRoVggSD1xUuo/fESZuaa3/G6TQP/nJtjZmbaYiTon7wCpYvohpHoPPAjBeeO92XuUnl848R3P9UtzK4rpfS9c7lmHkopvNmLknLn+SCp+ovjq3n1A4qdtzihjHUPmp+/wsycczvuerJN61SM77Qbh0NgcZAn0EaiwLJPGseGtg80JgDqTnCreQUGoxPRV11KEsxw1UBWG6YSnb4xo5sRDSZqXQMrRedsE2gK9REkUIoRr5XcjXJHaiCWROu1nm8oCqXo/WKiw7nBvEVuG2C2RMNXN9auQ90mSqES7bwxrXciZakMBm+g0b9KdyyJzsYa2+/tJrIGQaJup22sVdxdgZQJRDuNeB+jo4JXmAQTnY6NueHuoGatMchpMEpN1NnMYyoHF2CYgUTJLM4b0JXzkkB0qLU/I/mTOKJi4MSUw/2xJtoE79aXR0VLok6cH+9xxSA/EhKNK8LxsVSeSMUSDc11HSRayIkQUUdxWwGZYdZjPnAloeAt2hKNl983E40X/bQl2k1yNrgK9kGtVJlBFdyoLzjSg+EgG6KOL73dVEQd2foRR3SU4AR3F2nIDSYVUXnpE6udnFFOwIIlI6JCamvpiBLpCFUMUWjTiVUgV5l0RG0rKcgM+QT3UhI9n3rS9EXyjExPlBtSOiKq3jFEX+Kds0EeZ4lETcVwPKtZ6QHs3vsfDxMlvpg33v412ppZdhCNkxqiXPibxttbY+OrQ4PY2RDVeBWS4wpUUM2L96TVq47oOTP/Gg5T0+IZsl59OHeCuxQpiNLNdf0bHhY+vktbMUQp2X2d63D4tSM4pdTszUSHyIHH4b74XKyb61bdVf6cL81yVaJELHrnzAyXb4qvIsXzWZ3COlr9PEjU30s9/qGNbnNiJkob0lsc1vFt/97SzETx+QEiVrdUh0/MRe7YFKKESpPnNe5LyJsF0SkYJH24SrEnijrtMUfN17tTw0QJPGwaYg/ByPBpJjpBc9yN3NL6CKn8BzFRLsCcs4+mZPK2nFELuChEO2TWRAP0p7aoGBEXTNRFG3cHVN/8++rPTBQu2biApfiHViM0ooaJMlSj0NKFbyyGJnj+ooHu2hKlC5Sw5sO8RH06XjMpbspv8NFifbthJDqELUL04QOnaK4aRO8QEeUOIgZ9E4/3kzfDlwBZlPuURF1lAxGv7+5DNiKKJhc1pVOM+hMj0R68IdBqEXckLNotQLmk+PWi0zOcJC9EYfkYXhRYEuVUaQ0fiMt9sEdEmbJbP4XjQTR/NBI9JNhu8EuMdpHwe8fbfeEGNjX8slR1QEdBlIgElkQ1PTZMKdU0WDy0RjtpiOpF+3bDSBS+A7RIqaFVIeCGiLIRToq6IKa3xEgaQeccpTe0JTpTiPYgl6iYiKimZ4KTy2jiZUmUdvEDUT8i9W2YqLKtjI4e42FUVRfuuCoORbZE1XkaqmnRRB0RbaujJ5qu+7frRqIwl9Jq4qofOPGQRi5MVAHQTUm0A0Z6zpQfZEf0/ovURIPb9YeJjv6OKIxKolljVURTEv0EXAKlX66IpiTagcdZuFq4khD1qCSmNLW/IwqXirr91HIQPewnkvaKDfnviH4DLBqPgmEfGi4LSjRJf0Z0DMtG0cxwvPp2jacYS0V0heajuRGFfwhSGa/+CWXfuJRED2u85ZofUbjCkrYsxs25p3MSKR3R8LDmrlKS3IiifZXbnnCvOQsMPjclIzrt112dT0NuRGEGL1s8vebcj3FhKhHR6WLDDCXJjSjc+BaD2mG30Tb2CEtJiIbThePqzKDXouZEFEUlIV1jY49+Uwqi09Y8oHEOTHkRXWOrVLJXRgmITluEmWvnRTkRDdP52ZxVdKLDJnJc1ysnogd7v5a7Ck50TZQZtFY5EcWmaBsVmuhIxHp/SsqJaLwTrV5FJtp3rQuUD1Fsw9aK09Ks61+N8dQ4xZ5t+RC1cJykAe+uwJXiEu2bRgXK+P7ngHwq8iAatuPbCKcBex11kLdGYYm+Y9+8ayGYO3np4E22fIgu40b6Y06c7vLi8lcOopqjKvxcOy9G778ganbd5tRtt5Y383s5iI6U+sF90f25P/kPiIbYGfFWbuqKxbvkzVAOohNcP4i/kx/7B0R/dI2eiGC+QB5hpSDawVNrOoMP/QOiyks9HZpsr9UTuqUgigcFgr088ycaKkMjDfZLnftuKYgiM5LD8HHD/IkqH7jxPw1nn0pBFLppO2SO60b+RPG3LpjihXHnUgai0DNG45uXO9Eh2vGiisNl9NMyEEX7kopbbf5E0QduNE6xEZcyEMVO4cqp7dyJolaiON/LXMpIVHGIy5soKquDfUnAb8tI9M/rKJpskH8GmmcuFVELoqgjx8fsIJeKaDLRLzQZ9eIOlNgSVet5dn74d1/2ohJF+VKO2UEulkTV0zf4rIiJqPqVJbyiSzzZ8Gyis6TZmyxLoryddJ7JdPrGoUoTweeZEk/fJBL9ypVoD20rBLGePJZEHVepaSvTWUREVD3xs0TT5XvsTluiih2/l6tH7i5No7cmqpYCrXSNpxjV2TDO4ex2w5Kor4S6ytfHuW0/va/ZE1WGpg7qDI0nbWEwqJoaxCX5pC0iqp4V6efZ6g9oes/ioxbaElUOL6P9IKkSY4MMQ1UKx3NIPg2ORgYQ2uUshDxbogt0YJwov3iMKPrmHA5YEBOxwAnAy5jiSIDJEQvQaVhHoGJjM1S2RFGjV8/WPkjUITRaTodrZUs7iuujEOXB4N7ww4GHLWBR2CoTUfxEdEpeMaplSvQd1Z2kz0nYEz2CeVv1hp3OeNpvK0EWpXPmGjMsqzcPx5TDw66uuIZwfsdtIqp8TY5FEY2OPfob/oOZEsVRJHhCJJMURE8WSJ8SSpnGo0uK2qQzbBNxTEmozmFdOrdmIqp0MQ77vpV82KTK38uSKHYlUYfF3xA9yWC2lnJichUwpJTmZSaimg/HErf+2l8vJjPd0YYsiWKroeZs7S+J6iXPetPFzeMkWvebiGqdi08hyaje2zlLoqg0SuiYvIgyKbxLOqJyDEOjB8QOd6QJz8yQKN5rTvyAaTZEibzsT0dUXt6aoxPZ+uJelCFRtBqzCKyXDVFP3rtIRRSM2mZPskWqSkqzI4qtysnBHzMhCo3XaYhCK62ZaMjjs2OchP+SaAcNpxZx9azX9TGVxIfGa9yXx7RYOgevPMYj9z3WZ9yfgNxK0UN+SRTP29RNmkeJku+mKRQ9Z6izRjvO84HxXJrfgG0ozmt8GxMKP9iBL3fKgeV+SVRxJUkOAmdvZ1rOtdHoqcBmLGwVCXuzQFfBiIvC38WfbFiqM/nrX/B2OMRWZHH4HdEOiOZBqW8RTHPMhJRCRGtJ1XIX7pRDpUR4e2WLXmNnGgT4IBKh3kzZFWsGIP8uioff9TSnw7igP9hEw6MA9S0GHql+hXSCfgCILruvQF2LELqdl5acJOrSdbbQ4a7uM0ouooKJ+lpjFdRZ7jqrGZVTsnlL49q2BeFIJnscQKy3p/AEIzn+v3+iN/aELO/+8BVkMlGW7U30gwc+g2Mpg3X566P1WZ8f/826ux99jDmDLXS8Xewb83q9Ptuvt4mx1AwaDloN5jLf9xljrrd53V46trAHVcRvD8bY68OTzCljrMsJKe3Umf58DAYfL6ND59fP+kslekAYlWyv/3+qIpq1KqJZqyKatSqiWasimrUqolmrIpq1KqJZqyKatSqiWasimrUqolmrIpq1KqJZqyKatSqiWasimrUqolmrIpq1KqJZqyKatSqiWasimrXmLpPkxp8uBep6cspA/S7m/1TLEZDyDUOzpjDlqFSOH5UqVapUqVKl/4f+A1hHM/0oSs5HAAAAAElFTkSuQmCC;" vertex="1" parent="1">
          <mxGeometry x="80" y="260" width="120" height="53.41" as="geometry" />
        </mxCell>
        <mxCell id="YS14sISvhILDECjVXfzp-18" style="edgeStyle=orthogonalEdgeStyle;rounded=0;orthogonalLoop=1;jettySize=auto;html=1;fontSize=15;fontColor=#0066CC;" edge="1" parent="1" source="YS14sISvhILDECjVXfzp-17" target="Tr4Ijnzuf_Oq11rNW6Xd-12">
          <mxGeometry relative="1" as="geometry" />
        </mxCell>
        <mxCell id="YS14sISvhILDECjVXfzp-17" value="IT DEPARTMENT" style="shape=image;verticalLabelPosition=bottom;labelBackgroundColor=#ffffff;verticalAlign=top;aspect=fixed;imageAspect=0;image=data:image/png,iVBORw0KGgoAAAANSUhEUgAAAggAAAIICAYAAAAL/BZjAAAgAElEQVR4Xuy9B3hkR5X2/3ZUS2rFVo4zmpyzJ4/HExxwwAYTPkw0LEtaFvh2P5bFeGGBBf7sLmCCd1mTw4IxxiTnMLbHk7MmazSjUc5Z6iz9n3NHeaS5t9Utqfvetx547MeqW1Xnd6r7vl116pQp0NffDxYSIAESIAESIAESGEHARIHA+UACJEACJEACJDCWAAUC5wQJkAAJkAAJkMB1BCgQOClIgARIgARIgAQoEDgHSIAESIAESIAE1AlwBUGdEWuQAAmQAAmQgOEIUCAYzuU0mARIgARIgATUCVAgqDNiDRIgARIgARIwHAEKBMO5nAaTAAmQAAmQgDoBCgR1RqxBAiRAAiRAAoYjQIFgOJfTYBIgARIgARJQJ0CBoM6INUiABEiABEjAcAQoEAznchpMAiRAAiRAAuoEKBDUGbEGCZAACZAACRiOAAWC4VxOg0mABEiABEhAnQAFgjoj1iABEiABEiABwxGgQDCcy2kwCZAACZAACagToEBQZ8QaJEACJEACJGA4AhQIhnM5DSYBEiABEiABdQIUCOqMWIMESIAESIAEDEeAAsFwLqfBJEACJEACJKBOgAJBnRFrkAAJkAAJkIDhCFAgGM7lNJgESIAESIAE1AlQIKgzYg0SIAESIAESMBwBCgTDuZwGkwAJkAAJkIA6AQoEdUasQQIkQAIkQAKGI0CBYDiX02ASIAESIAESUCdAgaDOiDVIgARIgARIwHAEKBAM53IaTAIkQAIkQALqBCgQ1BmxBgmQAAmQAAkYjgAFguFcToNJgARIgARIQJ0ABYI6I9YgARIgARIgAcMRoEAwnMtpMAmQAAmQAAmoE6BAUGfEGiRAAiRAAiRgOAIUCIZzOQ0mARIgARIgAXUCFAjqjFiDBEiABEiABAxHgALBcC6nwSRAAiRAAiSgToACQZ0Ra5AACZAACZCA4QhQIBjO5TSYBEiABEiABNQJUCCoM2INEiABEiABEjAcAQoEw7mcBpMACZAACZCAOgEKBHVGrEECJEACJEAChiNAgWA4l9NgEiABEiABElAnQIGgzog1SIAESIAESMBwBCgQDOdyGkwCJEACJEAC6gQoENQZsQYJkAAJkAAJGI4ABYLhXE6DSYAESIAESECdAAWCOiPWIAESIAESIAHDEaBAMJzLaTAJkAAJkAAJqBOgQFBnxBokQAIkQAIkYDgCFAiGczkNJgESIAESIAF1AhQI6oxYgwRIgARIgAQMR4ACwXAup8EkQAIkQAIkoE6AAkGdEWuQAAmQAAmQgOEIUCAYzuU0mARIgARIgATUCVAgqDNiDRIgARIgARIwHAEKBMO5nAaTAAmQAAmQgDoBCgR1RqxBAiRAAiRAAoYjQIFgOJfTYBIgARIgARJQJ0CBoM6INUiABEiABEjAcAQoEAznchpMAiRAAiRAAuoEKBDUGbEGCZAACZAACRiOAAWC4VxOg0mABEiABEhAnQAFgjoj1iABEiABEiABwxGgQDCcy2kwCZAACZAACagToEBQZ8QaJEACJEACJGA4AhQIhnM5DSYBEiABEiABdQIUCOqMWIMESIAESIAEDEeAAsFwLqfBJEACJEACJKBOgAJBnRFrkAAJkAAJkIDhCFAgGM7lNJgESIAESIAE1AlQIKgzYg0SIAESIAESMBwBCgTDuZwGkwAJkAAJkIA6AQoEdUasQQIkQAIkQAKGI0CBYDiX02ASIAESIAESUCdAgaDOiDVIgARIgARIwHAEKBAM53IaTAIkQAIkQALqBCgQ1BmxBgmQAAmQAAkYjgAFguFcToNJgARIgARIQJ0ABYI6I9YgARIgARIgAcMRoEAwnMtpMAmQAAmQAAmoE6BAUGfEGiRAAiRAAiRgOAIUCIZzOQ0mARIgARIgAXUCFAjqjFiDBEiABEiABAxHgALBcC6nwSRAAiRAAiSgToACQZ0Ra5AACZAACZCA4QhQIBjO5TSYBEiABEiABNQJUCCoM2INEiABEiABEjAcAQoEw7mcBpMACZAACZCAOgEKBHVGrEECJEACJEAChiNAgWA4l9NgEiABEiABElAnQIGgzog1SIAESIAESMBwBCgQDOdyGkwCJEACJEAC6gQoENQZsQYJkAAJkAAJGI4ABYLhXE6DSYAESIAESECdAAWCOiPWIAESIAESIAHDEaBAMJzLaTAJkAAJkAAJqBOgQFBnxBokQAIkQAIkYDgCFAiGczkNJgESIAESIAF1AhQI6oxYgwRIgARIgAQMR4ACwXAup8EkQAIkQAIkoE6AAkGdEWuQAAmQAAmQgOEIUCAYzuU0mARIgARIgATUCVAgqDNiDRIgARIgARIwHAEKBMO5nAaTAAmQAAmQgDoBCgR1RqxBAiRAAiRAAoYjQIFgOJfTYBIgARIgARJQJ0CBoM6INUiABEiABEjAcAQoEAznchpMAiRAAiRAAuoEKBDUGbEGCZAACZAACRiOAAWC4VxOg0mABEiABEhAnQAFgjoj1iABEiABEiABwxGgQDCcy2kwCZAACZAACagToEBQZ8QaJEACJEACJGA4AhQIhnM5DSYBEiABEiABdQIUCOqMWIMESIAESIAEDEeAAsFwLqfBJEACJEACJKBOgAJBnRFrkAAJkAAJkIDhCFAgGM7lNJgESIAESIAE1AlQIKgzYg0SIAESIAESMBwBCgTDuZwGG5FAQ28QMAEpNjPirCb5VxYSIAESuCEBCgROEBLQOQFfsB/fLO1Amz+IVWlxWJRqQ3GiFekOC0xUCjr3Ps0jgckToECYPDs+SQIxQeBAgxffudiBYL+yiIB0mxmznVbMS7ZhRaodBU4r7BYqhZhwJgdJAtNIgAJhGmGzKxKYbgK9gX48dLwN1e7AdV3HmU3IiDNjjtOGTa44LHXZKRSm20HsjwSimAAFQhQ7h0MjgXAJvFzlwQ8rOtHXP3FLZgBxFhNSrWbclRuPm7IdSImT/8pCAiRgZAIUCEb2Pm3XNYF2bx++fqYDl7v9IdmZZjNji8uBDdkO5CaYEW81gzsQISFkZRLQBQEKBF24kUaQwGgCsmLwYo0bv6nsRnfgBssHNwDnMJuwIsWO5S475iXZkB1vQbyVsQqcayRgFAIUCEbxNO00FIFGdxA/KuvCiXYfJicPhnHJZkNJ4rWgxkXJdixItSGNWxCGmk801pgEKBCM6XdarWMCclrhtXoPfn65Gz3BvohZKtsMqTYzsh1WrEq1YU2GA3mJFpi5qBAxxmyIBKKJAAVCNHmDYyGBCBBo8/bhsYtdONzmHWrNYupHsD9yb3K72YQEiwlLkmy4NS8e81JtsFIpRMB7bIIEoocABUL0+IIjIYGIEDjS7MUj5ztgNvUh29qHbLsPEjpwsseBruDUnE5YlGjDrlwHlrrikGgzwWZmtsaIOJONkMAMEqBAmEH47JoEIkWgvx/wBIPo9gXw16udqHd7kGoNwGa+FoEgQYu1XhsuuuPgDzco4QaDzrJbsCkjDkvS7ShIsCqxClxYiJSX2Q4JTC8BCoTp5c3eSCCiBHzBPrR6fGh2e9Hi9qLJ7UWHb/xjje4+My70xqHRZwk7cPFGRshGhsQqzE+yYX6yDUtSbMh3WpVcCywkQAKxQ4ACIXZ8xZGSgEIg2N+PVrcPNd29aOj1otvvR5cvoPz3GxX5a6PXivPuOHj6pudlLUclcxwWFDutuCk9DovT7MoWBAsJkED0E6BAiH4fcYQkoPzi7/EFcKWjB1c6u9HtD8Af7ENARRSMRScnHM71OFDrs07pKsLYfmWbIcFihstuxvYMBzblOJDmmJp4CE4XEiCByBCgQIgMR7ZCAhElIIKgr78fsoVQ0+XGxbZO1PV6lD5EE4RzC2NvwIQDXQnwR/BUQyjGW0wmiDTYkenA9tx4FDgtSlAjYxVCoci6JDD1BCgQpp4xeyABTQTkxe8NBtHjD6DN40d1Vy+qunvh64tcLoPBgVR67LjQa0fkW9Zk6lAluTBqaZINN2XFKfEK6XEWOKw8AREaRdYmgakhQIEwNVzZKgloJuANBNHm9aHFLcGGPjT2etDhvxZoqKwWyL9MsG0/2d18yYlwstuBJr9F8zinouLg+GXFpCTBisWpdixMtmFOspyAYBKmqWDONklAKwEKBK2kWI8ENBII9klSov5rb/fxismk/KnD60N9jxuNbh86vT50+gMhxxTIC1bpahIRBe1+K870OuCboa2G8VSP2dSPNJtFOSK5ONmGVS47chIskDWFCW00mSDnMkzh7Lto9C2rkYCRCFAgGMnbtHXKCfgCfVj7u1cAv29igTDwspMAQ4kxCPT1TeL1Hr4p/f0m5TTDjGwzmExwpWZhZe6siRZHICcgkmxm2FWOR/r7gqjrqMUTu1eED4UtkAAJDBGgQOBkIIEIEvjJ8TL8zZ5j8rs+gq3qrym7zYEtC1cj1e4Iyzih/HrNFTQ3XMVTd2zEXQsKw2qPD5MACQwToEDgbCCBCBFo7vXipt+9gsrW9gi1qNNmzBbkzFqMTWmZYRkopzxOdbbgcuVFwOdBQXoq9r1lG/KSEsJqlw+TAAlcI0CBwJlAAhEgIC+r7xwtwxcPnFJOIbBMQMBkQm52ETYXzFWOcYZT2j29OFZ1Ee2drUoz8VYLPrVyAT6/cQkc1pkNvgzHLj5LAtFCgAIhWjzBccQ0gSttXfjAC0ewt6aR2ws38mSKC7uLFyHJZg/L355gAIfrKtDUVA2MOAZakJaMb+9Yi3uLssJqnw+TAAlwBYFzgATCJiAXIX3vZDkeeuMEeie4ByHsTvTQQFwClhctQElympIoabJFEi2dbG3ExavngeCYeyfMJrx/UQm+sWU5XAlxk+2Cz5EACXCLgXOABMIncLW9G5986Sj+WlkXfmN6bcFswfzcWViUXQiLafLyQMRBj9+PZ84eRL+cFBknGNRss+PxOzbgzSV5YWWc1KsraBcJaCXALQatpFiPBMYhIPkOfnO+Cu974RAQZOzBuJPEZEJKSgZWFy1AWphbC+6+IJ69dBr9XS03nI/b87Lw67s2ISsxvFMSnPQkYGQCFAhG9j5tD5uA3Kr49j+/gT01DWG3pdcGrHEJWFK8CHOSUsIy0d/Xh9cbKtFee0VTnMc/b1mFf123IKw++TAJGJkABYKRvU/bwybw+3OVeMfzB4G+YNht6bIBkwnzCudjaWb+hAmRtNp9pb0JZ6rK4PNdu7RKtcTH4+R927AkO021KiuQAAlcT4ACgbOCBCZJQLIgLv7l86ho7dD0i3aS3cTwYybAlYu7iubBbg7v2GGduwfHq8rg6WoLifXW4nw8d88m2HnsMYbnEYc+UwQoEGaKPPuNeQK/OHEJH3jlaEgvrJg3OhQD4pNwx/yViLfaQnnqurruYBDH6ypQ31h5g/TV43eRaLPh29tW4QPLS8IaAx8mASMSoEAwotdpc9gEOjx+LP71C2jo6Ay7LV02YLVh7ezFKEx2hb21cLW9CUcrzk06CHRdjgu/vH0j5qQ5dYmaRpHAVBGgQJgqsmxXtwQkA+AjRy/iC/tL4Q7w5MJ1jjZbkJJVgHU5xUi2WMOaB9VeNw5dOgV4eibfjtWKT6xZiK+tW4h4W3jjmfwg+CQJxB4BCoTY8xlHPMMEKtq78cBzh3CwtonbC2N9YTIhOSkdqwrnweUI704Ed9CPZ66cAzqaw/b4gvQU/NeuddiSnxH2ikbYg2EDJBAjBCgQYsRRHGZ0EJCsiY+cKMMX95Wi2yeJeliGCZhgs9uxuHiRki3RFMarWG5pOFxzGdX1VyMjwkwmPLioBP++fSWS48KLiaDHScAoBCgQjOJp2hkRAlfauvHJl4/iGWZNHJdnUm4JduQWQzIehlNOtjXjctUF9Pu94TQz6tk4iwVP37MVN8/KiVibbIgE9EyAAkHP3qVtESUgsQe/OFeJD754eNIBcxEdUJQ1Znem4c75K2EKUxw0enpx4uoFdHfLkcYIl/Q0dD+wi7c9Rhgrm9MnAQoEffqVVk0BgcZeD9779AG8WFU/Ba3HeJNx8dg+byXS4+LDMkRuaSytq0BVYzXQ3xdWW+M/bMLDNy3BQxuXwGwOb5VjCgbHJkkgqghQIESVOziYaCbw5PkqvP25A8yaONZJVhuKC+ZhtSsnjKgDQFZoTrQ1oqLqEhCI3NbC2OEmOBx4/u4t2FCQEc3TjWMjgRknQIEw4y7gAGKBgGRNXPPrF3GuuTUWhjt9YzSZkJ+ZjxV5JXCEeaSx1duLPeWlgDuMI40aLDebTLhvTgF+uGsdUuLtGp5gFRIwJgEKBGP6nVaHSODXp8rx3pePTtGyd4iDiabqzhSsLFqAkvjwkhDJ6sGzZSfh6ZoeARbniMM/bV6BLzDDYjTNJo4lyghQIESZQzic6CPQ6w+i4KfPoLO7O/oGN4MjMlnjMKdgDpa7wjsVIOLghbqr6Km7PK3W7C7Ixvd2rsWc9KRp7ZedkUCsEKBAiBVPcZwzQqC/H/je0Yv47L4TkG0GlgECJhNyMvKxvnAuLCbzpLH0ox+XOlpxruIcAoFpzithseDLG5bh06vn8VTDpD3IB/VMgAJBz96lbWETqOzowf1PH8CxesnmJ+l7WISAKTEF20qWwmWPCwtIs7sHJ6ouorOrfUb4zk9Nxq/v2IiVObwSOixH8mFdEqBA0KVbaVQkCEjWxG8fL8OX95eii1kTh5Ha4rBmznIUJ4a3NN8R8ONofQXam2pn9GTI9gWz8eKb1kdiyrANEtAVAQoEXbmTxkSSwOW2Lvzdy0fxXCXzHgxxNZmxuGg+FmbkhYVa4g7K25tQWnkBCPjDaivshy1WPHPHRuyelx92U2yABPREgAJBT96kLREjIC+wH5+9io+8dIRZE4fVAUzp2dhZOA/J1vDuM+jxefHchWOAzx0xn4XTkC0hAU3vvwNO3tMQDkY+qzMCFAg6cyjNiQyB2i43PvTcQTzPrIlDQO3xTqwpXojcxOSwILuDQTxTcQ5obwyrnUg+LLkR/mHVQnxpyzLYLJMPuozkmNgWCcw0AQqEmfYA+49KAo+fq8S7XjgIBINROb5pH5TVhtl5s7E8Iy+sUwuyMnOkoRLVNeXTboJah/nJifjB7vW4syhLrSr/TgKGIECBYAg308hQCPgCfdj425dwsrEllMf0W9dkgjM9B2sL5iI9zK2FsvZmnK08j6B/mo80avGO2Yz75hfh0W0rkZHo0PIE65CArglQIOjavTRuMgT+t/QK3vPSIUCSILDAEhePbfNWIi3Mi5guu3twpvIC/N1ypDE6S7LDge/cshoPLCiEbDuwkICRCVAgGNn7tP06Ah5/EK4f/xXe3l7SEQImExbOX43FzpSweHiDAZyqLUeVHGmMcuG1Iz8bj92+HkXJCWHZzIdJINYJUCDEugc5/ogRkPfW949exGf2HlduFjR8ka2FrGLcWlASEgoh5wkG4Q/60eN1Y39bE9DRDPg8IbUzk5W/uW01PrV6vugjFhIwLAEKBMO6noaPJVDd0YM7/7IPZxrlwiAKhJQUFzbNWoR4q7YbD/19QdR53Ah6e1HZ3YEWyY7olvsrYpBlYiLO378dc3lPA78oDEyAAsHAzqfpwwRkxeA/j17EVw+eRpdvhhP3RINjHAlYVTgfs5LTYMLEP6OD/X2o9vSio6cTvp5OVMpVzZ4eXeSOuL2kEE/euQF2qyUaPMIxkMC0E6BAmHbk7DAaCZS3duFjLx/FS8x7AFisKMopxrKsQsSZx88J0BPw4WhbC/q7WtHt6YFXTiVM92VLUz2RzGb8eMc6vHfZ7Knuie2TQFQSoECISrdwUNNJQFYPfnj6Cv5+z3EEZzrt73QaPkFfrpQM3KRsLVyfLbHD78XhmnL0tjchIJdVKLEaMbiFoJHzYlcKnr/3ZuQwYFEjMVbTEwEKBD15k7ZMikBVZy8+9sIhPMM7F2Cyx6F4zjKsTUjG2MutPQE/jlVfQn1rfdSfRJjURBjvIYsF71w5Hz/ZzAyLEWPKhmKGAAVCzLiKA50KAvLbV7ImPsCsiYDZgqL8uVibdf2lRd5gEKWNVahsqNRFfEEoc2lRegq+e8sa3FyYxVMNoYBj3ZgnQIEQ8y6kAeEQcPuD2PHEHhyubwqnGR08a4IrIw9biuZdl0pZtmCOtdajsuYy4PfqwNYQTTCZ8b7Fs/H1LcuRmRAX4sOsTgKxS4ACIXZ9x5FHgMDjpyvwLsma2Dd2QT0CjcdSE4mpuHn2Yrjirk8xfL6rDWevngO8sZPHINLo0+Ls+PHum3Dn3HxmWIw0XLYXtQQoEKLWNRzYVBPwBoLI+cnT6Orumequort9qx1rZi1CUYpr1IFGSTXc5HVj7/mjCBpx5WCM11IzXbj8jluQbLNGtz85OhKIEAEKhAiBZDOxRUBiD/776EV84rVjsTXwSI/WbMbs7CIszSmGzTz6vH+v34dXy0vh7umIdK8x2p4J/7FpBT5500LGIsSoBzns0AhQIITGi7V1QqCuy40dT72Gsma5OEi/x/Ru7C4THMnpWF44DwWO0fcOdPt9OFpTjpbWBqDf4NsvIyHa7Dj+9h1YlpWqk08CzSCBiQlQIHB2GI6ABN196+hFfMXgWROttjgsL16IWSmuUXOgNxjAsYYqNDZWGe7EgpYPwz2zC/CzO9YjKe76PBFanmcdEogVAhQIseIpjjNiBCRr4t++dAR7qhsi1mYsNpSQPwe7s4tgGXEjUbC/H6Wt9bhcUw5IdkSW6wikxtnxgx3r8PaFhaRDAromQIGga/fSuLEEZPXgB6cu47Ovn4DXb9Q7F0xAsgt3zFmC+DFxB7U9HThcXoogxcGEH57shHj88a4tWJs/euWFnzYS0BsBCgS9eZT23JBAZUcPPvHiYTxt4KyJZrsDuxeuQaJt9Jn+Hr8Xz50/NnAts1HjMtQ+QCYsmVuEk3dvVKvIv5NAzBOgQIh5F9IArQRk9eA35yvx3hcOAcGg1sf0Vc9iw/zC+VicnjXqPH+nz4PXrpyFr1uCNlkmJGCz4vQ7dmFhJoMUOUv0T4ACQf8+poUDBDq9ftz91Ot4o7bRmExMZmRm5GF13mwkjriIqcXnxbHay+gy0h0Lk5wBb146F7/fvXaST/MxEogtAhQIseUvjjYMAr87cxX/58WDhs2amOxMwaqiBXDFO4codgcDOMETC9pmVUICzr/9FsxNS9JWn7VIIMYJUCDEuAM5fG0EJGtiyc+fQ0NHp7YH9FbLakdh0TysSR29tXC+pR7nq8vQx2uuVT3+2bWL8cVNS2GzmFXrsgIJ6IEABYIevEgbVAk8dqwMH3n1qGo9vVZIceVh56yFo8xr6e3Cq5dO8jijBqebnYl48Z4t2JadpqE2q5CAPghQIOjDj7TiBgSaejy46Yk9qGqVlMEGjM6Pd+JNC1bDYRm+Q6DV68YeEQeeXs4dNQJmMz6zaj4eXr8ETiZHUqPFv+uIAAWCjpxJU8Yn8K1jZfjivlPoMWLeA7sDJXOWYmVCsgLHBKDO68bBq+cR7GrjlNFAoCA1Gd/duRZ3F2VpqM0qJKAfAhQI+vElLZmAwONl1fj4K8fQ1uM21gqC2YK5BXOwIrNgaN2kze/DkZpynljQ+mkxm3H/khL8aNtKJNp5i6NWbKynDwIUCPrwI624AQFfMIjnLtfhvmcPAoGAYURChisXawrmINFqV+h4g0Gcqb+KysYq9PUZNA9EiJ+UPGcCfn77Bmwv5OpBiOhYXQcEKBB04ESaoE5AIg/eqGzA9j/uNYZIiHcqRxpnO1MUOP39/bjc1ohTlRfRHzRqimn1eTK6xrWsiSfu3qhszbCQgNEIUCAYzeMGtlcyKf6xrBofffUEmrslOE+fAYtmiw3z8mZjcVbB0IutprsdB6+cHUijbOBJEIrpVgtOvX0XFvPkQijUWFdHBCgQdORMmqJOQPIhPH6xCl84cAbVHd06FAkmJLtysKVw3tCphUp3D46IOHB3qQNijSECuxeX4JnbbiIREjAsAQoEw7reuIa7/QE8UVaNf3yjVHcrCSZHItbOWYZCR4Li4AavG/uunkc/TyyENuHj41H+zp0oTh3OOhlaA6xNArFPgAIh9n1ICyZBQFYSnr5ci7c9d0g/MQlmM9bNW4lC57WLhLoDfhytuoiWVrl7Qp/bKZNwvaZHPr1mEb6xdfmoC600PchKJKAjAhQIOnImTQmNgMQk7Ktq1E/gYn4J7suZpcQdBPv6cLKuAlcbq9DPEwuhTQxnIvbeuxUbeGNjaNxYW3cEKBB051IaFAoB+V39l7JqPPjyMbT1xmqeBBPiktNx86xFcNrsCPb342JrPc5VlwMBXyg4WNdkwmfXLMQ/r1+MRLuNPEjA0AQoEAztfhovBCRPwuMXqvD5A2dQE4OBi3ZHAlYXLUBeUpqyenC+sxVnKi8CXqZRDnWG56Ym49Fda3EX8x6Eio71dUiAAkGHTqVJoRNw+6+dbvjn/afR0NUTO3v2FisKcoqxMqsQdrMZNZ4eHKw4B/QY9NbK0F0//ITZjHctLcEPtq6Ak6sH4ZDkszohQIGgE0fSjPAJeAJB/Lm8Bu9+4QiCyr0N0R7YZ0JySgZuKl6AFJsdbX4v9l0+DU+3XErFEiqBwqRE/PDWm7C7KDvUR1mfBHRJgAJBl26lUZMlEOzrx97KBuz88xtRf7rBYrFh84LVyIhPhL8viL0V59DW1hQDwmay3pnK50xYO78Ye+9YD6uZeROnkjTbjh0CFAix4yuOdBoJPFNei3e9cBhdbk90vnBNZjiLF+BWVy4CfX04WleBmsZKoK9vGinppyur1YKjb9+JJdnp+jGKlpBAmAQoEMIEyMf1ScAf7MPvLlbhc/tOo6YzyjIumkxId+XhluIF8Pb14UxLPa7UXQH8Xn06Yxqs2rxwNl69Y/009MQuSCB2CFAgxI6vONJpJuDxB/Hbi1V46MBp1HVGUeCiMxU7ZipHWksAACAASURBVC9Gqt2Bcx0tOFddBnh4YmHS08PhuJY1MS1p0k3wQRLQIwEKBD16lTZFjIAELj51qQYfevkYPF75hT7DgYt2B+YVzMPStEw0e3px8MoZ+Hp5x0I4Dv/Y6kV45OYV4TTBZ0lAlwQoEHTpVhoVSQKyx7/nagNu/+s+wB+YOZFgtqA4qxDLcovR39ePF8uOw0txEJ6rnQk4dN/NWJ1x7VpsFhIggWECFAicDSSgkcCLV+pw7zMHZ2wlISkpDatnLUKazY4Xys+gp0NOLLBMmoDJhM+vWYTPbliMBJt10s3wQRLQKwEKBL16lnZFnICsJDxxUW6BPDXtMQlmWxzmFi9EiTMFR+or0cwTC2H7NzM1GY/tXoc7CzLDbosNkIAeCVAg6NGrtGnKCEhMwm8vVOFhScs8XacbTCbMyivB4qwCnG6pR2VdBU8shOthsxnvXzYH39q8HElxvHMhXJx8Xp8EKBD06VdaNYUE5HTDk5eq8fFXT0xPnoS0LNxRvBD13R04XV0GP08shO3dohQnvr9zHe4oZtbEsGGyAd0SoEDQrWtp2FQSkDwJL1bU4+6n909txkVHIrbOXQ4HTHitvBRed5TlZJhKyFPVtsmMLQuK8fyt62C3mKeqF7ZLAjFPgAIh5l1IA2aSwKsV9bj1L/um5u4GswWrZy9CQXIG/nThKMATCxFxdaLNir3378CyHGZNjAhQNqJbAhQIunUtDZsOAnJ3w5NlVfjU66ciewukyYz4jFwszi5EaU0FfG3102GOIfpYN38W9t+5wRC20kgSCIcABUI49PgsCQAYClw8eAY1HZHZAkhwpmJu3mxUdbWhrYF3LERsosU5cPEdO1DiSo5Yk2yIBPRKgAJBr56lXdNKwO0P4vdlVfj066fQ1usOK5mSxWrDnIJ56OsL4EpdBYJ+37TaoufOPrhqIf57+0o9m0jbSCBiBCgQIoaSDRmdgC8YxHOX63DfswfDClyMzyrEAmcqztZcgs8rYoMlIgQSE3D8rduxjKsHEcHJRvRPgAJB/z6mhdNIQG5qeKOyAdv/uHdyIsHhxK1zl+CFS6fR75ELolgiReDhdYvxj+uXIN5miVSTbIcEdE2AAkHX7qVxM0Ggr78ffyyrxkdfPYHmbrllUeMFT1Y7VpYswYm6q0BX60wMXbd9pqYk45e33YTb8zN0ayMNI4FIE6BAiDRRtkcCALyBIB6/WIUvHDiDai2BixYr7Fn58MmNka08sRDRSWQ242+Xz8XXNy1j1sSIgmVjeidAgaB3D9O+GSPg9gfwRJnc3VB645UEkwnOlAyYrFZ0tzSgv79vxsasx46LU5PwyI61uJNZE/XoXto0hQQoEKYQLpsmAVlJePpyLd723KGJYxLiE2GLT0KwsxV9AZ5YiOisMZuxa8EsPLVrDRxWxh5ElC0b0z0BCgTdu5gGzjQBiUnYV9U4fuCixQo4UwFJoezzzPRQddd/epwdz9y7DWvyGHugO+fSoCknQIEw5YjZAQlcC1P8S1k1Hnz52Ig8CSYgPvEaHuWOBZZIE1gxrxhH79oY6WbZHgkYggAFgiHcTCOjgYDkSXj8QhU+L1dFS+Ci1QpY4wAPxcGU+Mceh3Pv2IF5GSlT0jwbJQG9E6BA0LuHaV9UEZCMi7+7WIXPHTiDBrcPULIkajwGGVWWTNdgTJPm864V8/HzHauna6DshwR0R4ACQXcupUHRTkACF/9UXot3v3gYQZ9/0i/AaLczEuOzJCfhF5uXTepa5g25LuQ44yMxDLZBAoYkQIFgSLfT6JkmILdAvlHViB1/mmTGxZk2YMr7NwFJTpy7/2bMSUmECbKSEFoxhf5IaB2wNgnonAAFgs4dTPOim8DTl2rxwIuH0OX2ciVh0FUmE1LSUvDCmzZidSbjB6J7BnN0eiZAgaBn79K2qCfgC/bhdxeq8Ln9pajtlLsXDB6PYDKjKCsd39+2ArflZ8DMZYCon8McoH4JUCDo17e0LEYISMbF35yvwsMHz6Cuy8AiwWRCYZYL396yDHcXZlEcxMj85TD1S4ACQb++pWUxREBON/z+YhU+sucYPAYNXIxPT8Ufdq/Djtx0ioMYmrscqn4JUCDo17e0LMYI+IN9eKG8Fvc8ux8IBmNs9OEM1wSkpaD03i1YmOIEdxXCYclnSSByBCgQIseSLZFARAj89WIV3vH8IXj8cgRS58VkQkJ6Kg7dsxkLU506N5bmkUBsEaBAiC1/cbQGICArCb85V4HP7T+N+u5e/VpsNisxB49tX4UdOelcOdCvp2lZjBKgQIhRx3HY+ibQ6wvgV+cq8K+HzqJOjyLBZEJxTga+vWUF7srPoDjQ93SmdTFKgAIhRh3HYeufQI8vgMfPX8Wn955Et1dP10CbkJvlwo92rMauHAlI1L8vaSEJxCIBCoRY9BrHbBgCkpb5zxer8c4XDgF9eghcNCHJlYo37t6MRWnOSeRHNIzraSgJzDgBCoQZdwEHQALqBP50vhJve/4ggjF9usGEnIw0HHrLVuQl8o4Eda+zBgnMLAEKhJnlz95JQBMBCVz81RkJXCxFU69b0zPRVMliNmNpTgb+e8carGX65GhyDcdCAhMSoEDg5CCBGCEgMQm/OHMFXz18DnU9sXO6QdIlr87Lwte3LMfNuS4GJMbIfOMwSYACgXOABGKIQLfXj1+dvYp/3n8KHTERuGjCstxMfO/mldjEo4wxNNM4VBIAKBA4C0ggxgjI3Q2/O1eJB18+DPRH9+VOi7Nc+O0dG7AwPYkBiTE2zzhcEqBA4BwggRgkILrgD+eu4u3PH4hSkWDCosx07Ll/G1yOuBgkzCGTAAlQIHAOkECMEgj29eOnp8rxT/tL0eaRPAnRsZpgNZuxLi8TP9y5FovSk2KULodNAiRAgcA5QAIxTEACF39aWo6vHTmP+ig43SDiYEtBNr66eRnW56THMFkOnQRIgAKBc4AEYpxAp8eHn5++gi8dPos2j3dGrdlakINvbluONdnpjDmYUU+wcxIInwAFQvgM2QIJzDiBbp8fvzp9FR9/7egMxSSYsCEvE4/tXouF6ckzzoMDIAESCJ8ABUL4DNkCCUQFgUBfPx4/XYH3vnxomkWCiIMs/PW+LUix26KCBQdBAiQQPgEKhPAZsgUSiBoC/f39+OGxMnzuQCk6ff4pH5fEHGwryMEPd6/BrOTEKe+PHZAACUwfAQqE6WPNnkhgWghI4OJjJy/hG8fOo7HXM2V92i1m7CzMxVe3LMPyzNQp64cNkwAJzAwBCoSZ4c5eSWBKCbS7ffhRaTm+cfQ8WqcgcFFuaL6tOA9f2bIMK7PSptQWNk4CJDAzBCgQZoY7eyWBKSfQ4fHhp6WX8Y/7TqKvL7I5EnYV5uKRnasxP415DqbckeyABGaIAAXCDIFntyQwHQS8wSB+caIcH3n9eIQCF03YXZSL/71rA1Lj7NNhAvsgARKYIQIUCDMEnt2SwHQS+O7B8/j84dPo9Qcm3a0EJN5WlIv/vnUdchIdk26HD5IACcQGAQqE2PATR0kCYRGQwMUfHLuI/zh+Ac2TiElwWCy4fSDmYKGLeQ7CcgYfJoEYIUCBECOO4jBJIFwCrW4vfniiDN86cREtyt0N2orFZMabS/LxLxuXYklmiraHWIsESCDmCVAgxLwLaQAJaCfQpoiES/jSoTPw9fVpevDe2QX4+s0rMTfNqak+K5EACeiDAAWCPvxIK0hAMwGJQ/jh0Yv4h/2nVJ95a0khHr11HdLjGZCoCosVSEBnBCgQdOZQmkMCWgn8x74z+MLh8VcSZFvhvtn5ePS2dUhzUBxoZcp6JKAnAhQIevImbSGBEAjISsJ3Dp3Dt06WodU7HJMQb7EoMQdf3rIcs1O5rRACUlYlAV0RoEDQlTtpDAmERqCl14sfHL+A7526pAQu2sxm3D+3EA9tWIIFPK0QGkzWJgGdEaBA0JlDaQ4JhEqgudejHIH85vELyrbCFzcvRwkDEkPFyPokoDsCFAi6cykNIoHQCXR5/XjpSh22FGUjIyEu9Ab4BAmQgO4IUCDozqU0iARIgARIgATCJ0CBED5DtkACJEACJEACuiNAgaA7l9IgEiABEiABEgifAAVC+AzZAgmQAAmQAAnojgAFgu5cSoNIgARIgARIIHwCFAjhM2QLJEACJEACJKA7AhQIunMpDSIBEiABEiCB8AlQIITPkC2QAAmQAAmQgO4IUCDozqU0iARIgARIgATCJ0CBED5DtkACJEACJEACuiNAgaA7l9IgEiABEiABEgifAAVC+AzZAgmQAAmQAAnojgAFgu5cSoNIgARIgARIIHwCFAjhM2QLJEACJEACJKA7AhQIunMpDSIBEiABEiCB8AlQIITPkC2QAAmQAAmQgO4IUCDozqU0iARIgARIgATCJ0CBED5DtkACJKBjAn39/fAH+9A/wkabxQyLyRSzVgf6+hHo6xsav8lkgs1sgjmGbYpZZ0TxwCkQotg5HBoJkMDME2jz+HChtRO+gReq1WTCvLQkZCY4Zn5wkxxBdVcvrnb2INh/TfYkWq2KTclxtkm2yMf0SIACQY9epU0kQAIRIyAv0701zegJBJQ24yxmbM7NwOxUZ8T6mO6GSps6cLypDf4B0ZPusGNLXkZMi57pZmiE/igQjOBl2kgCJDBpAhQIk0bHB2OcAAVCjDuQwycBEphaAhQIU8uXrUcvAQqE6PUNR0YCJBAFBCgQosAJHMKMEKBAmBHs7JQESCBWCFAgxIqnOM5IE6BAiDRRtkcCJDAuAV+wDx1eP+RwYHq8PWaO1FEgcEIblQAFglE9T7tJYBoJtHq8ONrQhhaPTxEIrjg7NuVnIMFmncZRTK4rCoTJceNTsU+AAiH2fRiTFgwcv57SsTPny5Ti1dy4rBzsr23GpY7uoWdEJMxNcWJrYSZMimSI3kKBEL2+4cimlgAFwtTyZevjEKjpcuO5y7XwB4JTxiclIR5vW1AAizm6Xz5TBiCKGu72B/DHSzXwBEf7OzM+DrcUZiPJHt2rCBQIUTSZOJRpJUCBMK242ZkQeKa6CXf/+Q3A45kaICYTPrd5Jb68bsHUtM9WQyLQ4w/gz+W1Q4mGBh/OSojDLQXZcFIg3JCnZDv0BSTV82CyZxPsFjOsYYhfJkoKaQobtjIFgmFdP3OGT7VAuLUwF7+7ZzMSo/zFM3MemN6eJVvfkfpWnGvtHHrFyT0GyzJSsCorLeqDFWd6BaHV7cXZ1k70+q+twMidCfPTkpCflDBpR1IgTBqdoR6kQDCUu6PD2CkVCHFxOPiWm7EmJz06jOUoFAJdPj8utnaisssNuRhoTooT89KdcFgsUU9opgVCbbcbb9Q2o9PnV1hJqud12elYkJ48aXYUCJNGZ6gHKRAM5e7oMLa6sxd/PF+Fbp9/1A15oY7uT00dOHK1GnLb3mD5yvpl+PRNixBnNYfaHOtPMQHFS4qvTIP/m+IeI9M8BUJkOLKV2CNAgRB7PuOIATT1enDP0wdxuKpugIcJq3Nc+NHudcrSNQsJRIoABUKkSLKdWCNAgRBrHuN44QkE8cjRi/j6kbNDy65pjjh8ZdNyfHBZSVjBW8RLAmMJUCBwThiVAAWCUT0fo3bLCvWe6iZ87OUjKGvtuGaFyYSdJQX42Y7VyHHGx6hlHHa0EqBAiFbPcFxTTYACYaoJs/2IEmh2e/HJl4/h8bLKof3sjHg7fnnHJuwqzo5oX2yMBIQABQLngVEJUCAY1fMxavfvzlbgPS8cQqCvb8iCjy+fj2/tWBX1x+ViFLnhh02BYPgpYFgAFAgz6Hp/sA8tXr9ygU1zd6/ygstwJiAlzqrkqp+KLIC+QBAdvgC6gkH0en1o7/UpgeVJDitS4h2It1qQFmdTjlJFW6nrcqPwV88DbvfQ0DKSnCh7z21IirNpGq4k7ZH7AC63dOJkfSvKO3rQHQgqx+2Kk+KxIjsN87PSkOmwwWmzye7FpIvE6zd5fOgZkTEy0WpBRpxN8bWkIK7t8eBCUwcO1TTharckjupHkTMeq3LSsTQ7DTmJ13wS6SICyx0Ior7Hg/oeN9o8fiXTYV8/4LCYkRpnU/rOdcYjwWqFLQLzoX9Mfm057hhuEcZii7+vH8G+PgTEAABW87VEQraBf4bTz40EgvQmfuz1+9HY40W7z49AsE9JZJQcZ4esbjntNtjN5pDnktgkttV3u3G4oRVd/oBihrS1MjMVc9OShsyS+RTKZ/ZGxxzFTd5gUInvaer1KqeNAv39ymckNc4OV0IcEm0WhW24RfhJX+0eHxp6PJDPp9VkRlq8HVkJDiTarIwpChdyGM9TIIQBL5xH5Wzz7y/V4CcXKnGqsRVQXiL9gM2GTXkZeO/CYtxfko9Uh7YXn9pY3P4A9jd34ERVI5652oBXmtsBj/dan4O58OPsWJ6RinfNysHWgiyszUmDJQJfAmpj0/L3Lq8fH3jmAJ66UjNc3WbDn2/fgDvm5qs2IWLsjboWPFNeg99eqkZ1V8/AFsXYR02Aw4GPzc3HvQuKsD4nfdIJl+TF8eBrJ/GbK4MnLYD7i7Lx6KalaPP68VRZNf799GU0dnSOGMTwS7MgKRHvWzwbH1oyG4Upk0+KM9JCORLaKgKpvRvlHd3oDQRHzgDIS3zkizvObEbJQM4ClyNu0qs03b4Aant6r51yBJR2CpISJi1+pBmZ0429XshnqaHXgw6fH5J1UIq8vETkZCc4kJfoQGaCA45JCq2JBEJhcoIisC62daGyq1fpe8SnaUioFDjjsSAtSRFbkiBKa7nQ0oVzrR3w9fUpInPwOK+0IKJNhNxgEfs252dobRoTCQQRNWJvWWsnans91x1DFrwiWGclJ2JBehIy4uM09zm2osy1mm43zrZ0oqbHjWCfzL1rH0v5p9NmVRJCyf9FKLBMPwEKhOlnjqZuN/7utZN4orwGCFxLfnJdsdvx4OLZ+M/Ny8JORSu/QH51tgLfOleB+rbOCV6MI0dgwtL0FLx50Sx8elkJUuPtM0BpuEv5Yvz60TJ8ce/xUTkP3rJkDn62czXiVZLtiLh4pPQyfnyqHFdHvYxvYJbJhFnJTnxq+Vy8e+lspDpCZyCnLR587iAev1g51NG9Jfn48LK5eKy0HH+4UqO8kG9YzGbcNzsf39+xBllOR1h+kC/gq109ysuhxeMNKQeFy2FXfrUWJieG9JIbHPDVzh68XNU45D/5tXtrcS4k3fJkivzaPNvSobxYvMHh7abrXkLyMrVYUJScgEXpyUiPjwv5aqjxBML67HQE+4GTze2QuybUSordpiQ3Kk5JVKs69PcTDW042tSmqX5eYjzumJ2rqa5UGk8grMlKQ5PbhzMtHZDslzcqMm3Fd5tyM5AxSR9eautUbviUFbyJiggqESOb8lywx0BSLc0OiJGKFAjT7ChZAr39L/uw53L1iBe1/CYY50VhtuD+lfPxvzcvn/SNd829Xnx+7yn8/lIV2r2+G70RR6wmDCzT2qx4cFEJ/m3T0hkVCQdrmvGeFw7jctvAqQUAS9JT8NitN2FtruuGX/i9vgC+fOQCvnviAjzj2j/4i278F7VcKPRPqxfh42vnK8vWoZTxBMLqzHRlmXZvbaPyy3D8MmY+mEy4Z/Ec/H73mlG/7kMZi3yhV3X14FB9q/JLe2QRy2WlIMlmVX659Qb60BsY/dKTEclLbn2uS0nxq/138LWeIikQJNHWwYZWdHh9mkWOrFiIyJHVuVB/9Y4VCLLEX5QUj3pZfh8QB4O/em/kk2SbDXeW5Gq+4no6BYL4VrYWZctLBNfYhY6x9g2ulGQ44hRhIlsqoRT5Xnq5qmFo2+RGz8pcW+JKxvpc7SskoYyFdScmQIEwzbPjqXOVeMfzB5T90qHiTMTbczNwqrMX5xubR/3CdyU48NpbtmNBZuqkRvrQnhP4j5Nl8PeNUek2G1Znu7DTlaIsGZ5q78ZTNU0DFygNvyxtNhs+tXYR/nXdwojsQ4dqhOxNfnrPcfz6fMXQ8jEsFvzLhqX47JoFN/xikl/n3z5TgYdePwnv2IuhnIn43KJZuGtWLjITHUoq4GN1zfhS6RVUN7eOGqYsbz5/73asLwjtC2o8gTAoMpQgS0c8Hlo8CxvzMpHssKHL68PJxjZ87mwF0DV8NbIMRn75Pnv3NqzOd4WKUKkvL7KXrjagWdlWGi4iCpZnpCgv/Wu/0GQvvx8tbh9ONbWjwT16mTk30YHtBVmaX3KDPUVKIMi4nqmovW7VQLYU5iQnIs1hV1YpmtxeXB1Y9h9pb6rdhrvn5IX0a3SsQJD25JetbCnIVdUlyQkoTHbCaTND/ouwrursweXOnut8tcyVjJs0vuimUyCIIBBbxPcSuzE/xYm8pAQk2CzKf5M4qYqObtT0jr5gTV7em3NdWOAKLTnZ3uomXGjvGuKTYLVgUVoycpwOZe6VNrePit1ZmOrExvzMSW9xTepDw4dAgTCNk0BU+KY/7sXhK9UDvZpwV3EuvrtzDQpTEpWApF+er8In956Exe9HXm4Wntq2AvMyJpdz/dXKRux88pVRgkPEwMKSIjy1ZRnyx+xrt7t9+LdjZfhBaRk87uEvgrkpSXh01zpsL8oK+ZdjOHjli+n7ZyvwmVePA77h1Y+dhTn44c61KE5z3rD5Cy2d+NiLh/FqbdNQPZvVgnfMLcK/bV6GvOTr9/Xl5fKdg+fxxcNnB24fHBBLKcnoed9tiAthmXM8gaAMxGTGruI8/P7ODePGN7R6vPjY80fxxOWqId+JsPjQqgX43rYVk0J6vKENx8YsV+cmOLC1IBNJ9vHjXGQ+7q9tRll7txK8OLg/vCXPhYUhvhAiIRBk2fvFqw2o7RkOUpUX9bxUJ9blpF/30u/x+ZU7DGSfe+RazfyURGwpyNK8GjOeQBAniLjakOtCYVLiuAGIcq35S1UNQ8v1wlC2Vh5YVKxpm0bmj/yab+hx43jT8FaGrGAszUhByYjtCglolqBarWXsFsPgc664OGwvylRWucYWGf+5lk4cbmgZFusARDTePitX88tb4lFeqW5Q4kekiD2rs9Kw2JU85BM5zvxGTTMc1mt/kxgLluknQIEwjcw7PD7sfOIVnGhqv7acb7Xh37evwqeWlQyNQr4UfnKpBllWC95ckhvysvZgQz2+ADJ+/SL8bdLXtZJot+GhdUvwD+sWTPjlKC+Ffyu9gm/uK4V7xK/u/7t6Ib6wcWnY8RCh4D7b1IEPv3AIBxpahh5LcsThi9tW4e+XzLphU7KV89PTl/GRV44CA6s18jL5Pwtn41vbViBNZd/0kcPn8ZkDp4ERS+0/3r0B7116435HDmoigTAnJwNP3r4eS0ZEoY815qXaZrz3uUNoaB8OYNw9Ow9P3bUZcSEG28lL5vcXK+EesVefHmfHbbNyVFcChOPLlQ2o6u4dGqIrzoZ75hZofiHIg5EQCBJYub+uRTltIUVWDWTpeVlG6oQrSSIqDtW1KCJnMIBRfiG/SVaONL50xhMIgy+1Ra7kCTmI2DzR2I7jI4SZiKy7ZueHFHsxHZc1Kd8PVqsiGPOc8RP+EHD7gzhQ1zxqdUSCQXcX5SBZ40kiORnxek0T2ga2/GR7Y3NehhLEOViEndxeKYIqEidoQvneYd1hAhQI0zgb6rt6cccfXkVpy8BeutWKf9uyAv93xdyIH2n808VqvO3pN4aVvsmEv12xAP+5bZnqr2CJvv+7PSfwo1NlQ7ERs1KS8exbtmFu6o1/tUcKp3yZv++lY/hN6aUR8RkmPLCgGI/uWosElauc5ZTA3X/ehwNV9UPPO5OTcPwtN2O2ysqD2FDT48EDLxzG3hGnJtYV5OD1t96s+djVuALBYsHXNi3Hp1bNu+EXX2uvF//w6nH8/HzFEFIJCPvNmzaNu/JxI+4Skf5abfNQFavJhN3FOcqLQEtpdfvw14pa5Tjf4N7zPSX5yAwhOC1cgSBC5WBdCy60DV8ZLacD5MUixwhvVGSbSlYS6geWx82mazEsN+Vq264ZTyBkJ8Rha34WUlReinU9HrxwtX5oFUGW5LfmZWJe+vARRTUfTJdAmJ+apKzE3Oi0h2zbnVFWEVqHAk7ltMG2/MxRL/gb2TRWIMhpDFklkNspJVaEJXoIUCBMoy96vH5sf+JlHG8cWEEAsCgnA/918ypskmC7CH423vr0AfzpQsVQENf81GT84o6NWJOTpsniqo4ezP7ZM0BwIFjNZMJf7t6K2+fkaXo+3Ep/PF+Jt754GPCPCKhzxOPs22/BfJf6lsvVjh7M+cWzo57/x5uW4mubl2oammxv/M+ZK/iErEAM/GLNdybitftvUd3aGOxgPIGQ60xUtmvump1zw3FI/w/tK8U3D58bEjirMlLxs9s2YHFWaPEoz12pQ/WIZfm8BAd2z8rRvDolY3mlqkHZ0x8sMpbVIVypHa5A6PIF8EZNk3JqQcrgL/glGi7mkl+jp5o6cKKpbUgwS9T/7uJsTQzGCgT5mIpQ3qJhT7zN41PYiWCVIs/KaYEVWdo+h/LMdAgEEY1rstMhPNW+hq509GB/XbOSR0OKbFtuzHFhtsYfDxLv80pVoxInMljS4q6dkpFTHqEcBdX0YWalSROgQJg0utAflF9f9zx3GM+cvTz8q9hkQlZiAv5pxXx8eNUcOCJw3ldiCXY9uQcnJL/CQPnwkjn46tYVSgISLUXGetNvX8Hx2oah6g+vXYSHt05uD1xLn4N16jvdWP7r59E6IiGS/O3HO9fjPctnq36BSd3nL9XiTX9+bUS3Jhx++y7MusGy/tgxvlLThE+9egy1kjMBUKLgf7ZrPW6fp553QeqPJxA2ZruUFZClGl4QXzh4Dl+TbY6BAFM5evrYrnVYG8J5d3k5/uJcxVACIRlXcVIi5qQ6YVI5YTnEwwQlQK18RNBdbkIc3lSijYO0E65AUPaka5sh/5Qi0N6qkQAAIABJREFUgaO3FGQhO1Hb3rSM/0Bdy1Dgm5xk2FWUrel8/ViBIC9TCexclZ2uOq07vX68Vt2IhoFxy8t3qUv76sV0CQQJEtyYm4FZGo5h1nT1Ym9t89AJDlkBuCknHfPS1IW72COxWPtrm3Cu7VqQ4uCqlGwn5CQ4sDIrLeSTJqqOYIVJEaBAmBS2yT90pbULa37zIjq98kU3+jhbSkIC/nXNQty/qAiu+DjNS9ljR3OmoQ1ve3ofLo6IEs5JSUZJshM2tZ8Hg431A69KzoTu4Wj6O2YV4M/3bZm88RqelBiI1X/Zj7PlVaNe7hsLcvDKW7dpZvKtA2fxj/tPaehRexV5KX1p43J8as18TQ+NJxBuLczGozvXaVqF+MLh8/ja/tKhFYzFacn44a512FCQqal/qSSBeo+XVY/KH6H54RtUlGDNdy8q1txUuAKhsdejBK21Duxbiy9uK85RTi1oKfJS21fbjM6BY4mS9GlnUTaSVLaqpO2xAkFiH9bnuJREQWpFcnDsrWlSkg5JUY7spSdjfZ72EzHTsYIgcQByBFTLtpOMR1gOHpeVF7vkeJAtAq2lx+/Hs1fqlZWV8Y5UFjoTsCIrBRnxDs2fea19s552AhQI2llFrObeigZ89LXjOCcv4FFn4a8JhlnJSfjw0hLcNScfC11JIe/L7blSjw++eAhXRwSWXRv8BPkWNFqWnuFC43t2a6wdejVZyv7NmQp8Zu9xJR3yYMlMiMfv7tyELSG8GD/zwlE8clpiKCJXrBYrHly7CD/YtERTo+MJhLtn5eEHu9YhN0l9/z8SAkFORDx1qeb6jHjD+TM12TK2kuwVv3/JLM35OcIVCC0DKwiDy9KyrH1zfhbyNXCUsZe3dykxDIOBmrKCIIF1coxPrVyXB8FiVrYE56ROTiAsTk/GhigTCHJqYWteBrI0rMjUdbuV1ZxBgSDbPeuy00I+2SKrK3JKpsnjHTfZlWw1FDkTsDAjWcmIya0HtZka+b9TIESeqaYW5djZt06VY09FnZKCdigH7dDTJqzLSse7V87Dg/MLEa/hi2zw0b9crMbH9hwddRxM06DUKqWkIPDgHWq1Jv33A03t+NhLR3GqbvhYouQ8+PTK+Xh4/WLN9y3IAP7m6YP4yYUrI8ZigrQVTrFYzHjPyvl4TGMcw3gC4c2z85UthiwNAYKREAgSEPanyyPSUwNItlthgSlk4TmSnfzqu3tOvuY2whUIkqN/b00zqgdErwiUpa5krM5OV31xSHDl0YZWnGsdDnDMd8YrAkHLfSfhXNY03gpCNAoEiQHYkp+h3H+gVsYTCLLFEMoKwmAf3kBQSfktcQ2yfSR3PowtSo6E9GQscqWEdN+Emh38uzoBCgR1RlNWo83tU/byfnv+Kp4or0ZgIBhuZIeO+Hj809qF+H+r5mpO7iInGCS4rrZ34Ly4xYKtuZlYGcL++3hGJyQ48FWNv55DhSZHQB8+cBbfl5MTIzisyXYpv7jXhBiY9/HnDuO/z5YPD8PpxE8mmUNgsBGLCUpO/TUak1ZNlGr50Z1rkTlNAqHV7cVTlyWl8zCKDTmukI7ZjedLWYvK0PAyGXw2XIEgp1oO17Uqq26DdxLI8TpZFs9NnHg1RsyWF7wsiQ9mPRRxsSozVdnr1lKMIhC25mdoOvoZSYEg/MWfsppQ3e1GWVuXso009k4LWT1Y5kpRfKZF1GnxK+uoE6BAUGc0pTUk+Uibx4vTTR34l/2nsVd+PY9R0YXJSfjO9lW4R+MJgpev1OFDLx5G5eAWg9WGr25ZgY8u1r5nPJ7R8iFN1LBnGyowMfe5ino88Ox+dIzI9Jdit+PhDUvx8VVzNUWbj+z3y6+dwpeOnh3+TwmJCPzt3aEOLaz6EwuEdcjUcK9CJFYQ5EKj31ysGhWDIEfS5CZAreEoYUEYeDhcgSDNSOKh12ublBv/pMgqhiR7EpGQMk5iH6kjpwj2VDUOxS7If5Ml8Xvn5k+YIGqsvUYQCOkOO7bkzYxAGOQtW4xyMuJSe5dylHIw38Xg3yUxlRxrlayfLNNDgAJhejhr6kVuHPyfC1X49L5S9HV1j9o3/sTK+fja1hWabr87Uz8QpNgxnMr0a1tW4DNrFkal+u70BbDity+jalSKYxPW5mfjpXu3TEqU/P7MVbzj+f2juNd9+D5kJk7uciBNDhxTKRoEggzpl+euKlfqDhZZrpU7FaZzTzcSAkHuStxX04wLbV2jPhsSYCdHDmWfekj19PejoqNXERQjLx4SMboxJx1LNK4CCTMKhNETO9IrCON9tmRrRo5SVnUPZ80UQSuJqTbkZkyruJ3MZ18vz1AgRKEn91Q24qMvH0GZBDEOlDuLcvGdnWswS8NZ406PHzuefAUnGoaPOb5tbhH+85ZVmpOZSLeSnEbOvhcmOmAPMXufVqzSx5f3luKrI3/tS657ux0v37UFm4uztDY1qt7F1i4s/uWzo7YrvrR+GT4fwhaJnKg409QBs+SmT08Oef8zWgTCG9WNON8+fBpFMubJalRCCEdqO31+1Hd7lJv7JDlQqOIiEgJBHCx71nKGvq7Xc93JjOx4B+RyLdmOkOufB088DE6Ma/c1JGBTQabm4EoKhOs/ftMhEKRXCbCVuJOR+RJmpyQqqwihpDyf1BcIH1IIUCBE4USQPbl7nj2EZy9UDG03bMnJUPbiF2dquxTlgecO4/Gz5UO/tFLiHfjVbetx26xczQmZ/nipFl87cg4PzC/EHSV5Su73SGc6+2N5Ld76130DL/LhjfJ3rlqEX26ffM4FOQWx/anXcW4o4NEEZ1Iijr31ZpRoiMWQX5qHG9rwyVeOQuIj3rekBHfPysGizBTNDKJFIMiL/a9Xaod/XctZ/PQUrMtN12SL/AI/UteCs61dkKXoeWlO5f4BtSyCIz9akRII0qYnEMCxhnZUdPUMJetR+xjLsUi5s0HuMAj15cIVhKlZQZBPu2yBTSRURaC/Vt2EKyPybxQnJypbITfK9qg2F/h37QQoELSzikhNefkfq23Bk7XN+NCcfJRMcJb67ucO4ZlzIhCuXTOzKz8L39u1FnM1njV+9WoDbv3DnlGXqmwpzsOTd6xXbgZUK8frWvHOZ/ajvKNLucNBzn1/dMkc3LewUO1RzX+vaOvGW5/ej5ONw3ctyMNrs1x45i3bkKZhnBN1Jts1/3WiDJ/ee3LUXQzvXThL2arJUDnOdaXLjQ/sOY69ci23HEU1mbEzLxMPb1yKzYXa8hBEi0CQOff05TrUuz1DS7Pya/ra2fUbH6OVfeGTTW043dwBf3+/Eh4jdxnIWf51GlMVi48iKRDEnoutnTjR3DEUj6A26WQbYmVmGmanhp6pjwIhsgJB/CexIVc7e5Ur6Ndmp497j4PEI7xe3TTqHpA5KZLBMiPkmCS1+cG/j0+AAmGaZkYg2IdDtc34xqlynK9vQZXHiw8uKcE3Ni277l6BqvYevOvZA9g/4rifvNj+/eZVSNeY/16Odu188jXsr5a7CAaK2YwVswvwyq3rlOuFJypHa1vw8VeO4siITIzy8/ORLSvxsXULIkJMloo/8/op/Lj0EvwjT29YbXjqTRtxl8aAzBsNRrYHPvLiYeyvH76HQH6tvHvBLDy0fvGEdxrUdvTi9peO4Gx1w6gtioL0VOy9bysKkhM1MYgWgSCDrersVVL+ykt+sMRbLFiYloTFGSnj/iKT9MbHG9tQ0dkNv0TTDhTJJPim2dovO4qkQHAHAkocgmQmFL5ak0HK/E2wmjE7OVG5gyGUlTAKhMgJBAkwFbEpl3/J/JIiL32JiZGES4NF/CrZLw/WtQ7cqgooGSwzU7FK4+kTTR9SVrohAQqEaZogdZ29+PhLR/DnitqhLzWz1YrPrFqAh9YthHPg0peWXg/+395S/PzcFfQPJlGyWvG5jcvw5bWhvZyrO3sx62dPj7qRUMzNS0vFL29ehS2zsiEX1wwWuQHyf05fwf935BwaJTfDiLIpJxO/umsjCiMUQXy6oQ0feuEwjig33Q1/zX986Rz869YVSNGYIe9G7pOLZb56qhxflFUE3/CdDhL9bklKwtdXzMO7FhYhy+lQLiIqb+nAT89cxXdPX4JvxC2OSh8mMw7cvwNrC7RnwIsmgSArKsca23B68KKwAXDifrlspyQ5EdmJ8coFUvIlXtvlVk7BjIwkV46e9UO58W++hm2akb6JxAqCbC28XNWEuhH3Skgf8uJYlJ6E2SlJyraHXCnV5vYrMTxlHd2QeWAaSNcn9hYnJWBHUfakr3uWF9nm3AxNdw/ESh6E6TrFIHNrX20Lrnb1DK1myXdQgTMBqzLT4Iq3K1eLX2rrVm7B7BnxOUy227C9ICukS8Km6etdt91QIEyja7906jK+ue8UPO5raVeHSpITb8lywdvXh7/Kr/aea7n/lfcSgM15mUoO/rkaLikaa84vT13Gp/YeR/vAZTFD2RRNZmQmOXGTKxlpVgsqer3YKy8Pj0QND2dclC/WjPRUPHrLary5UIK7IlNkmfGTb5zGY8cuIDBwIVRWajL+Z/c63BlCxkS10fT6A/i/+07jp7JSMXA8bpis/Fu/8vK/drR0vN+jJuQkOvDozatx94LQtleiSSCIpd2+AI40tKKis2do62nQYi1+lb375RmpWOxKDjn9bbgCQQIPj9a34mxr59DYJVBSbnSUJerUCQRlc68XB+pblEC3wfwJsnogmf+WuFI0iQSuIIz+lIUbpCgXqR2sb0HXiM+j8unrhxL8KqdVxpbBxFhrc1wR+w5S++7g3xmkOK1zQO5S/8LBs3jk+AX0jf2FOsFInElOfH/rCjwQ4stpsDlZFfjRyUv4z5NlynGt8V+C43cuH9bN+Vn4xNpFuFdZbdDyGtGOtLazF2/5yxs40tCiXJrzD6sX4h9vWhTxACQ51fHQkfP43dkraBqzMnKj0VqtFqzIcuHhNQtx+5zckCP3o00giK2yrHumuQOXO7rhHicx13g8xOuSYU+SRMllPhK/EGoJVyA09HiUpGKyZy1F5qKsBEy0fz1yfJJnRJaqa3vcQ6+e9Dg7binMmlBYjHyeAiGyAkHEnpwyOtXcPpS86oafQ5MJJQPbEPYR2xChzkHWD50AVxBCZxbWE7Lk+IPTFfjRqTJcbh8+xjheo5tzMvCuNQvxobn5YeUvkD6frajHo6Xl2FvTiL5R9z+Mb05WchL+ZkEh3rGgCIsyU6dMtf/pUi3e8vQbWJmVjsdvW4+SNGdYfCd62BcM4g/ldfjDxUr8qaoBvhEJmUaF9ysrCibMdaXhnXPzcM/cQqxwJU+Kv8RZPPjKMfz20nCq47fOysUPbl4Bl4YshF89fglfOXIe/gExuSw1CT/evhKrQggOHI+HbKfIhTtVXb2o6/Gg2+8fd+0kzmxWbtXLTXQoW0tyMdLgUn2oTgpHIMgv/zPNnUpMzOAqgGyLyAteS2pg+WVa2dWj3MUw+KtVkiWtyU7DYpf6qaD6HrfybO/A9cbX7h5IR5GGmw9l1eZQfYty7FKKiC0RWlpughxkLOLo8Ihf3LLFsSIzTbmRc7LlfGunkpzNPxAELXcxSLpkuSROrVwbTyu6Bq5it5stWJmVGtJ4RCTUdvWirL0bNd1u+Cb4TpIU0HL6RIJp7WGmSlezi3+/ngAFwgzMCjn7L8FfL1yuw88uVaO8rWP40iaLBUvSU/HBRUXKkcT56UmT/lIeaZpEo1d09uJEfQt+f6kGj9c2A71j7oCw25UvnveX5GFtQSZWupIRH8JZ+cmglCN0D+05iTV5GXjbgkLNRzAn05csXNZ3u3G2vRtn6lpwqL4Vxzp7cdEfQJrFjLUJDqxxJWN9YSaKUpMwLzkhpFwBY8ckL7MLHT1odI+4eMphw/yURE1R2FU9HlR0uZU9dfmf02rBwpTESSWOGo+XrHDInrCkIJZkVR5/UOlLXoBOu1XJNCgrO4k2S9irR60en5JGd3DxWOIG5Etf+lArMk7xVdmI20nnpyZhc36G5nGJKJJrlyWvx2BZmJ6knM6xqqyIyLPCaFCcKHEbdpumvBjyIhSRMDJZk1w0JVy1FnlW2pC2BkWGPB/OUT85ISDbbyP9ITbJCRW1IvEswmN4PCZljkxmPL3+INq8PojokAu5JAjVbDIjyW5BdkK8khJc4pFCzbuhZgP/ro0ABYI2TlNSSz743mAf5Bd+Y5dbEQJZSQ7lS1P2e7V8WEMdmHzJyReexDt0ewNo6fEoX15ypNCVGAeryax88U1F3xONVbL8Sb/TlWNdvhRFMMk5a7kcRnIMyqK5vLSU/5vNUypUQvXZVNe/tv87et9X5qL6q0L7yMLpQ16Or1c3Dl2ZLL3uLMxWtjtCKZI47GRzx9CFQLOSErExzxWWCAylf9admIB8L8kUvBZ/YFI+f+aBf5LbzBGgQJg59uyZBEhAAwHJ4vhKZSOaR2wL3TUrD9ka7rMY2bzkTjhY3zq0nC2R85KVT1ZLWEiABK4nQIHAWUECJBDVBLp8frxa3YiGXu/QOG8tykFhcmiX9pxuasfRxrahFQSJq9iUS4EQ1c7n4GaUAAXCjOJn5yRAAmoEZK9crmseGT+w3CWpol1qjw79XfbL36hpHhXHIAl6ZIsh1NTLmjtlRRKIcQIUCDHuQA6fBPROQGJkjje0oXREkic5prirKBtJAwnG1Bg09nrwek2zkuJX2d82mbDMlaKcZJjsyQy1Pvl3Eoh1AhQIse5Bjp8EDEDgUnu3sooweBpAQigXpydhbU666ikEOQUhCaIujjhFkWi1YGNuBopDDHQ0AGqaSAJDBCgQOBlIgASinkCH168IBEl2NFjkOOayzFQlzfJ42wQSDy+5KEqbOlDa0j4q14PkdthZlM3thaj3PAc4kwQoEGaSPvsmARLQREBe9hdaO3GkoU25pGkwqadsFcgFTHIFtdNmg2Tak+NykhhLTj9IQqCq7mFRIZ2JmNiWn4EijZduaRogK5GADglQIOjQqTSJBPRIQPJ3nGhqx+nm0asBYqusJrgcdiWngQiEHr8fLR7f0ImFQR6SJnplZiqWZqRoTrKkR5a0iQS0EKBA0EKJdUiABKKCgKwenGvpxMnm9qFMfloHliB3a2SmKjdRqmVP1Nom65GAnglQIOjZu7SNBHRIQLJgyv0IktOg0e1VzfgoGSFzE+OxKisVmQkOpu3V4ZygSVNDgAJhariyVRIggSkmIKmya7p6cbGtG/Vuz4hUvUqyXkU4FCTGY356MnKdDm4pTLE/2Lz+CFAg6M+ntIgEDEdALkCTuANfoE+5MlHuE0m027haYLiZQIMjSYACIZI02RYJkAAJkAAJ6IQABYJOHEkzSIAESIAESCCSBCgQIkmTbZEACZAACZCATghQIOjEkTSDBEiABEiABCJJgAIhkjTZFgmQAAmQAAnohAAFgk4cSTNIgARIgARIIJIEKBAiSZNtkQAJkAAJkIBOCFAg6MSRNIMESIAESIAEIkmAAiGSNNkWCZAACZAACeiEAAWCThxJM0iABEiABEggkgQoECJJk22RAAmQAAmQgE4IUCDoxJE0gwRIgARIgAQiSYACIZI02RYJkAAJkAAJ6IQABYJOHEkzSIAESIAESCCSBCgQIkmTbZEACZAACZCATghQIOjEkTSDBEiABEiABCJJgAIhkjTZFgmQAAmQAAnohAAFgk4cSTNIgARIgARIIJIEKBAiSZNtkQAJkAAJkIBOCFAgxKgjfR4PWpsakerKgCMhIUat4LBJYGYI+H1etDY2Iik1DQlO58wMgr2SQJQToECIcgdNNLwLZ07j0a9/Be//+CexcsOmGLWCwyaBmSFQeakM3/nKF3Hvez6ArTt3zcwg2CsJRDkBCoQodxAFQow6iMOOagIUCFHtHg4uSghQIESJI0IdBlcQQiXG+iQwTIACgbOBBNQJUCCoM4rKGhQIUekWDipGCFAgxIijOMwZJUCBMKP4J9+5VoEQDAYR8PthtdlgsVgm3yGfJAEdEdAqEPr6+uD3+WC1WmGxWnVEgKaQgDoBCgR1RlFZQ6tA2POXp/DaC89h511vxvrtOxWhwEICRiegVSCUHj6Ap375c6zZvAU77rqXJ4aMPnEMZj8FQow6XKtA+NZDn8WRY8dx25134v73PYgEZ1KMWsxhk0DkCGgVCE/86L/w5BNPYu26NXj/J/4e6Vk5kRsEWyKBKCdAgRDlDppoeFoFwrnjR3CutBRLV6/B3EVLYOY2Q4x6nMOOJAGtAqGqvAxH9r2B2fPmY8nqNbDZ4yI5DLZFAlFNgAIhqt0z8eC0CoR+2UP1+2C12WE2m2PUWg6bBCJLQKtA6O/vhyRVslgZwxNZD7C1WCBAgRALXhpnjFoFQoyax2GTwJQS0CoQpnQQbJwEopwABUKUOyjcLQY5wdDb1Yl4ZxJsdrsma4OBALo72tHb04NAMAiTCbDb4+BMSkJCUrKmNqRSMOBHZ1sb3L29kNMUZosZ8fEJSEpN1bRU2xcMoqerE/a4OMTFJ8Dn9aC9pQU+rxcwAXFxDqSkp8Me59A0Jvk1KHZ1dXagL9gHR3w80jIytUen9/fD63Gjs6MdXo8Xsjoj0e2JTicSk1O0t6NptONXCgT86OnsRG/3/9/efUdFcfVvAH+ssYsi2LvSpNqwG8GaGGNHY+8FFU1MfDUmxhaDLYIlQcQau8byGsUaSywRKRbAEo0dBRuCJWrkd77XlxyVXXZl1pL5PfNPco7c2bmfO7vzzNw79ybjyd9PkClTZmTPnh158uZDzjx5kEkay8wt+W6i8n386LEqkS1bNjXtsNTFnKdNMsL/QXKyaleZ7luOKykxUZ0z2bNnQ/4CBZEjV261b7F/eO8e7ibexqNHj5E5UybkzJ0b+awKmBw4++xzklT3mOxP6vjXw4dIunNb/fdpSgqyZsmijj2Pme1gbkCQc1CccuTMhew5zDvP5PyU8+zhgwf4++nfyJw5C3LmzKmmdZbvoJw39+8lq3rkzG28zeTtiQf3ktW4IXmDIvnOHSQl3cXffz9BlizPzjvZpzltlXpKSDv89eABku8+O4fFNktWOb5cyJM/v1nfy9T2vJ+cpGykPWWTNpfzUM4fbvoQYED4l7ajuU8Q4i5ewOZVy+H90ccoY++Ybm3lhys+7ipORIQjOvIIrl+9oi6kQIq6AJQub4dK7h5wcvcw+SMQd/E8osLCEB1xRK0ZIT9Ecu2StSMqeVSBe/UaKFaqdLpjIhJv3cTmlUth5+qOosVL4NC+fYiJDMP95Ht4+vRv5M6TF85Vq6N+oyYoWNj04LGY8DDs27EdF8/9Afnhl6BSte77qFn/ffVDmz5OCk4fP4qoI2E4E30cyXfvKhf5cS5aqjRcq1SHa7XqsCpoDVVRC2/yw54QdxXHjhxGbFTks7Z5+jdSUoCcuXKhVAU7OLu7w6VqdRWm0tvkwhpzNBLHw4/g8rmzKnClIEVdqEuUKQfnKlXh6OqGgoVs062LhItfN61H7jz5YG1ri0N79+DSuT/w5MkTvJcjBxxcPfB+k2awLVFSfc6+HduUnYQsSXhSxrNeA/WGQHqDZ+UitHPDWhS0KYzq9RvgwpnTOBoRgTMnjqoLlNhIUCpasiScpR2qVIW1beF0j93cgHD7RgLWLQqBZwNvVKpcLV1XuXBfvXAeUYd/R+zRCBVmU4/NytoaDm4ecKtSBTZFimH35v+q0FG7UVO8lzOnwf3+eTIae0K3oF7jpkhOvocDu7bj6sXzKtBlypIZRYqXRI169VGtXgNkMqP7UM75mMhwnIiKxLnYaNxLTlLfSzmHxdbexRWuVauhRNny6YYOCS2nT5xA5O8HcPZkLJ48evQsIOTIgVLlK6h9uFSp9k84tPBXgbt7gwIMCG8Q25IfZW5AOBNzArMmTUSPgb5wr1nH6CFIODh7MgYbli/FtSuX4eReGRUcnZAjRw51Mb118yZiIo/g3B9/oLZ3I7Tt0g3Zcxj+YYsJP4wNq1YiPi4OVWvVRunyFdQF49HjR7h07hyifj+IfAUKok3nrqjo7Gr0xyj+6mXMmjgeZezskHj7NlKe/g2PGrXVkwy5CF08dxY7Q7egqqcnuvn6Gf2hlUpfOB2L2f7fIW/+/KjbsDFy5s6FC2fPYseWX+DVpBnadO1u9O5JbHb/shHbN29Sd9keNWqhcNFiyJYtq/rhPnk0CmdOxsDOqRJ8evSGVSEbSza12te52BNYu3QpEuKuwNHVHeUcHJE7d251N3kz4YYKdFcvXUaVGjXReeBgo58vwW3LurWIPHwITi6usHNxR968eeUWH0lJyTh1PBJ/nDyJio5OaN6+g7pYGHsqcefmDSyaNQO3b93GXw/uo4KDo7oIitHNhHjs2bYVBQoWRLuu3bF68UJ1TFVq1kb+AgXw6NEjREdG4FTMCbTv1gPV6tQ3GhZvJ8QjZMZUFClRCtaFrLF72zZVd4+atWFTuLCa3+P+/fs4feIYYo8dRXl7B7Tq1FUFUGNhzdyAEHf5EiaP/BytOndFvSYfGHWVsBYTGYF1y35SwcDDswbK2tnjvfeyqzts2U/Ewf3Iki076nt5qYHDcsfevkdvo0/lIg/sw5K5QXB1c8WlixdRsZKL+i7JU6vkpCSEH/gNl86fR09fX7jVrJvuOSdPWuRG4eDePer74+5ZA7ZFiqp9PXjwAJf+PKcCozyh6TFoMEqVr2hwfxIKd23agL07d6BIkaJwqeYJKysr5Xzn1i0cC/sdf579Q33HmrfzQZ78Vhb/LnCHb06AAeHNWVv0kywdEG7GX8OMcd+oH9uWHTupH6PccuH43ybdDndv31J3nvLDP2jkaHWRf3m7cPokFv4wG08fPUS3IZ+iaImSyCmPmf93V/3wwX38eTIW65b/pO5c/UaPRQEbwxdUFRC+HY/r8QnwqOyB9j37ooCN7T8XLNnXro0/Y+Mk4nXtAAAcyklEQVTP6zFg6FC4pROAFkz3x4GDhzDGfyqKlSmrQomU37dlk+rCqNu0udEL1KGdW7E4OBju7u5o0bkbrG1ske29Z6PZU7stIvbvw8Y1q2Fnb4d+//nKom2dcOUypo79Wt3ht+/aDRWcnNUdd+qFW7pyJEBFHdqPTatXYfri5QY//+b1a1i9MARnYmPQqe8AVHByQt58Vv/cfUoQSkq8g9ijUdiwYinyW1mh/xdfqm4cQ1tqQAgPC4dXQ2+06dEbef93QZCureNHfkegvz9sbG3Uo+du/QeiRLny6hwTtxvXrmJ5SDBSnjxG789GILeR7qvUgBAfH4/kpGR41qyBD9p/ggKFCqnBt6mbPNY/evgQ1q9YhhIlS6Lv56NUN4ahzdIBQZ68TRszWnX3tOncBfYubqr7IHWT1VdvJlzHmgXBOBl7SoUo96pVTQaEAP/vYJUvL1p90hme9Rv8c1cud/634q9j2jdfIVvWrBgbOMfoUwRp1zUL52HLxo1o4OWFJm19VNdaapfjs26H+7h68SLWL1uC9xs1RuW676dhkxuFX3/ZiE1r16BB02ao7eWNAjaF/wn4Elbv3rqFw3t2Ye3KlWja4mO06NDJZBeSRb8s3JlFBRgQLMr55nZm6YAwe9yXOPvnRfQc6Avnqp5G77zkxyTxRoLq7375UbaM9l4REoxjhw/hq+mBBgNEqpC8fjl/9ixU96yOdn0GGoT7JyBcu46R3/qjjJ19mr+T4DKgQxs0avYB2vXqZ7QBxg4dhMd/PcSEH+a98DdSH9mM3SXfkuA0cQLyvpcNn02aajREyH62rlmB1cuWY8jnw+FWq55FTgbZ73dfDMOfFy5hxJgxKO/kkm7bXD57BiUr2KX5bLlg79y0AeuXL8WA4SPUnZ+xOstnRvy2B4vnBqFW3drw6Tso3YAQcyIaoyZNRukKL951yn5G9euJa/EJaOvjgw87dkmzn9B1a7B9/c/4cuoMFLSxNfg5qQEhIiIKVSu7wW/sJKPjPVJSnmLnxnVYtWQJuvXujdpNm7+RgBA08RtEnzyFbn37oUqd+kbbSNrB/4thiD55Go2bNTUZEKaMH4/a9eqic98ByG9dKE1dNiwMxoaNmzApIBCFS5Y2WNfI/XsRMmcOnCvZo99/xqTbHSGhWcaSWBvosku6cwejBvZBHa+GaJ3eE7eUFKxfNA8HfvsNPX0Hw9GjqkW+C9zJmxdgQHjz5hb5REsGhMvn/sDoYX5o2rw5OvTun+E+9LOxJ7Bw1kw0adkKtbwbp9uPKRePFcE/YP+vv2L6giUGB4ClBoT8VgXQ0+9T9fTA0Daqb3eUtndEv89GGLWd6z8BYWFH8NV3U1C8TFmzBxTu+u86/HfNanzpPw2FihRNt+3kLnHiiM+QLTPw5bSZZvULmzoZjv9+AAGTJ+OjFh/i4259TP250X+/cT0OgePGwM7ZFW26dFcBL71NgtdPP87G/t2/YmrwfINhL/UJwoN799DnsxEGLypBE8cg8ngMho0cCXu3ymk+8rdtW7By4Xx8/f1M2BgZR5IaEE6dPIXPx02AXSWXdI9dniTMmfwdbl2Pw7dB8w2GOks+QZDAPLRXd9SqVx89h35mckpzGQcwdewY1PPyMhkQZnw3CR2690SzVm0Mfi8j9u5C4LTpGP7lKDhXT7vsu4z3WDxnFmKPReHbOcGaZoJcvzAYYUfCMXjESBQxEkZSG+bG9WsIGPuVCkvS1cAZXDP81X2rBRkQ3ip/xj/ckgFhzbw52L59J0ZPnGTw7tOco5QL/qHdu7Bx2RJ0GTBIXYRNbSejwhHyw4/qjtvQj1tqQLB3dkFruag998j2+X2PG9IfVkVKYMio0UY/8s/YE/hx+jTVneDV7EOUt7NXgwtTuwoMFXz8119YGvwjEi5dQI9hw80a4b1tzXJs3boDU34IQgEZKKdxW/rDTOzZuRNT54YgnwyAzOAm/eNB0yejS78BqCp3uGZssRFhCPD3R7sOPvBu1S5NidSAkCtXHnTs299gf/OSgCn4PSwCYyZPgU2xEmn2cXDnNiwJnotvZsxUfeKGttSAkPI0Bb0+Ha4G1JnaNi1bgjUrV2JS4EwULZ32XLRkQNi3eQMWhsyH77BhqFwn7aP5l49VBpv+OPlblCxbzmRAmDczEF379oNng4YGqxwbfhj+48bBd6gfqjVolOZvLp09jZDAALi4u6N1915qMGdGNwniEgy6+Q4xuQt5U2LzmpW4m5iIrgMHv5ZxOSYPgn+gWYABQTPh29mBJQPC1JHDERefgMlBIWbfWb9ca+kH37phPTauXI5yFe3UK4Smtgf37yE2Ogbt2rfFh526p/nz1IBQuWYdfNjOx+hrmuP9BiCvbTEM/TL9vn/p1pABbjJwU/rKyzs4ws3DA87Vahis950bCVg4Z5YaDFmqXPoju1MPXt7YuHDhIr746is4VqluiiDdf5e+4+/Hf4M7169i3JwXu0Zedcehq1dg/9496D3YD6XtHMwqLq+x/cd3AJwdKqLvyDFGA0IB60Jo272XwTcRlgZOxaEjkZjwfYDBR+QqIMwNwjcBs0wGBLk4qacfRsYVPH+AJw4fxAx/f/QZ0B+eDZumOXZLBoQVcwKwe+9vmBgQCOvC6T9lkgORt0iWBc1Rg2pNDVJcPPdH9BjgC1fPtE8HZF+noo7g2zFjMGDIENTwbpKmnieOHEbIzAD0GOwH16oZPx+la6RXm49hY2ODUmXLmTx/5IbhetxVZM+SGf0+H6nCOLd/nwADwr+vzdQRWzIgjPPzxaPHjzFhztwMa8jd9i9rVuLX0M1wr1wZucz4EU/9sEruleFcvabRgFC9vjeatWptNLyMHzIAeQubDgjyoyU/zpcvnMeJ8DAc3rcPj58+Ra169dCyU9c0YypuxF3FgtkzkXznFhxdXMyeY0DeUa/l3QjFypj+IU0PXH6Up37zNbI8foDPJ8/IcNtIwZ8XzEV0dCz6+A01+Xg49YPE69Ne3VGqqC2GTZxiNCDI65CyzoehbovUgDAxYKbBbopXCQgy/kIeV5szn8f5UzH4dvRo+HT0gXdrn9caEBZ9749Dh8MxLTjErLVO7t1NxIp5c9X8A6YCwtJ5wejpOwhORsLm6ahwTBzztdGAEHVwP0JmBWLo12PV2x0Z3eTVxj7t2sDeriLsnNJ/Xfr5zyhQ0Bo1vBunOx4po8fEcq9fgAHh9Ru/lk+wZECYNmo4Ll69hhnzF2e431z6rLdtXI+wPbvQe9hw9e67uZtMJGNospfUJwjyeLVpy1ZqchhDm7kB4fkLn4zIlle/1ob8gH2/HUD7Tp3RsGWbF3Z/52YCFs6eBat8edChn6/Z/agyC0LmLFnNDhRGnVJSMH3cGNy6ehkTguaby2nw70JXL8eBvXvRe4gfSlU070IhF4URA/ubfILwpgJCGTtHtOjQ0ayJsU5FhWPqhAno1rMH6nzQ4rUGhNXBs7Fjx6/qKYlNseIm2ynx1g0smh2IfPmtTAeEkHnPAoKRORhMBYToI4cxb2YAuvsOhlv1GiaPzdgfyNOsHi2bo9mHH6BNOoOBXy6fCZnUGJBXmcArwwfJghYXYECwOOmb2aElA8L6BXOxeXMoRo4bj7KOlTJcgd/37sbahfPRf8QolDPjbkV+dNKb4OV1BYTnKyhBYfwwX9gUL42eg/1eGMQld/BLg4MQd+4MPp3gb9ZMeqkTz2QY8aWCK+bOwbbNm/H9/IXIXzDtKHZzP0cmV/pxqj869+2HavIKmxmTOcXIa4pTpqBj509Q/6PWaT4qdQzCmwoIMjFWp/6+Zt2Nbl+7EsuX/ISvJn1n8Jy2ZBdD+J6dmBMQiL6DfOHp1dhkk8RduoDA8d9AxtaYfIKgMSDIAGTpYnBwdED73gMyfAMglRrdvydsipfE4FFfm7Xom6nvt0ko/sFbF2BAeOtNkLEDsGRAuHLuD4z9YvizUdU9+5q8EMqjZ7mwyvSvz2/nT8Vi/qwA9RpUwxat0v0RkR+PU8ePqdkIZXIdQ5slAoI82ZDJhZACFDHQDyoX9PnTJiHx3kPVP//yq2R7tmzCuuVLMXT0GJQx0XcvU+PKZDjFS5ZEiXIVMtawL5WSgYIykr2Btxfa9epvcoyItItsL6/aKWMjZk4Yq15FbNe9p9E5B1I//uH9e1ge/CMiDh/GhJmzDYaTNx0QLl+6jMEjR6O8o1O6tvIWQ9C0KWrWwcnzFhk0s2RAkKnMv+jXC5Vc3dBjyLB0ZxCU786BndsQNGMGvBo3eu0BQd5iWB4cpLrURn43FdYm3sQRWHld2dCqlb8sW4w9u/dg4PDPTX4XZCrwk8ei1MyKhcyY5dQiXxbuxOICDAgWJ30zO7RkQJAjXhQ4HZEREfikRy9Url0HWbNmM1gRubAfPbQfRUuWSvPetbxDvf6nxTgecQS9/YahrIORpxEpKTh/+iQW/TgHxYsWRu8vDL99YImAIBPArJwfrKYp9hsz/oWJdaSCEiAmfDoYtiVKocegIWl+3G9ej1MXG5nrv+/wL2BlbXhSJ5kkJmzvbiwKCkL7jh3Q4OMXuysyelZI6Jg33R/Hoo6il+8gVK5dV83tb2h78vgR9m75BVXr1EvzxoPsR8KODCT9oHUb1G9mfGIoGU8ib6T8vHwpGjRsiBad0w4glc9/0wEhMvIo6jV4H90HyayZhqeTlvU69m7dgvUrlqNFm7Zo3Ka9QStLBgT5gA1LFmDn9u3o0LW7mg7a2Gt98VcuIfDb8Tj/5wU0bNrktQcEObaYiDAEBwagQsWK6o2CvAYmOEtFkuWtb8RdgYeBtzFkoq3p34xWM4a26tzN+JMcmRPk51XYHboF7Xv0gket9Gd5zOh3g+VevwADwus3fi2fYOmAoAbkzZqBhPgbaN66NWp6N04zGOzmtTj16tLZP86gS59+KF/JNU3dZO2HkIDpePDwL7T28YFH7Xov3M3KHfuZE8fw80+L1YQsPf2GoZyRbg1LBAT5POl/X7d6NT5o/iFadO7xzx2lmtxo1TJsXLcOLX180Khl27R9pSkpakbAOVOnwN7JCS07dIT0hT//iF5e6fp99041k2LxYkXVrIAm13Z4hbNCZhyc8+14JN1/gOZt2sKzvlea99mvX76IrevX4eC+vZgQMBPWRYql+QRZ22Lt4gWIPnoU73t7q4vnyxdaeXIgU+nuCN0KOwd7dOzV1+DbB28jINy9m4TEO7fhUMkZbTp3SzPORSbC2hv6CzatX4+y5cqi+6ChRi9ilg4I8sbLgsDvERd3DR+3a6fWbnh+lkfxOnM8CisXLYLMEZA3Xz6Ut7d/IwFB1kqQGRCXLlyAqtU98bFPB5SUqZSf62aSWU2PHz6ILRvWw65iebTvl3a6bplOev/2rSp8uVepgo86fAIrWa/juU0W7wpdswK7d+yAR7VqaNO91z+za77CKc8/fUcEGBDekYZ41cN4FhDGo7uvH9xrGH4FSv0ombsWQ0oKZJ7+lfPnIfpENEoUL4Yq1arApmgxPJR57mNicDw6BveSktC6fTs0bdsRWQ2sDikX3WuXLmLOpAm4lpCAsmXKwM3DXT1mlBXsoqOicDwmFjaFrNG5T3/Yu7ob7ReNvyJTLY+Dp1ejdAcpTvAbgDzpvOYoTzbmTZmEI+GRcHJ0QNUanmoOenl8fvTYcbi5uaHv5/8xOgJdHtufOhap1nJAlixwdLCHg7OzGmSWcD0OEWHhOH/hIjw83NCx30Cz3tN/1faWcLZw1veIiTmFMqVLqjdFChcrplbcPBUTg5iYWPX/7Tp2QMPWPkYnqUpOTFR3u7t27oK1TSFUqeyBkmXKqkV7Lp8/h/DwSCQm3kWN2rXQslMXNZWuqbUYzBqDMCPQ4DwO8haDzNg41szXHCtUKI+FQUHI9l4OuLo4oYKDk1qsKuHaVRw5HIYrV+Pg4uICn159ULhEKaPHbumAoM77i+exPGQuYqJjVRtVrlYN1jY2amGv6GPHEHvyNHLlyI7uAwdh99ZQtfJk+569jXb3ROzfi2XzQ0wPUvz6awzwG4wa3mlf50w9z+TpUtjuncruvRw5UamSowpasiaJLPx1NDIK5y9eQrnSpdD70y9gWzztnBWyL5kMTJ5EbVy9CpmzZkUVD3e15kTWbFlx5cIFNZHStbg4eHk1QNte/V+Yrv1Vz3n+/dsXYEB4+22QoSO4cPYM1s4PRvMOnWDn4mZ0H5fOncWq+XPRwqcjKrq4m/wseSR/+Ncd2BEaqtZAeLYKYybkypUTLs5O+KhDF9gY+fF4fueyvPOOn1di765fcfP2nX/2ky9vHtSpWwf1P/zY5OQp0m++OiRITf1cs4G30TEN86dOQs78BdCxT3+j9ZOukW0/r8CO0O24m5Sk/k4WoqpfvzY+6tzTrEmQEm/ewH+XL0FEeCTu3b+v1hOQdQWKFrFFw2YfoErdBukuGGUS38QfSFA7sncXdoaG4tr1eLWEtrRN7ly54OrqjA/ad4RtcfPeHpG7WXkadObss9UBZflsqUv5MqXRsPlHcPGsZXIgmvT1b1qxFPkKFID3Ry0NPvYPXbkEx4+dwMARowyuAHo87BB+WbNKrZtQsJDhQZipEyUVL1NOLcL05NFfWL9kAWTq5dR2kLdgbAtZw6tJE/VaXeoy08ZIr12+iJVzf0C9D1vAwzPtK7ap5eRuf3HgdDSQv6tlfLGz1L+XNz8Obg/Fzm3bcPPW7f+d95lR0CqfmjK5aftOat2DzauWIUfuPGj0cWujx3rqaCRkKmpZz6Csg+FxF2rtk9mBaNu5CypVM16P1OOT8Ti/rFyGY0ePv3AOFylsC6/GjVHtfW+TdrKvczHHsXntasTEnlbLussm3SrlSpdUc5Y4cHplrV/3d6I8A8I70Qzv5kFIH3PyndtqtsEChWxNDl40VAvp40+8mQAZtCRLRhe0LWLywvM6NeRxqyxMJU8FZFIbWaL2VTfpUrh9I15dqKQrIV/BQm/2Na6UFMgj7eS7d9Qrf/KYNyP1kBUcZZrkOzfiZQynmsra2GyVr2pkyb9/OSDIeSTb44cPVTvIypB58uV7Nj7EjLczLHlsxhNpCm4lXMf9pCR1wZUVPt+l6YblHJZ2l7EpsuKiLMOeEbu/7t9X3yfZZB85n1tE7I0480NeqwADwmvl5c4pQAGtAsYCgtb9sjwFKJC+AAMCzxAKUOCdFmBAeKebhwenYwEGBB03LqtGAT0IMCDooRVZh3+jAAPCv7HVeMwU+H8kwIDw/6ixWdV3SoAB4Z1qDh4MBSjwsgADAs8JCrwdAQaEt+POT6UABcwUYEAwE4p/RgELCzAgWBiUu6MABSwrwIBgWU/ujQLmCjAgmCvFv6MABd6KgMylcfvmDTX1t8xemd4KoG/lAPmhFNCpAAOCThuW1aIABShAAQpoEWBA0KLHshSgAAUoQAGdCjAg6LRhWS0KUIACFKCAFgEGBC16LEsBClCAAhTQqQADgk4bltWiAAUoQAEKaBFgQNCix7IUoAAFKEABnQowIOi0YVktClCAAhSggBYBBgQteixLAQpQgAIU0KkAA4JOG5bVogAFKEABCmgRYEDQoseyFKAABShAAZ0KMCDotGFZLQpQgAIUoIAWAQYELXosSwEKUIACFNCpAAOCThuW1aIABShAAQpoEWBA0KLHshSgAAUoQAGdCjAg6LRhWS0KUIACFKCAFgEGBC16LEsBClCAAhTQqQADgk4bltWiAAUoQAEKaBFgQNCix7IUoAAFKEABnQowIOi0YVktClCAAhSggBYBBgQteixLAQpQgAIU0KkAA4JOG5bVogAFKEABCmgRYEDQoseyFKAABShAAZ0KMCDotGFZLQpQgAIUoIAWAQYELXosSwEKUIACFNCpAAOCThuW1aIABShAAQpoEWBA0KLHshSgAAUoQAGdCjAg6LRhWS0KUIACFKCAFgEGBC16LEsBClCAAhTQqQADgk4bltWiAAUoQAEKaBFgQNCix7IUoAAFKEABnQowIOi0YVktClCAAhSggBYBBgQteixLAQpQgAIU0KkAA4JOG5bVogAFKEABCmgRYEDQoseyFKAABShAAZ0KMCDotGFZLQpQgAIUoIAWAQYELXosSwEKUIACFNCpAAOCThuW1aIABShAAQpoEWBA0KLHshSgAAUoQAGdCjAg6LRhWS0KUIACFKCAFgEGBC16LEsBClCAAhTQqQADgk4bltWiAAUoQAEKaBFgQNCix7IUoAAFKEABnQowIOi0YVktClCAAhSggBYBBgQteixLAQpQgAIU0KkAA4JOG5bVogAFKEABCmgRYEDQoseyFKAABShAAZ0KMCDotGFZLQpQgAIUoIAWAQYELXosSwEKUIACFNCpAAOCThuW1aIABShAAQpoEWBA0KLHshSgAAUoQAGdCjAg6LRhWS0KUIACFKCAFgEGBC16LEsBClCAAhTQqQADgk4bltWiAAUoQAEKaBFgQNCix7IUoAAFKEABnQowIOi0YVktClCAAhSggBYBBgQteixLAQpQgAIU0KkAA4JOG5bVogAFKEABCmgRYEDQoseyFKAABShAAZ0KMCDotGFZLQpQgAIUoIAWAQYELXosSwEKUIACFNCpAAOCThuW1aIABShAAQpoEWBA0KLHshSgAAUoQAGdCjAg6LRhWS0KUIACFKCAFgEGBC16LEsBClCAAhTQqQADgk4bltWiAAUoQAEKaBFgQNCix7IUoAAFKEABnQowIOi0YVktClCAAhSggBYBBgQteixLAQpQgAIU0KkAA4JOG5bVogAFKEABCmgRYEDQoseyFKAABShAAZ0KMCDotGFZLQpQgAIUoIAWAQYELXosSwEKUIACFNCpAAOCThuW1aIABShAAQpoEWBA0KLHshSgAAUoQAGdCjAg6LRhWS0KUIACFKCAFgEGBC16LEsBClCAAhTQqQADgk4bltWiAAUoQAEKaBFgQNCix7IUoAAFKEABnQowIOi0YVktClCAAhSggBYBBgQteixLAQpQgAIU0KkAA4JOG5bVogAFKEABCmgRYEDQoseyFKAABShAAZ0KMCDotGFZLQpQgAIUoIAWAQYELXosSwEKUIACFNCpAAOCThuW1aIABShAAQpoEWBA0KLHshSgAAUoQAGdCjAg6LRhWS0KUIACFKCAFgEGBC16LEsBClCAAhTQqQADgk4bltWiAAUoQAEKaBFgQNCix7IUoAAFKEABnQowIOi0YVktClCAAhSggBYBBgQteixLAQpQgAIU0KkAA4JOG5bVogAFKEABCmgRYEDQoseyFKAABShAAZ0KMCDotGFZLQpQgAIUoIAWAQYELXosSwEKUIACFNCpAAOCThuW1aIABShAAQpoEWBA0KLHshSgAAUoQAGdCjAg6LRhWS0KUIACFKCAFgEGBC16LEsBClCAAhTQqQADgk4bltWiAAUoQAEKaBFgQNCix7IUoAAFKEABnQowIOi0YVktClCAAhSggBYBBgQteixLAQpQgAIU0KkAA4JOG5bVogAFKEABCmgRYEDQoseyFKAABShAAZ0KMCDotGFZLQpQgAIUoIAWAQYELXosSwEKUIACFNCpAAOCThuW1aIABShAAQpoEWBA0KLHshSgAAUoQAGdCjAg6LRhWS0KUIACFKCAFgEGBC16LEsBClCAAhTQqQADgk4bltWiAAUoQAEKaBFgQNCix7IUoAAFKEABnQowIOi0YVktClCAAhSggBYBBgQteixLAQpQgAIU0KkAA4JOG5bVogAFKEABCmgRYEDQoseyFKAABShAAZ0KMCDotGFZLQpQgAIUoIAWAQYELXosSwEKUIACFNCpwP8B3E025C0W7rUAAAAASUVORK5CYII=;" vertex="1" parent="1">
          <mxGeometry x="770" y="189.99999999999994" width="170" height="170" as="geometry" />
        </mxCell>
        <mxCell id="YS14sISvhILDECjVXfzp-20" value="" style="shape=image;verticalLabelPosition=bottom;labelBackgroundColor=#ffffff;verticalAlign=top;aspect=fixed;imageAspect=0;image=data:image/png,iVBORw0KGgoAAAANSUhEUgAABkAAAARrCAMAAADsJppJAAAC+lBMVEVHcEwAAAIAAAAAAAHy8vMAAAEAAAEAAAAAAAEAAAEAAAEAAAAAAAEAAAAAAAEAAAIAAAEAAAEAAAIAAAIAAAIAAAEAAAIAAAEAAALr6+slJSUFBAMAAAAAAAAAAAEAAAEAAAAAAAABAQIAAAETExYAAAAAAAAMDA4KCAVKSmTHx8fl5evh4eRZPhaSkpIUDgUhFwjt7fAAAABKNBM8KQ4BAQIuIAtTU3FbW3scHBxhYYRHR0fc3Nw8PDzOzs6JiYkwMDAAAAFBQVejdzY3N0qKZS13VyZnZ4xsbJPJkT9zc3MdHSfV1dUmJjMuLj57e3u7u7uYaSJmSyJZWVlRUVGLXBeCgoLBwcJsSBK6gi+cnJy1h0LnoTjamTg6OlBnZ2embxxgYGC2trbWoE5ycpeWlpdsbGzMhh59UxSmpqbfkR2hoaGxsbLvmhotLT92dp3oqkytra2pqam2dxn0pCscHC/qsFnxqDwUFCR7e6H1uFv0rkS/gCL6rTrbkyf3tFAJCSf5skcAACoAAAn/mQD///9mZpn/tEP/tkj/tUX/rC//sTtwcKD/s0ARERj/uE3/qir/qyxycqH/t0v/sDn/sDr/sj7/sj//rjX/qCX/rjT/qSf/pyH/uVD/rzd1daN6eqb/pyN2dqR0dKL/pR7/u1X/vFf/pRxvb5//rTL/rTH/t0r/rzhzc6J5eab/rzb/sT3/s0L/tUf/ph//ulL/rTP/ulN+fqn/uU57e6f/vlx/f6p3d6T/qy7/oxn/vVr/oxf/pBr/v17/qSn/wWP/ohX/wGD/wmb/u1T/vVl4eKVzc6GCgqyFha4TExpubp7/xGqIiLD/oBL/7dB9fan/2aAAAAP39/h8fKd8fKiLi7L/8Nn7+/sgICv/nAcuLjb/nw7Hx9r+/fz/9eT//Pb/+e7/0Ilra5z//v7/6sn/x3H/1Zb/y37/3qv/4rY1NUXU1OP/5sAAACqvr8q6utGiosGWlrmGholNTWtHR0xAQFlycnVcXF+kpKdR5zC2AAAAhHRSTlMAA9Y+/rmP2Wb5NtEuxghHsQ1QoKgZWCYS/d7amMyGwGx6XyDdc3/c2+v3/v3l7tze/uHj4fLf8fTd9+P64fns4Onp8Ojs6vj49unh+eTm6vXs5+Xk6+v26PTx8/j5yeju5vT4+vPo9+nx+fD1+qf8+/Px8/yL/Pt3/P793f7i/tj+7NFi2gySAAEE8UlEQVR42uzdT0+bRx4H8BhkD7YBG+M/SDHGj6ldcoiCnJh2e3PTpBtV7SHXHJN7e0LbvIh9OyvtET3i1FTqxbdqX8Le97TPPAa2SSGwB7ClfD4SxPEzisiM9HyZGT/zu3cPAAAAAAAAAAAAAAAAAAAAAAAAAAAAAAAAAAAAAAAAAAAAAAAAAAAAAAAAAAAAAAAAAAAAAAAAAAAAAAAAAAAAAAAAAAAAAAAAAAAAAAAAAAAAAAAAAAAAAAAAAAAAAAAAAAAAAAAAAAAAAAAAAAAAAAAAAAAAAAAAAAAAAAAAAAAAAAAAAAAAAAAAAAAAAAAAAAAAAAAAAAAAAABggTZrpfpGmJRXit3h6nWNt9qj7b1xeVrdaw47+g7g07WzVp/M/mBcqnwkahrN9xt3a3oQ4NOMj95ZIJSn4zAtz1+H9hWTj9FZ48k0jCdnjasNvQjwyWnN42O81x0ludL2bv7OxiUrWYW1abw0LZ437jXnjavtgq4E+LSmH+M4myj2kmS4NmjUGoN+Fguj7WpMhfr+B41rK7HxXilr0m/XGu28cdKN7866+hLgk7Ie42OUrK1ehEWh0xhm85AQZxrv7W4UevnEpJf0a63z+cbmemwcI2RPXwJ8UmrN+iipbb3/ZqEzSJLtuFqV/GGuUsz+vlJKaq0P/on9rHGpXln8ZOpvD77YK+0YU4A70Uj+FB+5Tj8ZbcRlrPOLlfFsVm4m7ctu0DFC9heeH8Wff/vt27Cxb1AB7kKhs3XFhcowaZZnszC/Ibezl9PS2lV351Zr4f+R4g+/ZT4PTYMKsGBbg6Q0nc3GMTQG8ZNWo9oSf9RqNTyIAfJZCOuGDmDRv9TXkt44T5CYH8XhUt+ZS+GLswBZM3IAC7c+HMUESWJ+9Jd7e3ovfDlfwgo94waweK08QWJ+DDaX+yfdDV/FALkfwsiwASxPghQHy/6k+Ur4NgZICCExagBLkiChXF/6/NgK4U2WH++yABkaNIAlSZAkWfr8uNcK4ccsQH7JAqRvzACW5N48aCz/SYmdEH7OAuTnLEAGhgyAG1sP4d1ZgLT1BgA3sjPora+G+3EP/U0WIIqTAHAjrepRCKXwuQAB4P8yCi9D2A2fxQD5KgsQFXYBuJG9w2chTMN3MUAeZAGyqksAuIFOePk8Bsj3eYA8/nViEx2AmxiEVy9jgOSnuf/n+aty6OgUAK7XDcePQxiHb2KA/PtZ+lBFEABuoFB9kj65CJB/vUyPDzwJAsD1KuFZehQD5OsYIL9PjtOnYUNhdACuMwwv0kcxQPKChL+XH6anT5QEAeBazYPT9H4MkLwg4a/l8ov0tbK2AFxna+Vh+jbEAMkLEv69XD48SZ+HekHXAPAxtfA0Pc4DJC9IOCmXJ0/Tt48cyQvAx/XC67hkFaZ5QcJ343J5ehD30astfQPAR+wdpumLPED+mgXIP8KkPA0v09PHoaRvALjafpYW6at8CSsWJPwxjLMACS/S1/cdiQXAR7TDqzR9muXHOC9I+CabimQBcnRy+jwUN3UPAFfphuPzAPklC5Bvs7lINft6dvr2UG10AK5U2H2SpumzGCD3z8uBDLOvg+PTV6G6r4MAuFw8xyRNn8ctkLwg4ZexHEgp+/bw9PRh2NZBAFyuH15kAZKf5p4XJPwiy471VlzEenX604HahAALtllpJ916s9sbNrauabrfTnrdZn07aVe27uAnax68zQLkYZyBXBQk3L+3ln0/env6LGxsGTyAhdlqNyez/9kYVa5sOdge/6Flubh22w/zxXNMMo+zwJgXJPw6e9G6Vyjm++j/PAqJ8QNYkEq9PPvQbuOylp3S5E8tZ3uNW/3p4jkmmaMQVuYFCWOAbMatkRAOfjp9EVYUJwRYiPV6HgPTvWa3l4x6pW5xnOdJtf3hWYW1ectJtd4t9UZxGas4n41s3ObzfKPwOgbIYfzsbl5P6pssSuKFs330l4oTAizCfjNPj2IpyfTX+vGPZLQd8lx471f7/Tw+JvOWw/OmvXqeIcXbO1q9eBjzIz24CJAfQtiNF3Z2833040eKEwIswEqMj+0kWVvttPIZR6G1OsiCoVSNadG/aFcYxsWraXOU9BvrO/OWO51K3jSmTfm2HglvxXNM0vw09+q8IOH3IezllwbZe4dvT5+GXcUJAe5cyEIh6a++vxNe6GTBUIpTi+LZhUp1HjTD2gf36q3KWpJ0x7PpbX0WKj/HJM1Pc6/OCxJ+F0J9/mPW8330E8UJAe7e+qg7GlYuKcy0P0hGxSw0xvky1qAcP3A16lcum2d0sggp3doqUimeY5Lmp7lX5wUJ/xLOdz3iPvr91yfZtYqhBLhbreFw9Yq6fp1+Uppm047KvUIpS5JQGl65z7HeT25rD6Swe5SeB8jKvCDhZ+Hi8fNe9u7jkxPFCQHu3ubVd97NRjIKs9mkvRfXspLGx3Y5bu1Q3PXwPA+QeJp7mBckPAgXdUDm++gnx4/CmqEEWCLrw9Hu/HnB7f6CDi2cn2NyXg4kL0iYvbrY85jvo58oTgiwZHb+y9699KaR5WEYj7Hw3wq+G9vR2NixPXY7C4QlGJKeZRNIrGhGarYsyXqalaVh40/CkvoEFi3VLEpCI8tIk32UTzOcUxdOcUkoNrGrnt+y220pqKU3cIrzvD5dV6fnK/s/q7vh3mPy34eKHhA3SCijL5+75+j9PnFCAHhitldPt/6Wufxp4b+NVFHvx0NVD8hnHSQUowKy5p2jEycEgCdm4+z09OLn3RWyrK9yf3h40Le5+0FCORv9hHeOXiVOCABPzNLm/k88XjhV95gM9+OhrgfEDxIat2955+jECQEApnThwZXXT2H5QUKzAbLvnqM3JEWcEADg2ZO6NyBF9T3CUZDQfIukztFr/T5xQgBAYEcq3oCURHJGkND8obWUPkdvXckOrxgAQFuRW29ArkXWzSCh6dI/RydOCABwrZe9/XgoiJy4QcI3Okho2l4f/qOK3SZOCABwrUnV24++qAExg4Qm9xzdvpHUGi8aAEDfY+INyK0eENWT+uIHCU1ZdY5u23XJcqkiAGC4C4W+NyAtf0C+fPGDhKG3Kvoc3SZOCABQXgUP8T409YD89mUoCBKa1Dl6ybaJEwIAXqiHeBv+gNzoAXmjBiQIEpq8c3SbOCEAwHyI90Hd5r4ub9WAjIKE4bERKdzaxAkBAC+WciV/P/Rt7jl5pwbECBKavHP0mqQ5RweAhHsZPMTr3uaecQfECBKaDlLDH2na7WvihACQdKfSDA2IyAc1IGaQMPzjIiXHbhAnBICkS18H+6FyIEMfh/sRChKa/HP0ohzx2gFAkp1LLdiPfl0PyOfhgISDhCb/HJ04IQAk21nwEG9fNc8lJ/Lv4YCMBQlNu8N/VbftqpwQJwSABNs9bAf70S+pp3jlP8MBGQsSmvQ5+o3TvpYLXj4ASKyNTHG0H/2ySFpEnaGPBwlNF/oc3SFOCABJtum1pPR+9AtqQH5RAzIeJAyNzok6R3cc4oQAkGDH0grmo98/FNmSv6oBmQgShldHnaM7xAkBIMF0S8rfj7aoAfmkBkT1pA5m/lf6HN1xiBMCQGKtqYd4/f3oqxxIVv7hD8jsbwqeu+foVlkueQ0BIJFUSyrYj35zNCBTgoQmdY5ethzihACQVNlCe7Qf/Rs9IP9UAzItSGjwz9HrssWligCQQK9SeWM/+g09IO/VgEwLEpr0OXrLIU4IAMm0IxVzQCr6EH12kNB05J6jEycEgERakdvJAZkdJDSdZ9xz9NLUW98BALG2lCuZ+9FXt7mn3QGZHiQ0vdbn6APihACQQC+lGhqQmk6iv/1OkNCwkR7+dHUwIE4IAMlzIc3QgNRFUuvfDRKalocDctUa3BEnBIDESRdC+9HPi+Qy8vfvBQlN6hw9PxgQJwSApDmXenhAiuoTrO8HCU17+hx9MCBOCAAJcyaN0H7YZfUQ1g+ChCZ1jl5vD4gTAkDC7B62Q/thX6vvEf4oSGhYSovUGpZFnBAAEmUjUwzvh32lB+TP7wcJTTsipWbLuiNOCABJsmw+xDucD1vd5r774yCh4WD4Y60by2pI6oAXFACS4th4iFfth61ucz/6cZDQdCJS6bYsizghACTIyXV4P+ymHpAfBwkNpyJF686yiBMCQHIcSC28H/o295V5goQjL0UOby1LnaMTJwSAhHjtP8Rr+xp6QOYIEo4srYtU1IB0iRMCQFJkr9rh/dADcjQKEs71juJYJK8GxCJOCAAJ4bekRvthV/SAzBMkHFkWubrTC0KcEACSwWtJGfthV/WAzBUkDGxkRBp6QG4Lc3z1EADw7OmWlB1S098DmS9IaPweqesBsYgTAkAS6JZUeD/suk6izxckNN7JSKGrB6RLnBAAEkC1pMb2w86LZLbmDRL6tlMiN+5bkOYhcUIAiL1LaY7vh61uc0/PGyQM7IrU3HcgXeKEABB/J+WJ/bBLIlvzBwl9+yLX7n50767nuAMeAPCcrUl1ckDUbe4RgoSeveHPNvV+dLvECQEg7i6mfIJlF9RTvPJhuB9f5wkS+rIi1a6HOCEAxFz6enI/HH2TSYQgoWdVpOwPSPNqnlvgAQDP1bnUJgdE3eZ+LPLH3EFCj46C+AtCnBAAYm1VbiYHpOUOSIQgof92xvgM665MnBAAYixbcCYHROVALiMFCT0XIkV/QLrECQEgxvakPuUIROVATuUqSpDQtWZ+htXNz/sVRADAs7MvjYn5cJyGHpBIQUKPioIEA0KcEADia/eqPbkfTkUPyK9RgoSeS5F8MCDd34kTAkBMbafyU/bDqeoB+RQlSOhZFjm8CwakR5wQAGJqZ/wTLCcYkMuIQULXUk6k4e/H4+NNpM+/AADPxtFhe3I+HKemByRakNCjoiDBfjw+EicEgFjayBSn7YdTH67GccQgoWdTpHAX7MdjizghAMTRplSm7YdTFFk/ihok9DfJ+wzr0UWcEADi6Fhup8yH45RE0rtRg4SeI5FaMB+Pjz3ihAAQP0u50tT9cMoi2a1gQKJ9G1BFQYL96PV6zcMIX0QEADwLL0cpkNB+OOo29+hBQterlEhztB+9Xk3SXKoIAPEyitmG98M5FFmJHiT0ZEV+N/ajR5wQAGLHj9mOzYfTVk/xRg8Ses5E8sZ+9HoNyZzzYgNAjPgx2/H9cNRt7hdukPDPKEFC14FIoTeajyHihAAQL17MdmI/HHWb++sFgoSedZEbcz96LeKEABArbsx2cj/0be6rCwQJPSsi1V4IcUIAiBMds50yH85A3eZ+JvLVCxLuR/zFOyJFcz7u7+/KUT8HAwA8XSpmO3U/BhV3QP4XOUjo2hO5ujP34/7+hjghAMRHtjB9PvwBWSBI6EmL3IT24/6eOCEAxMae1Gfsx6CqB2SRIKHr2DgEcffjvlUgTggAMbEvjRn7MajpAVkkSOjaFCmF5mOIOCGAZNk4j+834Hav2jP2Y6Buc19dKEjoeqWyhOH9uO+Uo34hEQCer1f/evfx/UlMP3nZTuVnzMdgkBfJvV4oSOjZEmmE90OdoxMnBJAUByefv3379mtML3LamfgEK9iPgbrN/TQIEkr0X34qUhvbj/sOcUIAiZF9P9yPb29j+hfnlcPbWfsxKItsLRgkdC2LlMbmo9MhTgggAZZebquT4N+8AYljEGkjU5y5H9a1yO7KYkFC13ZKpDW2H51ORXJ7/M8FINb2/yK5sxcr8kYNyJvhX8Fj+MnLplRmzYdlqSvcd90B+SSSXuTdm0hjfD86nSJxQgDxdp6qiWS2s/JWDchip8hP3rG0Zu6Hus39OLtgkNB1IVIbn49OhzghgJi7EHUX1GZa3qkBUafI8XsHsrRenLkflr7NfdEgoWtZpDyxH50OcUIA8XZSUteZ76zLBzUgi50iP3XLxidYg7H9sNQff9ULEv6y2BHQRiY4BDH2o0OcEECsrUlFvwNJyUc1IIudIj91xidY4/NhWeo29/2Fg4SuXZHKxH50OsQJAcTZpdyqAVkW+UMNyCeRrdj9GZdyxdn7Yak//o4bJPwaPUjoei1Sn5iPofz/2TubnsTSNAwrBm4jX4qKJoAolsosCCQae9LLcaDKdKqTYlexa1W9L1fVKWthagcrFqxdwsadMTUm/QNwEjvB7fwEfsWc5z0HBeTjFOcsOG/fV1LrCoRw+T7v4bmmmogRQognvlvDhx3ZRrsEfBGBvIKGe2SfJ1hD/KGW8UaBN1MGCRXG21cY4o8rxgkJIfpifLd2iqZA/hKBHEDDoPeW9SvC/w7xR7NpCWTaIKHp4SDw8aU/ru6KSHOpIiFET7YSF52SEkhC/PG/aS8BZvqUZU2whuqj2SyaE7wvUwYJTZLAyRB/3DFOSAjRlUgq1+nINtoFHIg/Hqa9BJjxU9YYfzRLpkCmDRKaZIDcEH/c3TFOSAjRlCjOOp0cEI7ilQjky7SXALOMuQdrlD+aZSWQxNRBQkUIyA/zx91dmXFCQoiWBLKtTke20cbxiwhk6kuAmT5lHY66/lAY/gxGcTB1kNAkPHgJcmdxnp9yKkYIITP93RosdzqdY2BtEW9FIG/kkVbtTlkno48fBodAOm4WbacKEloqBt4N88fd3TuEN/lRI4ToRkwmWJ0CkNzDryKQ6S8BZviUlfg8zh9N4wC2nHEQJDSJ91+CPPvjrn7EOCEhRD+S+bYhkAQQ2IfKgcglwJJup6zcWH/INvc1R0FCxS6Qrw3zR612qt17Sgghmz6ZYLXkyavAUw5Et6BUFCfj9NFs5o0DmKMgoUkaOB2mD4MS44SEEN2I49QQyGd58mr1KQcCzbY3BbKXY/3RkJ++OAoSmmw9XYIM+qP2lXFCQohurBZkgiXbaDPa5kB6JlhD/dH8bB3Apg8SmsS6lyAv/FGrnSDIOCEhRCfWfaVOp91W29y1zYFEcTbWH2qb+7azIKH5bgKFEf6o1RgnJIToRQYfDX+01TLeMH62ciBBvV5kd4LVbI4RSMZZkNDED5wP10et9oFxQkKIViwXDH20zWW8QU1zICvWBGukPxqn5gHMSZDQUhVwNsIfco/OOCEhRB92UTT00W6LQDaA37XMgcTMCdZofzTUASztKEjYPdChOMoftW+MExJCNGIbH+UE0i6aAtEzB5LMXoz3R0MdwFLOgoSKJSA3yh+12nvGCQkh+uA/lgNIp10yBaJlDmQlWB6vj0bD8qejIKEi4kN+lD4MGCckhGjDhkywhDIQDAHdHIhWjwvJBGu8Pxriz12HQUKTZeB8pD9qvzFOSAjRhT18Nk8gh0C4Jweyr9OLTOYvJvijKxBHQUKTLesWvTacItK8RyeEaEH6yDyAtGWZoKY5kBVfeZI/GnIA23AaJFTEgdJof9S+MU5ICNGDEE7MA0hbtrlrmgOJ4WyCPhoNOYCFnAYJrbcUhyP1UavXGSckhOjBvkywFLJM0MqBOPwTfOZYHTXBevZHQ3JaZpDwYfogoWI+iGx9tD/qdcYJCSE6MB8+VD8CMZBnV/XMgWyOmmD1+KMhBzAJEj48PDjdRbwGfBjjjzrjhIQQHViQCZb8Dr19Ic+u6pkDiY+YYPX6oyEHsDheGf54cBAkVOwAJ2P8Ua8zTkgI0YCtxIU1wVLb3PXMgazmG5P00WhITiuDX7oCcbI1NwaUxuijXq8wTkgI8TyRVM46gKhlvPGkjjmQ4ROsAX9cypPL23grAnG6zH4XOBrnD7lH163XRQj52xHFWdu6A1HLBHtyIPrMWOI4neiPxrkcwHbwqwjESZBQkULicpw/6nXGCQkhXieQ7U6wzG3uyzrmQIZNsAb90VDb3LfwbxGIkyCh+T8Cp+P0Ua8zTkgI8TiRYLk7wVLLeENpDXMgm77SRH00zG3uAVMgjpfZ7724Ra8PwjghIcTbxJ4nWGoZ724Qr7XLgWReTLCG+ENtc4+u4l8iECdBQkUUKI/3R73OOCEhxNMk86129wgiAtnUMQeyVmhM9oe5zX0N/7AE4uyXfuvA8QR/XDNOSAjxMiu+cvuJkikQ7XIg6yjZ8Efjnfz2w4+fRCCOgoSKMPB1nD7q19fXjBMSQjxMHKdPEyzZ5p7aBR50y4EMTLCG66NxLwew9TT+KQI5cLzMPtlziz7CH9eMExJCPMxq4fkAItvc0yHgUbccSP8Ea4Q+7u/lALaSws8iEEdBQsU2UBwzvjJhnJAQ4lnWfaXnA4ja5r6kXw6kf4I10h/3xgHMN+/Da8MfzoKEigUgN8kf19eMExJCvErGiqGbFIBVDXMgi/hoxx/3OSC8ArwxBPLJ+cvfBArjxlcmjBMSQrzKWu8Eq50FAjH9ciD+Yzv6uL+Xbe7rwO+GQNx4+X7gfJI/ritFQ1r8HBJCvMduN4beftrmntEuBxJC0ZY/7o+BZQkSGgJx4+UHgPe1CfqoVBgnJIR4k+2+CZYs493b1i4HsoNzW/74LhO8EPCnIRA3Xn4GKE70R6XCOCEhxJP4j9sDAlnc0S0HMh8+HP/0btcf32WCt4CEPITlMEioWAIOJ/ujUmGckBDiQTb6J1hqm/uWbjmQBZzYOH4Y/lDb3KM4eHAhSChEfMjb8EflD8YJCSHeY+8phv60jDeqXQ4kkL205Y/vss19L+ZOkFCxDPw2UR8GJ0gxTkgI8Rjpo/agQBZWTYFokwOJBMs2rj8EOYAtuhQkVGwB7234o3LDOCEhxGuErBh6F7XNXbccSExi6A0b/vgu29zjLgUJFfGBW/QR/pB7dJ3y84SQvwM7/ROstrULSq8ciKSkJo+vBDXB6wkSOvZnCCjb8UelwjghIcRbzIcP+/zRtnZBaZUDkZSUneOHgRzAFtwKEqo32IcjO/qoVL4WsMgPJCHEOywMTLDa1i4orXIgGXy06Q8lkJBbQUKFH1lb/pB7dMYJCSEeYitx0S+QnPFn9wrwSaccyPKxXX98Vz1Gt4KEiuTTY1gT/FGpHOqzPJ8Qoj+RVK7fH7LNXXZB/alRDmQDRTvXHwqV03IrSKjYA07t+aPCOCEhxENEVQy9F2sXlE45kD2c2zt+GJTl4nzZrSChEAPe2dJHpXJTRJpxQkKIRwhkByZYapv7EhI65UDSh7b9cSsTvLm0KZADV/wZAko2/XHzlXFCQohXiATLA/5om7ugnnIge95/kUs4se2PW+kxzqXMoq3zIKGwItuw7Pnj5uY9fIwTEkI8QezFBKslp46eHIgGD5ZuJT7buv4Qf9zKBG/OtSChIoyCXX/c3DBOSAjxCMl8a0Agapu7lQN5o0UOJJLK2T1+GMgEL+JakFCxCny1qY+bm9+yiPFzSQiZfVZ8LyZYaheUVjmQKM7s++M2CyRdDBIK+8CpXX9Uq+8YJySEeIE4TocJJNaTA/H+Y6XJ/KV9f1zJvceue0FCIQOc2PZHlXFCQognWH0xwTK3ueuUA9n0lWxefwiyzX0nBPzHpSChsACUbPujWj2FL8SPJiFkxln3lQb90RKBLAVMgWiRAzFOWXaPHwZyANt2MUio3mYgZ0cfpj+q1TLWuFSREDLjZPpi6MofLdkFtaFTDmSt8AP+uJVt7hkXg4SKFI7tHj8ExgkJIV74bh3UR6ultrkv4yfDH4865EB2+9aYTPKHEkjMzSChsIzEN/v+qFYZJySEeOC79YU/WrILKuKXntTjow45kO2eRbzDrz9ue1E9RjeDhEIA+PAD/qhWGSckhMz+d+uAP4x/ss19LozXhj8edciB+I/sHz8M1DZ3N4OEwiLw3t71h8UHxgkJITP+3Xrc7w91BMkB4Tkf3hj+eNQgBxJ6XmNixx9XMsHb2HMxSChEgaL944dQgp/36ISQ2WWjd4Jl6sP4dwT4I8AnEYgGOZD9xLmdp3e7/rhS29z3XQwSmu80yj/kjyrjhISQmWavJ4au3KFOIMeGNNaBLyIQ7+dA5sM529cfhj5MgURcDRLOmVVb2+Or7j0644SEkNklffTsj+cTSN6QhvEX818iEO/nQBasNSb2jh8GOXluIGkGCd+6EiQU/Mj+mD+qVcYJCSGzS+g5ht5qPZ9AEoY0lpAQf2iQAwlkL3/IH1f/Z+98XhrL0jBsEsrPGBNj/Akm/mztzEISOqn0ULuajFaFpgcMNLSUQkPNYnbtqooxFEWttJFMFpfSlX9BNqWLRnAbzKZnmNn1pug/YbZDr+Z+596rSdTEe841yZH3geoqaCi6RfJ6vu+c98nwCshTISHDVtt7j68E+5ATAgD6l0VngsXJ4cRHfY+rPAL0JQeI/jqQsVDx/usPAa+ABjwVEjJstXWTH/smkBMCAPoVXzjTdPvK/p3b3Bdi9AUHiP46EFFjct/1h4BXQN4KCRm22roYX3F+7JfSj0HmBQB4jATsCVa9+QTCXVBLU/QNB8gL7XUg4+mfXYyvGF4BeSskZNhq6zI/9vchJwQA9Clzs28a1h9OftRFlccQfcsBor0OZJI2XObHibg34KdnHgoJByyrrZvxlQXkhACAvsSXWGtcf9jxURdt7oEV+gsHiPY6kCF67TI/ShwaERJGW6+EhEyY0q7zYx9yQgBAXzLKMvSru7vXcJXH8Cr9mQNEex3Ik6y7+Dg5YR3Iwoy3QkKGrbZuxlcWkBMCAPqRweSeFRwtESLa3AfpTxwguutARijvMj/OxQpomehHD4WEzKpzDavT7d0mTnO6X6MGADxCIqHizfmV0+Y+M05/4ADRXQcyl3zvLj9OTsQKyGMhIcNWW1fjKwvICQEA/UeMXtXr9db5ldPmPkFfc4BorgOJJIqd8uOkFSH0HSbyUkjIBKw6RZf5sb9fpChKFQEA/UU8ZR09/t0aIUWu8nhCf+QA0VwHEqOCu+OHiVgBeS0kHBBW26Kr9YcN5IQAgH5jzF+s334CEVUeYXr2H/11IBPpn93mx8kmr4BsIeH/gk+/mvbqPyZEGVfrDwfICQEAfcYUFa5OIM1kWQESegw6kGVad50f50LoawsJf/9XMOiZ1ilKOdfHD7FHz+reZwkAeGSMp+p3wFUeEaK/6q8DWaFdV+sPzo9zXgGN2ULC3//xOehZI26ckjL5sX+6Mws5IQCgj5j0b9RvO37UrTb3mcegA/GFMy6PH2Z+nAuhry0k/G/w+6BnH96rRG9l8uP0FHJCAEA/sUSvb12AmHD/0zLRLxwgszrrQAL0yuX4ihFC31UrQH4Lfl7z7Ag2RLTjcv1h5cfpW8gJAQB9xET6rgOIaHMfIdJfBzKYeu8+P85Fm7stJPwtGNz0rEwkRrQlcfxgtiAnBAD0Dcu0ftcKRLS5PwYdyIx/w+X6QyDa3G0h4edgMOuZlGOYKC+XH6dlyAkBAH3Dgj3BugWu8pgafQQ6kCV67XL9IUizQ8oWEpoB8rSQ9qhPcZloXTI/yjtJvUuRAQCPiGju1vXHVZu7rQN5qbMOJJp1Pb5ixNonagXIl2aAFPMezY8iREXJ/CiXv4OcEADQH0zfPcGqizb3R6ADGaG8TH68F2sfR0j4NPh0djfrkVQqTBmJ+BD5UX4HOSEAoD9YoTd3BghXeYw8Ah3IarLkenxlsivWPmFbSPhV8DmtFzzqM4lSTu74wWyRfxrfuACA3jOfvTM/RBnvsv46kEiiKJMflR2x9rkSEj59TqkPHl3ljVNSOj/KZcgJAQB9Mt1pHyAz+utAYlRwPb46r1QqvAKauhYSPn9OlN+e9WSQxy8JpfOjDDkhAKAfWGwzweIyXvLFtdeBjKel8qOyxWufBiGhSc7Y8GSFzS8JJdYfDpATAgB6jy+cuTs/6mtEiQHtdSDLtO5+fMXwCijQICSMm7+2SikvbjPzS0LJ4wdzDDkhAKDnDLebYHGb+7z+OpAV2pXKjwq3uY+MEP1qCwljIaKM4UmlevNLQrf5US5DTggA6Dlzs20mWFab+7UOJKznIWs+IzG+YsQdgkYh4ar5jx3Di5/+m14Sus+Pcvl7yAkBAD3+cE2stcmPmniJHaIXtg7kiZb/j6JHUSY/KqLNvVFIuOwn2jAKHtyibXhJ6HL9Yc+w3qZoCd+/AIAeMurI0G/Nj1qSaNCnuw5kMPVeYnzFiDsEtpCQL6FND8SJUh8ML27RJpyXhDLHj/Lx8fEPkBMCAHr74Zrcuzs+apfc5q67DmTGvyGZHxVxh2DKEhJygEzy6oLyxs6s+pNK5yWhbH4cH0NOCADoJZFQsU1+1LiMd0V3HcgSvZYZXzHiDsGQJSTkW8xj/LlPGcPwwOoUp1S7+GiXH8cWkBMCAHpJ7M4JFudHjct4h3TXgUSzsvlRyfEdghUrQOxbzEvmb9tGSX0BsUpUklx/OEBOCADoIfHUXpv8EAEypbkOZITyUuMrRtwhsIWE9i3msRDRumFsUkLxId8C0Y78+Erw1qtyeQAAcM2Yv9gmPmo1LuMd1VwHspos3ff40ZofFb5D4AgJnVvMg0TpqvEhR4uqhz/aUsuP42PICQEAPWOKCu3yQwRIQG8dSCRRlBtfmRh8h8AREn5r32LmNfqWYWyRX60YLECUVxhfCY4gJwQA9IrxVK1dftREm/uS1jqQGBVk86PCbe6LA+NWgHzj3GKeJ1ozqlXVz25+SaiaH0eQEwIAesSMf6NtftT4JfbkgtY6kPG03PqD4Tb3BUdI+AXZjz8WiGZ3q9UdxS8HvyRUGV9xfhwdQU4IAOgNS7fI0GuNiJfYizrrQJZpXW79UXHa3Aee2EJC5xbzpN88O1Sr1aJil0iC1qRu7zbEx9HRuxzkhACAXjCRbp8ftSKRf2BOZx3IAu3Kja+cAIldCQnJkdnGiXJmgOym1HZCUcopja8sICcEAPTop/P2+VETL7F11oH45jOS4ytHBxK4FhI6965GzT8WzARZV3NyjFNKPT+OjtY0LZgBAGjNQusEq9ZKhm8eTVgBoqUOJECv5PND6EBGroWEzqMLX5ioaAbIh7TS+GiOqKSy/rDZTkFOCADoOtFch/yoiZfYUY11IFaPosT647rNfYbopS0kdB6fLxIlS9WDA7WrvDdeEkocPxjICQEAXWe6ZYJ1Mz+sNvd5K0B01IFYPYpyx48KN14RzTQICaeuvnJE+QOTjEo7WIyooDi+Yj69y0JOCADoMivNE6xb8kO0uQ8k9NWBcI/iiXR+GKLNfYTo77aQ8OrJxQRRlgOkQAp1hoGmp+hS4yvOj0+fCjpejwMAaM18tkN81Pa4P9FH9FJXHUg0o5IfxhpP7RqFhM7fO8ViQk6QIkUVToANT9El8+OTAHJCAEB3GWmUod+aH1ab+xjRj5rqQIYprxAfhpHhqV2gQUjo/MURblTkANlOym+wzS/spuL6w8qPT5ATAgC6yyK96ZAfVpv7JNGvmupABlPvVfLDEEb4JiGhw5w9wzpYp7DsS3DzaPed4vrD5hByQgBAN/GFM53yoyYe0k0T/VNPHciMf0MpP4w0T+2ahITXZxt7hlVSaFRP0Ibq+sPKj8NDyAkBAN0d73SID7vNfZiSmupAhmhXKT+MFE/thqwAsYWEDvP2DOsgL9+oPm+VYSmtP6z8OPTCsQsAAPdkbvZNp/wQZbzD2upAfPMZpfgwrDb3ZiGhw6IzwzqT/+E/KsqwVMdXFn+jJyhVBAB06dM1sdYxP0SATMd01YEE6JVafpREe0mzkPD6AGfPsA7kL9GOU1Z9/WEDOSEAoJufrh3zw2pz11YHEk+r5YexLdpLWoSEN2ZYB9JlVHHKebD+sNmi0DK+rQEA3WAwudcpPqw294iuOpBJ/7pafhg7or2kRUh4Y4bFV3nlknWO0vfNj6O71x8OGVtXAgAAD0skVOycH1abu646kIXZXaX4MAyrzb1VSHhjhnWwISl1WqSkJ+Mri23ICQEAXSHGE6xO+cFt7mFddSC+8JpifhhWm3urkPDmDKuUkrtesED0wbP8ODyEnBAA0BXiqb3O+XGZ5bFN3AoQ3XQgo1RQzA9DXEK7ISRsnWGdnZ3lKSTzpVkieuvF+sPmXc4RlgAAwMMx5i/WOufHZY7HNuN66kDGc6r5YWyKx+eWkPDiWkjYPMMy8+Psp1zLv7vvMZB2PFl/XO3RIScEADw4U1ToHB+Xl+IhXZS+1lAHskybivFhGOIS2kCInv1ycdEgJHQI8wzrTFCQ+ugeJSp4dfww+fgRckIAQBd+PE/dJz8uRf2VnjqQxWRJNT+q4hKaj+jFxcVFg5CwcYZ1ZrMmcwXKPMNseZkfHyEnBAA8ODP+jfvkx574qTtBz/TTgUQSRcX8qFar4hIaCwnNAHnZICRsnGFZ+fHTzqzEFajp2wJEMj8+CjYpjFJFAMCDstRpgvV/9s7ltY2rjcOxjP0KX+W7wfIlduy4CyGBhNp+y7pWakIKFgRiYkMghWZXL4JDHELxSlbBdJNYwYvQrVNDcCD0Q10UtNCq3n9/zjfnPTOWdRudozkTZuD37AOVm/jReW8/9kf1gL91R8IYBzLutND/270//uQhNBFIaAnkXotFfFHDkv4oFnPUp90hmiJ6Yqj9If3x9nWmq2YMAAAoM5lS0Ee1Kq65L48R/RS+OJDJjMfylYCH0KxnwktLIK0W8e0aVlHQTSSHCAQxVr6SIJwQAOAvK7Sp4g95zd36mvwydHEgM3aSlCd//MlDaANElj/+brWIL2pYu9IfxeJ2F5EcEcqZ9cfbtwgnBAD4SpSeKvijWhXX3Hutb+D/hi4OZE0mSXkoXwmSYnewl9aFQFou4g8Tbdj+KB5l9X8+8/UC8dT+sEE4IQDAV2JZJX9UeZFugOZCFwcyNpjz2P5g+NE1TneEQOoDCWs1rIQjkGIXWxiLlNDTR0d/vH3zhOan8FccAOBbfWdTRR/VqtiDmOmlu6GLA5mmp17LVxZH/Oiapm8dgTT9Yh4gSh5dG0T/mmGM0ibLV8Ifby7SCCcEAPjGavsKVrVJILPj9G3o4kBiac/lK4t9fnRF6b4QSEMgoaRnkGjrWiD6qYATlDHqjzcChBMCAPxjMaPmjyov0i3LPKkwxYEM0YYBfxzv8aNrlR4IgbS+5BInyl0LRH+UN05ZzejaDs8PBuGEAAD/fr1uqvmjmhfXS5ZknlSY4kD6k78a8IeIGrQeXWv0oxBI60su00TZmkBeJDUfaQuUNNn+sHmNcEIAgE/cpgMlfVSrabFItyrzpEIUBzI7mPPa/hD+ON7hR9cCfW8LpMUllykxyFszyDYNj+n9r5gz2f5wQDghAMAfeobTiv4Q19xj4hdoyOJAorTv9fkh/HEsr7nH6TshkAetL7n03RjkLRaPUnoH1ZeIXpuZ3r2hD4sEwgkBAH4wQBuK/qimxCJdf+jiQPrS3stXgm1+dE1IgdxvfcmlbpC3WNihiI5ll633i9H2hw3CCQEAvrAwd6DoD3nNPXRxIL302Hv5SiCvucfoKyGQpkBCR8eULFz7o1BIa917EYEgRtsfkouLh5q1NAAAUKlgzScU9VGtcIZS6OJA+lO/G/HHcY4nd/voayGQu60vudwY5C0I9kTVS8N1tGW2/SH9cYFwQgCAL9/PN1T9ccDX3PtCFgcyFdn03v5g8vzoGqZvhECaAgltrgd5C5K8zi0qEQhiuP0h9GGBcEIAgA/fz9cPFf1R2edr7sMhiwNZmtv33v5gEkTzt0Qg4d8tAwkl00SZG/4o7K5rjPLOEG0Ybn9c2DxCOCEAwDAjg3lVf1Se8h5EhO6FKQ6kZzFhonwlSBMt3mofSGg/eOQgb+GaTY32g/WHt42Xr5j3u8nwHA4AAISDcXqsqI9Kha+5j4QsDmSUtgz54zgrppjHZCBh+1NgYpC3cINXKfWjk2M1gRjxx8W1P96/7+a8PAAAuBBPHqr6o8LX3MMWBzKR/d1A+4NJicEr6/P/1CaQUCIGeW8KpLBBg8rncCO0abz9If3x/h3CCQEARhmL5JX9URGLdEMhiwNZoW0T7Q9mXTjTJZBQ0kuUvLwpkMuMumrn6aHJ6d2aPix+1hoIAwCADkzXVbCqrv6oiD2IlSGiMMWBrK6/MlK+sjjiwSuXQEIJD/LWPUE0YmWHWSCG2x8OCCcEABgt8CSris8PC7EHMRuuOJCR4bwpfxy/YGfeCCRs830+TrRZJ5BCQnneYJGe+dD+sEE4IQDAILORnLo/KrwHMU53QhQHMk57ZspXFvKauwwk/LdlIKHzqqN0vUB212lc7b+3j3I+tD9sPj7R6MYAAIA7y7Sl7o8K70FMhyoOJJY25g/7mvt0LdG2zS/jKaL1o3qDPKRFtUQOSyB+tD9YHxYIJwQAGGMyVVVrfzC8BxENUxzIAD02U746tq+5j7sGEl5boKEJIkZ5l9SEVy8QY+0P6Y+PCCcEAJhihXLKzw8L3oMIVRxIf9acP1ggvSJPq30goWSBaLvOH5eXqqO8MXrkS/tD+uPjR4QTAgAMEXXC0JX8UeE9iLUQxYFMRbYNla+cOJChW7fdAgkl4w2bIJcWiksYdQIxV75y/PER4YQAAEPEsjr+qPAeRJjiQNrM8HbnD77mvuIeSGh7q34TRPjjUnGUd7ImEMPtD+bdO4QTAgCMMCPD0KuK/jjkPYgbcSBBL4aMzOdMla8sPvEUc4dAQski0V6dPizURnknKeFT+4P1YYFwQgCAkS/oXMFS1EeFr7mvWr/iQhMHMk1PDfrjk7zm7h5IKOmvNUEcf1zuzalMrU04AlH2xxvV9of0xzuEEwIATNCX0fEHH+ONhikOJJYwVr76ZJFgZ066BhI65nKaII4+Tk5OciqjvI5AfGh/vLNBOCEAwDtDooKl7o+K3IMITxxIL22Z9McnnmLuEEgomSFKNfrj5EVSYXU/zgLxp/1hg3BCAIB3btNBVcMffIx39NZgaOJA4llz5StBRkwxO4GEc+Q2VjVMtHujfHXCqNxTj1Pav/aHzc8UGcLffgCAF3qG0zr6qJT5mntPLQ4k4M3YlciGUX98SrEzB1kgf7QLJHQ8QBuN/jgpZTvfL+63BOJb+8MB4YQAAI8M0IaGP8rlMu9BzBL9Eo44kNvJI3PlK0FSRGh1CiSULBPlG/RhoZBLbgnEx/aH5AzhhAAAjyzMHWj5oyz2IKZWiP4KRRzIWOMMr0d/FIs8xWwHEv7gfox4iCjb5I+Tk3THV1s/ZXxsf7A+LJ4gnBAA4KmCNZ/W80dZ7EGMyTiQq+DHgSzTrsHyleWPV1y16hhIaP9wiXab/HHS+RTVgi0Qn9of0h9nnxFOCADwQm+rClbFxR/lPFHklogDubq6Cn4cSF+i6+jalv4o7nLVaoboF9dAQskE0U6jPniUt69HRSC+tT/OJAgnBAB4oX/9UOf5YcHX3EfpjuWPq8DHgdTP8Hptf1j+KIo4kGURSPiXayChJEqUa/bHScdIpzXK+li+cvxxdvYM4YQAgK4ZGUxo+qOcFqsf03RfCCTwcSATWZPtD8EWX3PvpbkOgYTMgGiCnDSzTfOuW3y3hUD8bH/YPE+FIU8SABBMRumxpj/KfM09Sg+EQIIeB7JCGwbbH4y85j5Kd508KbeJKhGM/qLZH6VOW3yWQPxtfzggnBAA0DXx5KGePsplvua+Sj8KgQQ9DmStNsNroP3BbPCjo3Mgof0CItpp9keptEMRt2u4q5QyEF3b2R9nn9MUx78CAEA3jEXyuv4o8+rHGn0vBBLwOJCxwU2T7Q9mmx8dCoGEzBLRZgt/lEruv7hbCcRw+0P64zPCCQEAXTLdUMFS8Mchr37003dCIAGPA1me2zdavhLwGoxKICHTS5RooY9Sac+19rdESb/bH6wPi2eqOe0AAFBfYUlWVKd3HfZ59SNOXwmBBDsOpGcxb9wfxRx/ZIVAQmYkQqlW/iiVHrkNQDULpLvo2g7PD8HzVMA3eQAAwWQ2ktN7fljIa+6TUiDBjgMZtWd4TbU/GF6DUQkklMSIdlv5o7S77jIAHW0QiC/tD5sO7RgAAGhd4qEtXX+U5RhrjL4WAgl2HMhExmz7g0nzR+6XAnnQ8Zr9Ql0XvXSDTZdAjiit+9/+kJyfI5wQANAFkyltf5TlNfdF+kYIJNBxIDM8w2uyfCXI8EdWCSS0HV3ropfqeO1SO1qmOV+nd6/1Yfnj3HoLjePfAgBAjynKabU/GDnGOkj3hEACHQeykDoy749ilj+ySiAhM1Trotf74/R0hwbb1Y6mib5A+4P1YbGNcEIAgC5Reqr5/LAFMtND9IMQSJDjQGbFDK/Z8pUgyR9ZJZCQqXXRG/1xeppp+4ctgbz9Au0P6Y/z37IBP6kMAAgesay+P+Q1dxEHIgQS5DiQ6Ny+D/4oyo88LAXiHkgof8h2F71JH6enW23voIwTvfat/fG5wR/n5wgnBABoMkOb+v7ga+4jK0QvLX8EOQ6kZzFvvHxVlNfc15xAwv+5BxLKQhp30Ust/HF6mhfhuG0E8uJLtD8cHtEkjioCADRYlRWsipY/5DX3ISLxAAlyHMgo7fngD77mvioCCf/TOZDQqUY9bOOP07bta0cgvrc/mA8fniOcEACgRV9G+/lRLv/DY6wDtH4V8DiQyYz58pV9zT2qGEjIWK5Nt/HH6elDGh5pbT9RwjIUXdvZHx8+IJwQAKDDEFewdP3xD4+x2nEg94IbBzJEO374o7DFH1ktkJAZidD/2Tu/lzjSLAy3LXrE3z8TodUYjUnvRdPNdtPMzN2Oq4kMM6Ag2GiDkIWEwLJCJEKCLLlyVxEMaBIQZG4UNiPELCyys4S+8Cqwl7nYP2frnK+67dZu66tqq+pjfJ/7mESwH+u8p86brKGPt2/XU9WfYLo4RA8k/lD++PAB5YQAABfcpRce/FGQNdZe4+tARlLXP776+8bGRk7+y5qFhAKn6DX88fakxjn1LooFFX8of3x4EkM5IQBAl4aOtNv4g/1RSBINRcZMrwMZjE754o8N9RpMO9H/NAoJlcqIcrX8cXJSfZW3l+L+b++W6cPiqVPNLgAAFGmlSQ/6KBRkjXXU9DqQ0fir6x9fMbPyX9YsJBQ4Ra/pj5OZqt/BXkoGFn/YoJwQAKA/44m98OKPl7K5etfwOpCGjunrfvxQ/thQ19w1CwmF8xT9sj4sEtXe5b9FqeDiD2Fz8znKCQEAmh+xw2kv/iisyObqiBKIsXUgvbTkw/iKmZYKKd1CQqaUolf1x8lSrEqMMlYukGuNP/5Ryx+bmygnBADo0Vh9guXkjwJfcx+LDKk+KWPrQLoTPvljQ11zH9MsJFT/GJWiV/fH1la1RqcWygYYf4g+NjefoZwQAKBFc/ylB30UCuqae1+pT8rIOpBGmvEh/hASRMMR7UJCNSyUFL2WP7bWkpfDh1HKBBh/bNrMo5wQAKBBZ1vCkz8Ki7J4ZHgdSF/aj/hDSMs1d91CQoFT9Or6OJFzJcvUdnEOOFEUyPVV1zr7YxPlhAAAHbpo0ZM/CmqN1ew6kIqXCK9xfMVkie9XaRcSqn8OJWo9fjDr2Usv8d2ldKDxh02OorfxswEAcGDo8gRLyx+FKVk8GqbvWCDfmlkH0py9hura6v7YSMk1d+1CQqYhStkr/LG1dflz+74IJLj4owjKCQEAjvRE5zzpQwlkMBI1uQ5kPDrpS/whxOWau3YhodBNtF5jfKW49Lk9Qonrr6519scmygkBAI7cujjB0vVHQa659xD9ydw6kPup177EH8xrkgYQ7UJCWweUv8ofW/mLq7wskEDjjyIoJwQAONGX/NWbPwpznBsPmFwHMtg25U/8waypA/aqkPD0gZ5AW4gma42vFBfviDTTQsDxh81nlBMCABw+Y6PTHv2hrrnfJvqvsXUgxSsmv/jgjw11zT1yhwVyeqpRSMg0ltawaviDV3nHyv/EUKVAgog/bFBOCAC4mjGa8aYPuebeHWmlmLF1IJ32FZPrjz8Ydc09MkzfWP74WaOQkBm317BOavlja2u2so+jUiCBxB9FFqgbRxUBALXpT/3qzR9fvqQ4N26kByyQRybWgdyKrfgTfwjqmnuE6LvT01OdQkKmoU3WsK7wB6/ylo+O+uhp4PFH8WUQlBMCAK5ggKa9+uOLXHPvpW9NrQNpaJrzKf4oCaSRCwkfWgJ5pPsE1k2x9bdX6GNrb69ylbf/XCDHQcUfxRQE5YQAgCtooceexleWP45kC2lM9UmZWAciVei/+OUP+5r7ANEjSyDahYzNRPkr/CHvDKbLF7q6aT74+EP0YZExcbUOAGAI3Vmv/vjyQsb+o6pPysQ6kP60X/FH6Zr7uBQSWgLRfgJrIco5+GMvXy7jkkACjT+UPz4/QzkhAKAWt2nK2/jK4rGM/e+qPikD60Baacav+KN0zX2Qj5P82xKI9hNYF9H8FeMrxULZKm8TzfpUXevsj8+fUU4IAKjFRHGC5d4fIpBbBteBDGV8iz8sPn1akPu7jRSz/HGqVUjI8BqWkz/2luLn87A7IhB/xleO/viMckIAQC2aMt7GV8yiXHNvNrUO5DZN+je+svzxKSH3d7voAQtEq5CQ4TWsq8ZXirK3wDtoOZT4Q3jzBuWEAIDqtKsJlid/fFHX3I2tAxlJ+euPT2miO1x4eK8oEL0PWl7DcvLH3nqq9FbJsCWQMOIP0YcFygkBAFW5SyvexlfMpOTmptaBDERn/Ys/2B+f5D1K3kJjgegVEjK8huXkj73dHEXtSKmNnocTfyh/vHkWM24/GwBgAA0dae/+OFJbSE2G1oFMJF/5F38I8h4lb6GxQPQKCZlRopyjP3Z3M8Vf/KOUCyf+eGODckIAQBVaadLj+Mryx5HaQuowsw6kZ3jKz/EVI+9R8hYaC+Qn7REer2E56mN3d8YO5RvIFshB4PGHzWoW5YQAgEuMxF5498fRnPzSHaWHJtaBtMRXfPbHtrrmPlISiOYIj9ewnP2xu2sfouq0BeIy/rie8ZUC5YQAgMsTrOG01/EVkyAa5s83E+tAGu7M+TO+OvfHmjqf2Ex/ZIH8qD3C41JCDX/s2qu8PURPwoo/iiSMLJsEAIRJI03W4Y8j2UIytA6kl/J+xh+WP7aX1PnEPvqeBfKD/giP17Bq+qPs8O48dXRGIoMikJDiD5s/o5wQAHCB5vhLr+MrJstbSLeJ/mNgHUh3wt/xlQXXgYxJISEL5J7+CK9yDWuvlj9211P8LbUMnQ8t/iiCckIAQCWdbYl6/HGU4s9MM+tAGmnGt+1d2x/bOXmP0nqeEIE8IO3XJSrWsGr7Y3d3md/hG68QSNDxh80OygkBABV00aLn8RUT59jDzDqQvoy/46uiQBqlkJAFollIqL7vNKvjj+NjvoVrPeIthRh/2KCcEABQwVD1CZauP17KFlIv3TOvDqSdcr77Y3tSXb8apm9O9QsJGUsJTx3iD/v41ROi9vYygYQyvlKPICgnBACU0ROd8z6+sliR2OOWiXUgzdm/+Rp/CLPq+lXUVSGhfOOLe7x7Dv44Pk5QfytRLnx/7KxeaGoHANxoeqtNsPT9cfRYYo8WA+tABqKT/sYfwrxcv+p0WUjIdKg9Xmd/HC/FaYIong8x/lD+2NlBOSEA4Jy+ZMHz+IqZkdhjwsA6kPvJ1z6Pr5hpuT/stpCQ6ae4nj+OD55Sm/WVs2s+V9c6PH4IKCcEABQZjE7X5Y+jRYk9DKwDGWybCsAf2+qa+7jLQkKZsBGtbWno4/jgYDVJv7e+9Hyo4yvFs5hxncUAgJAYoxnv4ytmUmIPA+tARuOvfI4/hLQcL2kn+tlNISEzQTSj8/jBLNMfrC8dXwrdHzs7KCcEABTnKClXjx+X/HGkrrmbVwfS2THtd/whZOR4idtCQqaX6LmmPw7eZ4lZqOKPALZ3y/Sxs7Oa0t4TAAD8phmg6TrGV8yUhMj9qg7kJ3PqQG7FlnwfXzFZOV7itpCQaSWa1/THwUGOKGp98XyY8YfNc2obx08OACDSQo/r84dcc+8p1oH8aEwdSEPTnB/+2L6EuubuupBQ5E0LzvFHkQR1WF88He74SoFyQgAA052tI/4Q5qxfjSPm1YF0Ud73+ENQ94ddFxJG5B5vWu/xg7d38zHZxMr5XV3r7I8dlBMCACL8NvRUHfHH+TX3SJuqA7lnTB1Id8L/+IN5pe4Puy4kZJoope2Pjx/VKm9qPcT4owjKCQEAvAj0uJ7xFSMhsnF1II3VHkCuO/6weGdfc59wW0jI9BGtX/bHcY3q89WkDLFmw4w/ijk6ygkBAJGmTF3jq9I190GivxhVB9KfCCD+sPzxzr7mfp8F8vWruyWC+0R5nfjDfvtjVmL05FKY8YfNE5QTAnDjaT+fYHn1x2GSp1bjRKcm1YG00kwA8Yflj3cz6po7FxJ+/frV3RLBGFFOb3wlrKfkEWQhzPijCMoJAbjx3KWVeuIP9sehTK3aiYyqA+lLBxB/vGNy6t3zIfre8sfXH1wtEXQRLev74+P757LKG8uHGX8IZ2coJwTgptPQkakr/rD0cfhXmVoZVgfSfukBxI/4Q7CvuffT71gg7pYI+KC75vhKbe9m1Cqv39W1zv44O0M5IQA3nFa7DL3g3R+H6pp713kdiAm/mA5lgog/BPuae7cSiItCwog66O7GH++fkL3KG2L8ofxxdpbVbs4CAPwWGYm9qNcfh+qau1l1ILcpF0T8Iahr7lxIyAJxUUjIdFBGd3ylWJBHkOy/wow/lD/Onhh0uB8AEPwEazhdx/hK+eNQhchm1YE0ZwKJPwT1Ij4XElr+cFNIyPRTUssfpcXdpbha5Q0z/rDZRzkhADeZRplg1fP4YaGuuZfVgYS/3jkezQUSfwgL8iI+FxJaAnFTSCimI1rTHV8p5mWGlVwNM/4Qfezvo5wQgJtMc/xlfeMrRoXI902qAxnJ/jOY8RWjXsTnQkJLII9cbqFNEOVd+eP9aoruWH/J01DjD/HH/v4yDQ/gpwiAm0lnW6J+fxyqENmkOpCKJlu//fEuLW9+DBI9sgTy0OUWWi9RTjf+sFmmqKzy+l1d6+yP/X2UEwJwY+mixbr1cXiorrkPlepAov9n72xe4kqzOFyWlEfU0vIzQmn8yFdlUVRBFdU9WbaxEglpKEEoUaHAhioCIQFlpLsJYbbtZoQo40RhBA0kzCKDxtlMVrMJg8te6H8z73vOvcZ0TMf73td7qm+dZx9IFvHne37nnof933XzzAPkUusPzQZ+iI9CQhUgXrfQ2gAqF60/nI8H3+XxCZJmrT8cRE4oCA3LUOon//mxR0rwPgqQetCB9LdPBFR/6PzYyOKXHx0A/1MB4nULrR9g5uLjK/r6w13l5aw/XGoQk6OKgtCIdEenLeTHHl1zj5FP6kEd6EDGsn8Janyl8mMjhecj1VNCb/F6EhJGsDopn/f8+F31OYlBCq856w8HkRMKQoPSc84Ey3t+7JESPE4+qQf8OpDB9lJQ+aHiY+MZnY/sgls6QDxvocUhd/H6w+nNF5KYIBXW+sNB5ISC0Jj0Zl75j4+9PVKC148O5Ib7AAlgfKWYp/ORPXDdDRBPi0kJKHgZXxE1GMZVXs76wyVXL/4XQRCC/E09WrSRH3uoBG8CuF8fOpDu4VKQ+bGxQIu74/BAB4gnISGmOGQ858fflzO0yss7vnJ69JTICQWh8RiHKRv5sYdK8EHySdWBDmQ083Ng9YdmihZ3R+GhDhBvQkLFVYBnHuoPBxKDJBf48+PlyxkYkaOKgtBo9GWt5Mce6EfHNYAf60IH0hmfDGZ718W55n6DAsSbkFDnHcC8h/rD+XjwdYFWeVnrD7dHL3g63iIIQgjoh6KN+MBr7mN6i/WoLnQgrfgACWh85QZIMwoJnQDxtsY8AFD9p7fnh97enaVV3ipr/UFsipxQEBqOVli0kR94zX000gyputCBdMaLwebHRonOR7bA3V89Cwkj+hwZzHrPj3fvcvgEyTOPr3R+bG6KnFAQGo1EwUp+fFhEJXi96EAGUivB1R+IvuZ+7ayQMOHpL6yebiWD/HjnrvIy58em5nGmLiRigiAExRWY9KquPTc/PtA19zrRgTSNFAOsP5AanY/sowDxvMY8CFD7/frjC+paEoNkly93fHWR/NjcLEF8UP5LCULjMPpxgmUeHyo/PsxhZozXhw6kJzkf5PhK8bZMe1dGQkIdeVEoe35+6O1dZ5V3hrX+cMmLnFAQGolY3sL4SkPX3EfrQgfSFCsGOr5S+fGWrrkbCgnxD+ZM8uP16xLW6Kl51vrDQeSEgtBIdJxOsHzmx4dJzIz60IF8fIAEkx9vFTmAkYipkDCiZ1+Fi27vfno88T2JQcpM27tn4kMhckJBaCDG4Kn/+gMpYmZcpQBh1oEkpgOtP3R+vM1Tbf5RSOjxO5ghyHitP5zVqyVnlZd5fOX26CInFIQGoSmet1B/INOYGUOnPilGHUgXLARafyB0zd1QSBjRH5DAM8/jK4LEIPk6yI/NzQq0i5xQEBqDNpiwMb5SHKbx2+u60IEk0sHWHwhecjEVEkb09ziwYJYfr6uARxWXWOuPjz26yAkFoTG4mfyzlfw4PDyka+6JOtCBNNMDJLj6AwGsza8B/GAgJIyg1LZqlh9v3rirvKz1h4PICQWhUSZYwzkb9YfOj0PqAEbqQAfSlw64/lCsrlBt3gHwo4GQEGMPljzXH87Xg/MpWuVlHl8RIicUhMagGSZs1B86Pw6zmBnDcIdbB9IGUwHXHyo/VufxkoupkDCiv+iEktHzQzODM6zUfB3kx6bICQWhMWhJPrdRfyDYAbg6kBSjDqQ3F3T9ofJjdQEvuRgLCSORboCaaX68UT+0Y3qVN+jjJeexI3JCQWgEOtvTdsZXigPsALr5dSAd6gFymerac+oPlR+rs9R6mAoJI9rlmDbNjzdvKhDVZpAqa/1B+bGzkxY5oSCEny6Ys5Ufh0+xA+jn14EM5YKuP1bdAGk2FxIqYpD7m/f6w/34I49PkBzz+ArzY0fkhILQAAylfrIzvlIsYgfArwNRD5Cg6w+kQte/WilAPAsJI3oDOm/4/NAB4q7yWs6Plwb5sbMzA3GREwpCuOlun7aWHx/I6NoGSWYdSG8u8PoDKVHrQULCE89Cwog2iWRN80MnRRoXsQrvWesPF5ETCkLY6TmdYPkcX2nmsANg14G0nf8AudT6A5mh618oJDw5MfmQ8iqkvqiu/Xp+/PIoiQlS4q0/HEROKAhhpzfzyv/27tkAaVaZ9CdeHUhvOvj6AynT9S8tJDw5OXlo8CHlDYBlk/rD/XqwhjOszDJr/eFSFjmhIISawWjRzvgKmcAOYJx8Umw6kHMfIJddfyB0yUXfAlP5ceJZSBjBWybzRvWHw3LmN6u8LPWHg8gJBSHcjMOUtfw4OJhEo+so+qSO2HQgfWmG+gOhSy5aSKgDxORDygGABbP6w6EE7VGA5CPe+sOhBMMiJxSE8NKXfWWn/tD5cUDX3Me0T+ro6DuDzyBs0AwLDPUHkqehVQJu6wDxLCSM6KVqmDWrP9wXR+HMKi9b/eEickJBCDH9ULRUf+j8OJjGxVWtAzk6OuLSgXz+AAlkfKUp0PWvGHyjA8S7kBCvoCwZ1h8Os7TKO8tbf5z26F6PuQiC8IehFRYt1R86Pw7I6DoE3x1RgHDoQD5/gASWH6t0zT0Sh29VfhgICfEYVsV4fEXk3FVezvqD2NoSOaEghJdEwdr4SkNG1164rQOESQeSSLPUH0iSrn9F4Y4KkCcmX+IPAsz4yw+9yqvvupd46w/Kj63HGa6PSQVBuGSuwKTN/Dgo4N5RAr7RAfKQRQfy2QPksrZ3z8mPFbr+pYWEKkDum3yJ3wRQMx9fESQGySzz1h+YH1tbIicUhLAyCou26g+EjK4j8K0OEB4dSGKaaXy1enrNXQsJVYDcM/oSfxjKX3l+fC0/3FXeGm/9seWQ875JIAjCH4FYwVr9gdAB92G4owOERQfSlVxgy49155q7FhKqADH7Ej8GaR/jq09XeXnrDweREwpCOOn40gTL6PlxcPCcjK5RuKcDhEUH8ukDJMD6Y3V9fb1KkdEB8B8VIGZf4vdB3m9+/OKIQdLvmcdXRA1GRE4oCOFjDJ7azI+Dp1gbax2IDhCA4D8C6ErO89QfOj/W9TX3LlzFPVYBYiAkjOgNhIKP+sP5+mMJonqVt1oP+bElckJBCCNN8by9+kOziLVxP8ATlR8cOpCm2DTX+EpTochohlsqP341+xK/BTI+6g/368EcPkEKzPWHg4ozkRMKQthogwl79Ydim665XwH4twoQDh1Iz5kHSJDjK8qPdeeaew9c198R3jb6En8M4J2f8RWt7lYBPwap8NYfLiInFITwcTP51N74SuXH9hyOcNogqSdYDDqQpljx0vLja+MrzQxFxgA80AFiIiTUi3Gw7Ds/3r93V3mZx1dOj55iuusvCMLlTbBydvNjewJr42a4pQOEQQfSk5rnqj+QGkVGKwWIiZCQrin6qT+cjwcfp2iVl3t8RYicUBDCRvPnE6w9X/mxXcID7j1wXQdI8DqQjw+Q4OsPpEzHW27AQx0gJkJCvKZY9VV/OF9/zMAwrvLWQ35s7YqcUBBCRkvyub36A5nEEc44PNABErwOZMB9gAS8vXtKmo633ITvnQAxOOXSDDDr8/mB27vLWUjoVV7m+gPZ369CtEP+xwlCeOhsT9scX2mKOMIZhYc6QALXgTSNFPnqD8S55t4Cd08MhYT4EUnF5/iKqPxmlZen/qD82N8vQ58cVRSE8NAFc5bzY3saRzhj8L0OkMB1IAOpFb76A3GuufsQEuoD+1CykR9ra3lsQfLc4yvMj32REwpCqBhKPbdYfyB0zf0q3HUDJMgvkDvpAcJUf2he0CmwSK+5kBAvMdYuoK79en6sVQE3sSq8+bHvUBE5oSCEh+72aXN17bnxsb1NI5wWHh0IPUC46g8VHy9eOMdbfAgJFe1Q9ll/uKTxW5DsMvf4ihA5oSCEh55PJlgWnh8KuubOowPpjBc56w+dH8/omrsfIWFE3zIu+x9fIY+SOMSq1kV+7IucUBDCQ29mz3Z+bGdwaMOjAxnPrFxe/bF6kfx4Me8cb4ljgPzDiROvJCBtJz/W1moQjwIUqrz1h0sZYtKjC0IoGIwWLWzvfpof2yTki1GABKsD6YxPstYfmgXneEs7Gm2fGN4C64Oc7/rDYTmDq7zJEtf27ll2H2dFTigI4WAcpqzWH5rn9Dt3nEMH0ppZYa0/NFU63tKEQsLj+4a3wHoh77/+OF3lbQdNeZl3fKXzY3dX5ISCEBL6snt2x1cKuubOogNRDxD/+bFhXn8gzjV3LSQ8Pj6+Z3gLrAUKNsZXyH8LEMUEyT/mz4/dXZETCkIo6Ieive1dF7rm3ql+fgauA2nN/MxafyBLdLxFCwlVgJjeArsKWVv5sfZXlWmUINlHnPUH5ceuyAkFIRS0OjJ0a/WHZgp/ZHLoQLq/+AD5V3D58YJOgelz9k9UgJjeArsJGQv1h/v1YA4SfZggqSXG+sNF5ISCEAYSBbv1B0LX3NXPz+OgdSD/Z+/8WuLKsiiuFrrF8v9/KKOlRlPzUFRBSU1PP47RtDRpKEFQYkDohpKCIoIyYQgh9OvMQ9L4MIk9EyJkkCEy0jAZDE2LoQkM8wnm48zdZ58bS1Ol5t6zzz0X9u8LaBXUWffudfZa6UYvILbsDwWmuU9TIaFHsEJCjGLMmLA/9Pag99DfM6MUBFYiHV8pTvLWO8YEQTDNCJWhGxxfeRzPqyOzE8B2HUjfjVLE9odCp7kn4BYKSNAssDTAn0yMr/T2B16e7ScrPbsTsX68fi3lhIIQf9I4wfq7Uf04Pj6mQr4I6kAavIDYHF8hq1QA0g83fQEJculoCmDnH0bGV4qdHEw1dXadWemW7Y/X55FyQkGIPa1Fw/YH6scxpbnbrwNp8ALCrh/n5ePwkKLAmoZJQDALLEj60zDAujn9ePashCFUQ71kpZcjsz80Uk4oCHGnExZMj6+QRRWfOGy9DmQm/33U9gfqx2EBYKJJFRKigAQrJFSNUhUj9odveBRxOad7TFvp0Y2vCCknFISYMwlbpsdXCKW5t9uuAxlKzkduf6B+HM5RfvsM3PX0412wQkLVKFU2Y39otO/gW+nR6sfr18VAAS+CIDhC88Qch34cF1R84oztOpDZYvT2B+rHoU5zn4VvPP14FzRMsuNMQEKPrwi9v/fRSo/I/lAcHEg5oSDEmg6YN21/KCjNfdZyHch0y1r09ociR/nt43Db0493QcMkOwHWTI2viLJ2o3wrvRKN/UH6cXCwCr0SqigIsWW27gQrlP2hoEI+23UgbQUH7A/kud69H4Pbnn68C1ZIqBbZt43qB17lpSP7o5Ue0fjqQCHlhIIQ5wlWV8H8+AqhJ3DLdSCdsGS9uraufhw+9M7mySZVSIgCEjRMchRgw5T9oalm9JHd3aYUJLURoX4cHEg5oSDEl0S9CVZ4/Xj6FFR84iAJiK06kIGsC/aHx0tMc083qUJCFJCAhYRNfQAlY/aH5uzqU5qs9M1I7A+fOYsxm4IgmJ35pP4QxP7421X68YiewM/qQHotfJhE6r4L9oenH0pA8EHf+wJQQFJBwyQBVgyOr2ib8CxCpMe30qOwPzTllJQTCkI86U5mzdsfnn48Xacn8C74wmIdSO+y/eraeq8fHmt6975LCcg/AxYSYh/VpmH9ePZrTRVH54RSkGIlkvEVsSnlhIIQT3rgnnn7w9OPYwzjncLz70t7dSA9mXUX7I+XvoAklAB84QnIg8BpxF2wanJ8ReElNVOjUYrnzZUj048DKScUhJgylnli3v5AKM3dah1Ic+uiE/aHYoN275sBvvQE5KvAacStjQQkhH78Wq6JBu4e1zuFLyIYXxHbUk4oCHGkL7ls3v5Q0BP4KMB31upAhs8V2UZze9fXj5clSnP3voA7noDcCZxG3AtZo+MrIlvbUN9OLVOFakT6cXAg5YSCEEf6z0+wzNgfCkpznwb4o64DSXN/lvNFthHaH4pNSk8c8hTUE5DgacSDUDBze/dcdnslVfvvJMhKz23bH18R2FMiP0ZBiBsDuScM4ytkQaVf2awDSecfuWF/KFZp9x4LCT0BCZ5GPAZzZsdXFH51vg1wZELf591nqK69Wj8O3q9IOaEgxI7RlmUm/Xi6qJ7AE5CxVQcyemM+Kvvj8FP9eJml9MQOgFeegAQtJMRV/iKDfvy4kzv3Sjg6ADrYxPr4CvXjvZQTCkL8mIIlBvtDsayewHvs1YFMFn9yxP5AjihLEhUU10CCpxGPfyIgIe0PnZ24ccG41kZIZiMK/Xj/fhtaRuT3KAixYjD/bwb7Q0FP4DV1IMzLYkPJNVfsD08+jo4oS7KpH275AhLsotEk5M3aH/6+R/HCvTi9EQKrO1btDyUfHlJOKAgxYwgWWcZXCD2B26sDGZ/7yYz98Wcj+nFEWZJYSIgCErSQEPPw86bHV0T5YsVXH0VjQbFi1f7QSDmhIMSMdn+C9R/j+vGU+pSs1YGMtCw5Y3+gfhzpNPd2+BoFJGghIX6DOYP6UZtY8ukz/3Dy4hjLyviKkHJCQYgXvcXL9CP4+ArJqydwa3UgYwV37A+FDr+agbtaQJLBPli6VkB+MagfP9a5OzvSSi8h2aqd8VWNfrw/kXJCQYgTI7DAYn8oMuoJvI0EhL0OpBPuR1VdW1c+jnZ0mvskfIMCEjzOvh0yxu0PTZ0MKn8tPV+2aH9opJxQEOJEGr5lsT+QXQovGaM+KfY6kMGsQ/YHorMksZDwXYhCQrwoB8btD001h2llF9BVt6mVfWv2h34DOZFyQkGIEa1FHvsD2aIncEt1IInUukP2h8fz+5QlGbaQUAnIL8btD02pXpfTNBUVQqFqzf4g/TipK2iCIDhJJ06wOOwPRPcp9VqpA2nuXYzO/nhZTz+el/XqZMhCQrzGBTvG7Q8/ebeu7dA86Y+xbNkfpB8nJ1JOKAixYRK2eOwPP4x3uKlpwkodSD/GuDtjf6B+PMcsSbSoB8MVEuIiiRIQw/aHpsH6XuKGn2xiyf440Ug5oSDEhOaJOR77AznWfUpW6kCaJ1Zcsj+eIxt6dTJsIaEWENP2h9/90SAGd2jQTzYxWF17tX6cSDmhIMSEDphn0w8K401gG8Yd/jqQqdyj6Kpr6+vH85JenQxbSNjUA7DOYH/o7o9yg4iZ5jQlm+Q27NgfPlJOKAjxYBa2eOwPdQlrXvUpWakD6esqOWV/KFb06mTYQsKmBECFRT9oU7DhzaeOLu2lV6zYH5pqnj/2XxCE8HOfroKJ6toG+rG7oPqUrNSBpPOPnbI/FJu0Ohm6kLBGQH5g0I8X1UyjnP3RMVKQTMmK/aGRckJBiAMJPcFiGF/telCaeyfAz9x1IKPJebfsD8UqrU72hS0kxDz4Cov9obkkQWSqxXdCLNgfPlJOKAgxoC31hFE/dpdV+FMHpNjrQGaLjtkfiiytTg4BfBWqkBA1uMxif2h2Lmni6NTJJqmV1/z2h0bKCQXBfbqTWY7bu75+7HoH6A10gG9x14FMt6w5Zn8odJp76EJCX0A4xlfENiSnG/3xvlnQCb1lDvvjpA6nUk4oCM7TA/e47A9FAWAC76D+jrsOpG0u2uraT+0PhU5zp0LCVyG+gBEUkB/49OPFi0uXLzr8l5DNHW77g/TjVMoJBcF5xjJP2MZXSFHtnk9RnxRjHcgILLlmfyB7eVqdTEDK049XIb6AaYA1JvtDU75U3LpnWvzFdG77A+XDQ8oJBcFx+pLLhqpr6+vHLh2gaeqTYqwDGcs6Z3+gfuzp1ckeuOXphxKQ6WAfcAhgm8n+8MlenjMzosOxYLXKa3+QfpyeZtXLmyAIrtIP99jsDwUdoJNnfVI8c+2O1P0oq2sb6sdjvTk4DDc9/XgVvJCwoYCYGV8prioDbG5P6peQbV77Q1OVckJBcJqB3BM2+wP5nnbPx7nrQHoX3bM/9jzW9eZgO3yNAhK8kBB3Mbf5xlfE5lW+9bSONoFsldP+8JFyQkFwmdGWZT77A9miA5S7DqQ/99A9+wO5rzcH03BXC0jAQkLcJNlg1g+8ypu+4t8Y1vmKuQ3e8ZXig5QTCoLDDMMSn/2B6AN0gLcOpHuiFHl1bV392CvrzcFJ+AYFJISCdtcREHP2h2bj6v3vIb2YDoUKt36cnpYxB0cQBDcZzP+Lz/5AdJo7cx1IOv84Mvvj6DL92PPT3MfhNgpICAVtBijx2R9+9XnxGmGX/V1+tgmf/eEj5YSC4CxDsMg4vkL0AcpbBzKaXHPQ/lD4ae5tJCBhFLTlgoAYHl9R9fm1HvlH28DPNmGzP3wfXcoJBcFV2s8mWDz6sUtp7k03qA7kFk8dyPici/aHogR0Ig/A71FAwihoElbY9WN//3pXZxMTfrbJDtv4ipByQkFwld48o/2hoANU14H8zFMHMtKy5KL9oVjRix+D8BsUkOCFhCjCK5z2h+77uGYE1cdsk/wGq36cfpByQkFwk2lYYLQ/kDcLanWw76wOZNL8xxjIOml/KDDNHW+itpKApEIoaFetgDDYH5pNaL3Wqo6fbQJzZabxFQmIp2gJ+akKgnuk4VvO8ZWnH28W1QE6BPCArQ4kkVmPdnx11FA+9vZW9eJHF/zW04//Bi8kPCcgTOMrRTV3zcaSj9kmkK3w6ceHD9dVNEEQrNJa5NaPN8tqdXAE4H+6DsS4JdrcusivH4HGVx5vKYxYFRJ6AvIgTCPjmYBw6sf+funarkOnn22S2qxyjK+UfnyQckJBcJFONcHiG18hdIBy1oFM5R66aX+gfrylMGJVSOgJSIhCwhoB4RtfEdff3mue0muFkCsFq6696vUDuSxnXhCEiJiELW79eEN1GAm+OpC+rg0nqmvr68fbObq3i4WEnoDcCdPI6AsIt37sf04K7uisP8cqbjOMr4gCy+VvQRDCMDHHO75CKM29H25y1YHMFP/i4O1dLR9v3+o0dywk9AQk1CsYCQjv+Ir4rAN7xN9Mh0KFRz8+VDJSTigIjtEB8+z68SanDlC+OpCh8zuELtkfihxtvmAhoScgoV7BJlBAuG7v1vLXyuf9l4mPVshq1az94SPlhILgGrOwxTu+QlLqAOWrA2n7P3vn1trWmYVhS8Jexjr5KAtkWT7UjnIhJJBQO7msa8+YoQEbBAq1QdCChEC0IEMYTAhzFVs3Q4ZCoXg6GTAYu+AJDmEYMjaTC9/MpX5A0U+Z/R22teVIjrW/w95q1/MDQk7Wo73etdebdW38QTjlb74EAP5nCEToEYwIRPn4ivjj6KgIw/0cEPFE+HETSBaupMYfnFZexfo3giC28QSz6v2xz/ZWldWBBGDXlfHHW84eX7vyQczwx7+FHsEMgWjyx1Et2WdUM7HiN18srMsdX5k5OpYTIoib8MGa4vGVAa/DUFYHMl10b/xB2OVvvoThwSuxQsK7BCIx/uBVtf0XccyY97EgV5buj+trLCdEEFcxEttX7o8Dfs19RFEdyKTlHULXxR9v356emtfcxQsJ7xCIzPiDs5fpf2Y0ZpZNQbEqcXzFqKWxnBBB3EMonlI8vvr54OBgk60dKaoDCSXWdcQfP9n2x+kTvna1JFxI2FsgksdXjDp4+39UmkzcRCE1uf4gOXoQjyoiiFsIw1cyq2u7++OAX3NXVAcy2q4BcV/8QfxxWudrV+KFhD0FosQfR0c5O1cfQwtmFJIu1KSNryjNvIo7nAiC2GIu+Vzx+IqwxtaOhplAJNeBRONrLo4/iD9OS/yau3ghYQ+ByI8/OGV7+2Iz895uCrG3vdsBlhMiiGuY8G9r8MfBFls7CrI+Kcl1IKu5HyT643vJ8Qdli6fm80wgQjO8bgJREH+YFG0+LQamzCgkWanJGV8xsJwQQdzCpDnBUhZ/UDbYmx9eFXUgNzUg7ow/KBWemksoJOwmEEXjK0o1aTe2Dg/fUogUf1xjOSGCuIWp9HPF8ceNQEJDIYA/yK8D4TUgP7g0/qCY19wlFBJ2EYhKfxwdVSBo86Wd9o1FiBWrV3L8cX1dgvgM/uQiiPNEvdvKx1eEFH3zQ0kdiC+269L447RNiqfmEgoJPxCIsvijvcpr+19rYjR4h0L+a8sf100sJ0QQVxCBTbnjq+7+OMjS1HgW4JXsOhDP+Ia74w/CGb/mLqOQ0Pg1CpriD8abEvjtf+MPLfVUiD19GALBckIEcQXTmb+pjj8o7Jr7GID0OpAIrQHRU11r2x9n/Jq78fQgXEh4SyBqx1fEH2/e5IW+8YeWzNdCSGehsD+aBlhOiCAuYAY2lMcflAyQExQK6kAmglsOxx8/fiT+IP44ywM7wREXLyTsFIgOf7wR3ZwNRSwKKYv7o4nlhAjiAkZhU3n8QUnTob+COpCV/DOXxx/EH2fszy+lkNAqENXxB9WHgfAFKk/kZiMLsmX78QfzR7OJ5YQI4jzjGTXjq9v+uAD65kdEeh0IqQFxefxB4aGHjEJCi0DUxx+caky4yckzaVWI7fjDBMsJEcRplmFdffxB2GeLu6PS60BGsprij38K+WOPLy7LKCQ0BFLROL5iVCQ0OXnC4zcKydUFHj8IWE6IIE6zAF9rGF8Z7LDF3RXZdSAB2HV9/EHgf36yhvaNaCGhKRDl4yuLP97U0gIztzYWheRLNQF/NJv9H5pHEEQqw3k9/qDHeJcU1IFMF90ffxCqfHE5APCfV6/OxUIgJhBd8QdnC+JSjuD6bm69Q7JYte+PJpYTIoizBD6cYMmPPwg/82vmsutAwskdl1XXdnv8ODujdSBkZkULCc/PxUIgKhBt8Qfj+DgvsHjcSyGQq1/3H3/c5OhYToggDrII36mPPw7Ma+4+eshDZh2IZ7jg/viDYl5zJ4WE50wg9peISIiuMf5g/jiW+Hk9NtVWSKZStfH4QcFyQgRxkkROx/jKcs19mvVJyaoDWco8c3/8QWiU+MwqAp8Y/jgXKiQkAtEZfzB/HB/L3HuyKiSWqtvyR7OWFlhlQxBE8KcYtjT542CdzWxYHcg7SXUg0fgT11XXdtPHWaPBr9mTQkIiEKFCQotAdI2vKHLvh8yu+tsOyRdq/fuj2ZSVyyAI0j+rnRMsNfFH+xhvlNeBvHsnqQ5kPjsA8QfRR6NR4IvLC/AlF4j9QsKhBGxpHl8xijAss4djYqn9Yggki+W+/dFs5bCcEEEcwhPM6og/yGuEF9tscdcLjwx/SKoDCcR2XXG7/R7+aFT44vIiE4jYFgEXiG5/HNeSsns4xka8lkC9dNWXPgzK8i4aIAjSFz5Y0zK+Mvxxwa6ZkzoQwx+S6kCmN1xYXdvdH40iX1yeh8dEIGJbBEEqEJ3xB0fBqxczC8G2QtKVal/+aDaxnBBBHGI+tq/LHxfsmnsU4BtDIHLqQCbTTwci/qCk+CPHCHxBBCK2RRCHkr7tXStXGQWvXnjClkAdsvV+/NHEckIEcYZQPKVnfEXI00/MZYA/GQKRUgcyESwNRvxByfFHjin4nAhEbIvAEIj28RWjDl4VJwyXF+OWvd5C9d7+aDaFqkoQBLFLuD3BUu6PC3bNPQBg+OOdlDqQxZwrq2u7+6NhXnOfZgIRKiQc8vcQiHJ/HB/nRH7fd32biYxbHkNyN0tZzY+C5YQI4gQjyed6xleEJP3E9MEDIhAZdSCz3s0BiT8oGf7IMQ4PiUCECgmHvFDXHn9wFKbWgRG/1SGl2r380cJyQgRxgAn/tj5//JntXYXhEyIQGXUgU8VBiT8oSb64nIBPDX+IFRIOQVeBqI0/GCcnKlPr6GjCopBYtlRr3sMgWE6IIPqZhK80ja8uLg6fsr2rCPyRCERCHUg4vSM9/vhJTfxB2DONEYfPDIH8VaiQ0NNNIBrGV4Y+Tk6qSXllxF3+aL45gI531Fsf80cLywkRRD9T6ecqqmu7+uNwl+1djcKXRCDidSChxNbAxB+EHdMYXnhkCESskDDURSC6/HFyUoCg0i/8yytBq0OSxbsc0iJgOSGC6Cbq3dY0vjo02GQNfCvw2BSI2PsEC/nXAxN/EKrcGKSQ0BCIWCGh8YuUFccfxz39caL+C79nbLXDIeli/S5/tFpYToggmonApj5/HPJr7qvwBRGIcB3IjP+JW6tru+mj0ShzY5BCQkMgYmto0Q8Eoif+4OhYnPX4RuKdDin39kcLywkRRDPTmb/oiT8oa2zvaoQJ5DFAXOg3P5canPiDQgRKPuNIIaEhELE1tNsC0Te+YuhZnA2FO7ayIFMp9/BHq4XlhAiilRnY0BF/HHLIMdqA8cEPnxOBiNaB+JI7gxN/UMxr7gGAvxsCEVtDm+kUiG5/nJTpv6UGJianvFaH5K0OaVnBckIE0ckobOoaXxHWWYHSNDwkAhGsA/EMF1xbXdvdHw0uUFJIaPjj1UMQ+QzuFIjG+MNEY5FTNDINHbOsVKn6oT9aZfAG8IcaQXQxntHpj0N+zX0YPiUCEawDWco8G6D4o2G95h6GB+fChYTLAFVn4g9ONaYzc5hZGu9wiPEgUm/dpojlhAiijWVY1xV/ULZZgVIQPiMCEasDicafDFL8cXPNnUzpJ2UUEs62BaJ9fMWoQELru3vLC8OdDklmC9UOgWA5IYLoYwG+1hV/UFIsNvfDo3fCdSDzWRdX1/bAvOYupZCwLRCH/HFifFyPav4fO7uS6HQIZIr1WtsgJSwnRBBdDOf1ja8IWYAEfYX698J1IIHY7kDFH+Y19zgTt4RCwoApEAfiD44jXbKBxVvPIRDLFcqmQbCcEEF0/SiaEyzp1bXd/XHIrrlLqQMZ3xis+MPg8pIJVFIhoSGQmlPxB+P9Vd6Zj+vlyJz/lkTSxVKN5ehYToggWliB77TFHxR2jHYZ4FvROpBI+qmbq2u7++Myx/fOpBQSjlGBODW+Iv54/74O3lln/u96xlZuheoAuUqZ5OhYToggOkjk9MUfFHaM1vjq/C/BOpCJYGnA4g/ij0vzmruUQkIqEB2323vqw8DR8yHRyc4X1QFi5ZYDwQyC/BYZgy198Qdhn8XmPoiJ1oEs5l4PWPxB/HFpXnOfk1FI6APYc3B8xXC6hsMTWJi2vmWYIzk6lhMiiHpWyQRLV/xB4MdoxetAZr2b7q6u7aqPy0tz70xKIeFdAtHlj/fvizDs9MRoIjzfvrpYIkcV5/CHG0FUf3kLZjXGH4Rddow2Ar8TrAOZKg5c/EHYM6+580LCpNCLMGGAfzgYf3BqafFeewnMjvJzJ+kalhMiiAZ8sKZxfGW55r7E+qTs14GE0zsDF38QzGvucgoJDYE4Gn9wChB3xwXDkI+efy+2WrpfcESQ3yDzsX29/njBj9EutPukbH30hBJbbqmu7csfL81r7ryQ8FuhQsKhSUg6PL6iXGXcc8FwljyF1Fu/ZET+XhEEucfHcDylMf4g/njBr7mvsj4p23UgC/nXgxd/GP6gAqHXo2QUEhoCSasdX93PH1d18LqmCXCF3Mj6peWm3xKC/CoJ95xgqYg/iD9e8GO0gnUgM/4ngxd/GPp4+bLO985CMgoJhyKQcSD+uK0Pg5x7QusQOXRSaLVSWE6IIEoZST7XOL4i/nixzlIPwTqQuZTrq2u7++NliZ9vj/6fvbN5aSxLw3hM0FfyYcynQvyOH3EREkiI4tKyrJJCwYJABG1cDCgBexqspqapsofeVM1iBGuaRhh3Qy2qezFQKzeOOEg2zkLo1azC7Pw35nzdGGMSc3Nu7j03vL/6B0wquU/O+7zneYwoJHRMQc5i+4Prx6VKl7/99DJIkZYTBvErjiAdI+B5bab9wVjlrodcHQivkbLe/vhNt358yov49rgRhYSO/scCYvr4iqPS5e8R8qZmsJwQQTpLELZMHV9RXnPXY1CmDoTXSNnO/mDsi/h2Xkh4I1dI6JiArHXbu9X6cXmQUCdEPeLhPnpOZsENQZDmhFJ/Nls/Pma46zEuUwfSnz5Sv7q23vGDUBDx7ayQ8OZGrpDQMQMZy+0PgUq/9/tpxPsBlhMiSAcZdr421f5gZLnrMSpRB0JrpOxofzCSIr6dFhLecAGRWBaahaTl9od2BFFob7ZnkF8GKUAYQxURpDNEYc1U+4PB09yl6kD6kva0PxhamnsQpol+3MgVEjrGHgiIRfaHQKX8KTe9kL6H5YQI0jnC6Z/NHV9RUsz1CAC8bLcOxJ3YtkN17WP7g6GluU/BKyogcoWEjj4oWG9/aGRlQlkMZkwLVcRyQgTpCBFYNV8/PsaY6xFpvw6kp3fTpvYHg5zAwvRlTFQERKKQ0DFyLyAW2h+XlVVeZSyHYR8LVSxjOSGCdIb+2glWx8dXhHc8+8kL8N8260Amckc2tT8YKZG+OwPrVEDkCgkdIdg3q7r2Sf24ukpybVSCIAtVLGM5IYJ0hsG0+frxUaS5u9uuA4l71hSqrtWtH59iYm1gFjaogMgVEjrCkFfB/uD6cVWMKXR1L0w+W8lyWYGoeQTpQuLw3OzxFUGkufthrs06kFDBtvYH5Y22NtAHK1RA5AoJHYNcQCy3P5h+XF2pFIHLQxXLWE6IIJ1gAnY6Wl1bVz++rvGhVZD3SemvA/Gn3trW/qAUtbWBEVimAiJXSOjohU0l7A+uH1fkaT2hzAechiqmy2UsJ0SQDtCbM3t8RRFp7u3WgQR8u/a1PzQBmeITFk1AZFIIx2FXDftDQJ7Wymw98VDFchnLCRHEcLzVEyzT9IOlubvbrwOZzChjf+gfXxH+taetDQzCPBUQuUJCh48IiBL2h6CUU2jrycVCFctYToggHTjgb5tsfzA2+dBqsr06EK9zx772x6fqNHdaSEj040KukNDhgUNz7Y/LpvpxdXUIziFlPuMsVLFcxnJCBDGa8azJ9sd9GG+E3vNqpw6kJ7xvY/ujkubO1gZGmYD8Ta6Q0OGsJyCW2B8aGYVaOHioYhnLCRHEYNywafr4ikKzBAeq60DGdfzR0fSR2fbHr4bqx8nJprY24IRFIiCShYQDAHuq2B+CYowXLioBD1UsK3UsQpAuYBa+62x1bQOSfGgVaqcOZHh0y8b2B9OPk7xYGyCP/iUiIJKFhIHHAmKZ/aGh0sULHqpYLmM5IYIY+s3yZUy3P9gab4bfvB7kAqJvibUvaZPq2sb6cbLPT2C0kPAFERDJQsIIQFEZ++Oqsso7pczn3MtCFctYToggRuISZehm2h9UP76KNPdx3ic1p2eJ1ZXY7pR+/N0E++OEURBrA7SQkAiIZCFhvFZALLU/BHkYVacIkIUqlstYToggRn6vYu9Mtz+IfHz9muZZgqO8T0pPHchA76a97Q+GOIHRn8b/IQIiWUg4BHCg0viKcZluI6K/UwRoqGKukAcsJ0QQoxgYTZpvf1D9+CqyBJ2sDuRGTx3IRPbITtW19fXjRJzAaGEF0Y9/ShYSeh8IiBL6USqVDsEZV+ajTkMVGU7MdUcQY/DTCZbZ9gflFNjFuTbqQOKeNTvYH5+a68eJlubuh7kb+UJCIkOfFbI/uH6USlmV7n6HNQXx4/ceQQyhL/HuZ9PtD8pbfuaIAPxBZx1IqGB3+4ORFq6PMYWELgDTq2uf1o/SHih095uFKhI8eAJBEGMGw56kBfYHZYefOYYAftBXBxJMvbWmutZY/TiJieiSqkJCiVvSfkgoZX+UBAUYVCdD3T/KBAQ9EAQxai68ZYH9QThe42cON4C+OpCAb9f29gfljfYkuy8kdEr9R6bUsj8EBwmVusgjk+PgnMU0EwQxhlDqJ/PtD6ofx1v8zOHSWwcym7G//UE50KJLjCkkjEJame3dKv0olVRbmx3CRHcEMYhh52sL7A+qH0xAXPrrQLyJHfvbH5RKmrsxhYRTkFPM/hD8D+OnEKRLicKaBfYH1Y9jkSWosw6kZzBvhf3xm+H6cVJJczemkHACsqrZHwKscUKQLiWctmR8RXnOzxw660Cm0kf2tz8oLM2drZOOcAGRLCScgYwl1bVPyUep9HtWqucEQRBFicCqVfpxvMrXVvXVgURGt7rA/mBU0tyNKSSchaR646vKKq8Xv2sI0nX010ywTLI/GK/52qq+OpC+pP2qa+vKR1WauzGFhH1QUFQ/SqUkvzGJIEhXMZi2xP5gJAE87MGnow7EldruBvuDoaW5i0LCf0jeTxiBffXsD0Exhgm4CNJ1xB9MsEwcX1FElmCIC0hLFvKDEEXbVNfW1w+W5s5cHx8VkIu/ShYShiCvnv2hgU2yCNJ9TMCOZfpxnOOSoacOpDpE0T7VtfX1o5LmzgoJLy4kCwnJ+7ip5PiK3yZMtRx0hiCITejNWWN/MESae2/rdSBx51p32B+MpHB9aCHhxcWFZCEheR93zaqu1a0fbJXXpvlTAa+///uRsTg+LRDkIV54bo39wUhwyfC1XgcSWrWuutZw/bjOiIuDtJCQCIhkISF5Hw8VCS+px++51tte1GDY6//Tt998M7+w9OFuWS5lBkG6khnYtmh8RTgSkuGEJaIfP7RQBxJMv+0S+4Pqx7UY4dEqwZdEQCQLCcn7uKek/SE4BKctVnl7Iu4gEY5lIhx3gg/rNIARHxcI8pDxrHX6cSzS3AdargMJ+A67xf6g+nGdFq4PLSQkAiJZSEjexz0l7Q/qgBQPd/cTUtckzROOxYpwCJamAQUEQR7hhk2rxlcEkebeeh1IJUTR/vbHNUW79+EGIPpxI1lIOAxQNMH+0LW9e1B8v7ufzKa0GieXgl+Cgbgr+j0Tjhd3t7e3NeJxd7u0EgMUEASp80SG76zTD5bmHmV1IH9sqQ7Endi2yP7owPiKork+fpgjAnIhWUgYBzhQxf44+PH95n4ml4AaJlUSjiHXFBGO+YXFD7f31OrH4rr2t4fweYEgDw7tvoxV46vj40qauxfgvJU6EO0KSFfYH5RKmnsQpqmASBYSkvfxjZXVtZpwFDK5GDRAhcuEgbrCUV8/5l/da18PPjAQpBoXPLNie5dzevqMS0ardSAz2V+6x/6gFLV7H1EuIJKFhG6IWWV/XBLhyBey6YbCIfBZucjLtnH5UtUj2dD+PXA+5tfnKn+5B+/RI0gNY7F3Vo2viH6cbvKZP68DOX+qDmTIudNh++NXE+0Pyp5276MfXgkBkVkV9UPKbPvjsvh+N5/MpqEVPL2TltRKVW3j3tbl7vH548X8xnT13z6OUZAIUjsTGk2aUl3bQD9O83zmH6V1IOfnT9SBiBaQbrE/rq/Pzva0NPcZWKcCIllIGIS0WfYHOXA88MabC8fgyGy/32v24aN6G/f2Cfj5g+vHy8X5lemag9NMAJ8WCPLoJ+szq+wPqh+nIs29H9aJfpw/UQfSnzvqIvuD6sfZoeb6zMIGFRD5QsIO2x+XjbzxuowOjkxO+b0Bq4Rj8WnheHD+uHuxOL/x6vFrG4xiiBeCPKYv8c4q+4NRIN/OHvr7e4Pox3nzAU7cs2bf6tr6+nG2q63t9sEKFRD5QsJO2R9PeeMPf6+H+2airiGzn7pV27i3unj5YnFheWN9uv6rGXHhgwJB6hDwJK0bX1FEFNQsrFABaV4HEtrvKvuD6sdZXlvbHeECIl1ImDR6fMW88Uy6JeFwjofHJqKuuOnCwZeqdAvH3UuiGyvr03NNhm+hCQzAQpBGM/OtjuvHcRP9OM3yApA+LiBN60Ci6aNfusn+YOxra7shWBYCIldIWDBKP/R546GxiaA7YvaWa9Nt3OZHjqWF5UYHjns9DM+4cHSFII1/1Kd+ssz+YIgoKPL4pALSbIATGd2yc3Vtff04EyM8lmdPBUS+kFDS/rCDN863cb9lS1VfCLoOHczlmGvhpU260DZHkGYMO19bZ38wRBRUGOapgDQb4IwU7G9/XNfqx5mW5u7o5QIiX0jYpv3BvPGkPm/cdOGg27j8Gsfdl3taPnUs1izmNvBvQrNTrgg+HBDkKaKwZp39wYjxX9y9sEAFpEkdiD/1tsvsD0ZGG9r5YIHoxxfJQsIw5PWNrz4Lbzyhxxu3aKmqVjh06AfRjqcHVuPk1QW9eOxAkFafN6m/WGd/ULQ0dx8sUgFpXAcS8G11m/3ByGpDOw8sXhhSSNiafnzW6Y1T4TDdG6++xvGlEbLaQV8cPU5FMKYEQXQRgVUL7Q/KtvjF7YEloh9N6kDGkl1nfzByYmhnUCHhOOw2H1/9u/jj/9k7e9A20jSOxxLSK/RhfUsG68uSpdiFkcHGNi6d2FYIDjiwkIC9GC5w4ZocXA4vxAmkOQ5irjBctkhhYzdpYkyaJeCrrrNh1aTIVlemTBtS3bzzpdF4Rp+jed+R/r962ayz1vw0z//56DwbdzHKxrXduO/b0Foeyy1qVoGItxCDNwDoFZ9YwWIVf/z669u3u9I3buHxuSkIxPwciLu6M3Txh0hVLtpZdJAwS/5m7I/nXWXjHjEbtz0H0HTjvj983xEt5WEWlefFlAPmAKAvIvP/ZBh/CP54K29zFx6fNUEgpudAxvN7Zv5wyulaY3+8m5SLdtYdJGzWhxOy8QnaUyV14wrikOnLH6byCMWFlw505gJgASVawWIWf1B/vH0srYISHp/PBIGYfv+eWhjC+IPyXCnaBQk5suYgoeQPB2Tj2mj8UE/v/jCTRyheDqO3CgDLKJBddvHHW5E96Ru38Pj8IghkRdksqCM4szuE8QflL0rRTjpIeNnnQcIkIXt7vGfjYyV/Sl5UVT80oVd/bK7dN3JHpgB3AGAxniWW8YeIvM3dTSZpE5bJ9++xyLbzT9ca+kNcxisW7dxkxpqDhPxm400JR2t68sfXFeHVw3VzmBzuAGAABMk6y/hD5Cdpf3uYTFOBmJwDKSy+HIb44907Y4GIRTvLDhK2y8ZjtmfjE42x8cPO6EEftdmtG29dgUTBj7wDgMFQNqtgfbQl/hDZkPa3p8j9334zOweSdu0OY/whRiB7SmieUu9J9XOQMMlRNj6WDJpHHNb6Y3Nt2mAHIuQBwADJLzKNP0TmpP3tvoZAbiS5Y4mnQ3C6lvrj+fOdV68ODva2nz6aW1hcmpcTbrFoZ81BwlsJfTZetD8bLynTf5v1w17o0h837UHlgR5dAAaKn2wzjT9EFqRVUGWyZXoOpLj00pHxx38VXfxEfbE0XzULttPS66AVBwlvBTPMsvEuIg7r4o/arD40z1fckAcAA6dCdpjGHyKL0gG+inRPyugcSDLwZ0fEH1QXgi8kXSwuVTs7vESUzMOag4T078vubLyxGbd2eHR02Cfd+KO2fF+fmPvS+GADYEelIbTANv4QWSIkcavlOZD4Iw5P1/7HpBrVC9L2yJwlBwntJBkMKxHHkYqN/ljWpeZZb2wCH2sA7MFN7rCNPwQuLqrSKqiM6TmQ2Pw+B/GHWo2SdFEl1hGXvjNnyN3372sPJvs7SGjHFw/13Phm/UiPbf7YfNBsj/wUClcA2Ehucp9x+Urwx4W8zd30HMiEtITX3vijKbxYnO+iGtUZrlA+ksh4K2VfKqZMDcZ1byTcMZ4WFxzO0ojjyAS7/KErXYUqQXyeAbD1eZCd48Af+/L9pIjZORDv3MC7d5/viL7YXu+/GmWsi6ysi0IxFvYHSxOG4XZE/edzfP2iRNPhohxxHLXm0B5/bN5t2lQSyOHdAwC7Cd+oYNkdfwj+uFC2uedNzoGIS3gtjT9e7lsWXphM64U8ibg3N1UopsLuYDrZYRNt4w0kzMcvSOP4Xztx2OqPlaaXD1cmjGEPAOzHO/OCYfeupI+LC3mbu3wO5Ep/DiRKl/D2E3/IurjTtpW2D11E4hlBFz5BF35BF71+G04p/8YI2+/T2ojj+vqoc+zwR22t6eUjkcL1QACYFCYCc6zLV5TH0iaPMZNzIJWF7uKP/eZqVNXyapSoCym8EHRRmrDuYR/NiFucsjFGvxDyDScacRxeK/Dlj9Ut7f8Ljw8rrgBgRIw85sAfF/I2d5NzIP6ZnVbxh/p6scEyvLCMUjgctn/7RjStTnFcf6BcX/Ppj6balcvrx2cYAGZkqq/ZxR+KPi7e7EmbPIzPgYx7tjXyaFSjrG+llapReSW8iInhxXAX1xsRx9cPWtj4o60+lrXrSvIFDHwAwPLx4XrIOv6g/nizLW3yCBJycvMcSLm6t739dECttJaFF85CG3F8MIBLf9RntfqIo+sKALaktBUsRuWrNwJPpfW7fvEcyOfmcyAl18DCi+TEqD2D5IiDiuPogzk8+qM+q0nOQ+USPr0AMCZR/Wjv6Vpjf7x5JG0vD5Pbgj8+N58DSTklvOCZqLThUIw4ziSc5Y+mxqtEDE27ADAnSTaYxx8i8jb3GJkW/PG5+RzIVKe+yDaFF6UkHjLyESdpiuOsGUf5o3ZXU7qMIzgHgAeK5B7z+ENkQdpeXiT3P8sCaXT2pwOtB/V88qAeKuINtBHHmSEd+YOT9qv62oym7wrrSgDgg8j8R+bxh4i8zb1AtqhAdOdAYh4lvMip4QV0YQiNOGRxHJ21wkn+0GQfrhyiDwA4oaRUsFjGHyLz0jb3KfKACuTGOZAoqlGt0UQcZ8fHx2ftcJA/VhqdV4EpzAwCwA0F6Rg62/hDpCptT8yRu1QgRudAgBET6hGnr8cN+vAHb+ODq42xwSymPgDgCc8SB/EH5d9E2uaeIWtUIA66psQGOeL4ma5UP76BJa8fXPij9qDRt+vDWygAPBEk6xzEH5R9eXtigsxSgUxzf02JEXLEQRdVHR2b4Th/dNB6FShjXSIAfFGmFSzm8QdlV96eGJEEcpvba0qM0EUcLRkWf9Qbgx+uHLIPAHgjv8hD/EG5J29PzJNlKpBJ7q4pMaIRcdROT487Ylj8sXxbf+wXAMARfrLNKP54o0fe5n4rS1YEf1zqz4GMGpqIo36qMFL+0KzcjbjxUQWAPypkh4P4g/KSLuN1i+dAVgWB3DgHMiqMl/xKxHF9qmOU/KHJzvMxfFAB4PFrbmiBcfyxv/PqYHtjbnFefFT4b92KElITBKI/BzL0aCKO41NjbPQH8/arRvUqi9YrAPjETe4M1h8m3bsvFW3o7j6l6Wou8kQQiO4cyPCimeI4bY0l+nCGP2rqvUHXFAY/AOCU3OS+nfHH/quDO+sPF5bM7j+5hIdFmpBLQSC6cyDD9+6nmeI47YhB+4Oj8Y/G3hIvtpYAwCvj2Tkb4g9apVpXq1StoIMffkJoE1bzOZAhEocUcdBFVdeXEvCH2etHAjsTAeCXsFjBGkz56oVSper8fGCmJP433aYCaT4HMgSu1kQcl03Y6A9HjJ/PKr8w2RQ+oQBwjHfmhdX+aFelMj4RGMlUCjHp62aMTH++cQ7EuWimOC4NsU4fQ9F+tan27mYwOAgAz0QDcxaVr8Qq1aO5xW60QbKReK6QCgeTTVvZDc+BOK9SlQyqEcdlK+CP5slz5fUjhNZdAPgmRh735Y8eqlSEBDxxb7kY9pdMmjMb50CIA899jJXEbHxWE3HAHx37o7F214veKwA4J1N93Ys/lCrVTDdVqnwiU/HF3Om2bxVm50D4RhNxnF5RLi/hjy79UV9Tt+5i8BwA3plwPezCH/u7rw7WH3ZZpQpFMrlCyh2c6Pxlgp4D+eKYcyBRNeJ4cqXFOn2MjD821aNROWzdBYB7UoYVrGZt9FSlykpVKl240SFesrU1Ob11m+9zIMlgWIk4rgxwpj9Ytl8dqs1XHj8+mgDwT8KogiVq4/Vfe6tSead8MX+pv++P8aapEM6Qx//EiOPKHLv94fzx8/pddfIci0sAcABJsqGTx4s/3TvorQU35U5blXpGGmMh/PxdjafdKaUZ9/yqHQ7yByfjH2rzbgSjgwA4giK5J2mjxypVrpzqsUrVkoz6Z/jY/x1Fg+GiEnGcy1iiD/jDaHOiqzCGzyUAjiAys73RZZUq4El4p4ox0xZcK3CrS7wZ1jImguFf/i5GHE/OdTjOH9zH52r5yoOjUQA4hFIXVaoEHRTvoAXXEgp5kih7M0UGg8iaiOPs3Bgb/TEi7Vc1pXzlRfMVAE4h3NmguHsAVap2j3HbHyTjJU3E0RL4w2p/rCjlqyI+kwA4Bndvg+JDRTStRhznHQF/WO0PZXgwj/QcAAeRDOlacDsbFB8KNBHHiQT8wcQfX5XN7XGsLgHAWQaJBNRB8dH4ibURx0kTNvoD44Oa3VfK8Dm6rwAAnKKNOE6MsEQf8Ee3/lCGz7NYfQUA4I2ouuHwyflJC5zpD8ePnyvduwkc/gAAcINyxKkRcZwM3B8YH+zSH/UHsj8qKF8BAJijiTiefaKcnIyuP3i/XqvE5wEcjgIAMIRGHL9IEcfVJw3W6QP+sLr9SpkexPA5AIAJmojj5NNNnOmP0WjfVW5/eLF6FwBgK0rEsSxXqoyBP/j1hzJ9XsYvMwDAFuSIg2bjz758agf8wa8/luX2XSwvAQAMGG3E8UXGEn2M9PggQ3/MytsPwvjd5pBkLOdtSTlcGpnvrEGft1um/BZ2FY67y93++ZVUcJjqwqVUrv3PnEsZRamaiOPTHwJfGtjhj+PVH99a8331ehjHB+sr7X7wbz++r/buD3n7VRaXa/nDX/F0sp87NAruH0t5s6QXsjm3JY/wZCHh6uk/wJUbEoWEc/mO/9Izbn3EsbL57A8Ntvrjyff//f6v1vxO/4Fv9SHzxz9+tP3B5R//e4/jH/L4YAjtV/yR6viB9X/2zj82ijKN4ym/hkBbKBTa8qsVevxsSDAhLaUUJSRtFJUEAgl/HIGACZHkgskl+v9uUSx7oB6eIEe9Q1NP7XnnnT2pcvgL71bdKmCKR7fb27a0UGAlp7a0mFzfZ6Yz787uO/O+7yw7+76d59+2mXlnt893ns/za7H01Q+58xR+m56CmYIFOfzXnyjDaNKsxWyHLjFSHN8lWlr1ozYcoLRwhVTt5zXUBx8Rz14e/dDaPyZ63eeZZwtZXKTkLwC5MxUnlu9YYLPnO7m+BMsRqBX8/vsffHD16tWBwNDT3xEtnfrRUMvgRkNDp+RpP2fRDySezPox2v6R7w3fzTwrYXJRU6V+BcjLV5zZTIeZkPFTHd5Aiej6kU8nHBoOQhaIBTNBP5rY3GhgSJr2wUq2gwcClYz6Mdr+Mc9r/8hAfoU+mXX7iyytbKf+/yt1DTbEHzurixit+iH98UxydP1FSD9K15ex3sD+Uj0pIPj/2CT4Ou6mOPPyu5p+BAKDadIPy+z5F8iNhgeqrO96e0SPQXolKd/tDdEcvGjFgEGx+NoHF3jTrzKQOKN85ZoJfjvbpXsoiXcHTUEHfNzPYet0BXFSq5YFr9/LOa5frV9fbIgFrzNb+qjOXBTW9CMQsdOPdLR/DKI7+dn2rsvoQhCByneH0GEOUHxghoLUMI0vKfXaBzPXZqCP5jH7D3+97qEmy/swAL9X8wjIDv3xzHZw/cmUH0aiTdCvXyzya1o2isDmrKI89LCmH4FQrfv68QEEIG32d63znlCjFPrRCgFIO8Xn9TNdCGLSjzo1/zFutuesMxbaUPjMbUYxr7QgshBVo83h8d/+falgWAXgPtt4rl9k5AgEHlOaNxGlOKgVfCA0Wjo66HL6Y8Qq0H3ctb/pdiNhMChF+zlEXsN+JgEJ1dFvr1X1Y6rXPpjhPrOdCC/hw59jeChp0+jAT7ah03ZdYbB4ASl2CLDAffYwXL4nPgJS7hPzi4i6OEpRbnwHfN9oHvoOvfUg7Lp+NMTQfWy2/PLAJ7UZK2iVov0cDr7d5jOLop/fMY5ewaofXvtgpvvMH+oI9mU8Y1cUaSMQiMY2oeP+2Udvn8QLCH8SBANYf2W4/jX0B2sVMRFj1qxsvYujeRDlNNSX+G9tDn0W/dJ+wyF94LJ+NJ3SQU53B+mmbwJ3s63DEmt7rUGweogH930EUXKIog6rMWn/h6cfme8zvyEJyA/xBEsZJ3U09gC8QzL4b98R9BdPGM+H97teAJcHgNXPcPl30R+swPRdCFactWjK6KCqhmbNKpF+xKCe42KHzak70G8tNxxSrcv6oRIsADk3iffcPfLTtrCdgIi1vfZtg2BZiP51CBixQt46Jv0Y5y0/z3ifuYqkH3UopdmHEawcWR8GNFSuRw/jKouAHE2NgGRNH/nbuQCwujoZLg//m3sxAcloWJxrDKq63Bxvv0JFVeEqIHgv2x4b4aBNhkOqcVk/mgyCdZJ0y6+jn+7GvOigDNtr4eBQOPiMTZSMEaxAI51+POqNTxTFZxIJ1ldmgjVR1ocBKQhwYH9iEZAPTTkITgEp0WGi/yDL5S/GVxHzR0D31PKMQVXNye1SDAUgahnsa/bHRkmQIiMpW+GyfvyRAuQAwbprIyCi6YfaBBK1JlinIUrGCFaISj8aNf3wttcK4DO/siRYj2EOap6kz2KWMhqNXWFx4L5DJgHhm0fFCbB8L0NvAd6pnVHTHmZlTxtNcbRoRhCQIaQfajEPzQO4PfJ7UcMlDbrVPqhZuT3I6TQTrEClBNtrDYLVbxcl49NMqPRjo0BMdmya4TNtCNYaRYoyUftobCV6GDeYBOSNVAgIBrCudLBc/Qb6k5X4OK7MyI3DhENIcbTEG0E/IAFyBwT0Gs0DuBnXUoELiBv60WSUIr1AuuMzprx/ICzD9iiDYB2kJ1ihIQr5GNUPb32U0ATrG8hW4sOwZC3CgmisDB33KJOAHE+FgJTon4T/JZ8jguXq/1tuwfjZWorjUktSI+jHHkiAwNPvOU1z7n70qzEjH+1S+yADwbplJlhDEugHEKxIn3XhyavxHfjJc+gJ+rFBjuFuY4RgfWlJsB7CHNQkSZ8FRGPr2AmW73emLDaPgGQDwGpnBlhqCVgVPo/XFYKVlz1toZbiaLE0gn5cjqAAZDcI6Jv0kZfxUhtzVT8aaAnWBDwPUCnB9loqgnXDTLAi9vpRv8GbXyKQz1xBJFioqrJ9jShFPg5sMifB8v3euYDkAsDaxA6w1P/N9fg44LQ+tMLsaU/9+pcUwmGtH2oCZMDPUAH3efz7fMS19DlsrzVAzrOkGz4f34udhGCJuL0WRkMCeT1mEyXjNViD9vHHMpG7YseKGT7zfyT9+M+YIVjTdYJ1gk1AXjRlITg2pvxCB1h9z7FdHDqyH0h3FwiW4rjcwmAE+WipgAQIBGC3KQ9+Mq4pLxR2VT/qAeREHREsIbefqwTLpnXqhD3BStCPcm3+ruekxfCZzSQB+e9YIViL9GjsIpsL9z3nWEAAYK1rZ+5A0SrA0kywCp9CKY7mFnYjxR97kH6EV4AfOsfy1I3xrmH39CMYDFKAnAtRE8EK1Ajcfh5HsAZoCNZKK4KVoB+VS1Vn481vF8Nn2hCs0jFAsCCLvZeDYPnecSoguWgh/VIegOW7mn6ClVW8pIXLSPLR3AAJEChhih5jKl/GpvO976J+YATrsCVyIxMssdrPkxCsF22i5JgFwUrQjzrV48zz9EMQn2lNsLZjDmq+1AQLXoJfYRSQl5wKyH06SYy+5XNIsO59jfV4RUmtfuAJkOvUJ+80DSb8wkX9aKQoRbptSbBEax/UrI6GYMGkhioLgpWgH9oAk5mefojiM9+3JFiPYw5KVihZgA63FroQGH2477ApCmAdpjiFG2CpFcSbcIJ177d9jbx2PJ1K/WgphxGKMK71FsPZUVFTNQaE3NMPGoJ1Dp1vFYlgCdc+mECwrtpEyQNkgtVIaADJ9/bXiuIziQSrt81MsGSdagbR2A62l2DN/uJMQFSAVcUDsNT/zW3pnRKwUFH2pDL+qEX6EYEdUl0XGM7eFZ+ZrXSjfVDVj6ABct4h3e3XVgRLVP1QCRaw1+O8BCtRPrQCrOJCz0WL4jOJBOsn4AQ4wZI1qkReXIHNJ6dZBeSgMwHBANZx1kt3mTa1pGNKwAxFqUmhfgRhLy14326m86Pu5jYjB1LuQvuHph+tFCDndkIvttjluyrBgg4cm9apN8wEK26ZVBL9qJgL1Z4FnocWxmcGLQnWTo9gWdqzjgQE1rCvi/IALLWAGJ9zOTUN++rHK0pF6vSjGUYoQiLO/zXT4W+ZZpm4ph9BCpCTsA8DI1jC6kcKCFYS/ahZInWxjow+s8ySYLUtGQMECxoxnuAiWL5nTByJaWEjAKwlVVQ7MJKP80j3nMtsRSlPnX5gO6Rush3+W/Q3EeON3jX9CBog5y3afRihsAT6UQ8Hh+/uIZsoOZKcYCXRD20DYYnnoMXxmdYEazfmoHJkJlhzYWzkWWYBedOJgCzWK+Gih3w8BAvf1JKW17ZZirIsZfpRAwkQ2CF1pZMj/2NAoaH0tw8G6QlWwj6MQfH1g45gwZyGTTjB6rXSj8ZHpO42k85nIoLV9wdLgrULc1CLJX0W2ehwW1kaoTF7wYGAAMBaG+VpP/H5jiUQrHTUreQpyoZU6QfskArBy3v3EcbTX4+vi425pR80BCthH0agVuT2QS0AMQ5+g4tgJdMPdQLWdK8ASyCf+T09wZJ1MzEksvexc3iw3/ALSF4xAlhlfAArkWCl571tnLIxRfrRjO2QOsN6+jPxC8YjLpTvmgnW36n3YUQk0A+MYB3hIVjJ9EOdYJIzy/PPYhAs8Jk/WhKs/WOBYBWPEqzoZ+wC8g+TH2coP1ygF8J1H/VxEaxo+udc5iiPpkY+Lg2y7ZBKUruAzTJxST+aailADoFgCdp+rulHjX7wizYTZ6qTEaxk+lEJBVjjpnjuWSSf+TZJQL5HH/4WzEHJOhrTiMZusbtxdawfl4CMB4DVxwew1PLh5emfEjBdeSQl+qHukIq1ccZfh+Lf6kMuxR80BCtxH0atwO3nmn7UD6GD2A3/6TcTrJiFfmgTTLwNhHIQrFbUHD0BJ1jZkj4MIFhPoofxKYeAvMcrIBjAusZx3X6X5lzOVEpToh+QAAkDAul5hf34Z00L/k65ox9BA+R8SL8PQ+j2QVU/6qGEGr69nx4mGtR5JCFYyfSj9WGpE62y+kwiwfoR/fQA5qCKJX0WWTnIkaNSoOgFDkf+Gq+ALNDr4JgzyCPW0WPe1JKmGutJ1LNMLPVD3SG1HwDWSY7H3gFj2rCX+rSX74LREKyLyQiW6PoBBOuOn8ISCVZjUtvoTcASx5DPXAo+8/kxT7CgFGoLL8FSBQSLBGib+QBgbe3jaz7R2k+2uzAlYLGiVDrXD3WE4rCfq4MSrCeuPjRU6Yp+BClKkRL2YYRqhS7fBf1QCdYAjYAMmwlWcv0o9yaYiOgziQSrHgjW0jFAsKAXA16FP+ZxZK/zCUge0vBSboClNtK5MedyMmUjiLV+4DukCAmQ3/b/q8NmEnGR4ZoqXNEPjGB9YkmwBuIJlvD6odZgDVPoR9RMsJLrR90Sb4KJYD7zgD3BehJzUBOlJlgol9vdyePJ/8knIAv0MrjuEz5eguXGnMuRyGmjY/3YAwkQkM+ej8i1r1ZV1Wi8VLveWxEaTHP7B0aw7liXIiVOE5RAP9QUSKTKVj/69poIVnL90DoIvQkmgvnM9kZLgrUVc1CyrrcHlLTLmmB1vHfWuiEBExC6WqhpehUDF8BSu0+2u1FjXagoDzvVD3WH1GZwMAcJBaBR6zUTvpumYVhu6IdKsKxLkRL2YYR6JdAPVUAC4eEBG8OVExEsgn4s8yaYiEawdlkSrOdhgcFcxdGubyEMQoHd6GH8m+QDjlzx9xFfhj82sSQqASkEgLXCuvm9IxMJFlSANzjTD3yHFMHxdkIHmr/DpgrNcE9DbuhH0ChFepW2FzsUEbp9cNTwvnpaC5UT9KNe7QDJ9xLoovnMnywJ1r6xQLDm2xMs5K27SL7sPI+ATNKr4LpJnud8l7+/g55gpa/7ap7tQHcb+WguNxIgt6ziC7//gs2qbaO2KZbm8l2wGi6CJYN+tAZ4BKSVEH+oFbzzvQ504QhWqyXBWos5KFmjSyBYOy3HwYK39p+jFBCat6hpehEDEfMfiloN+PibeVNLGqcElNjN47WRjxZ1hxRsEuj6zOKhjti7ZAH5PG4YVijign40Gc101y33YcRNE2wVuP1ct16eCCRG0A+tgnfG/9m71p8osiweoAFbFGge8hheoqALHRNICC0ijskkdmbYaOJGEr6QIdGEuMlG/waauLsMro6TzSxO3KyuYWdn3zOb9bGjbsbR4GzBDJLeBZqWlwIKrRGlaSBZ6lZ33VvVdc+9VV09YrvnU39oilO3q87vnN95/d80c0lqQllWonFJz8osSCraWpKxMTsuUps5RsOPi2J5aR7JYBWrdBBV2LAlLWHjNuOmKzsjKTHikygrTciJYA8GisYQG38XnJrhok05+Uq1NIXjOCQCKw8isEYHQLM0p97UQrRf2RK2psMHV1CWxufs5aYVhV+qsKZG8ITEF6h16ow/pB1SFahC55z27X08GQSQf9IB5HNliagnCvhxz1lX6w8EfD6f1+v1aIhoRQU7iHRh0wR9IZC45whoXjT64vX6fIGA3++vdRzoMYQfwTJenVIbCjjUd14jSjXva7/21peXlZRmpCVsyn7zSK+MrPhksyQ+saAkwRaBzYQZrOOcWqQXbdmkf4yGrbzYtINILlzTwVCSBjFY20U2ZXIUZNupAHJHP4AkyUVwk+chgsZ1igYvk9Q5l6V8z1f8BrajU5ao/bdWq1UgJfAfPfhxn9ghRQHI0ZlQDc/PGWOWFmEAMQofF+v8ayaO6WQLQojBmtExTRChx/VarxEf3nwRPD5/XZ9u/Ojx6/9XHonBcoTduRWJoRc/JavciPF5fWVDstkSn16eZtNvM9Go3Uc0ALGrGSwuFNHjDuSmm34ShQUlmwxFY8fghUYTugBEF4F1h3LRT9GId2re5TJ1U0s592llMlq2UjNpf6kGEMHj1IEf0g6paejIH8pFoL+nA8jHyjXjwq/NwY8LdX6fR49tbwZDxfB9GD0IQPxd6wM/CBTp0YEfnQbwo8uP8MMfduMSflRHYgKLSje+GbFISXJUJL4gLVWfzYQZrOtoBad+C57ErUZ2YnROorhMXyCCgoEm8Xb/AdoAej63X7U1RQ+BNQ8SWPQZtXPqTS3BKQFxSTqOajPYOWLLov5hjdXapUQQwc+NH9IOqSpohxQaE+lCB3SZDiAPUBoIm6EeE/DD6ffptesC0vOWPgbrgr9r/Yng8/dx4sdZIwSWr08bPyQA2R/pm5+ixwa+roJGUCXvzjcsu7fvpBnvoo16bCbMYD1Hc7CoOkAYUsQVBGQj+mpHfgQnsYOmQnopf0CWmhJisKZG22F/mBNA4nmqmIKd71OXQAKLumDiQRiDJR16Krp0Mnxw+NeLz2YFiDs1r/CeyKIjwQhSx4kfF1ACpAHRd5QdjLdRxFe/DEVookwq5ywdiBA/eh0BD5WqCt1wuKzApdjaDJZkf72vRKDwSvDVccUffPp7NDLoEnIqjlNKg0T82uuyga9r/gPN725wRSQjlrz6prZ9LXt2q88vi6sZOVVm/RkMFiDuvPqGitaTzbuO7X0r2YgaonnaedQS2Um4qyobWo8ePPy2+qFK2co7USdNZrAG4TpM8wAkQ27CoQ7//QIRWPTxfFfVm1qCcy7RkpcWRnfw+D6e6WYIio7kMX6BVU8IQHx8+CElQJrBu59HT/nSCqvJckIxYko9DEtn+typQg/Bu7SyvLja1GjPq3Izn8R+eB8GcrG7rF01opoHnM5aVP0boR2I4L1Ze3ubWlebF5eXwsHE62DHH34+/ccXicsHpI0fCEoOTUdi/6rsovptzfu0jE96TPeyi2ZzR5VpD0Je60HVEWZt1GMzqQzWWT1PY8PxY3tVYRFTDcSiHTTtIEYamt9XwmlKmY0/GmsC2fbu4D95AK2b4weQbBG/d1dxEFj05uZ59ZzLMuwa5I8wj0tWtpB6SDk4TQPKohyCOLnwQ0qAuCDE7pcuLCWnoT0p4ilZiBIf4/jR6yCZK8/S8mqjW8/zN30TrL9YtmLZH+QArdY81zqQkcbVMBTRgBBl/IG60AUe/VdU+NGD+mHMQ053Q9u7e3e8MRCCG8BN9CZaDyusd2YOv82kMlh9+p/DNqUaSXAIgPKzjeaehH3X24pwdgNHVg0xWLthBmuWB0CwNU/hIbBaoSFQcg75EsRgaWxq2SJ+3Mc+KTx7nlqKVS5rCUtzCD+6Ajz4Ie2QskA7pH6BKnibBGlGOjSoF8EoZRiWHvy458fBh2f5x3b97jHMYE17CAARU8XV4ocl17qRkfrVFQWI+Dog+PiDQ/zOir5BvBKAdAih4femqn/yfQWIZMZqQ2IR51upU6rayHKp+JI4TptJZ7CkNkK9ahzfw5uhzRUrTd82/01oPEjGIYmb+KKxd2EGa8ZUACEILNrs31+NM8zS15Q5lyjtzR5vR4RLtPZDXKjHHYEIP2HjB7lDqhuKvvK8a44w/LMEp7l4NWeZ6MCPCzJ8CEuLDYa4lWlatXX7B2hrJIEfqFZ1v/hh1bWuxLK6pJg5QsePYAbkBM9VV1QlvH7uGfB61T9Jju0rjM2WRKIBfMywPH1qrwwnZRtJPiMrm89mUhksMYsO61BZZdFiShRqbKUDGXaV7RGexLjaGzmeT2BpKVc+G7W0/RTcfGcagPAQWMGcC3094rz2nMvs5BAsTwxSBFVvkdn3OFah3jDtUsh8u4g0upOJH/9F35Ys52/BnhvR8Hjg2upgoLakBSD8+NErw4f3qCYnMzkxPDDzbH5ujnoOgw//1s7NYNUEy6CtNWIYNjn4CmT+2czwxKTGrdavdJEpCyp+SAwWQ3/pSSPiGgQgePj9nEHt5+ZnBiamxrXUbyHo/CRbDAIIR/ksr/R88/LFgp204Q2EQSlM47KZQxEq0dl7bej5mDKlQ6qRaQMZLPQc/TvSk7g+9EKpg7uZiEIKYCbNhqIx8Wmcgidm6ACQQjZ3hyrgpr5kEFjU0Vy30ZzLnWFzLkvFj7vAzIE6+17IbDX9O5weFngjkPtrQuyQohUofygRY8gLZq34mlX6uD4D+OEIwoew0qSMPaaH5x7O3vig29CAf+UMnHGpz7qmRsFgrRheYGaSPLh05i+zg8OK224gIMT7iIYfmMEC9L+q2jgsIAaLY30j58nePv+z00/mhpUkNjFQKD07RhksuHxWnzwaev4UByMV+TyDq7DNtJijREfPGooQzlsb9m/TbSwGq8okHS6+XKjEEHKEKE/KYfJJB8GOC8ndhwbDzirjARBAtsg+hOsG5XJ/CnlXcyCktUEM1hne7HtxhO35BIMlXGHhB0qALKEHdoZy2Zto6lij5LiOMHZt/UvJsnt1l+86g/yXZ5EMPiZnHt85N2qKkUYzcCpIbiU3NzunoLq6ej8q477a/spl9KP+wYFxoqwOk06PtPHjLEqEs/SfV6J7l0ecYIIZrIdmweCf19TH4VQTdh4TYw5B4jjKZw2AyMunoZ/f0qI5GolmM8c6TJTOF3LapH4vJtO0EaRUZrAWTFTh2oIciFTg56hwEysaQzUhv2yHEtYggDzhBxCJwLJA8CATWK7T0CYlBYNVghmsvaB7F5Z9T2e15w/C6WGCwRJY+EHukLoEmR13cHRtFcNTPaU9y4QbP4ItbcIiUU0+/Pivo+ZZ50HVqhg0cz/SBWbRQJHL8yEjUr+kiEHC8aOzRzw2D0N/6UkTlABCMFhnTFX/7lzoLc3D70VibiwyWMdMN90dHfeeh8KQE9uZCIJt5pC5WnT0htRwYxc3U5Njx67yN+aqMBRCsarDPAhiEyOh/GlwcdFll04A2cxHYN1mTfGgloXdnNbe1LKBzWCh7PsJsl6FVah3GkwPkwyWh4EfVxDYtIIDSmYVpTt2xkapT8Uv4313gj78QOFHjdW6jKOPZ/3nzbXLmlsj8QKzufb1I9/NTgWziDhs8GrAR+dZzGAB+n+tnDOzdq01/DhgGoMVDlizE8HeE+xFp8dYYzpH+axR6QvZbns+A0GwzbR0mC6dC5Ia7h+BWmBXudJ0Fb4NQcg+DgThYbBQMnDEHADZIrsQ1BzyZzKbQFWpXz3nMh03GSUjB79bZ/+IkfZ8KT1MAIgPxo/7xA4pGn/xu0nFdJJGMDfV3n4LwSG2Udf58aPX+Q5KSVhX5KK1qcfdZlu1D9VbIwvjFEz25fb1JA+eSG68m6hL0EIQFB+2MvRXM1iojDfAXt8YAVoHIWQc1xgmxRR+pEaFwZJb/8bCEKQMtpkLHVGQK1ILu3sPtKkbJ3ufR0GFoSCRtQu/tjlQQICisY9AJ9JdwQSQPRwAki3a5XxOAsv1GchghW9q2SbDMnW3Ecq+W3Yyt0xyFDdL6WGSwXLA+OHAO6SegTdfKbPw4qlPQyYD2Wdso5xc8PFHZ+0770mtfFaPXFM/8NWo+TZNc2skrpCeHG1fX3Jeqli3YARxhONHH2aw6Pp/N65isLrq1gAEr2/sjob6t6V05Qh25mKqpZCvfNa4vHSrESQDtJnfRkWLjgWkRaXMsxfbtBks9Bxdi4YGnWNqBCm20XP5+S6QKEE8e2uTKQCSKYegE0wCix7k3wqbc7kNM1iwe3eHc8tkklyodwpOD5PjFHtB/EA7pDyo0GHiJmRvp7H1OgTVvokypRx0e+AKGzx+8MO3QnVQa+FHKPkxcCoqmQU6g9Wy3hisoMbS82cXcPdGGICgMSzLDP3vqBksT4jBYqxvjEz6UfyeJx/5ZlusMVgVUWGwJPmNxN7Y5QRyyjbAZlZ1REnQHEaCYin/Phms4DITtwpBkuiM0hG4JgQxNS2mAEip7EG4Pqdc6ty0TJg9AYtXmykMFrLQ53Vm34205w9yM1gIP6QdUugYx2n1CnddqpwGalX7ErAXYsSSh7/v4AIPGT88h0JYfSM65uwTza2RmMH6pH39yRPVjxDQrsFi6f/se2ewJLkxrvSRymOIweJpAI9Q/sfeucVGdZxxHMOCvQRSLokNNtSEmEvsVSWvZGGDbewoUqPgxEggI/GCEsWVUCIheKLv2LRcXG5K21ARE0DQlqZpqrQPpTGFULdSWMCGrBOvwV5jswbbrOtLuUr1+ebsmTNzZr6Z3fUxxuo8ID+w9uzs2e//ze+7Edc7N0seRaI2c6jWVQWJWBZ1Ki9j1FUedGsL14iCUNqfjvdT+RWaaxTKQQWkmxUQSWbslFcpwLqBMpxiiOrKJqWTwng7wUqjBGsNOttIFn2X35Xv4c51QINgXecDIDLjcbqLhOWp0Xmqgh0DsAna5xYVD0ruypnrR9dVt0iScGokJdldNyeggJCnOWSNcA/UCgmWYv/noVJJSLDy0Ic76dWoMD7/J1hoSm8HFz9+RW4zL7u2C9IHJZcBv/ZFXeWWWncVJJ9exjKwahR5TsgR8lZAQHYlJSApL1k30M4m9MtbiarASbi62QkWyXeHQTP4bCNZ9F1earobDQ+vt08FqUf046+roIViGK09A6fVY298Dk7GH1UWuk0lIIx4xDoZemP9NPqaXONBwqmROu2fn+nqYVMTuCvIIUqwkP1fFRGs1XXq8Y3Jr3521NoPJ42AjF0BuNJ2h0qcg07dquATrRZgMFZnwxfYfGzqKue5uAeiIFTF5qQg1SjduD9WST635ATEBrBkqbF7AWCt3YH2BweCVW1vXEN+P8znWoi1YJRF38WlphE0BQoI1hPbYML7yPXDnCG1EBXPXq75XqzibDdiLIAv3qe2TigeXK9Wv6EfBeUmvur6l3um7JRwaiTNxTw8MQXkoKHzQUuWA1cEOViq/Q+wTWZsBGuzqkd/0okAhmyHqOc4WaIg9FvpcdFs1p6BFCSf9aWZniLpQTXk5i6GWEzPtnylrvKgm3uAoe41VQjEotUoe1DKXpOpISAlisA0AVhBNcCqyDHQSrgJdRBLbGaJ9PvKUBMsWfQ9geRmk2DZBhMWIvpxzjZDSgYLj4S51hejpusxFi6yRIfaqfusePy08A3n8CF/QUG5P7XMTN7tu+SiKRNOjdSJLz3j1cfUZwYexE+wyJNmI1iBGMEK4C7OmKW+rcXh9XO4XCoAd3reYfb85o1PBR+7rsMdR2JS51iu8meungTgPA9NyHhRFMtXEKwDYNJTkxcQO8BqRwFWCV5idhwcBCfBglFSH6DunSz6nkB5PgkPe22z0Vvk+kFmSFWjg5faQTx97EwnEJB/7lKQElvdm009thW+4xw2NHvGksUw54SEP243uGnIxFMjddo/P+P1BTvF/ZZzFLqKYN21+pmNO8Eye7RV8Bf0yUGwSt0mWLEQNrWbzBWE2sx8dzcRZRgWE6ulrrLP3T1cyWczsZZKCVYv7uKuHQMBSaMDtH6GAyxFC8Ne9k0xBCvLeMeRr+KMvidSnk/CwwYMMq8gjxD9sM2Q6kPdxtBDdrCRciThXxjqFWiz1GPV2wLxSM+Y8ioMUq4kDQRbD7pqyBogllBgrXL/zrT0eXP8owsepy8mqoBA4kiYanmtg2Cp9t/DEayARbCeuk2wTGoQsoR76uRgWHOt9FlPrcsrT36FWzo+BMtUsZ8ILdUSy1UedPkgRqCksUh2BaG3sQP4N6EseQHJ0AZYWQq80SwmWLOMHzeiQ0T+LIm+J0KwwLnO8dMryGq5fpAACPj8rbLL14Uatq0VWcqRhJ9zzbBAPd5/bZ1QPAyOmG0bhDnQ5K4dI7XY39Ll/c/oMn4IhCcywTLVnNp/O8O6Y3CpW4r9kzwP+yf54xjBwl2cMdz+mklWTDhvHNJn7XaTXkGyU0Q282/u7uF7Nht7ke0kwFUGgvWp2yfhY+PNaZJqlGac5fpM9hRBQ7mogKTMse6fUoAFvyVUpjDdR3mCNXUBJVhbE4q+J1Cef8oscLCuIG0tUv2AGVIBSPy7LVPq412kLFEkIFjb1qNssk+gvv7N13Mk4sHrxz2XDTjpJpjlp2tnetrO+eWjd5HHePOcZ74aWV1+JCRY9xQEq9p2AbEI1hN8fOMYbr9S0a3neVuuF4DzV5BKgQK7X8Fn5RMbPkqpqLYuw3KVfa4fBMgY7T2bneKASnjrQcLYq00BCWsKiCCysIQaLtncqo9iCdjwkHykTbDMbojZMYIVvhTn3SWR8vxYeBiuIHVCgnWdCYCQGVKy5t83exwZvHVW2z3M0DZBnpNlp+r4oPnUl5ba6KldP25/7bYVdvStnM7mYu6fuAJykNXlWzzBKlXsv0eag/UUdXHGaJ1lY33zJ4N+jEMBOHcFKRUcYJqrPaiY5WEdZZruQ13lYfdPIspWE850xPLhjvJrnEKs0RKQMkRAMiB5OoiZwxjAMgcK4llh9tHv6RzB6o83+p5AeT4NDxeYEGu1TD++e6CeIWX2b3nC64d6pu0u8FPM/21Oa6KTIRelM/njjH78wnUrLOxbSXMxOyeufuxqZxPiAmc4gqXYP3nSpAQrfMnl7R9nBz4vngwCkj5+BGt0AWjM5CAHYzOvj8ctyJMq6KhoucqRE+4fxDDrBS7nq1EUBKs9HMt7LU1GQABgZekBLKLv3ahvWOwkWK8YP+9Ax+DKou8JlOc3WAUO5hXEQbCs+wfMkLoP2tksY0b7I3zZWSymoRza12mZKq+XEZDFM37AhbwY/XC/BKNJ2LdSp/3zBFjh2CB30/6zBOu/iv33cgQLOrlrTTEco6PnOsgsmCwES1UAfvmaYF2+fiLuzidDLMNKd9jMvPHx/bOckXzqKkflL/5EdBDXvvlsX9yJWCGGYc1O4ahSNZ4T0mBFcgzrfztRAVlieQ/Se/9+q2gF71XazSZIMARrJV4/Eg/BUiQ399MCB7iC1D2S6QeZIQVRty5Z+4om6MJd3OYUEAg2o8TceFMeUz2ogMxePs1RNvpyUvrRfvrgsbP8OnZJBeJ3CAkWuBJ7J7KAQJPK2KHaW/LesgjWXvxDYQjWA4ZguQ4Pd0XYMZCzJgnBUqTPjuTXyFbIk58XHRr5g67dvCxmWBo9qO6MRH2SFY12dAwNjpyIQ0BWOEueqassJVhXOsLSkwjm5/k6hi/fSZ5habQeJKh/Q7ICMksXYJVmqUoBnQSLlPnMhOIG1L27KIm+J1CezxQ4gI1ZLZYPc4YUDD+Vd97rE2TwBoiceFSNW0HKCmKmzltuGOplswRDzF6cnoB+3DzQ0N3f09zZJXkau1S12Hzfyrka8aX2qwM96nUDSyE72e34/wP9fTfudTce08scMCS92DpVr/+d18glpDYQA4sIwYInrdj+adYSguUtwF2c9rvSdw7b723Yo7X9m9wc4ZmThGDh6bNngjXKld8x/J02wwpl8ZnQ1GbW473Y0eWJDt/RQ1hBwYBd6iofwrv5oivkGxrREpERNp62XFCNIrfWtl5GqIDcQAXEBrBab2ISFCyLRYekd6LfsjVS1ke73PgZ7PSFeKPvCZTnX7CDQYBYhWL9IC0UH6MzpIirzmfwPiD9SfJUs+vg6NuogMxZkoG0wjb14/dakdi7N3puq55D6SNBJq84+lbqtH/ur9Fancgsji75yyKtN34ZB8Kiurzi7ddX64007+U/T0KwRn/PQ5xg9ajfdbj13jHl7n8DIZzUyZTHq1EAPqz33NREdZogdrC4YhrXg0qa/3QnqLUHz5DyMsQF0WfYCdYGnGDl6R2EZ/CK+iDOsc7IdEE/FTnBOkx7GakFJFMWW1hmOQ+RzyW/4E8WwCLaegklWFU2q0Tyo3WGbEui71MSKM9nw8Oj/n95zjmhfthnSMns3UWw0pvYDN77LURAihUjCcmB3DLtXEG5dAId3Ks2ws32tsboj4vdnXoPYTuav7eVr/qnJPsYGgHWWSfx3EFkNasg0nnwEFgBMVZWgdecE1mDmPFWtkEZEKxV0AD5KerifKn5xltVWVx7uXz157+ZiU4BeFT3wamJqkvZB9k+0st0e1CN6O4hqNoDhyFn2AnWdpRgfaN9EMHBQ8qTCDI9VWg8jbYePL0LRVNbkhQQArBCmNfW3hkDWGRSdj+KFmx/iSFYeAeUPZLo+5T4y/P58LARenhDpB/vQ4UIBHW6/iG75QEwX8hm8LZtawFkXoceu1Vx8JBYOT9bb+T4EIry9fTjq7vNuk9gJ06w+L6VOhnSvbp/+zT+t9E1gKMgmDW/2V9ewAkI8EoVwfq7k2AVroNXAsGSuzjd2l/8/nZ0+6fYEPAkEBCNEa77INz7I+eq3vrh+twKn8d+gB0qfPM9q8GLOJv5KXpzCQWFK8JCpBF0A59wjUhNASGusvFeQvtQirZJcBKbd7y3qbR4YcguISNaQZBMBw6lBGsAJ8HmPLmEBQTYe1aFJsBSTMo+y8a2rFajQLBgOOu/442+y+/K0j4fX3PhYb939J/VTv2ohwAIvKPIz1GR5jJ4A4UtpoCgY1gsmvbEuHxgiWVzsy2KqNSPj/sjHDXx+Cpy12//gHsaS9FUJJi8sjCL61upQ7BAvILoCuHkFapfw6LX2BQENcGHrYuuH1Sk3D5HRUWwunmC1bbOBJ1P8CmGncg75z6T5ialV/FuKjqY9TkkWPgI12G+7Ihfme9W51qAKapQkEMsuclmbWYUTVoKrpDsYEVRZsmW6lxTysKXlWH8zY4YyEwNgpXPsxZurSx5a3txRE/HTDna4Mg8oq0Hr+I34U2pyQmIDWAdkbx8N20brJgzNJYEa578rlyiQbDs4WH482/y+qEzQ4oMDGba7hllZy0tLUDb6yCsg+U6wesfl/vxCb1G7pOfNHNsVGSA3rOZqojvvaqNRZLHsBQdWy+evEIJ1u9kLzzK3xQFS5E7eDd2fyjwmi1UjD5cK4syyzZWbi01lQTNIm5kAYZ//vwXaModvn8nwQL5AenZjro4Du+INz5lG6t2VJgfT5+Sa64R1RA8zwRLkT4b5cuORCurZEdIT0G4EMQCxmYOowTrQ9UmtpTWKNJwzd9U5WjbR4O9w6j0KL5Bo5Z2S7Geggyz19kZU/jWg+fx5/At8roKDMaDgBQJBQTYSYkuwFJ1ae1k6nus8KDGkO2PJdF3Yc9HvDzfGR6eBjP2tnH6sYoGQKRM7jy89wo2AHKr3hKQp3iWnJlVUK2oGUsbNabfkmaOig64jTT8XFG1Jgfz5+IkWMYX4GWNDOle/qYoWHl4CMTeMxNuEDYZSU0tWgsQIoz58L0OC5wya+mMbEqwkMSGL9lWvnVeb4x9lQf/x97VxUZ1XGHWxrv4H3uNY4O9NraxXdtCYiUrMdiApUogGhUkEEi8IKKChNKnSH1HqUnz0xoCCRUpBdKEIqRSkaZNugkkapOW9MVJIcgJOIAXB9bhv8ZJo6RSfWd278ycuXPOWbt5WNSJFCkPONfDzJxzvvN936ERrLXUxZ+/Qvz2qb9QzIr51NjNHFoMAfgJS3bk2sDHZQgZpUlQS0wim+9B5Vbw3YUDDBxLVOGpU9S7vQXmuypVHvkQLRlW0N8QWf+ojCAXaDBvBWRIMawH06lUDyOA3DIDSBQAWO1sAEumtc4JSictBEtq5dSQ7Q+yrF2spaSmv2K3hwukPO4HR4z4sVqbIfU3tJgZvmPgV0Orp+LHpw+rkYTPIm/FMVC4WyOcZzU3FXgvqDRzPIdi/7/zex9di1dyrsA19LNqoeqfY/98kai/ae6gPbHSDCP9LY+ivWybl555gRu9H/MVYXBpIlhe50NS9brjW2gEy8iOXLnjcsrQ14veKe0tzXk7XoYAfBLeSiSEyNx7koT+R4w2EkPBB2R3yHqCskOZADBHvkqVt84MwdKWZGXOvk5iaSpFLYZ+Km5I43n9uZ5mAFnopw5Jl6z7GW3uFZHW3oA5mqynQv6Q7bFLWXbfrdeWIc+3BA6L0vq4H36qxQ85Q0qYPiVfRMEWcwjh4OC/p+LHJ4lH1EjC/RTlf5PLnaWiMrzT87/t7m+XWkZsvvrAR2n50cjjffTZE4/wn3AUCar+Gf2l5xn192YGgrUt4M/5YeRrCgS6bYq4MtQTxvenT9plFT8kgtUdp1Kck0C8QQTQe4SKRYveOW9l0sxFsDawns1ITy8tJrd1fAwPKrIP468+CsO6G5jDqFTZCTz9E2ItdASZJEdb7YDZCMN6UNbxG2cUQIrYAJb8k8R4XZGj9SAIlhOgecHRfQ/UzG9Dc8x3UgEChwpB0Pi+FkCEhaIIne637lnB4F0HDBRF/EgsVQFkH6mZDhIdh/J/stOzT2/4aTyT8ew6OkDhNl444mQvBBAVODWSw5C+xqi/a3FHdOv/bYeREXyokxg3qeEXxfz+WLqTocKHQLCq8ugU5wYLwRJrCf4JB0EoKsj1AMKgzx62biUaQWoJT5Q0napHn6Wp3sy9M+rDyEUEkOsjoISvUakyA8HayNwI+eKizZhXQFtnHtN6UI0CmX4AkQBWL4qd6ACWrFKd2d1rMEezEKzd7NuJIVi4PP8L2B4W97PZAycj3/vYnCGVQlNdKb/v/AwyeL34kVilRhKiYwMvmgct3S8tq4w+ORU8dobLK7RR9Gjj+EYavFrPP3jOUP96oG8lx/6Zi2C5E3DbM9NeRAA5CbykGvj21RqClRHnRIqrRYqznUawkj2sza/FA8gZEISjDwSChQvAJ+GtZBzfUTKAKMgixkGwJJO4nfUFw7gd+wVQy+SBVHkU7f7vms/diHYBeCUwNyxwGR5iWg9KGLsrwg4gLfaB1QCs444/KqaHZp52Aju6oTX1NQSrrJ6mbzm675ZrMANiHw8SOEzFZMHTeUSGjzflDKkl6Awp+fskgYXJUhk/EqvFf31LEqfumVith8yFyr3o8WS0yXu1a+r9SV7jSAPk0i2JXi1u4x08kRWcRoOs5VvJ6C8dZ9TfBHfQchwIWITF2DVw0KrY/bH0SbtcqNmgROdJGwBByf4zOzuafgC5BU5oLMfjB2eEaxe8lUQJIui21/kBJMzxoJqE9m9EFdlJkGe3wxyGgWBdQLl8Djz4PkVofgxgHAzrQTUKJOsAksnuBWe5L4mlbAaARUw0F8DCiJ6jyXS73E/vnAjWfkf33V0rf8FvD6c7rOIzFqzSZkhJ3YWzBS7GqhumrZLBmxDrR7yZtnDv54TywyJ6lIcg7+/zV5H4If1Dhtczjx0BRAX6VnL6S9fo+ptCXs/hCJb4EUQTYRwkcWF2fyzdydDiR2ETL8WxsiNkzcYDyOdikFfE9uF7cBGsU9atJNY6ajLVXZgU+2+mW8GXRR9mwQhegXSaoI7MYdQ5cse++3wkVN1kDMM6AqJiPs96EBIxUU+N24EBpMzb8jYcwDqvA1jERPM/gH5xpD6kXJ42YcPWXd13aymp6avs9vBcg2vYtnoqfnwiGiDiyLtLvGOCMbvcYvDK+JE4xRtJCAhD8VIZPcqMSSwie0NbKeclHYOdwuFAzoFA30oOAnSVrr8J5JWjI1mJg0lnU+DzFwIr1pvEX8c3Knx0R3kpjp0dIekzvgMvgpQx54Xo6laeQjlLm7MIIGvRNN52U69iKPj2Jvl9mJU4DnUCnuKYmSrjCFaqJ4udIEohaYyy2cRuVFb61gDq11EbmUEAafUvXPI0KqPLvOxESDsPqrp0aV5WnClJcQQr2fNdIlj+L9yyKtMAIXQX9wKGEA6tzsSPRGKINZJQlyzEPY7Rv6oqywLHKGCsI6Gt31Xbxz51Ii14j40iRU0EyNlfOsSov3fgyCtHR7IVjwLCCWRzfxww9jj21fKkaeaW4qQxUhwrO6JC6DV8B/RapuT/CJa1tlPsI2CGW9VKe1BlwSSWb90E1wM3nQSoc4QjWB1ZbIS4kbMpHchi4+nkCLcH3jJ3oxfj1wLWY50CsJYxACz/130MpefLHK0lGMFagz60P4O7Wh+MYC2icbSDlshAzZoMCTJv21I5Q4rQXdwMYPAOPazihwwg9EjCjzLDdfs9hmp3g8kuU93bsZfdP+O0YIN1sTtvFJBzLsi3UiFA4wMz0NJJBOvsTLrwsgzajWcq30rNSNwHKZsZ2YXsZGzyvS0lVspJcazsiJLg/IMNwDng2pxZDAH4EftWVuhr3kNF+ZVNi6L1Zg6BBZBaExOLKg+qD9kIVt0csBoXxsLS1GAjXgGNwh81z0iV3QjWqIW1GBtR01xSVF49JzY3z3CUGM5CEp/Psh5MY+sbph9AhP1SWxfavJUAVuast+AhbR/M0Uo1BKsDFSA6uu+BtfICnCR6E4oMdO/6MpGkLhAWiiLrH3N2Ww8lzampaQavih+Jz/yRhKhtxQfid5PRox9a6Ye836itlsDBrohHd7YrfuQVhBubKsuLSpprpo5gIw1E7Qn0reTYP1tch5h+/WIMBMueWKlu76LWWDjPB8CPoV8x0paRHhbGS9n21QrB6k7HnjAvxbGzo1br8fE+v9jPg/c4/zaTAICLPgAIlkS3D6MI1rZIJNhNSVeUVM/VqrgJwoRWO0dVtIJPaOFrF0QoB4AC/wi+iY8jaQNMT3WORtHPZmAts8qKWqU7j3w6KUn8GkOTr6wHf+vuqo6ZjLRsAkjYJwyI+za2BwsJKlziIDGOYCWxz3N13y3LWoY832rRzjE8exqEYdLg0JDwIHHvr3yzuwCD93ACBpAhcgSq4Ad8NfXOScO/UocFxNUrRK4QTF8vjVWXlDlEwS+zUaSof2860af7OVyto3gwf+XrSEy+doVfxLhN8t9TXyGUh90xtn21fdLKeSnOPsCVzPT3wAoVZz5izPkNf4SE1qbcjh+cEa6dvGGjythXlsL3CfXDOtPuTr6ZX7KZxMH6m1BeBv9x5/1vQ8ik1UyVv0TLhY4Iq/ysmatwn58TfLBlelTUECw3r3M3kI/QAaTdCCACO1mWygLAklvzND9Hk8bCjCHbTzu674G18g6UJHogUOCg4bWl0jbvG0J3cT5oCOEqPX4kLgspwTAOmaSbxtv6Tb545ogoCu/7BAgWRHwtjtmDcTlUpMDJK5z+Eq7WUU7WCPJKeGYW+V9xC1eyr4A/gvP9ATyPqftbQac48jxsiVDU2xJ/92/jm7iezINzC8HCBeAfM4eNyoxTiYnus+3cI3Hag+quuztqHcENeB0xAcmI5UaqPIxDXwysRaWXsqeyl23nPvXgMawH7RONBpB7JmMhbAJYAywAKzI/hV6xX8McLY1gqSHb+7OsXazFkOffDBQ46DVIvTDcI3QX7wYOITTiR+KOUKLVUiMJzwLOjZ6zq1ITIZ6+IxogHRZ5pKCyDJXqu/X1gb6VXATLXX9zuIOWjgQ4DizyP/99nN3QB0XAjXR/zHHSGCmOyI6GW8gaWeGH+CbqiVZDjiNYSnJwAn1vF3NRu2JOEx0AN/H+DILlfPV/k3Lw+8Fa6F+ESXZFJW6QOkej6DzEEfocyVXtN9GH+WyCqQdGqVHewLnk+pdkGUBi/nVztgEAgEWNibgFczRpkC+HbKdoBKvlu0GwmqwA0l1YONiL6y4OCgZvh8ngHRwyl1Qy9+LDiwbS01eDevo6hfc54tGrhcS/4sYyQhT8OlvLUcfsL/0Cr78Vd/Ddgez+3+Dzxd+O8yssq5q53P6Y46SpFOeX2WZHcFX5nLqD7E3McRkhe4RrH5e43OBH4Qts4Ka/n1TwTTr5/QEtEO/VTu1FK6pemKbW+TDNBRTBYmAtmnKtPUnQeEfMb8kLcawHJbK+CZC98ACil02iyNmQwlKlswDAktf6ONqTMSa1sBGs3czbqSD2M2h7GEGwZoWqvB7Ij3HdxSXBk1ly2Y4fg+If718ZIwxyJKHIOHvhtih6wXKi1NyTDFI/1c2jKJXjOIoEfStLGCYkONeBxR0kPDOVG9c4jmDtML0ymfbVu4PuLyPFkdnRVvLVr/ENRy/yNzHHp0kxRri+zRw2ml6qnfEKG7gpjKdJPm7+UxcPwWr2j2DXU+yKyvtREglNoaTbUSbWMku9nYQg5anfA4SjgWM9aJs5ZBdAKry/o5Yu9LoBAIsyqTsK1VHpKBD1H8kX2PhyK1Urn502giWOu2yAEER9MIQQLF9IIBBKNIB4RdHsINRHTN8Q2zqGaNBvBwkQFtKiYCeG8lIgiqS4mGey60CbjGSCO3iIcByo9tONm3yhT5GJxJ+ZDoK1EUewHNlR4I1fix8uaxNrch/BIka4TjCHjeo9kF4CuBk2gJu4F0BwD6pTCL/f6uHjo01kRbUSHAf1l3//f4NgyctMCFJkYbVY39swbT0os0hDz0gGkKR2bcL+bRs7gCVreojajF9rK0eTbxxjyLa8nS3k7eRA7FaLtimgKFw2gieq+0Vl9h9O+CjsFpkSOn4VMBiqTbz/CYLCKxCPFFAQNjJEwceyQ5EY/aVnYCgzX/+Ynzge5etIQA9RoUkvOQ0CdgEypvwKjn11MILFSHFc2RFcCsTYj25iBw2k5Mqa1gjXSlKXKLwMO4khGOosdheSCNYExu+HKCQ+2sSqqAQQpc4ujmCt4yJYMhKsJZpBUJHSyvHlkX3Q5RFuABk3Df0a/HKfD2AtwA1Erlg5WolKKfHuyRtMBEtJTf+ObgtSKzd7e9sj8oerzkGP8ldf8rV73fFXX98mnDc6YI2DbDQgH1F2J91DJ2W+Dfzfqhmi4HvZoUgc+2crfzcRrHoGd5DwzKyg0w3bbLluFvP7JYEWnjRGimNnR8E1sgIxCDrXmv+SdzWxUV1XuAYbMwRswDY2P8ZgMESxhTQjeYEgwWxRpFbCMhIblEUXyNk0UvdRNDiiQFNCq9IGqvxQSCklpEU0ogk/DoZEBYEh4BQshAdMbRMsMISquzL3jt999++c7w42zqhvnYyHee/dc853vh8TgCvcC4hwPW+9lWSAVnmEA/YxcU6qE8l68jMeVE0kv18HUZlok8cuKrp6dhkEaxO8/5oZ9fnddLRv/OCtB3x5jCiQ4AIiVIGNQQAWBy+fNLOG60ynjt8Hbt8tejZAEr1Lz8pSRyiO/MwORnURdP2KKiB39Sd3mY13EBuQ/eZ9oI+cBt4N99dOFGkxb0LCcB0Q7uA2BsGaDZA1LASrXt+PnUmH8TyAFudWMIIVIEicVtD1Ixbh+nHQecuQV9cxwM0D7aVKZVMlaQ+q97ntqKXMehQ2Uann6DGZIdIDI1g/qh0lxAx8jCtSJgO+PA4vCr6A9OgFRLxsd/ZQrBOtUXqdfjmHTXJ7g0KwaGdYFF/OC8HSe3UBsoikAQKLu5kJLyCHqAIypM+YU7RZeTVJ/sndaF0CUlGEiIJPwVqOKeB+ydbS2QiWQBH2psP+trpUu/GJlyBn2bouAb+/50kDWpyTZo4dhWC9QpLq/hxEwykQBOu1sUSwYhB+Nxrn1JxV6W7gEawVvBZe6XDfJycqiwavnqNuEsECkNCAdb6tSKkGfHlkqvRqy3LrBl5AxEnsbVMtAItj14gerdiDYNHZRl+bv2odNyt7SaK7rTtbYzWIrRkG5zgYXj8oCCqdPqv3vZVxtKmVic8T40JyqaY9r0FEwTSCZaVGItWZ1tJByCvjmanQpBv07G2RMSH76v2u9xdocezuyM1hQAC4q0E0nAJBsGgB+AVG+mPONNkH6UVaCG7GOWVNMaUH1bNq4ZUOt6kDjhRcoD27SXps4pFQbZ3fFjSKPf1xAV8eRx6QnHRuUH2sVkCWziVPmfuW9xKT1nbW7NFKzC77i8Dtu39WZhCsNh+CJUuz+IffvpzmjENCLtILSzadbZZ/gnr1LjH7E826dtI0SBR8juR/W1oOtV8K9sqMI1gM8rqD8cwE2g2PVY3qLjrTYZsM4G/eumPm2E33I1g0GIZKngoQwboYdN4yMw0jBDfinFKJRIrxoPoGRLCAaBM5Uc1zIVhrSATrYi+GtWjz+Et0tq8YxZLxwQrw5XFocYECUhz/r39GCumOWgCW/EbvhCJYVXx759u+mxdCEiVFBiIVfb74d9zZTR34t87cDbveJuuHpM0q+kdtrGMXXROhmhA/jh5C0cBRKhkqklPLgeyX9tIMEoW87sIlEAsdb4xoNw76PsJtVQNJUNybDKDFOWvyGOqIF54G4D4DCSOFciERrtZ5W847ozBCcCPOqTm7Q6cVfEEIViMZbXLBaQinnt0LJOH2dfjmC2eU5b20mft18zMbAF8eMwokvIBIAMvXpXbdtqQH4hv5sQnxhbQerVoNYWvInUOnObt43k6AJPob885qbI8pkUkG1fKPw3XAOH/KjG6bmDQvmedN6YxZnCiYoSI5USSFAN3HN9ALraedQbA4z0wETXILfSD76uMunodSLjII1qpY/Ii7iMN0rk0wiPGDv4AI124wbNT2IvDLCN8d0CD8bK69OKGKceVGPcNizAfBagEQLB4J1Yrz+qBRLPts8kSOXEtkBNTP5QpI0gSwhnEAi9FZpc+Z4mALwfoycHZxIqMMSfQeNSvXq8J5/7nWj/RNoxxXRe/J/Eay287hNZoIvZ4VBb9BEp3dySsKAdqPb6AnW9xLBsHayiyQgXbDY1WD2Fe7Nxn1WUPf/5B/U3RHyWvCjj9FzMgAnQsljBQMgpVPhOsU8iOrIhJvYwcY57Q2uwKhFXyoFn4RMP4kXVT0eh7B2t7r3hOT66V2JpixyRjvagHrQSsKhC8gN/QCIhO4feKFr2wASxaBP9CQWquldKvinWHt2WU6Myvnh2BNF+2hyJC6cev5FhChPX7V+AcqByHCO/aQhdeUFHGAtKAi3bkchCIh9s+Mlk4hWFvzXiCrdmOn7yMsq5pJVeD3d24yamaXZjNF6BZHdkcpGT+SeFpDSjgEy9sSfBVGwykMBAuJcMURrDm8njunp1gfQ7BSjIIP1cJHOlx/tIl7olLP7nkSwQKwljgeLYCljN/LffuAURgXAL48VhRIaAERs763Se3qt70zGBuTLitruNrgVHvbuzMmvlzCcfv2kuthT1hFjTBckBlSO59z/RC/fqPRuS+L1t2dISv0ckwUPBy2xEX2S7SWLpbpF6gDd0m4QhEsyL7a3mTMqRwZyY4VLbQdsuqOZKhkonZOjQ/BYsAwkDBSMFc+Ea4MgqV2CYR4Lqk9SVkEax7tQTWX5vfbCNaDjqCJCpEfBiJYCo9uQkex7JdBEKy9JpgLFZBoZ7IyGQpgydXBdzRU3267BADZRsPm7OJGsBCSKBFWUVQRndfUgT1O10Ndxjlbay+4nlnbGVSCouDjvo90J6+o/dKxPLV0CHdwF7NArufbDY/QB7KvNp60VPMvR0benJli/2aXnmO3tvnayMhISb2bdEkDcChhpFCuMgDB6gtDsFQusX+X0PEvrSgBCNZ5mt/v0OF+T09UK10IFi0/fBfEWmyC9PfoKDYazEj78uQa09fyLiDiS/WfoKAKM/x5LmlQLXs02+cSyDbyzS5OewMGYncKHGLQ5iYmQ2rcLlGSl2q8U6URInQLndYKfTJGqfRTkZwoErJfOkkzSJQJ1A5cR7LMgWCJdsObM+y2qoHsq7UnLZWFo96aMg1pcazuqGTyz98cGbH6aACA+9pj11CoVzmIYCERrvEj/A1G+6BL2xWC1Q3vvSsYHW7mn2ETlXp2/0EiWJvhm69Ymn6Tyo6LPUaybh1A5LCjQMIKiASwjgcAWJw07cSAUxwsESw628i3fffPyrvg9bCalScLdEFkSF25+fwLyD29bW4Y7VjWMelH9832oq6IBaRpIIpAsBj7Z1pLh5hAcSYewMLMY1WDSFDiT5rMp8/OXkh8o7M7WlLtXP4iCNb6/28Eq7aMbYKEP1yvn4P172LthUokEpyCL0mHCNio0YOwSEEYweKxFltU1Mc48f7EHEDaEH9W099bFJArAAovAaz7IQAWk8EhZY0bPQhWI+nB6Nm+OynRCILlDKuoEq25zJD64PnXDwncr9Ka/gUR6PInulHQAI9FPKWSpiK5k1cA+2ef00D8aWeQVy6TaSqAlboRLHWOvZNmNxmpZkGnku8vYH5/AsyxAwA45kcsPAQrWnwxCNY6WHmvoNA+BviPI1jNjAfVBaf3iIfFuJlHsCwqunp2vXPTRxbWQt98NdNcZ+Qw8Y6khPflcZyU4kpSBeS24q6Ig6Lf572x3wVgLaeJPba93VQDzhyk3875rEc/gGCJBtc5KxdVRrsBwqZpHK9L+m2uyIEu84vJnbOUtWwwGUc0pZIBopwoErJfYtQ6gAkUK4FQaNIeUpJpQdmQicopGWOYLR+J5tRoHQBanCEwxw4A4Do9dg0FjWCtAyJcV8LKe8Vke8K4d2yKIVhr5f9y4Vm18JGhmh81sieqIu3Z/ZYcFtrhm6+MjhoZFWGTWQmYMdiB9YcUELkI8LWop/ot2J3nt+yzklqqDE71EPl2tvNvp+ox/0quh52zckP0nFNz3Thef9Qr/swcX2oVQxv6zk8KyJPo7E5eQfZLDIIFcAc5CYRCkwZpBMuCsiH7alHENyayPFz1/iLxjYNYjh0CwIGSp8JCsMYywjX2KxIrdKHpmPtiDMFKtYwdgrU+EMFaqD27DIK1CoYTFkdwwiNmhR5/H2YAXkDS7O+V0vwKyMpiAMAyi5M4uY/iCFalwanecjpwdjGvWYDB5FUfgiXOl5dFhtTgzQkpIL/Vkfu6XG1dw5iPD5p4TTkoCvbeqmNOGQJg/yy1dF4GCSChs3UkdT4J11Cg0AeyrxYI1n+vNafi7y/wN/eBOXYAY91n11Co19hHuAas0FfEEKwEo+DrJvj91qFNh/O6IwUBA60Pt2BIaHyFPk+s0L3B7B1/6TXHu9qIyPELpjFty7OASACri6LamAAWaw086Pa5BLKNDritud0LpXWBOQu5WVlkSMn03v4DE1I/0l/qc9akHN4hIJ+/+WlD5nzKOOfUjq4f/bfKKUNA9ktnaAaJyvT7JG8JxMyo3dhH6iotq5oyxL76tKgDqnzIJ60kCko7TXZHQI4dQOdCJU+FcqnFV98YRbjWZG9lS7bOZj6kmUeZeTEEq5lR8D3GRnllCOePNnFPVOrZPUwqGTfCN39RVEm5UC1NzpFCECwrCkR8/dJiroCsHh30vWR5N4DFLUf3eHwuF/HZRii+rEiin5LrYcesLDOkRN0c2Dox9SN92Wi+ZwnIR5zZxI0+bv44DTwgTVOp3CiSQoDuoRoK47sgLuycBAJBk9xZvLh9tfmkIfGNg1iOHQLADWOEkYK58olwpZsgNUQ/gJlHTwcQqQRtDFNuUDrcB2ETFWKg1RSEYKlKSq3Qk+ZnlgJeQPK81vJ4F8MFZB4NYA07ASy5oNoWKA6OtXf+tAwUwZrEG0z6bDKWRegK9aOO85XR1zNLyqNH9R6j9mmFbZMAKtV+pwxBIUBv56nWQRCsk4wEQrUbeSFYnH2180kD4hv3hOTY0WAYKnkqGAQrWnwFRLiS3pHVk0YPYv80kWMetdoI1qNn1cIrHe6TPBCsdvI7HAaR0PhX4SrpEysU6gXeetARBbKwgS8g/fJPbSCzMETLq91uaKnvtrdDso32eLbv/ln5HtlcO2Zl8b+u6mUUe+N93dbv9DRlk3aMPvMyy9H1IwJEOWUIar90O41r6TzUmYN5L5CjdmPAp3BNH3GaEM1C7KvdmwwlGzsV2h05ESyaznUOJIwUFILFRLj2uEgbwEhD4DbdekkXHKzVpIIPdHNEok3cE5VCQj8n0aafojd/SVRJB84zZLQfmwgWQ+RwRIGUqwIySBcQyUT6zEepdQNYnLnEe5a9XY3ah9HZRha+XElw+8SDdcT3UUfds3I8Q6pr4gqI4aZfXjIKmA9cplUgTbAFBEBFcssQgP2Sz2kgjmC1AAhWMYJgPaTp69ZBgEhQ3JsMJL7xSkCOHQPAPQyj4fzgL/VWjlGEq4KQeg8zx2ZbLEoqkXqZR7AALbzS4faFTVTVgGlVI4aEhlTSv28xq/MM4LhOdw0YvdQLZYvBAiIBrKtkj5i0ACzZV/0OR7AqFKdatneX4VrofjtrAJKoO6yiTGVIZbZNXP2QP62i34iRdyXjxHvLXOoAQdI0Fem4U8uh9ktH8tTSIS7snARCtRuXcPp6uf6yHQmYkqdiLc57FkrA5dgNPavkqVAuJMK1L8Q7Usi15q9mfHiv68emUBGuGBMES+lwaQTLWiI28PLDby0kdAlXSUUp6/2cqaSbS80CQhM5clSOdm2RKAtID1dAXn2JBLA63QAW11d5xMFItpEVi+URyimD57thAgd5qorHi3IMGf/rqpafVloR/a5E07zbvNE1mCjYj2A5USS5X6Kr8xDNIAFMoDAEi45S/NR5ECASlPQHzk1GJBvztzgoggUw1i+BhJFCuebwCFZYhKtKQurZzmxANpdqPli0gq/P61Dh0eH6ZfXuiSp6dgc+gvMQqZtfI7C0JqSSZlrM+sEiWBaVYzZaQMRO32sl5QOwuLZwpyepZXEE858lO+L2EATrELketu6seMZbByYgQ8pFH1INcF0ENxHRiCcNwGYmD0jTQJRbhjCbr86Mlg4xgfofd9cWG9V1RTG2mbFx/MLYGD/jByDbQvJI/kC2gflFlkDCaiT/oEYyEsI/ICHxiZBtSgtKBEmVtEmhKSlp+kiUNB9NSErSAGpaiaQOTAuuBWMDLlBqB5uf9KO+59x7z32cs/e6M1aj4XwCY8bn3nP23muvtXZYR1JjMCFiEKwdZgTr7mg0nkcJb34fzo64OXbzOIIVfwoQLFoA/iSKd2S+kms9ZihYqS1eBCsGIFiTIIK1B0CwghUVYqAVBcHyOIdHiKSOD9Ywky3LUSB1vvsaCCAzY/aKDGAJXrQ5LZRnUzOpxYX5xy7BPd1qplaexkUGFjYpZ0h1fyczpDQpvIr6K93C6Dhz6e3WpOx5paV5eXlGovOxaDIEIDqfpxkkiAv754xnZjvvuBaeh1sGfn9DJ0PJxi5HzY60yTNN5zoPEkZyCsFaxhGua1Xa3W2sAMbfKvBfN8LJnfagCis3ShkK8RO8oipZ4R0DugjPQ6Qevsc5nIukPsbsykK34WAWl8lm8QF/LhUhgEybLtLLBgBLQnGPIiBYlYG09F/kjeB9HIbTCZBEtcMqKgREIe6Wmbe/0/ghd1dtbtJFW88xsJdnYytryuKHVlUdOfqNvY42rTlcWVLqEQXTVCStDAHpLzFqHcAEipVAAGjSe9qLAMkupJAzdH5d2ZjZ/P5hhDl2DJ3LZNeQ0wgWLQB/K8IIV+lXJ8I55YIlCFVdG/0IViep4AO18MhoE31Fpd7dU/A8ROLhF4vILAJllzmSnkiF5ORrkIZDeBRIS6QAYsp4P70TxICciLaLHjT9tsHnEuhbvBvEzAyns8qtlT8gwbDgsIp6t7FJGAn/f9ZpPxzV4/xGM8RnvB7w1jhVN24csZcdSY4UrjpcFuepSHoZQjWKYBnrb8QEipNAIGiSXuiDSFDCcaBqBTS+0dTf03ooDUYUJLbkdgBZ3hGupWtcVJfC/f8+6b/+ElYLnVbwoVp4ZDjvnK6RhxhodWJIqIgfDe7o1NTvuEjqG0q7CvACCmftVi4lVAWxSSCAPIgCYG1ALCLuGnwulV35j8mcbAd7OtcCJFGd1V9czT4hPPZGL/1mGdYnTAB5xcbgE/Zr7wT8CaBvImYfLa2jVYfilcVrPdhVRXH1oTUyjlgG5Ymt5HaHJq+U+xGgD3AtXWtIQrc5s4mVYROiz2gEK3QRrOGzC0McULKxP+LZEYFg0XQuVJCYK0shDN3R7lu9JlGEo/4Uo5yTP9GjBEpaBcgQj2Dt4t0cgdEm+ooKMND6K45g5a9Wo1OJSuyjdHBvY4UAkcMemrQrcBJVADEmQGkawBIQdWDGYWG125e9xpzNsM+loDRsSvHuh/0szaiFN5j8m0Zk4KkEiRlSU3fd7lA2a/YaHUCEju1gsuh60g0gdXTC6gwRsYZXXC9aig4N5rOcH19lBZl/0kCUVoaAmJA8pBkkgAs7K4Fo4tGk01qrGkSCMvqxrpOBjG+8C86xAxjr90E6V64s1fgyFgwnJtERruvEO9QvupUFbzDEo1nPldGzVIDIO/MNWLnRyOhwzQjWoo6K7jHQOoENUKQefuVKBZsscJG0w3dftwNEDhvX2Bs4iUAAEUwko5HUeR2AVaKSU/OU0ncMPpeIXbnV2ZzcxO6qqpU/JlsM/lp5nZohNfNTZj+XY50kA8iUiPtLZYKdN1kvKyeOF1n7f53hFTQJq9pCub4la8yLWhkCggBNkAgWYgJlmlgZVpBlhGBx9tXaMYbF/PjGcHbEIViPshUk5haCBYxwRbwjKwX/tFcke7OE9ZNEgjw/MWG10JcHwUIGWWkrKsRAqxtDQlesE438OtkJ6rzHmJik+30aEIDIYWupfKLKGiyARAew2lVyNz0aGcFqdhOUKySfbACbsxAVwWqXVLiDY3QDR1ISlmUxg0asCL3V8YJNLtXdMu2nChfR19mbgMw7Vax/KRqKpPpLRgnHqzT40gxwBznPTABNMiBYiARFj2Ap2dibcHZEzbE7SNK5XjXYNeQ0grU8I1xrxDOM7U5xvCOZyKe2eBGsHvvOXMzWzREYbRKuqGp87+4iPg9R+/DzWoQZ+0YB/I+lzpo34lR3iMIbq1ZeQBfNR+GDYOXS5J6/WJoKIFYL7+ZUFACrtAVJ7kL2dmXBxvdrpMj3IFvgxnmZ86WQwKGkXfXkCK2epA4sy3pAB5CbXg6nCCDbuU+953/1myBRcAQEKw5GZ0ZLp0ygzuM6krjBhMiMJunn4SLfXx6aATOCNRU1O9IhWJsAOtdmHgzLlaUaX8Yb/y+Qd2RJ40o5s060xynnDhkLfJVkz9JBknfmL7J0cyx1WYwFNHF2nxbBog20FhAktKJSmqq3dcj48RUHYPlNb8sRIof9Su8MEqtlAJmlPvv6zNi0iSd/TgtgebDtF43f50daezv7RhPy5pv0uR5mKRrlvMHklVCtnK96ctQMKXGppjZnufZztYR9hU6q9z5pp29U3SKoyUr3YPBfQInO+skriAnJBMkgQVzYOQkEgibp5+EiEhR9JwMY3yitU/g5dggANwGCGLmy1OXwdRYjXFubC22x2fAsC/t/kQpQeGMJqwChFXx67xEKwVrAK6rmFV4DrTl8HmLo4eflr1pt+36Iq26sgPBQlKRgv4tirBggcjjv4frgdsgAQgefW6enIgFYnpthgmkhaHwu1WwKc479s0BSpjcYaAVIovPBJ7uhwW2A3DnHyPvG9iRi2a02QOku7r82bwDpZQ3mr/kvvsYKGpCmqUh6GYJCgIx9ohdDHei1EU2gWAnEBh5NMszDRSQoehN4JRt7Hc+O9E9AgRgf4puY2whW9iNcK4pbGsudv9lTO8biV/fEY5704v6ikt/HI1iAm2M9j2DpKyrAQCs0D9H/8FvLmuufcUb3yfbHWPc/iJ24MRvkk1i1cRPvBWRb+vSFtqMRCCDmdUULYHnEtffps6mb1NLoAuMv0NWLpyBtrFlbUUrUyg/J9rDvyRYmkj3XR0jnFqsEEtS0kesWBTabALIR2HmvqMNTgZDAl9ig2vWeuS9l6zImOmtlCAoBmoimodCYQJld2DkJBIImvam9CBAJin6MYV4Db37/IMocu9SyCBJzCsGiBeBnQqSNypKSkvyy6pbmZxvrm7zjIjpsGHhxnGuA+NNu69jKO/NUlm6OyHDeRV0TMc8dA8ogWDt9cFNJSXF+ZXW8fUNjVYP687qdBXIjOgkm2vgF8Y8623yAUStC5LBTuW0hSlpWAUQCWCNBAEsCu+LpmG+Gkyafy0I3KTMD4y8FqVPif14dWCt5g8kvA9hkUggnvuV621Oit1rbJnUW2YSQSUb86XJyvQFkPQ98iS/Y5SsNm+o3tMerK/OLSzyrne9Wva/thAP9JUZLh5hAcRIIBE3SWtVAEpQw7Fvvk41dw7MjAsFC6FxPG4IlGl9nyft2iD88/ftk92NskowfsgHiH99axHpQoW6OylBtIVpFhRhoFQSRUAOQsXfADqRdp6JVYlZYBIgco7pRINkHkHl5jQYALAjYNdjbLQX0mMMKShMYvygJNwIXdAQEK5EUqruepHRlYxnRs73yU9evF2UeQgoYSaAT5HZ72essjdf+0FjfFuhL0ERn/eQV1V8yRucf0gwShDvIOdoCaNItPYJlff8EZ1+t7WQo2djpyNnRChMA90t8EytyH8GKOsJVt9Zv63JYKHMU6j/+tWiA9Plui2SS9aBC3Rzr+dEmZ7Q0eMBA60awAtatusGRlL0Rk4/vRazEYs9UIEQOG6vpDL/Skj2c2dA9CWD5JI2x8lIvtvchTU712dvle/JSAWwQDGDZe+kArkeaJPrpmPNkZS0h1HptIj2avsgxeN07tSeLEML9oqO2W/AObwCpAwL+I0nIGAb2iEGwtDIERMLBaOkAF3ZOAoGgSX/WXgStVr7wH8b8511dJ6MURbAAF/BlpHPlylKNLyOCdSFEnAghv/07Omad8FFAlh/j98RxTm33/YAe5840K/hAN8cKYLTJoo6KjhhoLYQv/GAY3T1U69I5586OR6zErHoWyvcl3XYo/B5mEUDen9EDWGpnzMdi9HgwR3N8LkVht3GWuSFl7Eod7OWqENpg8r7EJmXt0ZOM9fQ4yWX6JMfgHVDc34QVQjLrp1s5/B16n096wceeoiK7brlJf2pqXr5UqaHt3HeggSi9DEEhQPcz1NIhyCsngUDQJO0s3tYq64kz31/fySgDTBbuRHUBjyBIrMztAKJMM74gmUImBKtt8HsH+tKKA59euEremrKVEbB6TSRYBR/q5ggM5w1XVHHQQCs0D9FbeGzfM9zR7VEDdD+hN0JXicXK82QZfIDJ92VC2ht+D7MIIAYACzphkia0Q+MSIGilLMg/NeG8P33Pb9659/uDvfq1l84xZYu2yOmFJ61CQlynJMdpPpzSZBxCOFtEh4az3xdArE+lp7AIsvRm7do22MYhWH+KJkNQXEwjVe0VAMESPJjPR6P93zoTotMkguUX+hQfPvKNVTQmOhlT42ndPFMlGzsOZ0erORfw35t+1E+Cm7g6txGsGhTBOrDNvzYPHdjVMdDV7ZdQpec+om9Nm7fqF87FGngPKtTNERhtckFLRQcMtASCVRvYiG3D+0ae29rXmfLvRAGNXi19i25NJRbLh4gc9jHyso0cJDXzAPKlDsDK89HazBMrDOJg514ZZHmqn9zEhXrGHFPYTHW6AJSwVxtMQ3QEX/CTbbmlKBQ9hIh9ojf6kpdFJAOIQG9/xTygW4+8jlu1fVufG9m/eVt4DdNtohCKVO3cA9khWIALOyeBQNCkz/xCn0QyaTlIHkkmePvqY7o4oGRjd/DsiJhj10abvj1tCJZqfBmv7rPwwe58/NtxKH4M+NPu1Q2uB9XVLN0ckeG8j3VUdMRA6za6EanbN7iNkPEjOHRjFUbksKmMBzWHWQSQTRkEkNdmwkwoC8DCpiz8Wmtv5yaVe+nEVFyr8/B7dp5uDycTHn/nLbXk7F6Xwft8OBZkFEJE/slMrEp77jER5CTp4zL7jE7ie/QwmgwBMSGZJsEXxIWdk0CUAQiWZ5qIRCqLjq6JtyISFH0nQ9XXD/DsiEOwrmW4ibmJYMkRrmdoqJ5d3Qtc8eHGj4IAj+lZXsGHujlWowhWsJGHGGh1QRuRnlu8Og7Gj0Al1lQBETmcnGi3phmZcQDRAVjNsEfdNeOklir348eYb/CDf6ehDZ4HbTKWkvtknagIZt7hGby6aJBBCBlhLJSdS6TPF0B6WSGIvV5+BAaQn0eTIbgDzMwSjpdpNyjAhZ2VQCgUwFjrynm4dQnJz7a8ictQCYp+jKGqr0/i2RGHYL1A8tW38mBYrixkhOtX/JXZefvxjfFxOH4ECF2NG3gFH+rmqBAsIxPsD1oqOmCgJasgchXMLSyeATbif+xdW2xUxxn2YuP12gZje30D4whsDLKRpbXkByuAzWuLhKWiVuoLChKRIp6KZIlHC62BhqCAaCBAmpZSgYA0SRspRSEJiIQAjQkGY9xixwWvL+sLliuvXUVKpe7Oucycc/6Z+efsOZaWdt4iFPt49ux8M998Fx0/OjZZT2KFOCEHpwqEfgc3qgMIl8BiHMpvumCwSNebRo2fkz7El1P9fdJI9dHDQm9lI4MfoWayqRZGUjIKXmCk9rgK1sLm7f9B/KUpIidiAZC6bvktuiEDnZlFpHZNqtkQMBYOsZcugOj04zVWWkOIxAyWJh55ooOHsRBgnj96BMIBahuLudgdKRNwvLiGjGaw3pA4/xJc4BiINCZXzJ6JQ7gB48eqYkQG1ZykBpNlsIiKsUr8FE0QgyUJ0Dp0vYo3E0M5kSSILv4BOREwfpCvMkbIod/qdUCRpi4BhEtgofJDote4OZeBoEmSnsM9ypnD127cmZrhjd5n4g3uXroyh1oIpSKcSZuCVz/OFZuj8gCh2GuKKouFoyy7uiW1Kd6LuM1InSLia5gU6uB2sud5F/tpnf9senJwTAC1fR8JbQhb7OeIDSYD1OvSS0e1g/zZ5lkgKivKirNwbJLGYP3Q0mLwlBqVjYqvduBArsU2Nu1id6RMwPHiGjJ1UIuxyPB2/alz3H98AYsbYvxYW0szqJ6nl+bIBsLNi4Pk+QyWKMPrATARD3s+fEtxIjj4kYsUckQ5VSDpAAiXwEIFHHHi7Uz80f7/y1GfB3s9nFyYQ6GfEqf/4DMFBa+TWAnkd3al2mPD6wvLoPCcQEV5Z7iLNAE+CW1vEjYBMiuZsYokAaQ5pHnlxxX/3uHb56+cOgaMyxIvdpv9HGEyQHwLx2nHDXQxHAJ1D38Lr51hAqRH8eDBru0tySFmk0jYcpVjIcBYUGAcqJaH319T7rE7wvtRp5ByrpeJwfJswPiRhGCEgw9Mz+UlyW0RVps8BqXoiAAtzwYHP1KWPZSQQ9/IWL4LFekByBSXwGJuyfhJJJx4O/MV0wwGH/uMH+fYTzaFHy1kXz96Qk3BG1zhTJmqLC89qJeQh3M780pS4TUHOnNLw8u7uvQ28tLcZvP+7ar4QcfZLUzyOZPAIxMpeDZAG0KhyQDNqt1AK4VAcS0QB8g8Hkwh8JPvxGzSHTDWFRVf/TaEA8UIhcgLhR67Vk8MiRkzaGjGwlLhx1Ybfqxj1ky+/gnJYNFAuEY8g1WKDNDyGT8KarFCDr3dpgHEU1cAcn7UfsWUxNUKm7hG8N28y8+5JNSGtqye9HltZE0GqQuQkNYGeUtVwZvN2W0dKF2ulY5bR1e4s6QiYEDlTmGQLPOgxtsc0gwnO4Q7V88GbEOgDNDXah4KpRCodyUWiJKUIUzCYMF9uBgLinbus+NAiTz83rk7kvXYTbucxMxksCQVrh6NiecwfoQDmAyqC2D2CIfBakIwWPZLREyAlkejB8YPNsqqQ7bcwlUgNgB54QWBxVAT30gYLDjnUltWd0soMO8211vNC5DQj9J2p8uQgrde+JUJlOUXre/s7DywvqQou7C2cqXVUoURLGsXwbvNS/qQuYhN+g4gMItE4p+rhBaOw2Lyhabd3FVlsIAQoqO8H3ET7sPFWFA03YmdwaKim7MudkdOBqtBKDc8zItryNCBqXD1ZvxpDsaPFWVZaAZrH3RnDDBYRGzLzVC/DkrREQFaHo3FIRg/6tFCDogLyLe+xnVqACIgsAg1USehJpzxdoW2ZbUd0bOU7jhBP1lyAfJPYu3sG1ZU8C53+50mx19tFy6BypMG/hONV4iUo9fliAPvPRoxLoO1yyMGaxj/u4uAECIxg9UL9uFiLCiaWsKu86Aep0H87kjWYxfDT2JNZh9AEBWu3oz7ERg/lmXjMqg2i2swLV9hSbVJApKiYwK0vBm6os2BH+EAWsihJwrtgPdELgDkDJ/AYh5I8OPuCXIutWV1zZA8pNaTzXUbvQDROqTOKyp4CyrcfpsqgzjPvc5ANmkuk9TD0gArn6eIY0NYZzJAt1x66TDawXckFgjKAozjGaw8rAXFiQM1Waj6xmejqingacu5MmVgKly93HU78IN8/EXyDKrPwQpO50CU82qVgnYGC2M/9GI80J0kezYBJzGrkOMvshNDG7yRcQEgAgKLOZeflHw3OTmXxTQiip+B6B2D1W5egBBDhlDKRqq1LddhjnRYlbEyaF5FS+RUpJDjDcOk2KIBSF0EAT3pDtiGYBaY8U+ZR8ReOsoiXFP83TYLF2EB3uf9CGcfbq2FiReckmGdB2Ww3kTvjqQ9dqfwkxjIfAbrNd8ZrAl9173FkSJan4XLoJoHD67OQQPhuDG4PaAUHRGg5clBTPeRNNknYm0FXsgRBVrdstMBEI3A2gURWJq4gNAKggfS4u14OZcFNIXd19XxsslgkQsQaYcURsGrNpaZB2CJp3yYbCKMsMZmDUC0DUz8mO8MlsOGkG+enF6oeShsIVCS91ZigcAk5jiaTFZZmXgBg3URusmoRNQ3vkCmgHtnSMwsBktsAPdgPNRXzY46ED/omjlwKE0Gi1reNospJPtFXuWSMFgTCS2pY+A1B34UKgg5otGbdiEyywUoA4iIwGKOZoIHumX3IC53oLr2sQz6uTaaDBZzATI5nL6CFz/Wom97UlO+zYxI0YFkI3nNY7d9nKPT4E14vanFvOeSfMGksJ+WWCAQbJJz55RnZeJvKDBY9Rbb2Ax+d/R/BmspGayJRJyz69bvohAZVB+C6bnOgag20Rgs+yUiTXvykcHqadQ7Crdy8YMhjP4sWAbu2A9kufaTtAqATDpbdalImvpqBC7pWWHOZS4TMd7r9/Vwu44f35HFeOySRwpe3CChLa2YqR+0vNBG2pZenDjsM4Nlvwkn64CkwOxtsZeOsghXXd7CsyzAZSH15wghQllQYBygr/dx9O5I2mP3G/QkrshsBgtT4Zo2aaOvms5dt6FlQGRQzYMVnBwGi5x3Puc+DyhFLzXfox7/bDB6229DHR8/MEKOKL8KxBWAiAgsRpUgODyQeDtLzmWF42JK35yNPfJtbXzf+GTJBQg5V8d/7a2CFxNMimmn1UB7gAnQCjJz5CeCgDYETAhJv9BLtxLLYI20csEawyZNgX24qPjqz+w4kFq8yxApPbOqPXYx/CTWZzR+YOSzaY7fG/nn29p5+IHJoGoU12BaBKOvumWw2n1lsBb13pShtjV8/MAcg6OCKhAKIK1oADk36gwFNgksbfH/peT64mtxSkB2kCFo/FscDZMBcwEiunLxVsHLbGAw7bQan1JnrcMxN/H+TRJsQ6gxNUx3xTfQXPIF0zgms0BgMp/hPlyMBQXGAWobm8HvjmQp4OP4SczPbAYLIZ9Na3yb0DfdQz93rJomjiMcfH8HD64cBktcbQIzWJgArbTGUyMHfouDvmLxgzkGi1I/LvKqQNwAiJDA0mJMyJnuPcl3k58SQPZmxh5Xxd3oyuBA8OOHIekxwFsFL8P3BQcQhsBp62tYbdZ7Egqne/DEEjFYNUgLx6diLx2i009qgaBsEvePP2+3cNkZLJnOw44D1DZ2Rrg72q/SY3fW5SRmJoP1um8M1oN5o6JvB9DhvM4pfnuqlJ7LYRDIahe/IEymd0jREQFaaV1+GCnwQ02bhPiBcVJBspBy9wAiJLBwEUO3ZTmXYbZqqXvWHxbrqPbJahcgjdLbaI8VvMwiEowg1ALjVhKyJmxDkNE7fswRfImbjWCAxF46Rjuo+LsZuxCCwXK0iYSxFpToNxAOoBmsXQo9dgqGxHWZzWAh5LPux/WEAR8AacNMHZWJKjBY5RIGa07MYNml6Bj7oXsRwaJZIgIcPyz4gXJSiapAbACCMH5/JSSwGIOWYEHrlaUElBuLI8Ho7tgx3zbXO7ULEPJSjxxdSgUvIxfYjEhFnLLuAarzgzYE6Z79yvs5gm0IlAG6puahUAqBklkgEHooTh8uxoIC40CevIXRuTsSMFhtipFamc1grfSPwZpYoNV9e4DjBwO9CAbrr5IaTGNgqk1yICk6JkDL5fhHIscsbNzpPH4EVxTCQo4PZMvAHu6BTAlACIG1uc5h7nTkUzySqGFfFeRcGhxWsFV/LWaP+2RwWE3w49/d0jQRzxW89FKRHGXHJE970crnrMqqpgiyTe8873/P6zkCbQiEyd4ojn++KPbSITr9pBYIygJwW2POgQsByoIC4wC1jX0iFDwiUsBL5aVrFwVxDZk4inxisB4sPh8w4aMB2HQHl+VBa+ZDIYPVJt8p0kqAb7l3EaAUnTKhj709hc3TBsOBJqgydXmtqpDD2Gvv5ppiVABkBiCwwgGlfIrol/Kcy1zjX9p1BBnpP+rx2niMMFjaBUhcyt9pxN3rHip4qa+KvM0jmMdtY5aS2gLzP9Y06cL3kekrS8pg9eNJ03pVC52UwUKwSXAfLsaCAuMAtY1N4ndHAgbLG0Pi/zaD1TM/x9Ra79gFtX6uzYbWzIhaeq5zYKpNEpAU3RcGKwmjEaavcF8rNBPVxcpOqqioCoTuhXAAcnzUzj5ZL5LpK/JbyWIsTgkopNvrDmNKYuMfeak10q5oU/jxfUTWIeWHgpeegbWtuORvO26dtALK85G32Cy+HJzx8BgC2xByTQboqksvHUY7KLNA5Mn1UM4E0XKsBUXDATuDhWhKuxkH66scw5UhsTCzGSyEAVyJtrq/kJgbYEo147/4Gdgabdl1IzKoelQYrP1yBsshg6dMqDcM1u8W559XxZmZiOxdDc7EhoCykyo5PuBXgagCiEZgbeQQWIzCWpSrMolICaAETXDnEC1E7uvv9QhFyAZ35PsUgJDj7OiVJVbwUhmgthhL7OS3bXRGMXNMS036r+j70zd9448eMlh2G8JKRIGZ00PBsdC949oCQdkkbvjlCUcIUSXWggLjALWNXULf70l77I6jJ/FlYLB+kjaD9eBvDxcXEs/nGkesncyRJnjRtO26ERlUCSSDZVYC8KtNnoJSdESAFgZA37r+dGE+ORM5tnbqbbs3gRNRUOTiGBwFqkA2AACyGgMgM4CSlSGwcK6US5iUgNpl9J9X77e8KikUuXfy4y8+eZQOlBBRVUMKP8hOoPvOUit46T60mYgOZGv+iPVNTG6qil9hn6d9DztJsdnpqU/PpplxAtsQikyactqllw7DvMosEBg2ydEmUooO/wFxgIpu/uX+fo8h4NoVDYkbXgIGSyyfnViYa+SPSM7AULwbHEMNnEXTvuum4rdu7u8ZsDNYJXwGi1gNhrg/KgeSomMCtD5MiCYiNRPwRHRX7WvnTMQrFXwhx1ifYIzZD/KFPAAR/pjkkBBYDLrH+D9k0M5ghfnkjrk4wtM1GhsUPe74sERk86PZIRUX/t1+KHizApUVRaUtqXZaAmGDkrmPW4/Vqc+wsMDyRFs7nN+u0bGY7AdLPqk9fAaL/yGLvXS0029M8XfbGKy94p8xBvbh0nUs9l/2ri00jusMa3e1F+9ttPeVtNqVdnUJ0mJYgx+Ern4VAglsJPCLkEEGYb3YYPBjKVaTBrcPCfSSJpQ0TtuXhra4lJJCKMQxhQZjQ2ISLa4rW7Vqx8ZtYz9394y0MzuXc/5zZmbprv7vVdq5/OfM/5//+2+Mb0ZrB5SysT3qVgF0AVfScPYEhdh2iAEKwL/dFkHv5vqwidL0Rzxm5Zt06Lrn6qEM56VDF8gDNNC6dk9EENXxuRkzQfhzWUopEpc8Il1mBgQCcwJL5RExwewSEPU23WZyaVFAoOaFgddJHng9BWsCeC14Bu/l73iTCd/lK4F0fQBhLBqNxWLZGlKpVKkU9qSvXPYlDyfdfvnlsWMnN6DvU9H0pZXczXukb2V6225oyxAITTlcZf/QvJZO6cLOeW8tgwVYu1mtIlBoVqZe8msYLG+DwaID0AVcYbDgQvS2twMCSJ99zK82y8sr5jrT7/dljZTdcfZ1KWMw1QyWf5l9KV0qOqCB1ktuQdybpZjRmtKPmyRy+Mugy89Rgr9yDGQf9pwUAku27lOgZWd3CciENCKYWbo4vc8n1Id0dmOj3oMXuj7wDN7EfyD4bs3MXM6faDiRnAZEzgvRWpCalDYWd+20H7oyBKkRMWPAtJZOTtKeFri3hsHyd7OvsaRVBBL4uKS1A5lG2wCO0xFljh3EFp1hkmFtAyXwZcpgveLZmd2zm0tTFJVZ/0olw8xbOQWPvvX6mAyWy99wJODHoHwXrIFWmUMQuxPLx9fn+6mSyGXN6iBlZ5zp2/RRsk8TfqApNSCwSrqQcF+V054lzfoeuPVyGJ5a2SrbYEDukzYmf68ZkB8CL8eVwRtLhYNSOlBzNRI1X6OGgreOZA2Jy1eKUjBzsJ5yOSBIZJrz6IE2kYyEdGZutdsuA7Kp9SMI+dLPvn7ZtJauBN1vm+YB5KAf5n3fm9QqAvL8rwHkszuvUd4e4D2n2QxW2A9zwsrsdK62YbDc7AJw0gix2wy9E+Xp2fHV5a2zK2tT82N+JnwGWpP0v/Yv9HZTsTyl7Z5rcH6XU+g3KvRLza75jRgsegMtMg+xanbJSm95erEuic25hdMzk/1MQRgYUuUjGt5ivEENq2doM81kAzJ/kX2d7mlNbWPAoCxuaprvKkWqz+s3siLrC0tzG5tbq7OLZbOHrlKjpCSEPnuMFIHMAt57fMr2DF51uvL5xW4Aes/26Z/AEzIW0uTM+sqF5fHZxemJSrcwynPDWhZJThybn6X/sLI5b0q+yC89xtpvBvfWZPT4J1cZz39uRqcIYM+v+WaIHYiD7tl7oY/NYMm2aPhcRViInchg3a5qEyeswGt4yHPzX8iEwcoIPBMJ5CkNtH5OrWS8YJMg3PksJS2OHz7DUIoQki6z3FuO1zMng9Ju4SeT+zn+hBpCXzumAt/ejNr0VWWEX7BRlh2O+FuFsFL7yIcRA+0pcm8NWyqkCESeX7YDRYEfBvjORjS0OYOVYBeAv9KW/lhAJG3YdzImcCnj43tXUOBSo12wBlq6eYgWkDP1XNNiF5SM+2kIIFQyCGzygtZPSgqJPto6NcHzXeIqn1LZj1Nc720bmZAV3haKD5TNtch+FJqbBHAgY1l7FgwLaEQ2vsjzy3ZA5J7G8b3DiTdcKLW1/YCMcH2hjRgIY2DQ5IiXEtByUfvO78EuUAOtj3Q5HOJnfEr7tIDQFfU5aZLowxWNAlS8SFNP6D1iT9ZPmOpPqSH0C2oDcsLKe1tAj6js1f55MdQSAzIi6q96DVJYLfkwBymUQopAyN9OCd4zSe1AwO8EtS8ABeAygzVmfaOGhsxZDX4d5TMzifxfncJgkQZav6EyWGftoPEkAIFu+cQvegxOuqx/FjQGi2TzirlHpE7MtNBYDqHPqwzISbt8JrFSdKvHokyyZQyWiPoftM7bhQ2DCCKKQMR8JUXvaXbUEKA/Ah3AYNELwF8atAsScVYDWZYhEz6qNYGfDB3pgjXQmrCFwXLnPJBFsYHR84rpMJ1PnbIvQqX61gQO6ZPd1P5gt1STQPgZLOs9eG0IgmjFFi84bj8OjsDRAe6NXDJK6LR4/O4RVQT8z9/wkrnvaX464r9Uqv0ZrHnnGaya0qTP3HJFLG89YXVH1hDQQOsrXaWDSBBokL1jRKKRXpcdptTkdCXAL7MnHLji3AZOrpM2c0AePDzIyz0pFEL32PplCSp+XWq6K+10MD0u6mf6rJ+/49bD0D3ifnIkKnjPvHl0z75LtQ+DNUdlsK5Vtb0j+ZUbQGlyEv9uyufOq+6GDj94RgMtwmBtWLOjEmh2pcDh3IgUS4losaTLDlItB3lNV5rPhMjFPTeoEZByPZNYxAEZtffLEgtkRQxS06NFr5P2o7HevNzvgD7lgJdx69HvNVdBVBHwc9dpwXtGzNWZi3OtBto7hK6qvP8blcG6KK4zE0VQbkuMaxHdtCBCZoDffigNtF7A5yFybru8FAMui8TtRBkXVZb4T6/JmB02OQfNhw2Pwhdrid7G5FePGq7yCf4Qui9q86clEgUpmKiT4OiAY/YjJhjqGjDo4ORxW99rfO6AWhHwuiBFwXtGaAotziWCSHu3wVL1jpygM1inBV0PuM7sinEwqCE63VDiOQmNKNkfF6kM1scWGKxQMsCVIhos+G2xp5kBmzR/keu78GlPlq6SKTKBJOjo2C93ltq5Se0TftAi6RRvCH3IZfvHxe+DeCknW8nniA1JqNc7HrKqRcM8B/CEsW7wREQVAc/z+91pwXsWSrZ9upH2LkJXTz8xbR/4lq53JGxle/LFYIzvadLQ9Q+xCHYX/DASUEIwY4TB+jWVwTrO73gkRuIZbvUU4znzU+xpmE/t5E0fNFwQth+ZYs668hsmk4K290zHnL6zrU5xOHGSi8FyJBWGNzHES4/iu8JFn90hdc15AZ5dbab6OPZtwszny4KTSLSKgCM7XOOzw+9ZYNHx8PqdQpvzV2oG62Mqg3UJrsu8Sd9QUcoIHegykLPogK8ISFzw9ACOzKHEYFgV/mMwWBU+BivSk8sPpoPCqT1pL+zQP5Ar0vahyzMKPF25kyM0xy6bL0Cv0rT4QTuCwP0L8lTHRz+mD2xQJQvWTAhwyyYCDhEJmUACfCb25uOQ81ZKCuQTXrct1qNnSJfZEh2CrFYhHzff1nHQ0xncW32whTgyRooA9vz1b0ZnAANe2JsDVqnotSrEdmKwZgAMlrp9TC6gRzEdj0ueYDgTs/hErpIUoKIYhpomVyZOv1QgGG3OV9qiTvXVz0McNJaE5KlJImUDJRINpwMsgOQRLgbY8LDXLuspcl/FY0Mx3PD5gxave7+nD5Jq6i3pz8UBr10Mupz8xFzBAARxvmROVyoc9EjxdDEgDikruMjpkuV9KzFVZyyYFtz47E1q9lPmPeGrxBRBuu2djwZLe5zKYH1Qb7NY6ZzekSYfJGGw6g2dq7etzkNE2Gs/+tYvHnba3vkZYzhtc5FnBsWPQDgIZYTrV1QGS91+2duJgiCFF+v0qb4V7TzENG4gJuR0sjMLYpg7e2m1ohoj9YAxlLcyzJ1JjEAgBFESYbAGO1ESpK/GOSqD9bluHmIWdxDTk68Hzyftmaa38x5lyvcb+9ohQ343OiAIhOMM1gaVwfoFaR/Y8QxWXc8N14mSe4+pDNYKMlhcKCrlfxbx8AllDvrV63uNGkIloQzFj0A4zmCR6riPwAMwejqWwVoDMFjseYgINaDDphl49OyNqzTc/xcZUteUIRdCBxGBcJzBgoxwnToSDNYylcG6o6pSkxmSGO4gFjKNHSaOveffvP3gKh1PyX8uNEXQB1H8CISTGGzwC/+FD8AodaAgZAarysdgYYiWDVLOSYYEP/2lAD78/jvv373Kxmfb+lqlQhTFj0C0hl/4M3gARucyWOfpDFa9SH0fGSz+HSaPWLl51Tm8SXpgLY41GRBcHgSiRfxCGT4AI9CJkiDdF1apDNbXWgYrhAwWE8qIlX87aD/+QipAuvuaC51R+ghEi/gF0/aBfyIpvuoPM9WBgoiG2AzWP7RZoshgAXcYGRJ8yzn78VMyBETb7TOI0kcgWsMv7H8AHoCR7ERBkBkwC2wGa3dSJQkJNxATjREru3cdsx9/IAm82h6XPhQ+AtEifoFjAEaxYxms8fqrfk1lsMbVDBbGaGE77DR1hIdl/E62H6v9ze0RUyh9BKJF/IIpg/VH3QCMjmWwJknT+u9RGawFPOJyQRmx8plT9uMGiZ9vLzcH0DGCjkC0gl+QM2TeAg/AOKoM1mPSZhEZLP4dRkasPHrgkP24tSsn8PZrhpqg7BGI/0MGqyPbB+bYDNYrQpOo5wkgg8VE0GkG6/4/5VJD7ZT6HlwcBKIV/MIlKoOlH4DRid0hYoTB2mczWOeRweKCMmLlE0fsx293ZPuxoh0WhAEQBKIV/ALJkKleO9oDMOL1N1uqv+q3dAZL3SrcgxuIBWXEiiMM1l25fcn27nnt/BBcGwSidfzCiyM+AIMwWLNsBmtZfch14Q4C7TAyYuWZA/bjr3L1x3b1tNZ+jKDoEYjW8QsvqQMwOp/Bqk886iPTiOgM1hpGabmgjFj50Hbz8e7zg06L07oR9Qm07QhE6/iFoz7ClTBYK1QG6zYpUkcGS5TBum+z+fjRF3Ly7va9ude09qOATdwRiBbyCxwMVkdm1yfqb7ZYf9U7YAYrgqdcJpQRK/YyWDef7Bw2eh/v081PH8AphAiE8xhlj3C9oxvh2ontA7MABotM9V1HBosLyoiV92w0H68/e3RoPiprOvPhj4RR8AhEC/kFBoPV8QMw0lAGaww79XHtsMaIlT27GKz3P3m6o8yZ2hzW248C+h8IREv5haM+wlVhsD43E8TL+l/PIYPFv8PIiJUvbLAdD17/5vmeakphdWtGbz78XiwAQSBayy8c8QEYhMGa52SwRnEDMaGMWHlb2Gpcf/MHNz598r/27qCniSAKAHCA0iW0hFJKS5CCBe2BQ+9EVM7ExIMGzuVgYuTC79WzMTH+ByOaSpO6u7Ppbpvx+/7BTt7s7Lw3++br9x+fv01dcntxfT5j+Uha6udQbX4hQ/QXYJz8erLX2QNRk8EK8veKlXn7cvcimWnXDV9QXX5hnD1Zp65wjbJ9YGeSwUp3/zjTLoAybU9ypPN18fbZ7OUjqWuABdUY5lxAXsV+AcZOMvkNPd3j/50HAijTUc4IC1C7Gb07T/5lqC4FFXno3nFZy5yz49jbB54+PNoo+8P3cb9wR0XnF2E501ZvPn24TFL0XQAC1SZukoO7s1T3UyddosxgNX8/21X6QJxN5U1ksPJH2O1ZcTe3H0fXV+P3Lw/OnyTp6o5fQXXWk2BxXoCxFj4QmvWVFGGFHWssA1XaCp+lcV6A0S7wvpLBKifCClp9rnoOlWqEz9M4v/K64QOxLnzKibBiOn4+h4oNwzNYcR5y2W/IYC1JhBXLXnUNNVTtdDV0psZ6dHUQnDE5FT6lRFgBra7sFSxAPfS1Gesxl71VtaCliLDwPfFQMQoWoxk4Wze86P70UbQBKSfCQksfNh+wOGE56pOIcy3HQTl360c5ERa2ig9VzmGhtvv5J2zUlcqdgD2IfuEB2v1SFo/DjU1dS2DR9jp56x+xt4no5j2KpV942OauNd+1o9EZbFvBYTmsbOxm/+7VGqzF3yW7d9TKrKX3D0/kTcqIsMzvl631zm59+LTdtPGA5bK/me6/+eRe6aUPhLdXSRGWrrenVg4AAAAAAAAAAAAAAAAAAAAAAAAAAAAAAAAAAAAAAAAAAAAAAAAAAAAAAAAAAAAAAAAAAAAAAAAAAAAAAAAAAAAAAAAAAAAAAAAAAAAAAAAAAAAAAAAAAAAAAAAAAAAAAAAAAAAAAAAAAAAAAAAAAAAAAAAAAAAAAAAAAAAAAAAAAAAAAAAAAAAAAAAAAAAAAAAAAAAAAAAAAAAAAAAAAAAAAAAAAAAAAAAAAAAAAAAAAAAAAAAAAAAAAAAAAAAAAAAAAAAAAAAAAAAAAAAAAAAAAAAAAAAAAAAAAAAAAAAAAAAAAAAAAAAAAAAAAAAAAIF+AlA1H4CuhgQ9AAAAAElFTkSuQmCC;" vertex="1" parent="1">
          <mxGeometry x="190" y="308.53" width="120" height="84.82" as="geometry" />
        </mxCell>
        <mxCell id="YS14sISvhILDECjVXfzp-21" value="" style="image;html=1;image=img/lib/clip_art/computers/Database_128x128.png;fontSize=15;fontColor=#0066CC;" vertex="1" parent="1">
          <mxGeometry x="225" y="393.35" width="45" height="26.65" as="geometry" />
        </mxCell>
      </root>
    </mxGraphModel>
  </diagram>
</mxfile>
